%TF.GenerationSoftware,KiCad,Pcbnew,(5.1.6)-1*%
%TF.CreationDate,2020-11-04T18:23:40+01:00*%
%TF.ProjectId,rps_ki,7270735f-6b69-42e6-9b69-6361645f7063,rev?*%
%TF.SameCoordinates,Original*%
%TF.FileFunction,Soldermask,Bot*%
%TF.FilePolarity,Negative*%
%FSLAX46Y46*%
G04 Gerber Fmt 4.6, Leading zero omitted, Abs format (unit mm)*
G04 Created by KiCad (PCBNEW (5.1.6)-1) date 2020-11-04 18:23:40*
%MOMM*%
%LPD*%
G01*
G04 APERTURE LIST*
%TA.AperFunction,Profile*%
%ADD10C,0.050000*%
%TD*%
%ADD11O,1.800000X1.800000*%
%ADD12R,1.800000X1.800000*%
%ADD13C,1.800000*%
%ADD14R,3.600000X3.600000*%
%ADD15R,7.275000X4.200000*%
%ADD16R,7.975000X2.100000*%
%ADD17C,3.910000*%
%ADD18C,1.100000*%
%ADD19C,1.700000*%
%ADD20R,1.700000X1.700000*%
%ADD21C,1.300000*%
%ADD22R,1.300000X1.300000*%
%ADD23C,2.100000*%
G04 APERTURE END LIST*
D10*
X109485600Y-91656800D02*
X35485600Y-91656800D01*
X109485600Y-91656800D02*
X109485600Y-91656800D01*
X35485600Y-30656800D02*
X109485600Y-30656800D01*
X109485600Y-30656800D02*
X109485600Y-91656800D01*
X35485600Y-91656800D02*
X35485600Y-30656800D01*
D11*
%TO.C,J5*%
X73304400Y-86004400D03*
X75844400Y-86004400D03*
X78384400Y-86004400D03*
X80924400Y-86004400D03*
X83464400Y-86004400D03*
D12*
X86004400Y-86004400D03*
%TD*%
D13*
%TO.C,J4*%
X101803200Y-78841600D03*
D12*
X104343200Y-78841600D03*
D11*
X101803200Y-76301600D03*
X104343200Y-76301600D03*
X101803200Y-73761600D03*
X104343200Y-73761600D03*
X101803200Y-71221600D03*
X104343200Y-71221600D03*
%TD*%
%TO.C,J1*%
G36*
G01*
X41941600Y-43242800D02*
X41941600Y-41442800D01*
G75*
G02*
X42841600Y-40542800I900000J0D01*
G01*
X44641600Y-40542800D01*
G75*
G02*
X45541600Y-41442800I0J-900000D01*
G01*
X45541600Y-43242800D01*
G75*
G02*
X44641600Y-44142800I-900000J0D01*
G01*
X42841600Y-44142800D01*
G75*
G02*
X41941600Y-43242800I0J900000D01*
G01*
G37*
G36*
G01*
X39191600Y-38667800D02*
X39191600Y-36617800D01*
G75*
G02*
X39966600Y-35842800I775000J0D01*
G01*
X41516600Y-35842800D01*
G75*
G02*
X42291600Y-36617800I0J-775000D01*
G01*
X42291600Y-38667800D01*
G75*
G02*
X41516600Y-39442800I-775000J0D01*
G01*
X39966600Y-39442800D01*
G75*
G02*
X39191600Y-38667800I0J775000D01*
G01*
G37*
D14*
X46741600Y-37642800D03*
%TD*%
D15*
%TO.C,Y2*%
X61823600Y-76504800D03*
X50748600Y-76504800D03*
%TD*%
D16*
%TO.C,Y1*%
X61823600Y-70154800D03*
X49948600Y-70154800D03*
%TD*%
D17*
%TO.C,SW1*%
X54203600Y-42214800D03*
X54203600Y-37514800D03*
X54203600Y-46914800D03*
%TD*%
D18*
%TO.C,J7*%
X94300800Y-36399600D03*
X102700800Y-36399600D03*
%TD*%
D11*
%TO.C,J6*%
X83947000Y-61569600D03*
X81407000Y-61569600D03*
X78867000Y-61569600D03*
X76327000Y-61569600D03*
X73787000Y-61569600D03*
D12*
X71247000Y-61569600D03*
%TD*%
D11*
%TO.C,J3*%
X63398400Y-86004400D03*
X65938400Y-86004400D03*
D12*
X68478400Y-86004400D03*
%TD*%
D19*
%TO.C,C2*%
X55473600Y-56144800D03*
D20*
X55473600Y-53644800D03*
%TD*%
D21*
%TO.C,C1*%
X61823600Y-40714800D03*
D22*
X61823600Y-42214800D03*
%TD*%
%TO.C,U1*%
G36*
G01*
X75653600Y-79094800D02*
X75653600Y-77644800D01*
G75*
G02*
X75753600Y-77544800I100000J0D01*
G01*
X75953600Y-77544800D01*
G75*
G02*
X76053600Y-77644800I0J-100000D01*
G01*
X76053600Y-79094800D01*
G75*
G02*
X75953600Y-79194800I-100000J0D01*
G01*
X75753600Y-79194800D01*
G75*
G02*
X75653600Y-79094800I0J100000D01*
G01*
G37*
G36*
G01*
X76153600Y-79094800D02*
X76153600Y-77644800D01*
G75*
G02*
X76253600Y-77544800I100000J0D01*
G01*
X76453600Y-77544800D01*
G75*
G02*
X76553600Y-77644800I0J-100000D01*
G01*
X76553600Y-79094800D01*
G75*
G02*
X76453600Y-79194800I-100000J0D01*
G01*
X76253600Y-79194800D01*
G75*
G02*
X76153600Y-79094800I0J100000D01*
G01*
G37*
G36*
G01*
X76653600Y-79094800D02*
X76653600Y-77644800D01*
G75*
G02*
X76753600Y-77544800I100000J0D01*
G01*
X76953600Y-77544800D01*
G75*
G02*
X77053600Y-77644800I0J-100000D01*
G01*
X77053600Y-79094800D01*
G75*
G02*
X76953600Y-79194800I-100000J0D01*
G01*
X76753600Y-79194800D01*
G75*
G02*
X76653600Y-79094800I0J100000D01*
G01*
G37*
G36*
G01*
X77153600Y-79094800D02*
X77153600Y-77644800D01*
G75*
G02*
X77253600Y-77544800I100000J0D01*
G01*
X77453600Y-77544800D01*
G75*
G02*
X77553600Y-77644800I0J-100000D01*
G01*
X77553600Y-79094800D01*
G75*
G02*
X77453600Y-79194800I-100000J0D01*
G01*
X77253600Y-79194800D01*
G75*
G02*
X77153600Y-79094800I0J100000D01*
G01*
G37*
G36*
G01*
X77653600Y-79094800D02*
X77653600Y-77644800D01*
G75*
G02*
X77753600Y-77544800I100000J0D01*
G01*
X77953600Y-77544800D01*
G75*
G02*
X78053600Y-77644800I0J-100000D01*
G01*
X78053600Y-79094800D01*
G75*
G02*
X77953600Y-79194800I-100000J0D01*
G01*
X77753600Y-79194800D01*
G75*
G02*
X77653600Y-79094800I0J100000D01*
G01*
G37*
G36*
G01*
X78153600Y-79094800D02*
X78153600Y-77644800D01*
G75*
G02*
X78253600Y-77544800I100000J0D01*
G01*
X78453600Y-77544800D01*
G75*
G02*
X78553600Y-77644800I0J-100000D01*
G01*
X78553600Y-79094800D01*
G75*
G02*
X78453600Y-79194800I-100000J0D01*
G01*
X78253600Y-79194800D01*
G75*
G02*
X78153600Y-79094800I0J100000D01*
G01*
G37*
G36*
G01*
X78653600Y-79094800D02*
X78653600Y-77644800D01*
G75*
G02*
X78753600Y-77544800I100000J0D01*
G01*
X78953600Y-77544800D01*
G75*
G02*
X79053600Y-77644800I0J-100000D01*
G01*
X79053600Y-79094800D01*
G75*
G02*
X78953600Y-79194800I-100000J0D01*
G01*
X78753600Y-79194800D01*
G75*
G02*
X78653600Y-79094800I0J100000D01*
G01*
G37*
G36*
G01*
X79153600Y-79094800D02*
X79153600Y-77644800D01*
G75*
G02*
X79253600Y-77544800I100000J0D01*
G01*
X79453600Y-77544800D01*
G75*
G02*
X79553600Y-77644800I0J-100000D01*
G01*
X79553600Y-79094800D01*
G75*
G02*
X79453600Y-79194800I-100000J0D01*
G01*
X79253600Y-79194800D01*
G75*
G02*
X79153600Y-79094800I0J100000D01*
G01*
G37*
G36*
G01*
X79653600Y-79094800D02*
X79653600Y-77644800D01*
G75*
G02*
X79753600Y-77544800I100000J0D01*
G01*
X79953600Y-77544800D01*
G75*
G02*
X80053600Y-77644800I0J-100000D01*
G01*
X80053600Y-79094800D01*
G75*
G02*
X79953600Y-79194800I-100000J0D01*
G01*
X79753600Y-79194800D01*
G75*
G02*
X79653600Y-79094800I0J100000D01*
G01*
G37*
G36*
G01*
X80153600Y-79094800D02*
X80153600Y-77644800D01*
G75*
G02*
X80253600Y-77544800I100000J0D01*
G01*
X80453600Y-77544800D01*
G75*
G02*
X80553600Y-77644800I0J-100000D01*
G01*
X80553600Y-79094800D01*
G75*
G02*
X80453600Y-79194800I-100000J0D01*
G01*
X80253600Y-79194800D01*
G75*
G02*
X80153600Y-79094800I0J100000D01*
G01*
G37*
G36*
G01*
X80653600Y-79094800D02*
X80653600Y-77644800D01*
G75*
G02*
X80753600Y-77544800I100000J0D01*
G01*
X80953600Y-77544800D01*
G75*
G02*
X81053600Y-77644800I0J-100000D01*
G01*
X81053600Y-79094800D01*
G75*
G02*
X80953600Y-79194800I-100000J0D01*
G01*
X80753600Y-79194800D01*
G75*
G02*
X80653600Y-79094800I0J100000D01*
G01*
G37*
G36*
G01*
X81153600Y-79094800D02*
X81153600Y-77644800D01*
G75*
G02*
X81253600Y-77544800I100000J0D01*
G01*
X81453600Y-77544800D01*
G75*
G02*
X81553600Y-77644800I0J-100000D01*
G01*
X81553600Y-79094800D01*
G75*
G02*
X81453600Y-79194800I-100000J0D01*
G01*
X81253600Y-79194800D01*
G75*
G02*
X81153600Y-79094800I0J100000D01*
G01*
G37*
G36*
G01*
X81653600Y-79094800D02*
X81653600Y-77644800D01*
G75*
G02*
X81753600Y-77544800I100000J0D01*
G01*
X81953600Y-77544800D01*
G75*
G02*
X82053600Y-77644800I0J-100000D01*
G01*
X82053600Y-79094800D01*
G75*
G02*
X81953600Y-79194800I-100000J0D01*
G01*
X81753600Y-79194800D01*
G75*
G02*
X81653600Y-79094800I0J100000D01*
G01*
G37*
G36*
G01*
X82153600Y-79094800D02*
X82153600Y-77644800D01*
G75*
G02*
X82253600Y-77544800I100000J0D01*
G01*
X82453600Y-77544800D01*
G75*
G02*
X82553600Y-77644800I0J-100000D01*
G01*
X82553600Y-79094800D01*
G75*
G02*
X82453600Y-79194800I-100000J0D01*
G01*
X82253600Y-79194800D01*
G75*
G02*
X82153600Y-79094800I0J100000D01*
G01*
G37*
G36*
G01*
X82653600Y-79094800D02*
X82653600Y-77644800D01*
G75*
G02*
X82753600Y-77544800I100000J0D01*
G01*
X82953600Y-77544800D01*
G75*
G02*
X83053600Y-77644800I0J-100000D01*
G01*
X83053600Y-79094800D01*
G75*
G02*
X82953600Y-79194800I-100000J0D01*
G01*
X82753600Y-79194800D01*
G75*
G02*
X82653600Y-79094800I0J100000D01*
G01*
G37*
G36*
G01*
X83153600Y-79094800D02*
X83153600Y-77644800D01*
G75*
G02*
X83253600Y-77544800I100000J0D01*
G01*
X83453600Y-77544800D01*
G75*
G02*
X83553600Y-77644800I0J-100000D01*
G01*
X83553600Y-79094800D01*
G75*
G02*
X83453600Y-79194800I-100000J0D01*
G01*
X83253600Y-79194800D01*
G75*
G02*
X83153600Y-79094800I0J100000D01*
G01*
G37*
G36*
G01*
X84453600Y-76544800D02*
X84453600Y-76344800D01*
G75*
G02*
X84553600Y-76244800I100000J0D01*
G01*
X86003600Y-76244800D01*
G75*
G02*
X86103600Y-76344800I0J-100000D01*
G01*
X86103600Y-76544800D01*
G75*
G02*
X86003600Y-76644800I-100000J0D01*
G01*
X84553600Y-76644800D01*
G75*
G02*
X84453600Y-76544800I0J100000D01*
G01*
G37*
G36*
G01*
X84453600Y-76044800D02*
X84453600Y-75844800D01*
G75*
G02*
X84553600Y-75744800I100000J0D01*
G01*
X86003600Y-75744800D01*
G75*
G02*
X86103600Y-75844800I0J-100000D01*
G01*
X86103600Y-76044800D01*
G75*
G02*
X86003600Y-76144800I-100000J0D01*
G01*
X84553600Y-76144800D01*
G75*
G02*
X84453600Y-76044800I0J100000D01*
G01*
G37*
G36*
G01*
X84453600Y-75544800D02*
X84453600Y-75344800D01*
G75*
G02*
X84553600Y-75244800I100000J0D01*
G01*
X86003600Y-75244800D01*
G75*
G02*
X86103600Y-75344800I0J-100000D01*
G01*
X86103600Y-75544800D01*
G75*
G02*
X86003600Y-75644800I-100000J0D01*
G01*
X84553600Y-75644800D01*
G75*
G02*
X84453600Y-75544800I0J100000D01*
G01*
G37*
G36*
G01*
X84453600Y-75044800D02*
X84453600Y-74844800D01*
G75*
G02*
X84553600Y-74744800I100000J0D01*
G01*
X86003600Y-74744800D01*
G75*
G02*
X86103600Y-74844800I0J-100000D01*
G01*
X86103600Y-75044800D01*
G75*
G02*
X86003600Y-75144800I-100000J0D01*
G01*
X84553600Y-75144800D01*
G75*
G02*
X84453600Y-75044800I0J100000D01*
G01*
G37*
G36*
G01*
X84453600Y-74544800D02*
X84453600Y-74344800D01*
G75*
G02*
X84553600Y-74244800I100000J0D01*
G01*
X86003600Y-74244800D01*
G75*
G02*
X86103600Y-74344800I0J-100000D01*
G01*
X86103600Y-74544800D01*
G75*
G02*
X86003600Y-74644800I-100000J0D01*
G01*
X84553600Y-74644800D01*
G75*
G02*
X84453600Y-74544800I0J100000D01*
G01*
G37*
G36*
G01*
X84453600Y-74044800D02*
X84453600Y-73844800D01*
G75*
G02*
X84553600Y-73744800I100000J0D01*
G01*
X86003600Y-73744800D01*
G75*
G02*
X86103600Y-73844800I0J-100000D01*
G01*
X86103600Y-74044800D01*
G75*
G02*
X86003600Y-74144800I-100000J0D01*
G01*
X84553600Y-74144800D01*
G75*
G02*
X84453600Y-74044800I0J100000D01*
G01*
G37*
G36*
G01*
X84453600Y-73544800D02*
X84453600Y-73344800D01*
G75*
G02*
X84553600Y-73244800I100000J0D01*
G01*
X86003600Y-73244800D01*
G75*
G02*
X86103600Y-73344800I0J-100000D01*
G01*
X86103600Y-73544800D01*
G75*
G02*
X86003600Y-73644800I-100000J0D01*
G01*
X84553600Y-73644800D01*
G75*
G02*
X84453600Y-73544800I0J100000D01*
G01*
G37*
G36*
G01*
X84453600Y-73044800D02*
X84453600Y-72844800D01*
G75*
G02*
X84553600Y-72744800I100000J0D01*
G01*
X86003600Y-72744800D01*
G75*
G02*
X86103600Y-72844800I0J-100000D01*
G01*
X86103600Y-73044800D01*
G75*
G02*
X86003600Y-73144800I-100000J0D01*
G01*
X84553600Y-73144800D01*
G75*
G02*
X84453600Y-73044800I0J100000D01*
G01*
G37*
G36*
G01*
X84453600Y-72544800D02*
X84453600Y-72344800D01*
G75*
G02*
X84553600Y-72244800I100000J0D01*
G01*
X86003600Y-72244800D01*
G75*
G02*
X86103600Y-72344800I0J-100000D01*
G01*
X86103600Y-72544800D01*
G75*
G02*
X86003600Y-72644800I-100000J0D01*
G01*
X84553600Y-72644800D01*
G75*
G02*
X84453600Y-72544800I0J100000D01*
G01*
G37*
G36*
G01*
X84453600Y-72044800D02*
X84453600Y-71844800D01*
G75*
G02*
X84553600Y-71744800I100000J0D01*
G01*
X86003600Y-71744800D01*
G75*
G02*
X86103600Y-71844800I0J-100000D01*
G01*
X86103600Y-72044800D01*
G75*
G02*
X86003600Y-72144800I-100000J0D01*
G01*
X84553600Y-72144800D01*
G75*
G02*
X84453600Y-72044800I0J100000D01*
G01*
G37*
G36*
G01*
X84453600Y-71544800D02*
X84453600Y-71344800D01*
G75*
G02*
X84553600Y-71244800I100000J0D01*
G01*
X86003600Y-71244800D01*
G75*
G02*
X86103600Y-71344800I0J-100000D01*
G01*
X86103600Y-71544800D01*
G75*
G02*
X86003600Y-71644800I-100000J0D01*
G01*
X84553600Y-71644800D01*
G75*
G02*
X84453600Y-71544800I0J100000D01*
G01*
G37*
G36*
G01*
X84453600Y-71044800D02*
X84453600Y-70844800D01*
G75*
G02*
X84553600Y-70744800I100000J0D01*
G01*
X86003600Y-70744800D01*
G75*
G02*
X86103600Y-70844800I0J-100000D01*
G01*
X86103600Y-71044800D01*
G75*
G02*
X86003600Y-71144800I-100000J0D01*
G01*
X84553600Y-71144800D01*
G75*
G02*
X84453600Y-71044800I0J100000D01*
G01*
G37*
G36*
G01*
X84453600Y-70544800D02*
X84453600Y-70344800D01*
G75*
G02*
X84553600Y-70244800I100000J0D01*
G01*
X86003600Y-70244800D01*
G75*
G02*
X86103600Y-70344800I0J-100000D01*
G01*
X86103600Y-70544800D01*
G75*
G02*
X86003600Y-70644800I-100000J0D01*
G01*
X84553600Y-70644800D01*
G75*
G02*
X84453600Y-70544800I0J100000D01*
G01*
G37*
G36*
G01*
X84453600Y-70044800D02*
X84453600Y-69844800D01*
G75*
G02*
X84553600Y-69744800I100000J0D01*
G01*
X86003600Y-69744800D01*
G75*
G02*
X86103600Y-69844800I0J-100000D01*
G01*
X86103600Y-70044800D01*
G75*
G02*
X86003600Y-70144800I-100000J0D01*
G01*
X84553600Y-70144800D01*
G75*
G02*
X84453600Y-70044800I0J100000D01*
G01*
G37*
G36*
G01*
X84453600Y-69544800D02*
X84453600Y-69344800D01*
G75*
G02*
X84553600Y-69244800I100000J0D01*
G01*
X86003600Y-69244800D01*
G75*
G02*
X86103600Y-69344800I0J-100000D01*
G01*
X86103600Y-69544800D01*
G75*
G02*
X86003600Y-69644800I-100000J0D01*
G01*
X84553600Y-69644800D01*
G75*
G02*
X84453600Y-69544800I0J100000D01*
G01*
G37*
G36*
G01*
X84453600Y-69044800D02*
X84453600Y-68844800D01*
G75*
G02*
X84553600Y-68744800I100000J0D01*
G01*
X86003600Y-68744800D01*
G75*
G02*
X86103600Y-68844800I0J-100000D01*
G01*
X86103600Y-69044800D01*
G75*
G02*
X86003600Y-69144800I-100000J0D01*
G01*
X84553600Y-69144800D01*
G75*
G02*
X84453600Y-69044800I0J100000D01*
G01*
G37*
G36*
G01*
X83153600Y-67744800D02*
X83153600Y-66294800D01*
G75*
G02*
X83253600Y-66194800I100000J0D01*
G01*
X83453600Y-66194800D01*
G75*
G02*
X83553600Y-66294800I0J-100000D01*
G01*
X83553600Y-67744800D01*
G75*
G02*
X83453600Y-67844800I-100000J0D01*
G01*
X83253600Y-67844800D01*
G75*
G02*
X83153600Y-67744800I0J100000D01*
G01*
G37*
G36*
G01*
X82653600Y-67744800D02*
X82653600Y-66294800D01*
G75*
G02*
X82753600Y-66194800I100000J0D01*
G01*
X82953600Y-66194800D01*
G75*
G02*
X83053600Y-66294800I0J-100000D01*
G01*
X83053600Y-67744800D01*
G75*
G02*
X82953600Y-67844800I-100000J0D01*
G01*
X82753600Y-67844800D01*
G75*
G02*
X82653600Y-67744800I0J100000D01*
G01*
G37*
G36*
G01*
X82153600Y-67744800D02*
X82153600Y-66294800D01*
G75*
G02*
X82253600Y-66194800I100000J0D01*
G01*
X82453600Y-66194800D01*
G75*
G02*
X82553600Y-66294800I0J-100000D01*
G01*
X82553600Y-67744800D01*
G75*
G02*
X82453600Y-67844800I-100000J0D01*
G01*
X82253600Y-67844800D01*
G75*
G02*
X82153600Y-67744800I0J100000D01*
G01*
G37*
G36*
G01*
X81653600Y-67744800D02*
X81653600Y-66294800D01*
G75*
G02*
X81753600Y-66194800I100000J0D01*
G01*
X81953600Y-66194800D01*
G75*
G02*
X82053600Y-66294800I0J-100000D01*
G01*
X82053600Y-67744800D01*
G75*
G02*
X81953600Y-67844800I-100000J0D01*
G01*
X81753600Y-67844800D01*
G75*
G02*
X81653600Y-67744800I0J100000D01*
G01*
G37*
G36*
G01*
X81153600Y-67744800D02*
X81153600Y-66294800D01*
G75*
G02*
X81253600Y-66194800I100000J0D01*
G01*
X81453600Y-66194800D01*
G75*
G02*
X81553600Y-66294800I0J-100000D01*
G01*
X81553600Y-67744800D01*
G75*
G02*
X81453600Y-67844800I-100000J0D01*
G01*
X81253600Y-67844800D01*
G75*
G02*
X81153600Y-67744800I0J100000D01*
G01*
G37*
G36*
G01*
X80653600Y-67744800D02*
X80653600Y-66294800D01*
G75*
G02*
X80753600Y-66194800I100000J0D01*
G01*
X80953600Y-66194800D01*
G75*
G02*
X81053600Y-66294800I0J-100000D01*
G01*
X81053600Y-67744800D01*
G75*
G02*
X80953600Y-67844800I-100000J0D01*
G01*
X80753600Y-67844800D01*
G75*
G02*
X80653600Y-67744800I0J100000D01*
G01*
G37*
G36*
G01*
X80153600Y-67744800D02*
X80153600Y-66294800D01*
G75*
G02*
X80253600Y-66194800I100000J0D01*
G01*
X80453600Y-66194800D01*
G75*
G02*
X80553600Y-66294800I0J-100000D01*
G01*
X80553600Y-67744800D01*
G75*
G02*
X80453600Y-67844800I-100000J0D01*
G01*
X80253600Y-67844800D01*
G75*
G02*
X80153600Y-67744800I0J100000D01*
G01*
G37*
G36*
G01*
X79653600Y-67744800D02*
X79653600Y-66294800D01*
G75*
G02*
X79753600Y-66194800I100000J0D01*
G01*
X79953600Y-66194800D01*
G75*
G02*
X80053600Y-66294800I0J-100000D01*
G01*
X80053600Y-67744800D01*
G75*
G02*
X79953600Y-67844800I-100000J0D01*
G01*
X79753600Y-67844800D01*
G75*
G02*
X79653600Y-67744800I0J100000D01*
G01*
G37*
G36*
G01*
X79153600Y-67744800D02*
X79153600Y-66294800D01*
G75*
G02*
X79253600Y-66194800I100000J0D01*
G01*
X79453600Y-66194800D01*
G75*
G02*
X79553600Y-66294800I0J-100000D01*
G01*
X79553600Y-67744800D01*
G75*
G02*
X79453600Y-67844800I-100000J0D01*
G01*
X79253600Y-67844800D01*
G75*
G02*
X79153600Y-67744800I0J100000D01*
G01*
G37*
G36*
G01*
X78653600Y-67744800D02*
X78653600Y-66294800D01*
G75*
G02*
X78753600Y-66194800I100000J0D01*
G01*
X78953600Y-66194800D01*
G75*
G02*
X79053600Y-66294800I0J-100000D01*
G01*
X79053600Y-67744800D01*
G75*
G02*
X78953600Y-67844800I-100000J0D01*
G01*
X78753600Y-67844800D01*
G75*
G02*
X78653600Y-67744800I0J100000D01*
G01*
G37*
G36*
G01*
X78153600Y-67744800D02*
X78153600Y-66294800D01*
G75*
G02*
X78253600Y-66194800I100000J0D01*
G01*
X78453600Y-66194800D01*
G75*
G02*
X78553600Y-66294800I0J-100000D01*
G01*
X78553600Y-67744800D01*
G75*
G02*
X78453600Y-67844800I-100000J0D01*
G01*
X78253600Y-67844800D01*
G75*
G02*
X78153600Y-67744800I0J100000D01*
G01*
G37*
G36*
G01*
X77653600Y-67744800D02*
X77653600Y-66294800D01*
G75*
G02*
X77753600Y-66194800I100000J0D01*
G01*
X77953600Y-66194800D01*
G75*
G02*
X78053600Y-66294800I0J-100000D01*
G01*
X78053600Y-67744800D01*
G75*
G02*
X77953600Y-67844800I-100000J0D01*
G01*
X77753600Y-67844800D01*
G75*
G02*
X77653600Y-67744800I0J100000D01*
G01*
G37*
G36*
G01*
X77153600Y-67744800D02*
X77153600Y-66294800D01*
G75*
G02*
X77253600Y-66194800I100000J0D01*
G01*
X77453600Y-66194800D01*
G75*
G02*
X77553600Y-66294800I0J-100000D01*
G01*
X77553600Y-67744800D01*
G75*
G02*
X77453600Y-67844800I-100000J0D01*
G01*
X77253600Y-67844800D01*
G75*
G02*
X77153600Y-67744800I0J100000D01*
G01*
G37*
G36*
G01*
X76653600Y-67744800D02*
X76653600Y-66294800D01*
G75*
G02*
X76753600Y-66194800I100000J0D01*
G01*
X76953600Y-66194800D01*
G75*
G02*
X77053600Y-66294800I0J-100000D01*
G01*
X77053600Y-67744800D01*
G75*
G02*
X76953600Y-67844800I-100000J0D01*
G01*
X76753600Y-67844800D01*
G75*
G02*
X76653600Y-67744800I0J100000D01*
G01*
G37*
G36*
G01*
X76153600Y-67744800D02*
X76153600Y-66294800D01*
G75*
G02*
X76253600Y-66194800I100000J0D01*
G01*
X76453600Y-66194800D01*
G75*
G02*
X76553600Y-66294800I0J-100000D01*
G01*
X76553600Y-67744800D01*
G75*
G02*
X76453600Y-67844800I-100000J0D01*
G01*
X76253600Y-67844800D01*
G75*
G02*
X76153600Y-67744800I0J100000D01*
G01*
G37*
G36*
G01*
X75653600Y-67744800D02*
X75653600Y-66294800D01*
G75*
G02*
X75753600Y-66194800I100000J0D01*
G01*
X75953600Y-66194800D01*
G75*
G02*
X76053600Y-66294800I0J-100000D01*
G01*
X76053600Y-67744800D01*
G75*
G02*
X75953600Y-67844800I-100000J0D01*
G01*
X75753600Y-67844800D01*
G75*
G02*
X75653600Y-67744800I0J100000D01*
G01*
G37*
G36*
G01*
X73103600Y-69044800D02*
X73103600Y-68844800D01*
G75*
G02*
X73203600Y-68744800I100000J0D01*
G01*
X74653600Y-68744800D01*
G75*
G02*
X74753600Y-68844800I0J-100000D01*
G01*
X74753600Y-69044800D01*
G75*
G02*
X74653600Y-69144800I-100000J0D01*
G01*
X73203600Y-69144800D01*
G75*
G02*
X73103600Y-69044800I0J100000D01*
G01*
G37*
G36*
G01*
X73103600Y-69544800D02*
X73103600Y-69344800D01*
G75*
G02*
X73203600Y-69244800I100000J0D01*
G01*
X74653600Y-69244800D01*
G75*
G02*
X74753600Y-69344800I0J-100000D01*
G01*
X74753600Y-69544800D01*
G75*
G02*
X74653600Y-69644800I-100000J0D01*
G01*
X73203600Y-69644800D01*
G75*
G02*
X73103600Y-69544800I0J100000D01*
G01*
G37*
G36*
G01*
X73103600Y-70044800D02*
X73103600Y-69844800D01*
G75*
G02*
X73203600Y-69744800I100000J0D01*
G01*
X74653600Y-69744800D01*
G75*
G02*
X74753600Y-69844800I0J-100000D01*
G01*
X74753600Y-70044800D01*
G75*
G02*
X74653600Y-70144800I-100000J0D01*
G01*
X73203600Y-70144800D01*
G75*
G02*
X73103600Y-70044800I0J100000D01*
G01*
G37*
G36*
G01*
X73103600Y-70544800D02*
X73103600Y-70344800D01*
G75*
G02*
X73203600Y-70244800I100000J0D01*
G01*
X74653600Y-70244800D01*
G75*
G02*
X74753600Y-70344800I0J-100000D01*
G01*
X74753600Y-70544800D01*
G75*
G02*
X74653600Y-70644800I-100000J0D01*
G01*
X73203600Y-70644800D01*
G75*
G02*
X73103600Y-70544800I0J100000D01*
G01*
G37*
G36*
G01*
X73103600Y-71044800D02*
X73103600Y-70844800D01*
G75*
G02*
X73203600Y-70744800I100000J0D01*
G01*
X74653600Y-70744800D01*
G75*
G02*
X74753600Y-70844800I0J-100000D01*
G01*
X74753600Y-71044800D01*
G75*
G02*
X74653600Y-71144800I-100000J0D01*
G01*
X73203600Y-71144800D01*
G75*
G02*
X73103600Y-71044800I0J100000D01*
G01*
G37*
G36*
G01*
X73103600Y-71544800D02*
X73103600Y-71344800D01*
G75*
G02*
X73203600Y-71244800I100000J0D01*
G01*
X74653600Y-71244800D01*
G75*
G02*
X74753600Y-71344800I0J-100000D01*
G01*
X74753600Y-71544800D01*
G75*
G02*
X74653600Y-71644800I-100000J0D01*
G01*
X73203600Y-71644800D01*
G75*
G02*
X73103600Y-71544800I0J100000D01*
G01*
G37*
G36*
G01*
X73103600Y-72044800D02*
X73103600Y-71844800D01*
G75*
G02*
X73203600Y-71744800I100000J0D01*
G01*
X74653600Y-71744800D01*
G75*
G02*
X74753600Y-71844800I0J-100000D01*
G01*
X74753600Y-72044800D01*
G75*
G02*
X74653600Y-72144800I-100000J0D01*
G01*
X73203600Y-72144800D01*
G75*
G02*
X73103600Y-72044800I0J100000D01*
G01*
G37*
G36*
G01*
X73103600Y-72544800D02*
X73103600Y-72344800D01*
G75*
G02*
X73203600Y-72244800I100000J0D01*
G01*
X74653600Y-72244800D01*
G75*
G02*
X74753600Y-72344800I0J-100000D01*
G01*
X74753600Y-72544800D01*
G75*
G02*
X74653600Y-72644800I-100000J0D01*
G01*
X73203600Y-72644800D01*
G75*
G02*
X73103600Y-72544800I0J100000D01*
G01*
G37*
G36*
G01*
X73103600Y-73044800D02*
X73103600Y-72844800D01*
G75*
G02*
X73203600Y-72744800I100000J0D01*
G01*
X74653600Y-72744800D01*
G75*
G02*
X74753600Y-72844800I0J-100000D01*
G01*
X74753600Y-73044800D01*
G75*
G02*
X74653600Y-73144800I-100000J0D01*
G01*
X73203600Y-73144800D01*
G75*
G02*
X73103600Y-73044800I0J100000D01*
G01*
G37*
G36*
G01*
X73103600Y-73544800D02*
X73103600Y-73344800D01*
G75*
G02*
X73203600Y-73244800I100000J0D01*
G01*
X74653600Y-73244800D01*
G75*
G02*
X74753600Y-73344800I0J-100000D01*
G01*
X74753600Y-73544800D01*
G75*
G02*
X74653600Y-73644800I-100000J0D01*
G01*
X73203600Y-73644800D01*
G75*
G02*
X73103600Y-73544800I0J100000D01*
G01*
G37*
G36*
G01*
X73103600Y-74044800D02*
X73103600Y-73844800D01*
G75*
G02*
X73203600Y-73744800I100000J0D01*
G01*
X74653600Y-73744800D01*
G75*
G02*
X74753600Y-73844800I0J-100000D01*
G01*
X74753600Y-74044800D01*
G75*
G02*
X74653600Y-74144800I-100000J0D01*
G01*
X73203600Y-74144800D01*
G75*
G02*
X73103600Y-74044800I0J100000D01*
G01*
G37*
G36*
G01*
X73103600Y-74544800D02*
X73103600Y-74344800D01*
G75*
G02*
X73203600Y-74244800I100000J0D01*
G01*
X74653600Y-74244800D01*
G75*
G02*
X74753600Y-74344800I0J-100000D01*
G01*
X74753600Y-74544800D01*
G75*
G02*
X74653600Y-74644800I-100000J0D01*
G01*
X73203600Y-74644800D01*
G75*
G02*
X73103600Y-74544800I0J100000D01*
G01*
G37*
G36*
G01*
X73103600Y-75044800D02*
X73103600Y-74844800D01*
G75*
G02*
X73203600Y-74744800I100000J0D01*
G01*
X74653600Y-74744800D01*
G75*
G02*
X74753600Y-74844800I0J-100000D01*
G01*
X74753600Y-75044800D01*
G75*
G02*
X74653600Y-75144800I-100000J0D01*
G01*
X73203600Y-75144800D01*
G75*
G02*
X73103600Y-75044800I0J100000D01*
G01*
G37*
G36*
G01*
X73103600Y-75544800D02*
X73103600Y-75344800D01*
G75*
G02*
X73203600Y-75244800I100000J0D01*
G01*
X74653600Y-75244800D01*
G75*
G02*
X74753600Y-75344800I0J-100000D01*
G01*
X74753600Y-75544800D01*
G75*
G02*
X74653600Y-75644800I-100000J0D01*
G01*
X73203600Y-75644800D01*
G75*
G02*
X73103600Y-75544800I0J100000D01*
G01*
G37*
G36*
G01*
X73103600Y-76044800D02*
X73103600Y-75844800D01*
G75*
G02*
X73203600Y-75744800I100000J0D01*
G01*
X74653600Y-75744800D01*
G75*
G02*
X74753600Y-75844800I0J-100000D01*
G01*
X74753600Y-76044800D01*
G75*
G02*
X74653600Y-76144800I-100000J0D01*
G01*
X73203600Y-76144800D01*
G75*
G02*
X73103600Y-76044800I0J100000D01*
G01*
G37*
G36*
G01*
X73103600Y-76544800D02*
X73103600Y-76344800D01*
G75*
G02*
X73203600Y-76244800I100000J0D01*
G01*
X74653600Y-76244800D01*
G75*
G02*
X74753600Y-76344800I0J-100000D01*
G01*
X74753600Y-76544800D01*
G75*
G02*
X74653600Y-76644800I-100000J0D01*
G01*
X73203600Y-76644800D01*
G75*
G02*
X73103600Y-76544800I0J100000D01*
G01*
G37*
%TD*%
%TO.C,R5*%
G36*
G01*
X97913568Y-70328800D02*
X96955232Y-70328800D01*
G75*
G02*
X96684400Y-70057968I0J270832D01*
G01*
X96684400Y-69299632D01*
G75*
G02*
X96955232Y-69028800I270832J0D01*
G01*
X97913568Y-69028800D01*
G75*
G02*
X98184400Y-69299632I0J-270832D01*
G01*
X98184400Y-70057968D01*
G75*
G02*
X97913568Y-70328800I-270832J0D01*
G01*
G37*
G36*
G01*
X97913568Y-72328800D02*
X96955232Y-72328800D01*
G75*
G02*
X96684400Y-72057968I0J270832D01*
G01*
X96684400Y-71299632D01*
G75*
G02*
X96955232Y-71028800I270832J0D01*
G01*
X97913568Y-71028800D01*
G75*
G02*
X98184400Y-71299632I0J-270832D01*
G01*
X98184400Y-72057968D01*
G75*
G02*
X97913568Y-72328800I-270832J0D01*
G01*
G37*
%TD*%
%TO.C,R4*%
G36*
G01*
X97913568Y-75408800D02*
X96955232Y-75408800D01*
G75*
G02*
X96684400Y-75137968I0J270832D01*
G01*
X96684400Y-74379632D01*
G75*
G02*
X96955232Y-74108800I270832J0D01*
G01*
X97913568Y-74108800D01*
G75*
G02*
X98184400Y-74379632I0J-270832D01*
G01*
X98184400Y-75137968D01*
G75*
G02*
X97913568Y-75408800I-270832J0D01*
G01*
G37*
G36*
G01*
X97913568Y-77408800D02*
X96955232Y-77408800D01*
G75*
G02*
X96684400Y-77137968I0J270832D01*
G01*
X96684400Y-76379632D01*
G75*
G02*
X96955232Y-76108800I270832J0D01*
G01*
X97913568Y-76108800D01*
G75*
G02*
X98184400Y-76379632I0J-270832D01*
G01*
X98184400Y-77137968D01*
G75*
G02*
X97913568Y-77408800I-270832J0D01*
G01*
G37*
%TD*%
%TO.C,C16*%
G36*
G01*
X41996500Y-76051876D02*
X41996500Y-77059324D01*
G75*
G02*
X41725224Y-77330600I-271276J0D01*
G01*
X40992776Y-77330600D01*
G75*
G02*
X40721500Y-77059324I0J271276D01*
G01*
X40721500Y-76051876D01*
G75*
G02*
X40992776Y-75780600I271276J0D01*
G01*
X41725224Y-75780600D01*
G75*
G02*
X41996500Y-76051876I0J-271276D01*
G01*
G37*
G36*
G01*
X44071500Y-76051876D02*
X44071500Y-77059324D01*
G75*
G02*
X43800224Y-77330600I-271276J0D01*
G01*
X43067776Y-77330600D01*
G75*
G02*
X42796500Y-77059324I0J271276D01*
G01*
X42796500Y-76051876D01*
G75*
G02*
X43067776Y-75780600I271276J0D01*
G01*
X43800224Y-75780600D01*
G75*
G02*
X44071500Y-76051876I0J-271276D01*
G01*
G37*
%TD*%
%TO.C,C15*%
G36*
G01*
X60335300Y-80827076D02*
X60335300Y-81834524D01*
G75*
G02*
X60064024Y-82105800I-271276J0D01*
G01*
X59331576Y-82105800D01*
G75*
G02*
X59060300Y-81834524I0J271276D01*
G01*
X59060300Y-80827076D01*
G75*
G02*
X59331576Y-80555800I271276J0D01*
G01*
X60064024Y-80555800D01*
G75*
G02*
X60335300Y-80827076I0J-271276D01*
G01*
G37*
G36*
G01*
X62410300Y-80827076D02*
X62410300Y-81834524D01*
G75*
G02*
X62139024Y-82105800I-271276J0D01*
G01*
X61406576Y-82105800D01*
G75*
G02*
X61135300Y-81834524I0J271276D01*
G01*
X61135300Y-80827076D01*
G75*
G02*
X61406576Y-80555800I271276J0D01*
G01*
X62139024Y-80555800D01*
G75*
G02*
X62410300Y-80827076I0J-271276D01*
G01*
G37*
%TD*%
%TO.C,C13*%
G36*
G01*
X42018000Y-69651076D02*
X42018000Y-70658524D01*
G75*
G02*
X41746724Y-70929800I-271276J0D01*
G01*
X41014276Y-70929800D01*
G75*
G02*
X40743000Y-70658524I0J271276D01*
G01*
X40743000Y-69651076D01*
G75*
G02*
X41014276Y-69379800I271276J0D01*
G01*
X41746724Y-69379800D01*
G75*
G02*
X42018000Y-69651076I0J-271276D01*
G01*
G37*
G36*
G01*
X44093000Y-69651076D02*
X44093000Y-70658524D01*
G75*
G02*
X43821724Y-70929800I-271276J0D01*
G01*
X43089276Y-70929800D01*
G75*
G02*
X42818000Y-70658524I0J271276D01*
G01*
X42818000Y-69651076D01*
G75*
G02*
X43089276Y-69379800I271276J0D01*
G01*
X43821724Y-69379800D01*
G75*
G02*
X44093000Y-69651076I0J-271276D01*
G01*
G37*
%TD*%
%TO.C,C12*%
G36*
G01*
X64691300Y-65680124D02*
X64691300Y-64672676D01*
G75*
G02*
X64962576Y-64401400I271276J0D01*
G01*
X65695024Y-64401400D01*
G75*
G02*
X65966300Y-64672676I0J-271276D01*
G01*
X65966300Y-65680124D01*
G75*
G02*
X65695024Y-65951400I-271276J0D01*
G01*
X64962576Y-65951400D01*
G75*
G02*
X64691300Y-65680124I0J271276D01*
G01*
G37*
G36*
G01*
X62616300Y-65680124D02*
X62616300Y-64672676D01*
G75*
G02*
X62887576Y-64401400I271276J0D01*
G01*
X63620024Y-64401400D01*
G75*
G02*
X63891300Y-64672676I0J-271276D01*
G01*
X63891300Y-65680124D01*
G75*
G02*
X63620024Y-65951400I-271276J0D01*
G01*
X62887576Y-65951400D01*
G75*
G02*
X62616300Y-65680124I0J271276D01*
G01*
G37*
%TD*%
%TO.C,C10*%
G36*
G01*
X69631700Y-64723476D02*
X69631700Y-65730924D01*
G75*
G02*
X69360424Y-66002200I-271276J0D01*
G01*
X68627976Y-66002200D01*
G75*
G02*
X68356700Y-65730924I0J271276D01*
G01*
X68356700Y-64723476D01*
G75*
G02*
X68627976Y-64452200I271276J0D01*
G01*
X69360424Y-64452200D01*
G75*
G02*
X69631700Y-64723476I0J-271276D01*
G01*
G37*
G36*
G01*
X71706700Y-64723476D02*
X71706700Y-65730924D01*
G75*
G02*
X71435424Y-66002200I-271276J0D01*
G01*
X70702976Y-66002200D01*
G75*
G02*
X70431700Y-65730924I0J271276D01*
G01*
X70431700Y-64723476D01*
G75*
G02*
X70702976Y-64452200I271276J0D01*
G01*
X71435424Y-64452200D01*
G75*
G02*
X71706700Y-64723476I0J-271276D01*
G01*
G37*
%TD*%
%TO.C,C8*%
G36*
G01*
X71327476Y-81172000D02*
X72334924Y-81172000D01*
G75*
G02*
X72606200Y-81443276I0J-271276D01*
G01*
X72606200Y-82175724D01*
G75*
G02*
X72334924Y-82447000I-271276J0D01*
G01*
X71327476Y-82447000D01*
G75*
G02*
X71056200Y-82175724I0J271276D01*
G01*
X71056200Y-81443276D01*
G75*
G02*
X71327476Y-81172000I271276J0D01*
G01*
G37*
G36*
G01*
X71327476Y-79097000D02*
X72334924Y-79097000D01*
G75*
G02*
X72606200Y-79368276I0J-271276D01*
G01*
X72606200Y-80100724D01*
G75*
G02*
X72334924Y-80372000I-271276J0D01*
G01*
X71327476Y-80372000D01*
G75*
G02*
X71056200Y-80100724I0J271276D01*
G01*
X71056200Y-79368276D01*
G75*
G02*
X71327476Y-79097000I271276J0D01*
G01*
G37*
%TD*%
%TO.C,C6*%
G36*
G01*
X89909600Y-80208924D02*
X89909600Y-79201476D01*
G75*
G02*
X90180876Y-78930200I271276J0D01*
G01*
X90913324Y-78930200D01*
G75*
G02*
X91184600Y-79201476I0J-271276D01*
G01*
X91184600Y-80208924D01*
G75*
G02*
X90913324Y-80480200I-271276J0D01*
G01*
X90180876Y-80480200D01*
G75*
G02*
X89909600Y-80208924I0J271276D01*
G01*
G37*
G36*
G01*
X87834600Y-80208924D02*
X87834600Y-79201476D01*
G75*
G02*
X88105876Y-78930200I271276J0D01*
G01*
X88838324Y-78930200D01*
G75*
G02*
X89109600Y-79201476I0J-271276D01*
G01*
X89109600Y-80208924D01*
G75*
G02*
X88838324Y-80480200I-271276J0D01*
G01*
X88105876Y-80480200D01*
G75*
G02*
X87834600Y-80208924I0J271276D01*
G01*
G37*
%TD*%
%TO.C,C5*%
G36*
G01*
X89909600Y-66848524D02*
X89909600Y-65841076D01*
G75*
G02*
X90180876Y-65569800I271276J0D01*
G01*
X90913324Y-65569800D01*
G75*
G02*
X91184600Y-65841076I0J-271276D01*
G01*
X91184600Y-66848524D01*
G75*
G02*
X90913324Y-67119800I-271276J0D01*
G01*
X90180876Y-67119800D01*
G75*
G02*
X89909600Y-66848524I0J271276D01*
G01*
G37*
G36*
G01*
X87834600Y-66848524D02*
X87834600Y-65841076D01*
G75*
G02*
X88105876Y-65569800I271276J0D01*
G01*
X88838324Y-65569800D01*
G75*
G02*
X89109600Y-65841076I0J-271276D01*
G01*
X89109600Y-66848524D01*
G75*
G02*
X88838324Y-67119800I-271276J0D01*
G01*
X88105876Y-67119800D01*
G75*
G02*
X87834600Y-66848524I0J271276D01*
G01*
G37*
%TD*%
%TO.C,C4*%
G36*
G01*
X69631700Y-67619076D02*
X69631700Y-68626524D01*
G75*
G02*
X69360424Y-68897800I-271276J0D01*
G01*
X68627976Y-68897800D01*
G75*
G02*
X68356700Y-68626524I0J271276D01*
G01*
X68356700Y-67619076D01*
G75*
G02*
X68627976Y-67347800I271276J0D01*
G01*
X69360424Y-67347800D01*
G75*
G02*
X69631700Y-67619076I0J-271276D01*
G01*
G37*
G36*
G01*
X71706700Y-67619076D02*
X71706700Y-68626524D01*
G75*
G02*
X71435424Y-68897800I-271276J0D01*
G01*
X70702976Y-68897800D01*
G75*
G02*
X70431700Y-68626524I0J271276D01*
G01*
X70431700Y-67619076D01*
G75*
G02*
X70702976Y-67347800I271276J0D01*
G01*
X71435424Y-67347800D01*
G75*
G02*
X71706700Y-67619076I0J-271276D01*
G01*
G37*
%TD*%
%TO.C,C3*%
G36*
G01*
X67720676Y-81142700D02*
X68728124Y-81142700D01*
G75*
G02*
X68999400Y-81413976I0J-271276D01*
G01*
X68999400Y-82146424D01*
G75*
G02*
X68728124Y-82417700I-271276J0D01*
G01*
X67720676Y-82417700D01*
G75*
G02*
X67449400Y-82146424I0J271276D01*
G01*
X67449400Y-81413976D01*
G75*
G02*
X67720676Y-81142700I271276J0D01*
G01*
G37*
G36*
G01*
X67720676Y-79067700D02*
X68728124Y-79067700D01*
G75*
G02*
X68999400Y-79338976I0J-271276D01*
G01*
X68999400Y-80071424D01*
G75*
G02*
X68728124Y-80342700I-271276J0D01*
G01*
X67720676Y-80342700D01*
G75*
G02*
X67449400Y-80071424I0J271276D01*
G01*
X67449400Y-79338976D01*
G75*
G02*
X67720676Y-79067700I271276J0D01*
G01*
G37*
%TD*%
D23*
%TO.C,BT2*%
X49123600Y-61584800D03*
X49123600Y-81584800D03*
%TD*%
D11*
%TO.C,BT1*%
X46583600Y-51104800D03*
D12*
X46583600Y-48564800D03*
%TD*%
M02*
