%TF.GenerationSoftware,KiCad,Pcbnew,(5.1.6)-1*%
%TF.CreationDate,2020-11-04T18:23:40+01:00*%
%TF.ProjectId,rps_ki,7270735f-6b69-42e6-9b69-6361645f7063,rev?*%
%TF.SameCoordinates,Original*%
%TF.FileFunction,Copper,L1,Top*%
%TF.FilePolarity,Positive*%
%FSLAX46Y46*%
G04 Gerber Fmt 4.6, Leading zero omitted, Abs format (unit mm)*
G04 Created by KiCad (PCBNEW (5.1.6)-1) date 2020-11-04 18:23:40*
%MOMM*%
%LPD*%
G01*
G04 APERTURE LIST*
%TA.AperFunction,Profile*%
%ADD10C,0.050000*%
%TD*%
%TA.AperFunction,ComponentPad*%
%ADD11O,1.700000X1.700000*%
%TD*%
%TA.AperFunction,ComponentPad*%
%ADD12R,1.700000X1.700000*%
%TD*%
%TA.AperFunction,ComponentPad*%
%ADD13C,1.700000*%
%TD*%
%TA.AperFunction,ComponentPad*%
%ADD14R,3.500000X3.500000*%
%TD*%
%TA.AperFunction,SMDPad,CuDef*%
%ADD15R,3.200000X1.000000*%
%TD*%
%TA.AperFunction,SMDPad,CuDef*%
%ADD16R,1.000000X3.200000*%
%TD*%
%TA.AperFunction,ComponentPad*%
%ADD17C,3.810000*%
%TD*%
%TA.AperFunction,SMDPad,CuDef*%
%ADD18R,2.900000X5.400000*%
%TD*%
%TA.AperFunction,ComponentPad*%
%ADD19C,1.000000*%
%TD*%
%TA.AperFunction,SMDPad,CuDef*%
%ADD20R,1.200000X2.200000*%
%TD*%
%TA.AperFunction,SMDPad,CuDef*%
%ADD21R,1.200000X1.800000*%
%TD*%
%TA.AperFunction,SMDPad,CuDef*%
%ADD22R,1.600000X1.500000*%
%TD*%
%TA.AperFunction,SMDPad,CuDef*%
%ADD23R,0.700000X1.600000*%
%TD*%
%TA.AperFunction,SMDPad,CuDef*%
%ADD24R,1.000000X1.900000*%
%TD*%
%TA.AperFunction,SMDPad,CuDef*%
%ADD25R,1.800000X1.900000*%
%TD*%
%TA.AperFunction,SMDPad,CuDef*%
%ADD26R,1.650000X1.300000*%
%TD*%
%TA.AperFunction,SMDPad,CuDef*%
%ADD27R,1.425000X1.550000*%
%TD*%
%TA.AperFunction,SMDPad,CuDef*%
%ADD28R,0.450000X1.380000*%
%TD*%
%TA.AperFunction,SMDPad,CuDef*%
%ADD29R,2.600000X1.500000*%
%TD*%
%TA.AperFunction,SMDPad,CuDef*%
%ADD30R,1.800000X3.500000*%
%TD*%
%TA.AperFunction,ComponentPad*%
%ADD31C,1.600000*%
%TD*%
%TA.AperFunction,ComponentPad*%
%ADD32R,1.600000X1.600000*%
%TD*%
%TA.AperFunction,ComponentPad*%
%ADD33C,1.200000*%
%TD*%
%TA.AperFunction,ComponentPad*%
%ADD34R,1.200000X1.200000*%
%TD*%
%TA.AperFunction,ComponentPad*%
%ADD35C,2.000000*%
%TD*%
%TA.AperFunction,ViaPad*%
%ADD36C,0.800000*%
%TD*%
%TA.AperFunction,ViaPad*%
%ADD37C,1.651000*%
%TD*%
%TA.AperFunction,Conductor*%
%ADD38C,0.508000*%
%TD*%
%TA.AperFunction,Conductor*%
%ADD39C,0.406400*%
%TD*%
%TA.AperFunction,Conductor*%
%ADD40C,1.016000*%
%TD*%
%TA.AperFunction,Conductor*%
%ADD41C,0.762000*%
%TD*%
%TA.AperFunction,Conductor*%
%ADD42C,0.203200*%
%TD*%
G04 APERTURE END LIST*
D10*
X109485600Y-91656800D02*
X35485600Y-91656800D01*
X109485600Y-91656800D02*
X109485600Y-91656800D01*
X35485600Y-30656800D02*
X109485600Y-30656800D01*
X109485600Y-30656800D02*
X109485600Y-91656800D01*
X35485600Y-91656800D02*
X35485600Y-30656800D01*
D11*
%TO.P,J5,6*%
%TO.N,/SWO*%
X73304400Y-86004400D03*
%TO.P,J5,5*%
%TO.N,/NRST*%
X75844400Y-86004400D03*
%TO.P,J5,4*%
%TO.N,/SWDIO*%
X78384400Y-86004400D03*
%TO.P,J5,3*%
%TO.N,GND*%
X80924400Y-86004400D03*
%TO.P,J5,2*%
%TO.N,/SWCLK*%
X83464400Y-86004400D03*
D12*
%TO.P,J5,1*%
%TO.N,+3V3*%
X86004400Y-86004400D03*
%TD*%
D13*
%TO.P,J4,5*%
%TO.N,GND*%
X101803200Y-78841600D03*
D12*
%TO.P,J4,1*%
%TO.N,/ESP_TX*%
X104343200Y-78841600D03*
D11*
%TO.P,J4,6*%
%TO.N,N/C*%
X101803200Y-76301600D03*
%TO.P,J4,2*%
%TO.N,/ESP_CH_PD*%
X104343200Y-76301600D03*
%TO.P,J4,7*%
%TO.N,N/C*%
X101803200Y-73761600D03*
%TO.P,J4,3*%
%TO.N,/ESP_NRST*%
X104343200Y-73761600D03*
%TO.P,J4,8*%
%TO.N,/ESP_RX*%
X101803200Y-71221600D03*
%TO.P,J4,4*%
%TO.N,+3V3*%
X104343200Y-71221600D03*
%TD*%
%TO.P,J1,3*%
%TO.N,GND*%
%TA.AperFunction,ComponentPad*%
G36*
G01*
X41991600Y-43217800D02*
X41991600Y-41467800D01*
G75*
G02*
X42866600Y-40592800I875000J0D01*
G01*
X44616600Y-40592800D01*
G75*
G02*
X45491600Y-41467800I0J-875000D01*
G01*
X45491600Y-43217800D01*
G75*
G02*
X44616600Y-44092800I-875000J0D01*
G01*
X42866600Y-44092800D01*
G75*
G02*
X41991600Y-43217800I0J875000D01*
G01*
G37*
%TD.AperFunction*%
%TO.P,J1,2*%
%TA.AperFunction,ComponentPad*%
G36*
G01*
X39241600Y-38642800D02*
X39241600Y-36642800D01*
G75*
G02*
X39991600Y-35892800I750000J0D01*
G01*
X41491600Y-35892800D01*
G75*
G02*
X42241600Y-36642800I0J-750000D01*
G01*
X42241600Y-38642800D01*
G75*
G02*
X41491600Y-39392800I-750000J0D01*
G01*
X39991600Y-39392800D01*
G75*
G02*
X39241600Y-38642800I0J750000D01*
G01*
G37*
%TD.AperFunction*%
D14*
%TO.P,J1,1*%
%TO.N,/5V_DC*%
X46741600Y-37642800D03*
%TD*%
D15*
%TO.P,SW4,2*%
%TO.N,GND*%
X62440400Y-64617600D03*
X69240400Y-64617600D03*
%TO.P,SW4,1*%
%TO.N,/Button1*%
X69240400Y-68617600D03*
X62440400Y-68617600D03*
%TD*%
D16*
%TO.P,SW3,2*%
%TO.N,GND*%
X86360000Y-35001200D03*
X86360000Y-41801200D03*
%TO.P,SW3,1*%
%TO.N,/Button0*%
X82360000Y-41801200D03*
X82360000Y-35001200D03*
%TD*%
D15*
%TO.P,SW2,2*%
%TO.N,GND*%
X69744800Y-82264000D03*
X62944800Y-82264000D03*
%TO.P,SW2,1*%
%TO.N,/NRST*%
X62944800Y-78264000D03*
X69744800Y-78264000D03*
%TD*%
D17*
%TO.P,SW1,2*%
%TO.N,/V_IN*%
X54203600Y-42214800D03*
%TO.P,SW1,3*%
%TO.N,/5V_DC*%
X54203600Y-37514800D03*
%TO.P,SW1,1*%
%TO.N,/BAT_AA*%
X54203600Y-46914800D03*
%TD*%
%TO.P,R12,2*%
%TO.N,GND*%
%TA.AperFunction,SMDPad,CuDef*%
G36*
G01*
X82404799Y-54451200D02*
X83304801Y-54451200D01*
G75*
G02*
X83554800Y-54701199I0J-249999D01*
G01*
X83554800Y-55401201D01*
G75*
G02*
X83304801Y-55651200I-249999J0D01*
G01*
X82404799Y-55651200D01*
G75*
G02*
X82154800Y-55401201I0J249999D01*
G01*
X82154800Y-54701199D01*
G75*
G02*
X82404799Y-54451200I249999J0D01*
G01*
G37*
%TD.AperFunction*%
%TO.P,R12,1*%
%TO.N,Net-(C17-Pad1)*%
%TA.AperFunction,SMDPad,CuDef*%
G36*
G01*
X82404799Y-52451200D02*
X83304801Y-52451200D01*
G75*
G02*
X83554800Y-52701199I0J-249999D01*
G01*
X83554800Y-53401201D01*
G75*
G02*
X83304801Y-53651200I-249999J0D01*
G01*
X82404799Y-53651200D01*
G75*
G02*
X82154800Y-53401201I0J249999D01*
G01*
X82154800Y-52701199D01*
G75*
G02*
X82404799Y-52451200I249999J0D01*
G01*
G37*
%TD.AperFunction*%
%TD*%
D18*
%TO.P,L1,2*%
%TO.N,+3V3*%
X68173600Y-39674800D03*
%TO.P,L1,1*%
%TO.N,Net-(D1-Pad1)*%
X78073600Y-39674800D03*
%TD*%
D19*
%TO.P,J7,2*%
%TO.N,N/C*%
X94300800Y-36399600D03*
X102700800Y-36399600D03*
D20*
%TO.P,J7,11*%
%TO.N,GND*%
X105300800Y-36799600D03*
X89800800Y-36799600D03*
D21*
X105300800Y-46199600D03*
D22*
X91300800Y-46399600D03*
D23*
%TO.P,J7,9*%
%TO.N,/SD_CD*%
X104100800Y-47599600D03*
%TO.P,J7,5*%
%TO.N,/SD_CLK*%
X99700800Y-47599600D03*
%TO.P,J7,6*%
%TO.N,GND*%
X100800800Y-47599600D03*
%TO.P,J7,7*%
%TO.N,/SD_D0*%
X101900800Y-47599600D03*
%TO.P,J7,8*%
%TO.N,/SD_D1*%
X103000800Y-47599600D03*
%TO.P,J7,3*%
%TO.N,/SD_CMD*%
X97500800Y-47599600D03*
%TO.P,J7,4*%
%TO.N,+3V3*%
X98600800Y-47599600D03*
%TO.P,J7,1*%
%TO.N,/SD_D2*%
X95300800Y-47599600D03*
%TO.P,J7,2*%
%TO.N,/SD_D3*%
X96400800Y-47599600D03*
%TD*%
D11*
%TO.P,J6,6*%
%TO.N,+3V3*%
X83947000Y-61569600D03*
%TO.P,J6,5*%
%TO.N,GND*%
X81407000Y-61569600D03*
%TO.P,J6,4*%
%TO.N,/SPI_MOSI*%
X78867000Y-61569600D03*
%TO.P,J6,3*%
%TO.N,/SPI_SCK*%
X76327000Y-61569600D03*
%TO.P,J6,2*%
%TO.N,/SPI_MISO*%
X73787000Y-61569600D03*
D12*
%TO.P,J6,1*%
%TO.N,/SPI_CS*%
X71247000Y-61569600D03*
%TD*%
D11*
%TO.P,J3,3*%
%TO.N,GND*%
X63398400Y-86004400D03*
%TO.P,J3,2*%
%TO.N,/BOOT0*%
X65938400Y-86004400D03*
D12*
%TO.P,J3,1*%
%TO.N,+3V3*%
X68478400Y-86004400D03*
%TD*%
D24*
%TO.P,J2,6*%
%TO.N,GND*%
X96950700Y-89646200D03*
D25*
X94250700Y-89646200D03*
D26*
X98775700Y-89646200D03*
X92025700Y-89646200D03*
D27*
X97888200Y-87071200D03*
X92913200Y-87071200D03*
D28*
%TO.P,J2,5*%
X96700700Y-86986200D03*
%TO.P,J2,4*%
X96050700Y-86986200D03*
%TO.P,J2,3*%
%TO.N,Net-(J2-Pad3)*%
X95400700Y-86986200D03*
%TO.P,J2,2*%
%TO.N,Net-(J2-Pad2)*%
X94750700Y-86986200D03*
%TO.P,J2,1*%
%TO.N,Net-(J2-Pad1)*%
X94100700Y-86986200D03*
%TD*%
D29*
%TO.P,D4,2*%
%TO.N,Net-(D4-Pad2)*%
X40792400Y-88293200D03*
%TO.P,D4,1*%
%TO.N,/LED2*%
X40792400Y-85293200D03*
%TD*%
%TO.P,D3,2*%
%TO.N,Net-(D3-Pad2)*%
X49733200Y-88317200D03*
%TO.P,D3,1*%
%TO.N,/LED1*%
X49733200Y-85317200D03*
%TD*%
%TO.P,D2,2*%
%TO.N,Net-(D2-Pad2)*%
X58521600Y-88290400D03*
%TO.P,D2,1*%
%TO.N,/LED0*%
X58521600Y-85290400D03*
%TD*%
D30*
%TO.P,D1,2*%
%TO.N,GND*%
X78333600Y-56144800D03*
%TO.P,D1,1*%
%TO.N,Net-(D1-Pad1)*%
X78333600Y-51144800D03*
%TD*%
%TO.P,C17,2*%
%TO.N,/Button0*%
%TA.AperFunction,SMDPad,CuDef*%
G36*
G01*
X87038200Y-46946400D02*
X86088200Y-46946400D01*
G75*
G02*
X85838200Y-46696400I0J250000D01*
G01*
X85838200Y-46021400D01*
G75*
G02*
X86088200Y-45771400I250000J0D01*
G01*
X87038200Y-45771400D01*
G75*
G02*
X87288200Y-46021400I0J-250000D01*
G01*
X87288200Y-46696400D01*
G75*
G02*
X87038200Y-46946400I-250000J0D01*
G01*
G37*
%TD.AperFunction*%
%TO.P,C17,1*%
%TO.N,Net-(C17-Pad1)*%
%TA.AperFunction,SMDPad,CuDef*%
G36*
G01*
X87038200Y-49021400D02*
X86088200Y-49021400D01*
G75*
G02*
X85838200Y-48771400I0J250000D01*
G01*
X85838200Y-48096400D01*
G75*
G02*
X86088200Y-47846400I250000J0D01*
G01*
X87038200Y-47846400D01*
G75*
G02*
X87288200Y-48096400I0J-250000D01*
G01*
X87288200Y-48771400D01*
G75*
G02*
X87038200Y-49021400I-250000J0D01*
G01*
G37*
%TD.AperFunction*%
%TD*%
D31*
%TO.P,C2,2*%
%TO.N,GND*%
X55473600Y-56144800D03*
D32*
%TO.P,C2,1*%
%TO.N,+3V3*%
X55473600Y-53644800D03*
%TD*%
D33*
%TO.P,C1,2*%
%TO.N,GND*%
X61823600Y-40714800D03*
D34*
%TO.P,C1,1*%
%TO.N,/V_IN*%
X61823600Y-42214800D03*
%TD*%
%TO.P,U2,14*%
%TO.N,N/C*%
%TA.AperFunction,SMDPad,CuDef*%
G36*
G01*
X71798600Y-49984800D02*
X71798600Y-49684800D01*
G75*
G02*
X71948600Y-49534800I150000J0D01*
G01*
X73698600Y-49534800D01*
G75*
G02*
X73848600Y-49684800I0J-150000D01*
G01*
X73848600Y-49984800D01*
G75*
G02*
X73698600Y-50134800I-150000J0D01*
G01*
X71948600Y-50134800D01*
G75*
G02*
X71798600Y-49984800I0J150000D01*
G01*
G37*
%TD.AperFunction*%
%TO.P,U2,13*%
%TA.AperFunction,SMDPad,CuDef*%
G36*
G01*
X71798600Y-51254800D02*
X71798600Y-50954800D01*
G75*
G02*
X71948600Y-50804800I150000J0D01*
G01*
X73698600Y-50804800D01*
G75*
G02*
X73848600Y-50954800I0J-150000D01*
G01*
X73848600Y-51254800D01*
G75*
G02*
X73698600Y-51404800I-150000J0D01*
G01*
X71948600Y-51404800D01*
G75*
G02*
X71798600Y-51254800I0J150000D01*
G01*
G37*
%TD.AperFunction*%
%TO.P,U2,12*%
%TO.N,Net-(D1-Pad1)*%
%TA.AperFunction,SMDPad,CuDef*%
G36*
G01*
X71798600Y-52524800D02*
X71798600Y-52224800D01*
G75*
G02*
X71948600Y-52074800I150000J0D01*
G01*
X73698600Y-52074800D01*
G75*
G02*
X73848600Y-52224800I0J-150000D01*
G01*
X73848600Y-52524800D01*
G75*
G02*
X73698600Y-52674800I-150000J0D01*
G01*
X71948600Y-52674800D01*
G75*
G02*
X71798600Y-52524800I0J150000D01*
G01*
G37*
%TD.AperFunction*%
%TO.P,U2,11*%
%TO.N,N/C*%
%TA.AperFunction,SMDPad,CuDef*%
G36*
G01*
X71798600Y-53794800D02*
X71798600Y-53494800D01*
G75*
G02*
X71948600Y-53344800I150000J0D01*
G01*
X73698600Y-53344800D01*
G75*
G02*
X73848600Y-53494800I0J-150000D01*
G01*
X73848600Y-53794800D01*
G75*
G02*
X73698600Y-53944800I-150000J0D01*
G01*
X71948600Y-53944800D01*
G75*
G02*
X71798600Y-53794800I0J150000D01*
G01*
G37*
%TD.AperFunction*%
%TO.P,U2,10*%
%TO.N,/V_IN*%
%TA.AperFunction,SMDPad,CuDef*%
G36*
G01*
X71798600Y-55064800D02*
X71798600Y-54764800D01*
G75*
G02*
X71948600Y-54614800I150000J0D01*
G01*
X73698600Y-54614800D01*
G75*
G02*
X73848600Y-54764800I0J-150000D01*
G01*
X73848600Y-55064800D01*
G75*
G02*
X73698600Y-55214800I-150000J0D01*
G01*
X71948600Y-55214800D01*
G75*
G02*
X71798600Y-55064800I0J150000D01*
G01*
G37*
%TD.AperFunction*%
%TO.P,U2,9*%
%TO.N,N/C*%
%TA.AperFunction,SMDPad,CuDef*%
G36*
G01*
X71798600Y-56334800D02*
X71798600Y-56034800D01*
G75*
G02*
X71948600Y-55884800I150000J0D01*
G01*
X73698600Y-55884800D01*
G75*
G02*
X73848600Y-56034800I0J-150000D01*
G01*
X73848600Y-56334800D01*
G75*
G02*
X73698600Y-56484800I-150000J0D01*
G01*
X71948600Y-56484800D01*
G75*
G02*
X71798600Y-56334800I0J150000D01*
G01*
G37*
%TD.AperFunction*%
%TO.P,U2,8*%
%TA.AperFunction,SMDPad,CuDef*%
G36*
G01*
X71798600Y-57604800D02*
X71798600Y-57304800D01*
G75*
G02*
X71948600Y-57154800I150000J0D01*
G01*
X73698600Y-57154800D01*
G75*
G02*
X73848600Y-57304800I0J-150000D01*
G01*
X73848600Y-57604800D01*
G75*
G02*
X73698600Y-57754800I-150000J0D01*
G01*
X71948600Y-57754800D01*
G75*
G02*
X71798600Y-57604800I0J150000D01*
G01*
G37*
%TD.AperFunction*%
%TO.P,U2,7*%
%TA.AperFunction,SMDPad,CuDef*%
G36*
G01*
X62498600Y-57604800D02*
X62498600Y-57304800D01*
G75*
G02*
X62648600Y-57154800I150000J0D01*
G01*
X64398600Y-57154800D01*
G75*
G02*
X64548600Y-57304800I0J-150000D01*
G01*
X64548600Y-57604800D01*
G75*
G02*
X64398600Y-57754800I-150000J0D01*
G01*
X62648600Y-57754800D01*
G75*
G02*
X62498600Y-57604800I0J150000D01*
G01*
G37*
%TD.AperFunction*%
%TO.P,U2,6*%
%TO.N,GND*%
%TA.AperFunction,SMDPad,CuDef*%
G36*
G01*
X62498600Y-56334800D02*
X62498600Y-56034800D01*
G75*
G02*
X62648600Y-55884800I150000J0D01*
G01*
X64398600Y-55884800D01*
G75*
G02*
X64548600Y-56034800I0J-150000D01*
G01*
X64548600Y-56334800D01*
G75*
G02*
X64398600Y-56484800I-150000J0D01*
G01*
X62648600Y-56484800D01*
G75*
G02*
X62498600Y-56334800I0J150000D01*
G01*
G37*
%TD.AperFunction*%
%TO.P,U2,5*%
%TA.AperFunction,SMDPad,CuDef*%
G36*
G01*
X62498600Y-55064800D02*
X62498600Y-54764800D01*
G75*
G02*
X62648600Y-54614800I150000J0D01*
G01*
X64398600Y-54614800D01*
G75*
G02*
X64548600Y-54764800I0J-150000D01*
G01*
X64548600Y-55064800D01*
G75*
G02*
X64398600Y-55214800I-150000J0D01*
G01*
X62648600Y-55214800D01*
G75*
G02*
X62498600Y-55064800I0J150000D01*
G01*
G37*
%TD.AperFunction*%
%TO.P,U2,4*%
%TA.AperFunction,SMDPad,CuDef*%
G36*
G01*
X62498600Y-53794800D02*
X62498600Y-53494800D01*
G75*
G02*
X62648600Y-53344800I150000J0D01*
G01*
X64398600Y-53344800D01*
G75*
G02*
X64548600Y-53494800I0J-150000D01*
G01*
X64548600Y-53794800D01*
G75*
G02*
X64398600Y-53944800I-150000J0D01*
G01*
X62648600Y-53944800D01*
G75*
G02*
X62498600Y-53794800I0J150000D01*
G01*
G37*
%TD.AperFunction*%
%TO.P,U2,3*%
%TO.N,+3V3*%
%TA.AperFunction,SMDPad,CuDef*%
G36*
G01*
X62498600Y-52524800D02*
X62498600Y-52224800D01*
G75*
G02*
X62648600Y-52074800I150000J0D01*
G01*
X64398600Y-52074800D01*
G75*
G02*
X64548600Y-52224800I0J-150000D01*
G01*
X64548600Y-52524800D01*
G75*
G02*
X64398600Y-52674800I-150000J0D01*
G01*
X62648600Y-52674800D01*
G75*
G02*
X62498600Y-52524800I0J150000D01*
G01*
G37*
%TD.AperFunction*%
%TO.P,U2,2*%
%TO.N,N/C*%
%TA.AperFunction,SMDPad,CuDef*%
G36*
G01*
X62498600Y-51254800D02*
X62498600Y-50954800D01*
G75*
G02*
X62648600Y-50804800I150000J0D01*
G01*
X64398600Y-50804800D01*
G75*
G02*
X64548600Y-50954800I0J-150000D01*
G01*
X64548600Y-51254800D01*
G75*
G02*
X64398600Y-51404800I-150000J0D01*
G01*
X62648600Y-51404800D01*
G75*
G02*
X62498600Y-51254800I0J150000D01*
G01*
G37*
%TD.AperFunction*%
%TO.P,U2,1*%
%TA.AperFunction,SMDPad,CuDef*%
G36*
G01*
X62498600Y-49984800D02*
X62498600Y-49684800D01*
G75*
G02*
X62648600Y-49534800I150000J0D01*
G01*
X64398600Y-49534800D01*
G75*
G02*
X64548600Y-49684800I0J-150000D01*
G01*
X64548600Y-49984800D01*
G75*
G02*
X64398600Y-50134800I-150000J0D01*
G01*
X62648600Y-50134800D01*
G75*
G02*
X62498600Y-49984800I0J150000D01*
G01*
G37*
%TD.AperFunction*%
%TD*%
%TO.P,R17,2*%
%TO.N,+3V3*%
%TA.AperFunction,SMDPad,CuDef*%
G36*
G01*
X41278000Y-81476001D02*
X41278000Y-80575999D01*
G75*
G02*
X41527999Y-80326000I249999J0D01*
G01*
X42228001Y-80326000D01*
G75*
G02*
X42478000Y-80575999I0J-249999D01*
G01*
X42478000Y-81476001D01*
G75*
G02*
X42228001Y-81726000I-249999J0D01*
G01*
X41527999Y-81726000D01*
G75*
G02*
X41278000Y-81476001I0J249999D01*
G01*
G37*
%TD.AperFunction*%
%TO.P,R17,1*%
%TO.N,Net-(D4-Pad2)*%
%TA.AperFunction,SMDPad,CuDef*%
G36*
G01*
X39278000Y-81476001D02*
X39278000Y-80575999D01*
G75*
G02*
X39527999Y-80326000I249999J0D01*
G01*
X40228001Y-80326000D01*
G75*
G02*
X40478000Y-80575999I0J-249999D01*
G01*
X40478000Y-81476001D01*
G75*
G02*
X40228001Y-81726000I-249999J0D01*
G01*
X39527999Y-81726000D01*
G75*
G02*
X39278000Y-81476001I0J249999D01*
G01*
G37*
%TD.AperFunction*%
%TD*%
%TO.P,R16,2*%
%TO.N,+3V3*%
%TA.AperFunction,SMDPad,CuDef*%
G36*
G01*
X45763601Y-86890400D02*
X44863599Y-86890400D01*
G75*
G02*
X44613600Y-86640401I0J249999D01*
G01*
X44613600Y-85940399D01*
G75*
G02*
X44863599Y-85690400I249999J0D01*
G01*
X45763601Y-85690400D01*
G75*
G02*
X46013600Y-85940399I0J-249999D01*
G01*
X46013600Y-86640401D01*
G75*
G02*
X45763601Y-86890400I-249999J0D01*
G01*
G37*
%TD.AperFunction*%
%TO.P,R16,1*%
%TO.N,Net-(D3-Pad2)*%
%TA.AperFunction,SMDPad,CuDef*%
G36*
G01*
X45763601Y-88890400D02*
X44863599Y-88890400D01*
G75*
G02*
X44613600Y-88640401I0J249999D01*
G01*
X44613600Y-87940399D01*
G75*
G02*
X44863599Y-87690400I249999J0D01*
G01*
X45763601Y-87690400D01*
G75*
G02*
X46013600Y-87940399I0J-249999D01*
G01*
X46013600Y-88640401D01*
G75*
G02*
X45763601Y-88890400I-249999J0D01*
G01*
G37*
%TD.AperFunction*%
%TD*%
%TO.P,R15,2*%
%TO.N,+3V3*%
%TA.AperFunction,SMDPad,CuDef*%
G36*
G01*
X54704401Y-86874400D02*
X53804399Y-86874400D01*
G75*
G02*
X53554400Y-86624401I0J249999D01*
G01*
X53554400Y-85924399D01*
G75*
G02*
X53804399Y-85674400I249999J0D01*
G01*
X54704401Y-85674400D01*
G75*
G02*
X54954400Y-85924399I0J-249999D01*
G01*
X54954400Y-86624401D01*
G75*
G02*
X54704401Y-86874400I-249999J0D01*
G01*
G37*
%TD.AperFunction*%
%TO.P,R15,1*%
%TO.N,Net-(D2-Pad2)*%
%TA.AperFunction,SMDPad,CuDef*%
G36*
G01*
X54704401Y-88874400D02*
X53804399Y-88874400D01*
G75*
G02*
X53554400Y-88624401I0J249999D01*
G01*
X53554400Y-87924399D01*
G75*
G02*
X53804399Y-87674400I249999J0D01*
G01*
X54704401Y-87674400D01*
G75*
G02*
X54954400Y-87924399I0J-249999D01*
G01*
X54954400Y-88624401D01*
G75*
G02*
X54704401Y-88874400I-249999J0D01*
G01*
G37*
%TD.AperFunction*%
%TD*%
%TO.P,R14,2*%
%TO.N,GND*%
%TA.AperFunction,SMDPad,CuDef*%
G36*
G01*
X59934400Y-60814799D02*
X59934400Y-61714801D01*
G75*
G02*
X59684401Y-61964800I-249999J0D01*
G01*
X58984399Y-61964800D01*
G75*
G02*
X58734400Y-61714801I0J249999D01*
G01*
X58734400Y-60814799D01*
G75*
G02*
X58984399Y-60564800I249999J0D01*
G01*
X59684401Y-60564800D01*
G75*
G02*
X59934400Y-60814799I0J-249999D01*
G01*
G37*
%TD.AperFunction*%
%TO.P,R14,1*%
%TO.N,Net-(C18-Pad1)*%
%TA.AperFunction,SMDPad,CuDef*%
G36*
G01*
X61934400Y-60814799D02*
X61934400Y-61714801D01*
G75*
G02*
X61684401Y-61964800I-249999J0D01*
G01*
X60984399Y-61964800D01*
G75*
G02*
X60734400Y-61714801I0J249999D01*
G01*
X60734400Y-60814799D01*
G75*
G02*
X60984399Y-60564800I249999J0D01*
G01*
X61684401Y-60564800D01*
G75*
G02*
X61934400Y-60814799I0J-249999D01*
G01*
G37*
%TD.AperFunction*%
%TD*%
%TO.P,R13,2*%
%TO.N,/Button1*%
%TA.AperFunction,SMDPad,CuDef*%
G36*
G01*
X73565599Y-68014800D02*
X74465601Y-68014800D01*
G75*
G02*
X74715600Y-68264799I0J-249999D01*
G01*
X74715600Y-68964801D01*
G75*
G02*
X74465601Y-69214800I-249999J0D01*
G01*
X73565599Y-69214800D01*
G75*
G02*
X73315600Y-68964801I0J249999D01*
G01*
X73315600Y-68264799D01*
G75*
G02*
X73565599Y-68014800I249999J0D01*
G01*
G37*
%TD.AperFunction*%
%TO.P,R13,1*%
%TO.N,+3V3*%
%TA.AperFunction,SMDPad,CuDef*%
G36*
G01*
X73565599Y-66014800D02*
X74465601Y-66014800D01*
G75*
G02*
X74715600Y-66264799I0J-249999D01*
G01*
X74715600Y-66964801D01*
G75*
G02*
X74465601Y-67214800I-249999J0D01*
G01*
X73565599Y-67214800D01*
G75*
G02*
X73315600Y-66964801I0J249999D01*
G01*
X73315600Y-66264799D01*
G75*
G02*
X73565599Y-66014800I249999J0D01*
G01*
G37*
%TD.AperFunction*%
%TD*%
%TO.P,R11,2*%
%TO.N,/Button0*%
%TA.AperFunction,SMDPad,CuDef*%
G36*
G01*
X83304801Y-46996400D02*
X82404799Y-46996400D01*
G75*
G02*
X82154800Y-46746401I0J249999D01*
G01*
X82154800Y-46046399D01*
G75*
G02*
X82404799Y-45796400I249999J0D01*
G01*
X83304801Y-45796400D01*
G75*
G02*
X83554800Y-46046399I0J-249999D01*
G01*
X83554800Y-46746401D01*
G75*
G02*
X83304801Y-46996400I-249999J0D01*
G01*
G37*
%TD.AperFunction*%
%TO.P,R11,1*%
%TO.N,+3V3*%
%TA.AperFunction,SMDPad,CuDef*%
G36*
G01*
X83304801Y-48996400D02*
X82404799Y-48996400D01*
G75*
G02*
X82154800Y-48746401I0J249999D01*
G01*
X82154800Y-48046399D01*
G75*
G02*
X82404799Y-47796400I249999J0D01*
G01*
X83304801Y-47796400D01*
G75*
G02*
X83554800Y-48046399I0J-249999D01*
G01*
X83554800Y-48746401D01*
G75*
G02*
X83304801Y-48996400I-249999J0D01*
G01*
G37*
%TD.AperFunction*%
%TD*%
%TO.P,R10,2*%
%TO.N,/SD_D2*%
%TA.AperFunction,SMDPad,CuDef*%
G36*
G01*
X89786000Y-51721599D02*
X89786000Y-52621601D01*
G75*
G02*
X89536001Y-52871600I-249999J0D01*
G01*
X88835999Y-52871600D01*
G75*
G02*
X88586000Y-52621601I0J249999D01*
G01*
X88586000Y-51721599D01*
G75*
G02*
X88835999Y-51471600I249999J0D01*
G01*
X89536001Y-51471600D01*
G75*
G02*
X89786000Y-51721599I0J-249999D01*
G01*
G37*
%TD.AperFunction*%
%TO.P,R10,1*%
%TO.N,+3V3*%
%TA.AperFunction,SMDPad,CuDef*%
G36*
G01*
X91786000Y-51721599D02*
X91786000Y-52621601D01*
G75*
G02*
X91536001Y-52871600I-249999J0D01*
G01*
X90835999Y-52871600D01*
G75*
G02*
X90586000Y-52621601I0J249999D01*
G01*
X90586000Y-51721599D01*
G75*
G02*
X90835999Y-51471600I249999J0D01*
G01*
X91536001Y-51471600D01*
G75*
G02*
X91786000Y-51721599I0J-249999D01*
G01*
G37*
%TD.AperFunction*%
%TD*%
%TO.P,R9,2*%
%TO.N,+3V3*%
%TA.AperFunction,SMDPad,CuDef*%
G36*
G01*
X104028800Y-55023599D02*
X104028800Y-55923601D01*
G75*
G02*
X103778801Y-56173600I-249999J0D01*
G01*
X103078799Y-56173600D01*
G75*
G02*
X102828800Y-55923601I0J249999D01*
G01*
X102828800Y-55023599D01*
G75*
G02*
X103078799Y-54773600I249999J0D01*
G01*
X103778801Y-54773600D01*
G75*
G02*
X104028800Y-55023599I0J-249999D01*
G01*
G37*
%TD.AperFunction*%
%TO.P,R9,1*%
%TO.N,/SD_D1*%
%TA.AperFunction,SMDPad,CuDef*%
G36*
G01*
X106028800Y-55023599D02*
X106028800Y-55923601D01*
G75*
G02*
X105778801Y-56173600I-249999J0D01*
G01*
X105078799Y-56173600D01*
G75*
G02*
X104828800Y-55923601I0J249999D01*
G01*
X104828800Y-55023599D01*
G75*
G02*
X105078799Y-54773600I249999J0D01*
G01*
X105778801Y-54773600D01*
G75*
G02*
X106028800Y-55023599I0J-249999D01*
G01*
G37*
%TD.AperFunction*%
%TD*%
%TO.P,R8,2*%
%TO.N,/SD_D3*%
%TA.AperFunction,SMDPad,CuDef*%
G36*
G01*
X89786000Y-54972799D02*
X89786000Y-55872801D01*
G75*
G02*
X89536001Y-56122800I-249999J0D01*
G01*
X88835999Y-56122800D01*
G75*
G02*
X88586000Y-55872801I0J249999D01*
G01*
X88586000Y-54972799D01*
G75*
G02*
X88835999Y-54722800I249999J0D01*
G01*
X89536001Y-54722800D01*
G75*
G02*
X89786000Y-54972799I0J-249999D01*
G01*
G37*
%TD.AperFunction*%
%TO.P,R8,1*%
%TO.N,+3V3*%
%TA.AperFunction,SMDPad,CuDef*%
G36*
G01*
X91786000Y-54972799D02*
X91786000Y-55872801D01*
G75*
G02*
X91536001Y-56122800I-249999J0D01*
G01*
X90835999Y-56122800D01*
G75*
G02*
X90586000Y-55872801I0J249999D01*
G01*
X90586000Y-54972799D01*
G75*
G02*
X90835999Y-54722800I249999J0D01*
G01*
X91536001Y-54722800D01*
G75*
G02*
X91786000Y-54972799I0J-249999D01*
G01*
G37*
%TD.AperFunction*%
%TD*%
%TO.P,R7,2*%
%TO.N,+3V3*%
%TA.AperFunction,SMDPad,CuDef*%
G36*
G01*
X104044800Y-51670799D02*
X104044800Y-52570801D01*
G75*
G02*
X103794801Y-52820800I-249999J0D01*
G01*
X103094799Y-52820800D01*
G75*
G02*
X102844800Y-52570801I0J249999D01*
G01*
X102844800Y-51670799D01*
G75*
G02*
X103094799Y-51420800I249999J0D01*
G01*
X103794801Y-51420800D01*
G75*
G02*
X104044800Y-51670799I0J-249999D01*
G01*
G37*
%TD.AperFunction*%
%TO.P,R7,1*%
%TO.N,/SD_D0*%
%TA.AperFunction,SMDPad,CuDef*%
G36*
G01*
X106044800Y-51670799D02*
X106044800Y-52570801D01*
G75*
G02*
X105794801Y-52820800I-249999J0D01*
G01*
X105094799Y-52820800D01*
G75*
G02*
X104844800Y-52570801I0J249999D01*
G01*
X104844800Y-51670799D01*
G75*
G02*
X105094799Y-51420800I249999J0D01*
G01*
X105794801Y-51420800D01*
G75*
G02*
X106044800Y-51670799I0J-249999D01*
G01*
G37*
%TD.AperFunction*%
%TD*%
%TO.P,R6,2*%
%TO.N,/SD_CMD*%
%TA.AperFunction,SMDPad,CuDef*%
G36*
G01*
X89786000Y-58376399D02*
X89786000Y-59276401D01*
G75*
G02*
X89536001Y-59526400I-249999J0D01*
G01*
X88835999Y-59526400D01*
G75*
G02*
X88586000Y-59276401I0J249999D01*
G01*
X88586000Y-58376399D01*
G75*
G02*
X88835999Y-58126400I249999J0D01*
G01*
X89536001Y-58126400D01*
G75*
G02*
X89786000Y-58376399I0J-249999D01*
G01*
G37*
%TD.AperFunction*%
%TO.P,R6,1*%
%TO.N,+3V3*%
%TA.AperFunction,SMDPad,CuDef*%
G36*
G01*
X91786000Y-58376399D02*
X91786000Y-59276401D01*
G75*
G02*
X91536001Y-59526400I-249999J0D01*
G01*
X90835999Y-59526400D01*
G75*
G02*
X90586000Y-59276401I0J249999D01*
G01*
X90586000Y-58376399D01*
G75*
G02*
X90835999Y-58126400I249999J0D01*
G01*
X91536001Y-58126400D01*
G75*
G02*
X91786000Y-58376399I0J-249999D01*
G01*
G37*
%TD.AperFunction*%
%TD*%
%TO.P,R3,2*%
%TO.N,Net-(J2-Pad3)*%
%TA.AperFunction,SMDPad,CuDef*%
G36*
G01*
X91585201Y-80880000D02*
X90685199Y-80880000D01*
G75*
G02*
X90435200Y-80630001I0J249999D01*
G01*
X90435200Y-79929999D01*
G75*
G02*
X90685199Y-79680000I249999J0D01*
G01*
X91585201Y-79680000D01*
G75*
G02*
X91835200Y-79929999I0J-249999D01*
G01*
X91835200Y-80630001D01*
G75*
G02*
X91585201Y-80880000I-249999J0D01*
G01*
G37*
%TD.AperFunction*%
%TO.P,R3,1*%
%TO.N,Net-(J2-Pad1)*%
%TA.AperFunction,SMDPad,CuDef*%
G36*
G01*
X91585201Y-82880000D02*
X90685199Y-82880000D01*
G75*
G02*
X90435200Y-82630001I0J249999D01*
G01*
X90435200Y-81929999D01*
G75*
G02*
X90685199Y-81680000I249999J0D01*
G01*
X91585201Y-81680000D01*
G75*
G02*
X91835200Y-81929999I0J-249999D01*
G01*
X91835200Y-82630001D01*
G75*
G02*
X91585201Y-82880000I-249999J0D01*
G01*
G37*
%TD.AperFunction*%
%TD*%
%TO.P,R2,2*%
%TO.N,/USB_D-*%
%TA.AperFunction,SMDPad,CuDef*%
G36*
G01*
X95192001Y-80880000D02*
X94291999Y-80880000D01*
G75*
G02*
X94042000Y-80630001I0J249999D01*
G01*
X94042000Y-79929999D01*
G75*
G02*
X94291999Y-79680000I249999J0D01*
G01*
X95192001Y-79680000D01*
G75*
G02*
X95442000Y-79929999I0J-249999D01*
G01*
X95442000Y-80630001D01*
G75*
G02*
X95192001Y-80880000I-249999J0D01*
G01*
G37*
%TD.AperFunction*%
%TO.P,R2,1*%
%TO.N,Net-(J2-Pad2)*%
%TA.AperFunction,SMDPad,CuDef*%
G36*
G01*
X95192001Y-82880000D02*
X94291999Y-82880000D01*
G75*
G02*
X94042000Y-82630001I0J249999D01*
G01*
X94042000Y-81929999D01*
G75*
G02*
X94291999Y-81680000I249999J0D01*
G01*
X95192001Y-81680000D01*
G75*
G02*
X95442000Y-81929999I0J-249999D01*
G01*
X95442000Y-82630001D01*
G75*
G02*
X95192001Y-82880000I-249999J0D01*
G01*
G37*
%TD.AperFunction*%
%TD*%
%TO.P,R1,2*%
%TO.N,/USB_D+*%
%TA.AperFunction,SMDPad,CuDef*%
G36*
G01*
X98849601Y-80914800D02*
X97949599Y-80914800D01*
G75*
G02*
X97699600Y-80664801I0J249999D01*
G01*
X97699600Y-79964799D01*
G75*
G02*
X97949599Y-79714800I249999J0D01*
G01*
X98849601Y-79714800D01*
G75*
G02*
X99099600Y-79964799I0J-249999D01*
G01*
X99099600Y-80664801D01*
G75*
G02*
X98849601Y-80914800I-249999J0D01*
G01*
G37*
%TD.AperFunction*%
%TO.P,R1,1*%
%TO.N,Net-(J2-Pad3)*%
%TA.AperFunction,SMDPad,CuDef*%
G36*
G01*
X98849601Y-82914800D02*
X97949599Y-82914800D01*
G75*
G02*
X97699600Y-82664801I0J249999D01*
G01*
X97699600Y-81964799D01*
G75*
G02*
X97949599Y-81714800I249999J0D01*
G01*
X98849601Y-81714800D01*
G75*
G02*
X99099600Y-81964799I0J-249999D01*
G01*
X99099600Y-82664801D01*
G75*
G02*
X98849601Y-82914800I-249999J0D01*
G01*
G37*
%TD.AperFunction*%
%TD*%
%TO.P,C18,2*%
%TO.N,/Button1*%
%TA.AperFunction,SMDPad,CuDef*%
G36*
G01*
X67027300Y-61739800D02*
X67027300Y-60789800D01*
G75*
G02*
X67277300Y-60539800I250000J0D01*
G01*
X67952300Y-60539800D01*
G75*
G02*
X68202300Y-60789800I0J-250000D01*
G01*
X68202300Y-61739800D01*
G75*
G02*
X67952300Y-61989800I-250000J0D01*
G01*
X67277300Y-61989800D01*
G75*
G02*
X67027300Y-61739800I0J250000D01*
G01*
G37*
%TD.AperFunction*%
%TO.P,C18,1*%
%TO.N,Net-(C18-Pad1)*%
%TA.AperFunction,SMDPad,CuDef*%
G36*
G01*
X64952300Y-61739800D02*
X64952300Y-60789800D01*
G75*
G02*
X65202300Y-60539800I250000J0D01*
G01*
X65877300Y-60539800D01*
G75*
G02*
X66127300Y-60789800I0J-250000D01*
G01*
X66127300Y-61739800D01*
G75*
G02*
X65877300Y-61989800I-250000J0D01*
G01*
X65202300Y-61989800D01*
G75*
G02*
X64952300Y-61739800I0J250000D01*
G01*
G37*
%TD.AperFunction*%
%TD*%
%TO.P,C14,2*%
%TO.N,GND*%
%TA.AperFunction,SMDPad,CuDef*%
G36*
G01*
X64407200Y-75455800D02*
X64407200Y-74505800D01*
G75*
G02*
X64657200Y-74255800I250000J0D01*
G01*
X65332200Y-74255800D01*
G75*
G02*
X65582200Y-74505800I0J-250000D01*
G01*
X65582200Y-75455800D01*
G75*
G02*
X65332200Y-75705800I-250000J0D01*
G01*
X64657200Y-75705800D01*
G75*
G02*
X64407200Y-75455800I0J250000D01*
G01*
G37*
%TD.AperFunction*%
%TO.P,C14,1*%
%TO.N,/NRST*%
%TA.AperFunction,SMDPad,CuDef*%
G36*
G01*
X62332200Y-75455800D02*
X62332200Y-74505800D01*
G75*
G02*
X62582200Y-74255800I250000J0D01*
G01*
X63257200Y-74255800D01*
G75*
G02*
X63507200Y-74505800I0J-250000D01*
G01*
X63507200Y-75455800D01*
G75*
G02*
X63257200Y-75705800I-250000J0D01*
G01*
X62582200Y-75705800D01*
G75*
G02*
X62332200Y-75455800I0J250000D01*
G01*
G37*
%TD.AperFunction*%
%TD*%
%TO.P,C11,2*%
%TO.N,GND*%
%TA.AperFunction,SMDPad,CuDef*%
G36*
G01*
X96984400Y-51645800D02*
X96984400Y-52595800D01*
G75*
G02*
X96734400Y-52845800I-250000J0D01*
G01*
X96059400Y-52845800D01*
G75*
G02*
X95809400Y-52595800I0J250000D01*
G01*
X95809400Y-51645800D01*
G75*
G02*
X96059400Y-51395800I250000J0D01*
G01*
X96734400Y-51395800D01*
G75*
G02*
X96984400Y-51645800I0J-250000D01*
G01*
G37*
%TD.AperFunction*%
%TO.P,C11,1*%
%TO.N,+3V3*%
%TA.AperFunction,SMDPad,CuDef*%
G36*
G01*
X99059400Y-51645800D02*
X99059400Y-52595800D01*
G75*
G02*
X98809400Y-52845800I-250000J0D01*
G01*
X98134400Y-52845800D01*
G75*
G02*
X97884400Y-52595800I0J250000D01*
G01*
X97884400Y-51645800D01*
G75*
G02*
X98134400Y-51395800I250000J0D01*
G01*
X98809400Y-51395800D01*
G75*
G02*
X99059400Y-51645800I0J-250000D01*
G01*
G37*
%TD.AperFunction*%
%TD*%
%TO.P,C9,2*%
%TO.N,GND*%
%TA.AperFunction,SMDPad,CuDef*%
G36*
G01*
X97005900Y-58351400D02*
X97005900Y-59301400D01*
G75*
G02*
X96755900Y-59551400I-250000J0D01*
G01*
X96080900Y-59551400D01*
G75*
G02*
X95830900Y-59301400I0J250000D01*
G01*
X95830900Y-58351400D01*
G75*
G02*
X96080900Y-58101400I250000J0D01*
G01*
X96755900Y-58101400D01*
G75*
G02*
X97005900Y-58351400I0J-250000D01*
G01*
G37*
%TD.AperFunction*%
%TO.P,C9,1*%
%TO.N,+3V3*%
%TA.AperFunction,SMDPad,CuDef*%
G36*
G01*
X99080900Y-58351400D02*
X99080900Y-59301400D01*
G75*
G02*
X98830900Y-59551400I-250000J0D01*
G01*
X98155900Y-59551400D01*
G75*
G02*
X97905900Y-59301400I0J250000D01*
G01*
X97905900Y-58351400D01*
G75*
G02*
X98155900Y-58101400I250000J0D01*
G01*
X98830900Y-58101400D01*
G75*
G02*
X99080900Y-58351400I0J-250000D01*
G01*
G37*
%TD.AperFunction*%
%TD*%
%TO.P,C7,2*%
%TO.N,GND*%
%TA.AperFunction,SMDPad,CuDef*%
G36*
G01*
X96962900Y-54947800D02*
X96962900Y-55897800D01*
G75*
G02*
X96712900Y-56147800I-250000J0D01*
G01*
X96037900Y-56147800D01*
G75*
G02*
X95787900Y-55897800I0J250000D01*
G01*
X95787900Y-54947800D01*
G75*
G02*
X96037900Y-54697800I250000J0D01*
G01*
X96712900Y-54697800D01*
G75*
G02*
X96962900Y-54947800I0J-250000D01*
G01*
G37*
%TD.AperFunction*%
%TO.P,C7,1*%
%TO.N,+3V3*%
%TA.AperFunction,SMDPad,CuDef*%
G36*
G01*
X99037900Y-54947800D02*
X99037900Y-55897800D01*
G75*
G02*
X98787900Y-56147800I-250000J0D01*
G01*
X98112900Y-56147800D01*
G75*
G02*
X97862900Y-55897800I0J250000D01*
G01*
X97862900Y-54947800D01*
G75*
G02*
X98112900Y-54697800I250000J0D01*
G01*
X98787900Y-54697800D01*
G75*
G02*
X99037900Y-54947800I0J-250000D01*
G01*
G37*
%TD.AperFunction*%
%TD*%
D35*
%TO.P,BT2,2*%
%TO.N,GND*%
X49123600Y-61584800D03*
%TO.P,BT2,1*%
%TO.N,/BAT_RTC*%
X49123600Y-81584800D03*
%TD*%
D11*
%TO.P,BT1,2*%
%TO.N,GND*%
X46583600Y-51104800D03*
D12*
%TO.P,BT1,1*%
%TO.N,/BAT_AA*%
X46583600Y-48564800D03*
%TD*%
D36*
%TO.N,GND*%
X94589600Y-57048400D03*
X100736400Y-50088800D03*
X81737200Y-56794400D03*
X74371200Y-80568800D03*
X65481200Y-66802000D03*
X68935600Y-66649600D03*
X78079600Y-70358000D03*
X84328000Y-65522400D03*
X92710000Y-66344800D03*
D37*
%TO.N,/V_IN*%
X69646800Y-53746400D03*
D36*
%TO.N,+3V3*%
X98501200Y-61569600D03*
X93218000Y-58826400D03*
X91186000Y-53848000D03*
X103378000Y-59080400D03*
X92964000Y-68275200D03*
%TO.N,/NRST*%
X76606400Y-74930000D03*
%TO.N,/USB_D+*%
X90474800Y-74930000D03*
%TO.N,/USB_D-*%
X93624400Y-78232000D03*
%TO.N,/SD_CMD*%
X80416400Y-83566000D03*
%TO.N,/SD_D0*%
X90424000Y-71932800D03*
%TO.N,/SD_D3*%
X81483200Y-83007200D03*
%TO.N,/SD_D1*%
X90424000Y-73101200D03*
%TO.N,/SD_D2*%
X82346800Y-82194400D03*
%TO.N,/Button0*%
X79298800Y-75692000D03*
X84705100Y-46358900D03*
X80975200Y-64719200D03*
%TO.N,/Button1*%
X77470000Y-72755200D03*
%TO.N,/BOOT0*%
X74371200Y-82296000D03*
%TO.N,/SD_CLK*%
X81889600Y-75742800D03*
%TO.N,/SWDIO*%
X78384400Y-74930000D03*
%TO.N,/ESP_TX*%
X99314000Y-67106800D03*
%TO.N,/LED2*%
X70002400Y-70358000D03*
%TO.N,/LED1*%
X70002400Y-71577200D03*
%TO.N,/LED0*%
X70866000Y-72339200D03*
%TO.N,/SD_CD*%
X80416400Y-75692000D03*
%TD*%
D38*
%TO.N,GND*%
X96396900Y-52120800D02*
X96418400Y-52142300D01*
D39*
X82712000Y-63906400D02*
X84328000Y-65522400D01*
X80813201Y-63915999D02*
X80000401Y-63915999D01*
X82712000Y-63906400D02*
X80822800Y-63906400D01*
X80822800Y-63906400D02*
X80813201Y-63915999D01*
D40*
%TO.N,/BAT_AA*%
X46583600Y-48564800D02*
X49123600Y-48564800D01*
X50773600Y-46914800D02*
X54203600Y-46914800D01*
X50773600Y-46914800D02*
X49123600Y-48564800D01*
%TO.N,/V_IN*%
X54203600Y-42214800D02*
X61823600Y-42214800D01*
D41*
X70789800Y-54914800D02*
X69621400Y-53746400D01*
X72823600Y-54914800D02*
X70789800Y-54914800D01*
D40*
%TO.N,+3V3*%
X68173600Y-39674800D02*
X68173600Y-44500800D01*
X68173600Y-44500800D02*
X65125600Y-47548800D01*
X65125600Y-47548800D02*
X61569600Y-47548800D01*
D41*
X63523600Y-52374800D02*
X60782200Y-52374800D01*
X60782200Y-52374800D02*
X58762900Y-50355500D01*
D40*
X61569600Y-47548800D02*
X58762900Y-50355500D01*
X58762900Y-50355500D02*
X55473600Y-53644800D01*
X82854800Y-59283600D02*
X83947000Y-60375800D01*
X83947000Y-60375800D02*
X83947000Y-61569600D01*
X59080400Y-57302400D02*
X61061600Y-59283600D01*
X59080400Y-55067200D02*
X59080400Y-57302400D01*
X57708800Y-53695600D02*
X59080400Y-55067200D01*
X57708800Y-53644800D02*
X57708800Y-53695600D01*
X55473600Y-53644800D02*
X57708800Y-53644800D01*
X98501200Y-59088200D02*
X98493400Y-59080400D01*
X98493400Y-52142300D02*
X98471900Y-52120800D01*
D39*
X98600800Y-51610800D02*
X98602800Y-51612800D01*
X98600800Y-47599600D02*
X98600800Y-51610800D01*
D40*
X98471900Y-55401300D02*
X98450400Y-55422800D01*
X98471900Y-52120800D02*
X98471900Y-55401300D01*
X98450400Y-58783400D02*
X98493400Y-58826400D01*
X98450400Y-55422800D02*
X98450400Y-58783400D01*
X98493400Y-61561800D02*
X98501200Y-61569600D01*
X98493400Y-58826400D02*
X98493400Y-61561800D01*
D39*
X91186000Y-58826400D02*
X93218000Y-58826400D01*
X91186000Y-55422800D02*
X91186000Y-53848000D01*
X91186000Y-53848000D02*
X91186000Y-52171600D01*
X82854800Y-48396400D02*
X82854800Y-49377600D01*
X80873600Y-51358800D02*
X80873600Y-59283600D01*
X82854800Y-49377600D02*
X80873600Y-51358800D01*
D40*
X61061600Y-59283600D02*
X80873600Y-59283600D01*
X80873600Y-59283600D02*
X82854800Y-59283600D01*
D39*
X103444800Y-52120800D02*
X103444800Y-55457600D01*
X103444800Y-55457600D02*
X103428800Y-55473600D01*
X103428800Y-55473600D02*
X103428800Y-59029600D01*
X103428800Y-59029600D02*
X103378000Y-59080400D01*
X98501200Y-62738000D02*
X92964000Y-68275200D01*
X98501200Y-61569600D02*
X98501200Y-62738000D01*
D40*
X55473600Y-53644800D02*
X52781200Y-53644800D01*
X86004400Y-88950800D02*
X86004400Y-86004400D01*
X84683600Y-90271600D02*
X86004400Y-88950800D01*
X68478400Y-86004400D02*
X68478400Y-90271600D01*
X68478400Y-90271600D02*
X84683600Y-90271600D01*
D39*
X45313600Y-86290400D02*
X44011600Y-86290400D01*
X44011600Y-86290400D02*
X43484800Y-86817200D01*
X43484800Y-90220800D02*
X43434000Y-90271600D01*
X43484800Y-86817200D02*
X43484800Y-90220800D01*
X54254400Y-86274400D02*
X52968400Y-86274400D01*
X52968400Y-86274400D02*
X52425600Y-86817200D01*
X52425600Y-89916000D02*
X52070000Y-90271600D01*
X52425600Y-86817200D02*
X52425600Y-89916000D01*
D40*
X43434000Y-90271600D02*
X52070000Y-90271600D01*
X52070000Y-90271600D02*
X68478400Y-90271600D01*
X38608000Y-90271600D02*
X43434000Y-90271600D01*
X37744400Y-89408000D02*
X38608000Y-90271600D01*
X37744400Y-80314800D02*
X37744400Y-89408000D01*
X37744400Y-68681600D02*
X40208200Y-66217800D01*
X52781200Y-53644800D02*
X40208200Y-66217800D01*
D39*
X41878000Y-81026000D02*
X41878000Y-79673200D01*
X41878000Y-79673200D02*
X40690800Y-78486000D01*
D40*
X37744400Y-80314800D02*
X37744400Y-78486000D01*
D39*
X40690800Y-78486000D02*
X37744400Y-78486000D01*
D40*
X37744400Y-78486000D02*
X37744400Y-68681600D01*
D39*
X74015600Y-65227200D02*
X74015600Y-66614800D01*
X83947000Y-62661800D02*
X83362800Y-63246000D01*
X75996800Y-63246000D02*
X74015600Y-65227200D01*
X83362800Y-63246000D02*
X75996800Y-63246000D01*
X83947000Y-61569600D02*
X83947000Y-62661800D01*
%TO.N,/NRST*%
X62919700Y-78238900D02*
X62944800Y-78264000D01*
X62919700Y-74980800D02*
X62919700Y-78238900D01*
X62944800Y-78264000D02*
X69744800Y-78264000D01*
X69744800Y-78264000D02*
X73272400Y-78264000D01*
X73272400Y-78264000D02*
X73297800Y-78264000D01*
X75844400Y-86004400D02*
X75844400Y-80721200D01*
X73297800Y-78264000D02*
X74002900Y-77558900D01*
X75844400Y-77165200D02*
X75120500Y-76441300D01*
X74002900Y-77558900D02*
X75120500Y-76441300D01*
X75844400Y-80721200D02*
X75844400Y-77165200D01*
X76606400Y-74930000D02*
X73272400Y-78264000D01*
%TO.N,Net-(C17-Pad1)*%
X82854800Y-51155600D02*
X82854800Y-53051200D01*
X83464400Y-50546000D02*
X82854800Y-51155600D01*
X86004400Y-50546000D02*
X83464400Y-50546000D01*
X86563200Y-49987200D02*
X86004400Y-50546000D01*
X86563200Y-48433900D02*
X86563200Y-49987200D01*
%TO.N,Net-(C18-Pad1)*%
X61334400Y-61264800D02*
X65539800Y-61264800D01*
D40*
%TO.N,/5V_DC*%
X54075600Y-37642800D02*
X54203600Y-37514800D01*
X46741600Y-37642800D02*
X54075600Y-37642800D01*
D39*
%TO.N,/USB_D+*%
X98399600Y-80314800D02*
X93014800Y-74930000D01*
X93014800Y-74930000D02*
X90474800Y-74930000D01*
D42*
%TO.N,Net-(J2-Pad3)*%
X95400700Y-86986200D02*
X95400700Y-85701300D01*
X95400700Y-85701300D02*
X95859600Y-85242400D01*
D39*
X98399600Y-82314800D02*
X98399600Y-83667600D01*
X97561400Y-84505800D02*
X96596200Y-84505800D01*
X98399600Y-83667600D02*
X97561400Y-84505800D01*
X95859600Y-85242400D02*
X96596200Y-84505800D01*
X96596200Y-79425800D02*
X96596200Y-84505800D01*
X92659200Y-77063600D02*
X94234000Y-77063600D01*
X94234000Y-77063600D02*
X96596200Y-79425800D01*
X91135200Y-78587600D02*
X92659200Y-77063600D01*
X91135200Y-80280000D02*
X91135200Y-78587600D01*
%TO.N,/USB_D-*%
X94726000Y-80264000D02*
X94742000Y-80280000D01*
X94742000Y-80280000D02*
X94742000Y-79349600D01*
X94742000Y-79349600D02*
X93624400Y-78232000D01*
D42*
%TO.N,Net-(J2-Pad2)*%
X94750700Y-86986200D02*
X94750700Y-85352700D01*
D39*
X94742000Y-82280000D02*
X94742000Y-85191600D01*
D42*
%TO.N,Net-(J2-Pad1)*%
X94100700Y-86986200D02*
X94100700Y-85566300D01*
X94100700Y-85566300D02*
X93776800Y-85242400D01*
D39*
X91135200Y-82600800D02*
X93776800Y-85242400D01*
X91135200Y-82280000D02*
X91135200Y-82600800D01*
%TO.N,/SD_CMD*%
X96824800Y-50596800D02*
X97500800Y-49920800D01*
X94640400Y-51409600D02*
X95453200Y-50596800D01*
X89186000Y-57893200D02*
X89573600Y-57505600D01*
X94640400Y-55575200D02*
X94640400Y-51409600D01*
X89186000Y-58826400D02*
X89186000Y-57893200D01*
X89573600Y-57505600D02*
X92710000Y-57505600D01*
X97500800Y-49920800D02*
X97500800Y-47599600D01*
X95453200Y-50596800D02*
X96824800Y-50596800D01*
X92710000Y-57505600D02*
X94640400Y-55575200D01*
X81076800Y-84226400D02*
X80416400Y-83566000D01*
X82804000Y-84226400D02*
X81076800Y-84226400D01*
X89186000Y-58826400D02*
X89186000Y-77844400D01*
X89186000Y-77844400D02*
X82804000Y-84226400D01*
%TO.N,/SD_D0*%
X105444800Y-52120800D02*
X105444800Y-50885600D01*
X105444800Y-50885600D02*
X105054400Y-50495200D01*
X101900800Y-49932400D02*
X101900800Y-47599600D01*
X101904800Y-50495200D02*
X101900800Y-50491200D01*
X102768400Y-50495200D02*
X101904800Y-50495200D01*
X105054400Y-50495200D02*
X102768400Y-50495200D01*
X101900800Y-49932400D02*
X101900800Y-50491200D01*
X91440000Y-71932800D02*
X90424000Y-71932800D01*
X101900800Y-50491200D02*
X101900800Y-61472000D01*
X101900800Y-61472000D02*
X91440000Y-71932800D01*
%TO.N,/SD_D3*%
X89186000Y-55422800D02*
X88087200Y-55422800D01*
X88087200Y-55422800D02*
X87630000Y-55880000D01*
X87630000Y-55880000D02*
X87630000Y-78384400D01*
X81492799Y-82997601D02*
X81483200Y-83007200D01*
X87630000Y-78384400D02*
X83016799Y-82997601D01*
X83016799Y-82997601D02*
X81492799Y-82997601D01*
X89186000Y-56420000D02*
X89186000Y-55422800D01*
X89509600Y-56743600D02*
X89186000Y-56420000D01*
X91998800Y-56743600D02*
X89509600Y-56743600D01*
X96400800Y-49207600D02*
X96027600Y-49580800D01*
X96400800Y-47599600D02*
X96400800Y-49207600D01*
X93421200Y-55321200D02*
X91998800Y-56743600D01*
X94335600Y-49580800D02*
X93421200Y-50495200D01*
X96027600Y-49580800D02*
X94335600Y-49580800D01*
X93421200Y-50495200D02*
X93421200Y-55321200D01*
%TO.N,/SD_D1*%
X105918000Y-53848000D02*
X105428800Y-54337200D01*
X106527600Y-53848000D02*
X105918000Y-53848000D01*
X107035600Y-53340000D02*
X106527600Y-53848000D01*
X107035600Y-50190400D02*
X107035600Y-53340000D01*
X105428800Y-54337200D02*
X105428800Y-55473600D01*
X106527600Y-49682400D02*
X107035600Y-50190400D01*
X103327200Y-49682400D02*
X106527600Y-49682400D01*
X103000800Y-49356000D02*
X103327200Y-49682400D01*
X103000800Y-47599600D02*
X103000800Y-49356000D01*
X105428800Y-55473600D02*
X105428800Y-59214000D01*
X91541600Y-73101200D02*
X90424000Y-73101200D01*
X105428800Y-59214000D02*
X91541600Y-73101200D01*
%TO.N,/SD_D2*%
X86918800Y-53838800D02*
X88586000Y-52171600D01*
X86918800Y-77622400D02*
X86918800Y-53838800D01*
X88586000Y-52171600D02*
X89186000Y-52171600D01*
X82346800Y-82194400D02*
X86918800Y-77622400D01*
X89186000Y-50984400D02*
X89186000Y-52171600D01*
X89668600Y-50501800D02*
X89186000Y-50984400D01*
X92449400Y-50501800D02*
X89668600Y-50501800D01*
X95300800Y-48615600D02*
X95300800Y-47599600D01*
X95097600Y-48818800D02*
X95300800Y-48615600D01*
X93726000Y-49225200D02*
X92449400Y-50501800D01*
X93726000Y-49225200D02*
X92713190Y-50238010D01*
X94005400Y-48945800D02*
X93726000Y-49225200D01*
X94132400Y-48818800D02*
X94894400Y-48818800D01*
X93726000Y-49225200D02*
X94132400Y-48818800D01*
X94183200Y-48818800D02*
X94894400Y-48818800D01*
X94894400Y-48818800D02*
X95097600Y-48818800D01*
%TO.N,/Button0*%
X82360000Y-35001200D02*
X82360000Y-41801200D01*
X86525700Y-46396400D02*
X86563200Y-46358900D01*
X82854800Y-46396400D02*
X86525700Y-46396400D01*
X86563200Y-46358900D02*
X84705100Y-46358900D01*
X82360000Y-41801200D02*
X82360000Y-44666400D01*
X82854800Y-45161200D02*
X82854800Y-46396400D01*
X82360000Y-44666400D02*
X82854800Y-45161200D01*
X84705100Y-46358900D02*
X83168520Y-46358900D01*
X79298800Y-65836800D02*
X80238600Y-64897000D01*
X79298800Y-75692000D02*
X79298800Y-65836800D01*
X80416400Y-64719200D02*
X80238600Y-64897000D01*
X80975200Y-64719200D02*
X80416400Y-64719200D01*
%TO.N,/Button1*%
X74012800Y-68617600D02*
X74015600Y-68614800D01*
X69240400Y-68617600D02*
X74012800Y-68617600D01*
X74715600Y-68614800D02*
X76860400Y-70759600D01*
X74015600Y-68614800D02*
X74715600Y-68614800D01*
X76860400Y-70759600D02*
X76860400Y-71780400D01*
X76860400Y-71780400D02*
X76860400Y-72145600D01*
X76860400Y-72145600D02*
X77470000Y-72755200D01*
X67614800Y-61264800D02*
X67614800Y-62585600D01*
X67614800Y-62585600D02*
X66548000Y-63652400D01*
X66548000Y-65925200D02*
X66548000Y-63652400D01*
X69240400Y-68617600D02*
X66548000Y-65925200D01*
X62440400Y-68617600D02*
X69240400Y-68617600D01*
%TO.N,Net-(D2-Pad2)*%
X58505600Y-88274400D02*
X58521600Y-88290400D01*
X54254400Y-88274400D02*
X58505600Y-88274400D01*
%TO.N,Net-(D3-Pad2)*%
X49706400Y-88290400D02*
X49733200Y-88317200D01*
X45313600Y-88290400D02*
X49706400Y-88290400D01*
%TO.N,Net-(D4-Pad2)*%
X38709600Y-81432400D02*
X39116000Y-81026000D01*
X38709600Y-87731600D02*
X38709600Y-81432400D01*
X39116000Y-81026000D02*
X39878000Y-81026000D01*
X40792400Y-88293200D02*
X39271200Y-88293200D01*
X39271200Y-88293200D02*
X38709600Y-87731600D01*
%TO.N,/BOOT0*%
X65938400Y-86004400D02*
X65938400Y-84683600D01*
X65938400Y-84683600D02*
X66852800Y-83769200D01*
X74371200Y-82321938D02*
X74371200Y-82296000D01*
X66852800Y-83769200D02*
X72923938Y-83769200D01*
X72923938Y-83769200D02*
X74371200Y-82321938D01*
%TO.N,/SD_CLK*%
X86106000Y-71526400D02*
X81889600Y-75742800D01*
X89681207Y-49631600D02*
X86106000Y-53206807D01*
X92151200Y-49631600D02*
X89681207Y-49631600D01*
X94208600Y-47574200D02*
X92151200Y-49631600D01*
X99700800Y-46360800D02*
X99263200Y-45923200D01*
X99700800Y-47599600D02*
X99700800Y-46360800D01*
X99263200Y-45923200D02*
X94742000Y-45923200D01*
X86106000Y-53206807D02*
X86106000Y-71526400D01*
X94208600Y-46456600D02*
X94208600Y-47574200D01*
X94742000Y-45923200D02*
X94208600Y-46456600D01*
%TO.N,/SWDIO*%
X78384400Y-74930000D02*
X78384400Y-78028800D01*
X78384400Y-86004400D02*
X78384400Y-78028800D01*
X78384400Y-78028800D02*
X78384400Y-77520800D01*
%TO.N,/ESP_TX*%
X103089999Y-77588399D02*
X99940399Y-77588399D01*
X104343200Y-78841600D02*
X103089999Y-77588399D01*
X99940399Y-77588399D02*
X99314000Y-76962000D01*
X99314000Y-76962000D02*
X99314000Y-70053200D01*
X99314000Y-70053200D02*
X99314000Y-67360800D01*
%TO.N,/LED2*%
X67970400Y-70358000D02*
X70002400Y-70358000D01*
X40792400Y-85293200D02*
X41097200Y-85293200D01*
X56032400Y-70358000D02*
X70002400Y-70358000D01*
X41097200Y-85293200D02*
X56032400Y-70358000D01*
%TO.N,/LED1*%
X49733200Y-85317200D02*
X49733200Y-83972400D01*
X49733200Y-83972400D02*
X51460400Y-82245200D01*
X51460400Y-82245200D02*
X51460400Y-77216000D01*
X57099200Y-71577200D02*
X63906400Y-71577200D01*
X51460400Y-77216000D02*
X57099200Y-71577200D01*
X70002400Y-71577200D02*
X63906400Y-71577200D01*
%TO.N,/LED0*%
X58521600Y-80467200D02*
X58521600Y-85290400D01*
X58521600Y-75844400D02*
X58521600Y-80467200D01*
X61468000Y-72898000D02*
X58521600Y-75844400D01*
X70866000Y-72339200D02*
X70307200Y-72898000D01*
X70307200Y-72898000D02*
X61468000Y-72898000D01*
D41*
%TO.N,Net-(D1-Pad1)*%
X72823600Y-52374800D02*
X74980800Y-52374800D01*
X76210800Y-51144800D02*
X78333600Y-51144800D01*
X74980800Y-52374800D02*
X76210800Y-51144800D01*
D40*
X78073600Y-50884800D02*
X78333600Y-51144800D01*
X78073600Y-39674800D02*
X78073600Y-50884800D01*
D39*
%TO.N,/SD_CD*%
X84531200Y-71577200D02*
X80416400Y-75692000D01*
X85200201Y-53128199D02*
X85200201Y-70908199D01*
X91744800Y-48971200D02*
X89357200Y-48971200D01*
X85200201Y-70908199D02*
X84531200Y-71577200D01*
X89357200Y-48971200D02*
X85200201Y-53128199D01*
X93548200Y-47167800D02*
X91744800Y-48971200D01*
X93548200Y-46101000D02*
X93548200Y-47167800D01*
X102919600Y-45212000D02*
X94437200Y-45212000D01*
X94437200Y-45212000D02*
X93548200Y-46101000D01*
X104100800Y-46393200D02*
X102919600Y-45212000D01*
X104100800Y-47599600D02*
X104100800Y-46393200D01*
%TD*%
D42*
%TO.N,GND*%
G36*
X108384000Y-90555200D02*
G01*
X85836840Y-90555200D01*
X86687533Y-89704508D01*
X86726296Y-89672696D01*
X86853260Y-89517990D01*
X86947602Y-89341487D01*
X87005698Y-89149971D01*
X87020400Y-89000702D01*
X87020400Y-89000695D01*
X87025314Y-88950801D01*
X87020400Y-88900907D01*
X87020400Y-87334902D01*
X87049743Y-87326001D01*
X87137995Y-87278829D01*
X87215348Y-87215348D01*
X87278829Y-87137995D01*
X87326001Y-87049743D01*
X87355049Y-86953985D01*
X87364857Y-86854400D01*
X87364857Y-85154400D01*
X87355049Y-85054815D01*
X87326001Y-84959057D01*
X87278829Y-84870805D01*
X87215348Y-84793452D01*
X87137995Y-84729971D01*
X87049743Y-84682799D01*
X86953985Y-84653751D01*
X86854400Y-84643943D01*
X85154400Y-84643943D01*
X85054815Y-84653751D01*
X84959057Y-84682799D01*
X84870805Y-84729971D01*
X84793452Y-84793452D01*
X84729971Y-84870805D01*
X84682799Y-84959057D01*
X84653751Y-85054815D01*
X84643943Y-85154400D01*
X84643943Y-85325375D01*
X84519228Y-85138725D01*
X84330075Y-84949572D01*
X84107654Y-84800956D01*
X83860514Y-84698587D01*
X83598151Y-84646400D01*
X83389787Y-84646400D01*
X89664191Y-78371997D01*
X89691327Y-78349727D01*
X89780202Y-78241433D01*
X89846242Y-78117881D01*
X89886909Y-77983820D01*
X89897200Y-77879336D01*
X89897200Y-77879329D01*
X89900640Y-77844400D01*
X89897200Y-77809472D01*
X89897200Y-75636102D01*
X90044701Y-75734659D01*
X90209946Y-75803106D01*
X90385370Y-75838000D01*
X90564230Y-75838000D01*
X90739654Y-75803106D01*
X90904899Y-75734659D01*
X91044770Y-75641200D01*
X92720213Y-75641200D01*
X93431413Y-76352400D01*
X92694117Y-76352400D01*
X92659199Y-76348961D01*
X92624281Y-76352400D01*
X92624264Y-76352400D01*
X92519780Y-76362691D01*
X92385719Y-76403358D01*
X92328206Y-76434099D01*
X92262166Y-76469398D01*
X92181008Y-76536003D01*
X92181004Y-76536007D01*
X92153873Y-76558273D01*
X92131607Y-76585404D01*
X90657010Y-78060003D01*
X90629874Y-78082273D01*
X90607604Y-78109409D01*
X90607603Y-78109410D01*
X90540998Y-78190568D01*
X90511914Y-78244981D01*
X90474959Y-78314119D01*
X90437198Y-78438602D01*
X90434292Y-78448181D01*
X90420560Y-78587600D01*
X90424001Y-78622536D01*
X90424001Y-79218385D01*
X90394185Y-79227429D01*
X90262712Y-79297703D01*
X90147475Y-79392275D01*
X90052903Y-79507512D01*
X89982629Y-79638985D01*
X89939355Y-79781641D01*
X89924743Y-79929999D01*
X89924743Y-80630001D01*
X89939355Y-80778359D01*
X89982629Y-80921015D01*
X90052903Y-81052488D01*
X90147475Y-81167725D01*
X90262712Y-81262297D01*
X90295832Y-81280000D01*
X90262712Y-81297703D01*
X90147475Y-81392275D01*
X90052903Y-81507512D01*
X89982629Y-81638985D01*
X89939355Y-81781641D01*
X89924743Y-81929999D01*
X89924743Y-82630001D01*
X89939355Y-82778359D01*
X89982629Y-82921015D01*
X90052903Y-83052488D01*
X90147475Y-83167725D01*
X90262712Y-83262297D01*
X90394185Y-83332571D01*
X90536841Y-83375845D01*
X90685199Y-83390457D01*
X90919070Y-83390457D01*
X93298609Y-85769998D01*
X93379767Y-85836602D01*
X93491101Y-85896112D01*
X93491101Y-85964072D01*
X93451271Y-86012605D01*
X93404099Y-86100857D01*
X93375051Y-86196615D01*
X93365243Y-86296200D01*
X93365243Y-87676200D01*
X93375051Y-87775785D01*
X93404099Y-87871543D01*
X93451271Y-87959795D01*
X93514752Y-88037148D01*
X93592105Y-88100629D01*
X93680357Y-88147801D01*
X93776115Y-88176849D01*
X93875700Y-88186657D01*
X94325700Y-88186657D01*
X94425285Y-88176849D01*
X94425700Y-88176723D01*
X94426115Y-88176849D01*
X94525700Y-88186657D01*
X94975700Y-88186657D01*
X95075285Y-88176849D01*
X95075700Y-88176723D01*
X95076115Y-88176849D01*
X95175700Y-88186657D01*
X95625700Y-88186657D01*
X95725285Y-88176849D01*
X95821043Y-88147801D01*
X95909295Y-88100629D01*
X95986648Y-88037148D01*
X96050129Y-87959795D01*
X96097301Y-87871543D01*
X96126349Y-87775785D01*
X96136157Y-87676200D01*
X96136157Y-86296200D01*
X96126349Y-86196615D01*
X96097301Y-86100857D01*
X96050129Y-86012605D01*
X96010300Y-85964072D01*
X96010300Y-85953804D01*
X96030278Y-85933826D01*
X96133081Y-85902641D01*
X96256632Y-85836602D01*
X96337790Y-85769997D01*
X96890788Y-85217000D01*
X97526474Y-85217000D01*
X97561400Y-85220440D01*
X97596326Y-85217000D01*
X97596336Y-85217000D01*
X97700820Y-85206709D01*
X97834881Y-85166042D01*
X97958433Y-85100002D01*
X98066727Y-85011127D01*
X98089002Y-84983985D01*
X98877790Y-84195197D01*
X98904927Y-84172927D01*
X98993802Y-84064633D01*
X99015864Y-84023358D01*
X99059842Y-83941082D01*
X99100509Y-83807020D01*
X99106301Y-83748210D01*
X99110800Y-83702536D01*
X99110800Y-83702529D01*
X99114240Y-83667600D01*
X99110800Y-83632672D01*
X99110800Y-83376415D01*
X99140615Y-83367371D01*
X99272088Y-83297097D01*
X99387325Y-83202525D01*
X99481897Y-83087288D01*
X99552171Y-82955815D01*
X99595445Y-82813159D01*
X99610057Y-82664801D01*
X99610057Y-81964799D01*
X99595445Y-81816441D01*
X99552171Y-81673785D01*
X99481897Y-81542312D01*
X99387325Y-81427075D01*
X99272088Y-81332503D01*
X99238968Y-81314800D01*
X99272088Y-81297097D01*
X99387325Y-81202525D01*
X99481897Y-81087288D01*
X99552171Y-80955815D01*
X99595445Y-80813159D01*
X99610057Y-80664801D01*
X99610057Y-79964799D01*
X99595445Y-79816441D01*
X99552171Y-79673785D01*
X99481897Y-79542312D01*
X99387325Y-79427075D01*
X99272088Y-79332503D01*
X99140615Y-79262229D01*
X98997959Y-79218955D01*
X98849601Y-79204343D01*
X98294931Y-79204343D01*
X93542402Y-74451815D01*
X93520127Y-74424673D01*
X93411833Y-74335798D01*
X93288281Y-74269758D01*
X93154220Y-74229091D01*
X93049736Y-74218800D01*
X93049726Y-74218800D01*
X93014800Y-74215360D01*
X92979874Y-74218800D01*
X91044770Y-74218800D01*
X90904899Y-74125341D01*
X90739654Y-74056894D01*
X90564230Y-74022000D01*
X90385370Y-74022000D01*
X90209946Y-74056894D01*
X90044701Y-74125341D01*
X89897200Y-74223898D01*
X89897200Y-73841245D01*
X89993901Y-73905859D01*
X90159146Y-73974306D01*
X90334570Y-74009200D01*
X90513430Y-74009200D01*
X90688854Y-73974306D01*
X90854099Y-73905859D01*
X90993970Y-73812400D01*
X91506674Y-73812400D01*
X91541600Y-73815840D01*
X91576526Y-73812400D01*
X91576536Y-73812400D01*
X91681020Y-73802109D01*
X91815081Y-73761442D01*
X91938633Y-73695402D01*
X92046927Y-73606527D01*
X92069202Y-73579385D01*
X98413691Y-67234897D01*
X98440894Y-67371654D01*
X98509341Y-67536899D01*
X98602801Y-67676771D01*
X98602800Y-70088135D01*
X98602801Y-70088145D01*
X98602800Y-76927074D01*
X98599360Y-76962000D01*
X98602800Y-76996926D01*
X98602800Y-76996935D01*
X98613091Y-77101419D01*
X98653758Y-77235480D01*
X98719798Y-77359032D01*
X98808673Y-77467326D01*
X98835810Y-77489597D01*
X99412801Y-78066589D01*
X99435072Y-78093726D01*
X99543366Y-78182601D01*
X99666918Y-78248641D01*
X99800979Y-78289308D01*
X99905463Y-78299599D01*
X99905470Y-78299599D01*
X99940399Y-78303039D01*
X99975327Y-78299599D01*
X102795412Y-78299599D01*
X102982743Y-78486930D01*
X102982743Y-79691600D01*
X102992551Y-79791185D01*
X103021599Y-79886943D01*
X103068771Y-79975195D01*
X103132252Y-80052548D01*
X103209605Y-80116029D01*
X103297857Y-80163201D01*
X103393615Y-80192249D01*
X103493200Y-80202057D01*
X105193200Y-80202057D01*
X105292785Y-80192249D01*
X105388543Y-80163201D01*
X105476795Y-80116029D01*
X105554148Y-80052548D01*
X105617629Y-79975195D01*
X105664801Y-79886943D01*
X105693849Y-79791185D01*
X105703657Y-79691600D01*
X105703657Y-77991600D01*
X105693849Y-77892015D01*
X105664801Y-77796257D01*
X105617629Y-77708005D01*
X105554148Y-77630652D01*
X105476795Y-77567171D01*
X105388543Y-77519999D01*
X105292785Y-77490951D01*
X105193200Y-77481143D01*
X105022225Y-77481143D01*
X105208875Y-77356428D01*
X105398028Y-77167275D01*
X105546644Y-76944854D01*
X105649013Y-76697714D01*
X105701200Y-76435351D01*
X105701200Y-76167849D01*
X105649013Y-75905486D01*
X105546644Y-75658346D01*
X105398028Y-75435925D01*
X105208875Y-75246772D01*
X104986454Y-75098156D01*
X104825774Y-75031600D01*
X104986454Y-74965044D01*
X105208875Y-74816428D01*
X105398028Y-74627275D01*
X105546644Y-74404854D01*
X105649013Y-74157714D01*
X105701200Y-73895351D01*
X105701200Y-73627849D01*
X105649013Y-73365486D01*
X105546644Y-73118346D01*
X105398028Y-72895925D01*
X105208875Y-72706772D01*
X104986454Y-72558156D01*
X104825774Y-72491600D01*
X104986454Y-72425044D01*
X105208875Y-72276428D01*
X105398028Y-72087275D01*
X105546644Y-71864854D01*
X105649013Y-71617714D01*
X105701200Y-71355351D01*
X105701200Y-71087849D01*
X105649013Y-70825486D01*
X105546644Y-70578346D01*
X105398028Y-70355925D01*
X105208875Y-70166772D01*
X104986454Y-70018156D01*
X104739314Y-69915787D01*
X104476951Y-69863600D01*
X104209449Y-69863600D01*
X103947086Y-69915787D01*
X103699946Y-70018156D01*
X103477525Y-70166772D01*
X103288372Y-70355925D01*
X103139756Y-70578346D01*
X103073200Y-70739026D01*
X103006644Y-70578346D01*
X102858028Y-70355925D01*
X102668875Y-70166772D01*
X102446454Y-70018156D01*
X102199314Y-69915787D01*
X101936951Y-69863600D01*
X101669449Y-69863600D01*
X101407086Y-69915787D01*
X101159946Y-70018156D01*
X100937525Y-70166772D01*
X100748372Y-70355925D01*
X100599756Y-70578346D01*
X100497387Y-70825486D01*
X100445200Y-71087849D01*
X100445200Y-71355351D01*
X100497387Y-71617714D01*
X100599756Y-71864854D01*
X100748372Y-72087275D01*
X100937525Y-72276428D01*
X101159946Y-72425044D01*
X101320626Y-72491600D01*
X101159946Y-72558156D01*
X100937525Y-72706772D01*
X100748372Y-72895925D01*
X100599756Y-73118346D01*
X100497387Y-73365486D01*
X100445200Y-73627849D01*
X100445200Y-73895351D01*
X100497387Y-74157714D01*
X100599756Y-74404854D01*
X100748372Y-74627275D01*
X100937525Y-74816428D01*
X101159946Y-74965044D01*
X101320626Y-75031600D01*
X101159946Y-75098156D01*
X100937525Y-75246772D01*
X100748372Y-75435925D01*
X100599756Y-75658346D01*
X100497387Y-75905486D01*
X100445200Y-76167849D01*
X100445200Y-76435351D01*
X100497387Y-76697714D01*
X100571732Y-76877199D01*
X100234987Y-76877199D01*
X100025200Y-76667413D01*
X100025200Y-67676770D01*
X100118659Y-67536899D01*
X100187106Y-67371654D01*
X100222000Y-67196230D01*
X100222000Y-67017370D01*
X100187106Y-66841946D01*
X100118659Y-66676701D01*
X100019289Y-66527984D01*
X99892816Y-66401511D01*
X99744099Y-66302141D01*
X99578854Y-66233694D01*
X99442097Y-66206491D01*
X105906996Y-59741593D01*
X105934127Y-59719327D01*
X105956393Y-59692196D01*
X105956398Y-59692191D01*
X106023002Y-59611033D01*
X106089042Y-59487482D01*
X106129709Y-59353420D01*
X106130513Y-59345254D01*
X106140000Y-59248936D01*
X106140000Y-59248929D01*
X106143440Y-59214000D01*
X106140000Y-59179072D01*
X106140000Y-56588656D01*
X106201288Y-56555897D01*
X106316525Y-56461325D01*
X106411097Y-56346088D01*
X106481371Y-56214615D01*
X106524645Y-56071959D01*
X106539257Y-55923601D01*
X106539257Y-55023599D01*
X106524645Y-54875241D01*
X106481371Y-54732585D01*
X106411097Y-54601112D01*
X106376701Y-54559200D01*
X106492674Y-54559200D01*
X106527600Y-54562640D01*
X106562526Y-54559200D01*
X106562536Y-54559200D01*
X106667020Y-54548909D01*
X106801081Y-54508242D01*
X106924633Y-54442202D01*
X107032927Y-54353327D01*
X107055201Y-54326186D01*
X107513795Y-53867593D01*
X107540927Y-53845327D01*
X107563193Y-53818196D01*
X107563197Y-53818192D01*
X107629801Y-53737034D01*
X107637623Y-53722401D01*
X107695842Y-53613481D01*
X107736509Y-53479420D01*
X107746800Y-53374936D01*
X107746800Y-53374919D01*
X107750239Y-53340001D01*
X107746800Y-53305083D01*
X107746800Y-50225317D01*
X107750239Y-50190399D01*
X107746800Y-50155481D01*
X107746800Y-50155464D01*
X107736509Y-50050980D01*
X107695842Y-49916919D01*
X107629802Y-49793367D01*
X107611461Y-49771019D01*
X107563197Y-49712208D01*
X107563188Y-49712199D01*
X107540926Y-49685073D01*
X107513800Y-49662811D01*
X107055201Y-49204214D01*
X107032927Y-49177073D01*
X106924633Y-49088198D01*
X106801081Y-49022158D01*
X106667020Y-48981491D01*
X106562536Y-48971200D01*
X106562526Y-48971200D01*
X106527600Y-48967760D01*
X106492674Y-48971200D01*
X103712000Y-48971200D01*
X103712000Y-48906236D01*
X103750800Y-48910057D01*
X104450800Y-48910057D01*
X104550385Y-48900249D01*
X104646143Y-48871201D01*
X104734395Y-48824029D01*
X104811748Y-48760548D01*
X104875229Y-48683195D01*
X104922401Y-48594943D01*
X104951449Y-48499185D01*
X104961257Y-48399600D01*
X104961257Y-46799600D01*
X104951449Y-46700015D01*
X104922401Y-46604257D01*
X104875229Y-46516005D01*
X104812000Y-46438959D01*
X104812000Y-46428125D01*
X104815440Y-46393199D01*
X104812000Y-46358273D01*
X104812000Y-46358264D01*
X104801709Y-46253780D01*
X104761042Y-46119719D01*
X104695002Y-45996167D01*
X104606127Y-45887873D01*
X104578991Y-45865603D01*
X103447202Y-44733815D01*
X103424927Y-44706673D01*
X103316633Y-44617798D01*
X103193081Y-44551758D01*
X103059020Y-44511091D01*
X102954536Y-44500800D01*
X102954526Y-44500800D01*
X102919600Y-44497360D01*
X102884674Y-44500800D01*
X94472128Y-44500800D01*
X94437200Y-44497360D01*
X94402271Y-44500800D01*
X94402264Y-44500800D01*
X94297780Y-44511091D01*
X94163719Y-44551758D01*
X94040167Y-44617798D01*
X93931873Y-44706673D01*
X93909603Y-44733810D01*
X93070010Y-45573403D01*
X93042873Y-45595674D01*
X92953998Y-45703968D01*
X92887958Y-45827520D01*
X92847291Y-45961581D01*
X92837000Y-46066065D01*
X92837000Y-46066074D01*
X92833560Y-46101000D01*
X92837000Y-46135926D01*
X92837001Y-46873211D01*
X91450213Y-48260000D01*
X89392125Y-48260000D01*
X89357199Y-48256560D01*
X89322273Y-48260000D01*
X89322264Y-48260000D01*
X89217780Y-48270291D01*
X89083719Y-48310958D01*
X89025421Y-48342119D01*
X88960167Y-48376998D01*
X88879008Y-48443603D01*
X88879004Y-48443607D01*
X88851873Y-48465873D01*
X88829607Y-48493004D01*
X87271551Y-50051061D01*
X87274400Y-50022136D01*
X87274400Y-50022129D01*
X87277840Y-49987200D01*
X87274400Y-49952272D01*
X87274400Y-49490599D01*
X87329214Y-49473971D01*
X87460687Y-49403697D01*
X87575924Y-49309124D01*
X87670497Y-49193887D01*
X87740771Y-49062414D01*
X87784045Y-48919758D01*
X87798657Y-48771400D01*
X87798657Y-48096400D01*
X87784045Y-47948042D01*
X87740771Y-47805386D01*
X87670497Y-47673913D01*
X87575924Y-47558676D01*
X87460687Y-47464103D01*
X87334024Y-47396400D01*
X87460687Y-47328697D01*
X87575924Y-47234124D01*
X87670497Y-47118887D01*
X87740771Y-46987414D01*
X87784045Y-46844758D01*
X87798657Y-46696400D01*
X87798657Y-46021400D01*
X87784045Y-45873042D01*
X87740771Y-45730386D01*
X87670497Y-45598913D01*
X87575924Y-45483676D01*
X87460687Y-45389103D01*
X87329214Y-45318829D01*
X87186558Y-45275555D01*
X87038200Y-45260943D01*
X86088200Y-45260943D01*
X85939842Y-45275555D01*
X85797186Y-45318829D01*
X85665713Y-45389103D01*
X85550476Y-45483676D01*
X85455903Y-45598913D01*
X85429826Y-45647700D01*
X85275070Y-45647700D01*
X85135199Y-45554241D01*
X84969954Y-45485794D01*
X84794530Y-45450900D01*
X84615670Y-45450900D01*
X84440246Y-45485794D01*
X84275001Y-45554241D01*
X84135130Y-45647700D01*
X83949812Y-45647700D01*
X83937097Y-45623912D01*
X83842525Y-45508675D01*
X83727288Y-45414103D01*
X83595815Y-45343829D01*
X83566000Y-45334785D01*
X83566000Y-45196128D01*
X83569440Y-45161200D01*
X83566000Y-45126271D01*
X83566000Y-45126264D01*
X83555709Y-45021780D01*
X83515042Y-44887719D01*
X83449002Y-44764167D01*
X83382397Y-44683009D01*
X83382393Y-44683005D01*
X83360126Y-44655873D01*
X83332995Y-44633607D01*
X83071200Y-44371813D01*
X83071200Y-43864325D01*
X83143595Y-43825629D01*
X83220948Y-43762148D01*
X83284429Y-43684795D01*
X83331601Y-43596543D01*
X83360649Y-43500785D01*
X83370457Y-43401200D01*
X83370457Y-40201200D01*
X83360649Y-40101615D01*
X83331601Y-40005857D01*
X83284429Y-39917605D01*
X83220948Y-39840252D01*
X83143595Y-39776771D01*
X83071200Y-39738075D01*
X83071200Y-37064325D01*
X83143595Y-37025629D01*
X83220948Y-36962148D01*
X83284429Y-36884795D01*
X83331601Y-36796543D01*
X83360649Y-36700785D01*
X83370457Y-36601200D01*
X83370457Y-36300321D01*
X93292800Y-36300321D01*
X93292800Y-36498879D01*
X93331537Y-36693623D01*
X93407522Y-36877067D01*
X93517835Y-37042162D01*
X93658238Y-37182565D01*
X93823333Y-37292878D01*
X94006777Y-37368863D01*
X94201521Y-37407600D01*
X94400079Y-37407600D01*
X94594823Y-37368863D01*
X94778267Y-37292878D01*
X94943362Y-37182565D01*
X95083765Y-37042162D01*
X95194078Y-36877067D01*
X95270063Y-36693623D01*
X95308800Y-36498879D01*
X95308800Y-36300321D01*
X101692800Y-36300321D01*
X101692800Y-36498879D01*
X101731537Y-36693623D01*
X101807522Y-36877067D01*
X101917835Y-37042162D01*
X102058238Y-37182565D01*
X102223333Y-37292878D01*
X102406777Y-37368863D01*
X102601521Y-37407600D01*
X102800079Y-37407600D01*
X102994823Y-37368863D01*
X103178267Y-37292878D01*
X103343362Y-37182565D01*
X103483765Y-37042162D01*
X103594078Y-36877067D01*
X103670063Y-36693623D01*
X103708800Y-36498879D01*
X103708800Y-36300321D01*
X103670063Y-36105577D01*
X103594078Y-35922133D01*
X103483765Y-35757038D01*
X103343362Y-35616635D01*
X103178267Y-35506322D01*
X102994823Y-35430337D01*
X102800079Y-35391600D01*
X102601521Y-35391600D01*
X102406777Y-35430337D01*
X102223333Y-35506322D01*
X102058238Y-35616635D01*
X101917835Y-35757038D01*
X101807522Y-35922133D01*
X101731537Y-36105577D01*
X101692800Y-36300321D01*
X95308800Y-36300321D01*
X95270063Y-36105577D01*
X95194078Y-35922133D01*
X95083765Y-35757038D01*
X94943362Y-35616635D01*
X94778267Y-35506322D01*
X94594823Y-35430337D01*
X94400079Y-35391600D01*
X94201521Y-35391600D01*
X94006777Y-35430337D01*
X93823333Y-35506322D01*
X93658238Y-35616635D01*
X93517835Y-35757038D01*
X93407522Y-35922133D01*
X93331537Y-36105577D01*
X93292800Y-36300321D01*
X83370457Y-36300321D01*
X83370457Y-33401200D01*
X83360649Y-33301615D01*
X83331601Y-33205857D01*
X83284429Y-33117605D01*
X83220948Y-33040252D01*
X83143595Y-32976771D01*
X83055343Y-32929599D01*
X82959585Y-32900551D01*
X82860000Y-32890743D01*
X81860000Y-32890743D01*
X81760415Y-32900551D01*
X81664657Y-32929599D01*
X81576405Y-32976771D01*
X81499052Y-33040252D01*
X81435571Y-33117605D01*
X81388399Y-33205857D01*
X81359351Y-33301615D01*
X81349543Y-33401200D01*
X81349543Y-36601200D01*
X81359351Y-36700785D01*
X81388399Y-36796543D01*
X81435571Y-36884795D01*
X81499052Y-36962148D01*
X81576405Y-37025629D01*
X81648800Y-37064325D01*
X81648801Y-39738074D01*
X81576405Y-39776771D01*
X81499052Y-39840252D01*
X81435571Y-39917605D01*
X81388399Y-40005857D01*
X81359351Y-40101615D01*
X81349543Y-40201200D01*
X81349543Y-43401200D01*
X81359351Y-43500785D01*
X81388399Y-43596543D01*
X81435571Y-43684795D01*
X81499052Y-43762148D01*
X81576405Y-43825629D01*
X81648801Y-43864326D01*
X81648801Y-44631464D01*
X81645360Y-44666400D01*
X81648801Y-44701336D01*
X81654990Y-44764167D01*
X81659092Y-44805819D01*
X81699759Y-44939881D01*
X81765798Y-45063432D01*
X81817363Y-45126264D01*
X81854674Y-45171727D01*
X81881810Y-45193997D01*
X82060254Y-45372442D01*
X81982312Y-45414103D01*
X81867075Y-45508675D01*
X81772503Y-45623912D01*
X81702229Y-45755385D01*
X81658955Y-45898041D01*
X81644343Y-46046399D01*
X81644343Y-46746401D01*
X81658955Y-46894759D01*
X81702229Y-47037415D01*
X81772503Y-47168888D01*
X81867075Y-47284125D01*
X81982312Y-47378697D01*
X82015432Y-47396400D01*
X81982312Y-47414103D01*
X81867075Y-47508675D01*
X81772503Y-47623912D01*
X81702229Y-47755385D01*
X81658955Y-47898041D01*
X81644343Y-48046399D01*
X81644343Y-48746401D01*
X81658955Y-48894759D01*
X81702229Y-49037415D01*
X81772503Y-49168888D01*
X81867075Y-49284125D01*
X81908495Y-49318117D01*
X80395410Y-50831202D01*
X80368273Y-50853474D01*
X80279398Y-50961768D01*
X80213358Y-51085320D01*
X80172691Y-51219381D01*
X80162400Y-51323865D01*
X80162400Y-51323874D01*
X80158960Y-51358800D01*
X80162400Y-51393726D01*
X80162401Y-58267600D01*
X61482441Y-58267600D01*
X60519641Y-57304800D01*
X61988143Y-57304800D01*
X61988143Y-57604800D01*
X62000833Y-57733649D01*
X62038417Y-57857546D01*
X62099450Y-57971730D01*
X62181586Y-58071814D01*
X62281670Y-58153950D01*
X62395854Y-58214983D01*
X62519751Y-58252567D01*
X62648600Y-58265257D01*
X64398600Y-58265257D01*
X64527449Y-58252567D01*
X64651346Y-58214983D01*
X64765530Y-58153950D01*
X64865614Y-58071814D01*
X64947750Y-57971730D01*
X65008783Y-57857546D01*
X65046367Y-57733649D01*
X65059057Y-57604800D01*
X65059057Y-57304800D01*
X65046367Y-57175951D01*
X65008783Y-57052054D01*
X64947750Y-56937870D01*
X64865614Y-56837786D01*
X64765530Y-56755650D01*
X64651346Y-56694617D01*
X64527449Y-56657033D01*
X64398600Y-56644343D01*
X62648600Y-56644343D01*
X62519751Y-56657033D01*
X62395854Y-56694617D01*
X62281670Y-56755650D01*
X62181586Y-56837786D01*
X62099450Y-56937870D01*
X62038417Y-57052054D01*
X62000833Y-57175951D01*
X61988143Y-57304800D01*
X60519641Y-57304800D01*
X60096400Y-56881560D01*
X60096400Y-55117093D01*
X60101314Y-55067199D01*
X60096400Y-55017305D01*
X60096400Y-55017298D01*
X60081698Y-54868029D01*
X60023602Y-54676513D01*
X59929260Y-54500010D01*
X59802296Y-54345304D01*
X59763533Y-54313492D01*
X59065103Y-53615062D01*
X68313300Y-53615062D01*
X68313300Y-53877738D01*
X68364546Y-54135368D01*
X68465068Y-54378049D01*
X68611003Y-54596457D01*
X68796743Y-54782197D01*
X69015151Y-54928132D01*
X69257832Y-55028654D01*
X69515462Y-55079900D01*
X69697664Y-55079900D01*
X70130305Y-55512541D01*
X70158141Y-55546459D01*
X70293509Y-55657553D01*
X70447949Y-55740103D01*
X70512747Y-55759759D01*
X70615524Y-55790936D01*
X70648724Y-55794206D01*
X70746133Y-55803800D01*
X70746139Y-55803800D01*
X70789799Y-55808100D01*
X70833459Y-55803800D01*
X71331820Y-55803800D01*
X71300833Y-55905951D01*
X71288143Y-56034800D01*
X71288143Y-56334800D01*
X71300833Y-56463649D01*
X71338417Y-56587546D01*
X71399450Y-56701730D01*
X71481586Y-56801814D01*
X71503502Y-56819800D01*
X71481586Y-56837786D01*
X71399450Y-56937870D01*
X71338417Y-57052054D01*
X71300833Y-57175951D01*
X71288143Y-57304800D01*
X71288143Y-57604800D01*
X71300833Y-57733649D01*
X71338417Y-57857546D01*
X71399450Y-57971730D01*
X71481586Y-58071814D01*
X71581670Y-58153950D01*
X71695854Y-58214983D01*
X71819751Y-58252567D01*
X71948600Y-58265257D01*
X73698600Y-58265257D01*
X73827449Y-58252567D01*
X73951346Y-58214983D01*
X74065530Y-58153950D01*
X74165614Y-58071814D01*
X74247750Y-57971730D01*
X74308783Y-57857546D01*
X74346367Y-57733649D01*
X74359057Y-57604800D01*
X74359057Y-57304800D01*
X74346367Y-57175951D01*
X74308783Y-57052054D01*
X74247750Y-56937870D01*
X74165614Y-56837786D01*
X74143698Y-56819800D01*
X74165614Y-56801814D01*
X74247750Y-56701730D01*
X74308783Y-56587546D01*
X74346367Y-56463649D01*
X74359057Y-56334800D01*
X74359057Y-56034800D01*
X74346367Y-55905951D01*
X74308783Y-55782054D01*
X74247750Y-55667870D01*
X74165614Y-55567786D01*
X74143698Y-55549800D01*
X74165614Y-55531814D01*
X74247750Y-55431730D01*
X74308783Y-55317546D01*
X74346367Y-55193649D01*
X74359057Y-55064800D01*
X74359057Y-54764800D01*
X74346367Y-54635951D01*
X74308783Y-54512054D01*
X74247750Y-54397870D01*
X74165614Y-54297786D01*
X74143698Y-54279800D01*
X74165614Y-54261814D01*
X74247750Y-54161730D01*
X74308783Y-54047546D01*
X74346367Y-53923649D01*
X74359057Y-53794800D01*
X74359057Y-53494800D01*
X74346367Y-53365951D01*
X74315380Y-53263800D01*
X74937140Y-53263800D01*
X74980800Y-53268100D01*
X75024460Y-53263800D01*
X75024467Y-53263800D01*
X75155074Y-53250936D01*
X75322651Y-53200103D01*
X75477091Y-53117553D01*
X75612459Y-53006459D01*
X75640299Y-52972536D01*
X76579036Y-52033800D01*
X76923143Y-52033800D01*
X76923143Y-52894800D01*
X76932951Y-52994385D01*
X76961999Y-53090143D01*
X77009171Y-53178395D01*
X77072652Y-53255748D01*
X77150005Y-53319229D01*
X77238257Y-53366401D01*
X77334015Y-53395449D01*
X77433600Y-53405257D01*
X79233600Y-53405257D01*
X79333185Y-53395449D01*
X79428943Y-53366401D01*
X79517195Y-53319229D01*
X79594548Y-53255748D01*
X79658029Y-53178395D01*
X79705201Y-53090143D01*
X79734249Y-52994385D01*
X79744057Y-52894800D01*
X79744057Y-49394800D01*
X79734249Y-49295215D01*
X79705201Y-49199457D01*
X79658029Y-49111205D01*
X79594548Y-49033852D01*
X79517195Y-48970371D01*
X79428943Y-48923199D01*
X79333185Y-48894151D01*
X79233600Y-48884343D01*
X79089600Y-48884343D01*
X79089600Y-42885257D01*
X79523600Y-42885257D01*
X79623185Y-42875449D01*
X79718943Y-42846401D01*
X79807195Y-42799229D01*
X79884548Y-42735748D01*
X79948029Y-42658395D01*
X79995201Y-42570143D01*
X80024249Y-42474385D01*
X80034057Y-42374800D01*
X80034057Y-36974800D01*
X80024249Y-36875215D01*
X79995201Y-36779457D01*
X79948029Y-36691205D01*
X79884548Y-36613852D01*
X79807195Y-36550371D01*
X79718943Y-36503199D01*
X79623185Y-36474151D01*
X79523600Y-36464343D01*
X76623600Y-36464343D01*
X76524015Y-36474151D01*
X76428257Y-36503199D01*
X76340005Y-36550371D01*
X76262652Y-36613852D01*
X76199171Y-36691205D01*
X76151999Y-36779457D01*
X76122951Y-36875215D01*
X76113143Y-36974800D01*
X76113143Y-42374800D01*
X76122951Y-42474385D01*
X76151999Y-42570143D01*
X76199171Y-42658395D01*
X76262652Y-42735748D01*
X76340005Y-42799229D01*
X76428257Y-42846401D01*
X76524015Y-42875449D01*
X76623600Y-42885257D01*
X77057600Y-42885257D01*
X77057601Y-49052192D01*
X77009171Y-49111205D01*
X76961999Y-49199457D01*
X76932951Y-49295215D01*
X76923143Y-49394800D01*
X76923143Y-50255800D01*
X76254460Y-50255800D01*
X76210800Y-50251500D01*
X76167140Y-50255800D01*
X76167133Y-50255800D01*
X76053125Y-50267029D01*
X76036525Y-50268664D01*
X75987647Y-50283491D01*
X75868949Y-50319497D01*
X75714509Y-50402047D01*
X75707974Y-50407410D01*
X75620652Y-50479074D01*
X75579141Y-50513141D01*
X75551305Y-50547059D01*
X74612565Y-51485800D01*
X74315380Y-51485800D01*
X74346367Y-51383649D01*
X74359057Y-51254800D01*
X74359057Y-50954800D01*
X74346367Y-50825951D01*
X74308783Y-50702054D01*
X74247750Y-50587870D01*
X74165614Y-50487786D01*
X74143698Y-50469800D01*
X74165614Y-50451814D01*
X74247750Y-50351730D01*
X74308783Y-50237546D01*
X74346367Y-50113649D01*
X74359057Y-49984800D01*
X74359057Y-49684800D01*
X74346367Y-49555951D01*
X74308783Y-49432054D01*
X74247750Y-49317870D01*
X74165614Y-49217786D01*
X74065530Y-49135650D01*
X73951346Y-49074617D01*
X73827449Y-49037033D01*
X73698600Y-49024343D01*
X71948600Y-49024343D01*
X71819751Y-49037033D01*
X71695854Y-49074617D01*
X71581670Y-49135650D01*
X71481586Y-49217786D01*
X71399450Y-49317870D01*
X71338417Y-49432054D01*
X71300833Y-49555951D01*
X71288143Y-49684800D01*
X71288143Y-49984800D01*
X71300833Y-50113649D01*
X71338417Y-50237546D01*
X71399450Y-50351730D01*
X71481586Y-50451814D01*
X71503502Y-50469800D01*
X71481586Y-50487786D01*
X71399450Y-50587870D01*
X71338417Y-50702054D01*
X71300833Y-50825951D01*
X71288143Y-50954800D01*
X71288143Y-51254800D01*
X71300833Y-51383649D01*
X71338417Y-51507546D01*
X71399450Y-51621730D01*
X71481586Y-51721814D01*
X71503502Y-51739800D01*
X71481586Y-51757786D01*
X71399450Y-51857870D01*
X71338417Y-51972054D01*
X71300833Y-52095951D01*
X71288143Y-52224800D01*
X71288143Y-52524800D01*
X71300833Y-52653649D01*
X71338417Y-52777546D01*
X71399450Y-52891730D01*
X71481586Y-52991814D01*
X71503502Y-53009800D01*
X71481586Y-53027786D01*
X71399450Y-53127870D01*
X71338417Y-53242054D01*
X71300833Y-53365951D01*
X71288143Y-53494800D01*
X71288143Y-53794800D01*
X71300833Y-53923649D01*
X71331820Y-54025800D01*
X71158036Y-54025800D01*
X70980300Y-53848064D01*
X70980300Y-53615062D01*
X70929054Y-53357432D01*
X70828532Y-53114751D01*
X70682597Y-52896343D01*
X70496857Y-52710603D01*
X70278449Y-52564668D01*
X70035768Y-52464146D01*
X69778138Y-52412900D01*
X69515462Y-52412900D01*
X69257832Y-52464146D01*
X69015151Y-52564668D01*
X68796743Y-52710603D01*
X68611003Y-52896343D01*
X68465068Y-53114751D01*
X68364546Y-53357432D01*
X68313300Y-53615062D01*
X59065103Y-53615062D01*
X58592119Y-53142079D01*
X58557660Y-53077610D01*
X58430696Y-52922904D01*
X58275990Y-52795940D01*
X58099487Y-52701598D01*
X57910862Y-52644379D01*
X58852703Y-51702538D01*
X60122706Y-52972542D01*
X60150541Y-53006459D01*
X60285909Y-53117553D01*
X60440349Y-53200103D01*
X60462450Y-53206807D01*
X60607924Y-53250936D01*
X60637989Y-53253897D01*
X60738533Y-53263800D01*
X60738539Y-53263800D01*
X60782199Y-53268100D01*
X60825859Y-53263800D01*
X63567267Y-53263800D01*
X63697874Y-53250936D01*
X63865451Y-53200103D01*
X63893226Y-53185257D01*
X64398600Y-53185257D01*
X64527449Y-53172567D01*
X64651346Y-53134983D01*
X64765530Y-53073950D01*
X64865614Y-52991814D01*
X64947750Y-52891730D01*
X65008783Y-52777546D01*
X65046367Y-52653649D01*
X65059057Y-52524800D01*
X65059057Y-52224800D01*
X65046367Y-52095951D01*
X65008783Y-51972054D01*
X64947750Y-51857870D01*
X64865614Y-51757786D01*
X64843698Y-51739800D01*
X64865614Y-51721814D01*
X64947750Y-51621730D01*
X65008783Y-51507546D01*
X65046367Y-51383649D01*
X65059057Y-51254800D01*
X65059057Y-50954800D01*
X65046367Y-50825951D01*
X65008783Y-50702054D01*
X64947750Y-50587870D01*
X64865614Y-50487786D01*
X64843698Y-50469800D01*
X64865614Y-50451814D01*
X64947750Y-50351730D01*
X65008783Y-50237546D01*
X65046367Y-50113649D01*
X65059057Y-49984800D01*
X65059057Y-49684800D01*
X65046367Y-49555951D01*
X65008783Y-49432054D01*
X64947750Y-49317870D01*
X64865614Y-49217786D01*
X64765530Y-49135650D01*
X64651346Y-49074617D01*
X64527449Y-49037033D01*
X64398600Y-49024343D01*
X62648600Y-49024343D01*
X62519751Y-49037033D01*
X62395854Y-49074617D01*
X62281670Y-49135650D01*
X62181586Y-49217786D01*
X62099450Y-49317870D01*
X62038417Y-49432054D01*
X62000833Y-49555951D01*
X61988143Y-49684800D01*
X61988143Y-49984800D01*
X62000833Y-50113649D01*
X62038417Y-50237546D01*
X62099450Y-50351730D01*
X62181586Y-50451814D01*
X62203502Y-50469800D01*
X62181586Y-50487786D01*
X62099450Y-50587870D01*
X62038417Y-50702054D01*
X62000833Y-50825951D01*
X61988143Y-50954800D01*
X61988143Y-51254800D01*
X62000833Y-51383649D01*
X62031820Y-51485800D01*
X61150436Y-51485800D01*
X60109938Y-50445302D01*
X61990441Y-48564800D01*
X65075698Y-48564800D01*
X65125600Y-48569715D01*
X65175502Y-48564800D01*
X65324771Y-48550098D01*
X65516287Y-48492002D01*
X65692790Y-48397660D01*
X65847496Y-48270696D01*
X65879312Y-48231928D01*
X68856733Y-45254508D01*
X68895496Y-45222696D01*
X69022460Y-45067990D01*
X69091663Y-44938519D01*
X69116802Y-44891488D01*
X69174898Y-44699971D01*
X69194515Y-44500800D01*
X69189600Y-44450898D01*
X69189600Y-42885257D01*
X69623600Y-42885257D01*
X69723185Y-42875449D01*
X69818943Y-42846401D01*
X69907195Y-42799229D01*
X69984548Y-42735748D01*
X70048029Y-42658395D01*
X70095201Y-42570143D01*
X70124249Y-42474385D01*
X70134057Y-42374800D01*
X70134057Y-36974800D01*
X70124249Y-36875215D01*
X70095201Y-36779457D01*
X70048029Y-36691205D01*
X69984548Y-36613852D01*
X69907195Y-36550371D01*
X69818943Y-36503199D01*
X69723185Y-36474151D01*
X69623600Y-36464343D01*
X66723600Y-36464343D01*
X66624015Y-36474151D01*
X66528257Y-36503199D01*
X66440005Y-36550371D01*
X66362652Y-36613852D01*
X66299171Y-36691205D01*
X66251999Y-36779457D01*
X66222951Y-36875215D01*
X66213143Y-36974800D01*
X66213143Y-42374800D01*
X66222951Y-42474385D01*
X66251999Y-42570143D01*
X66299171Y-42658395D01*
X66362652Y-42735748D01*
X66440005Y-42799229D01*
X66528257Y-42846401D01*
X66624015Y-42875449D01*
X66723600Y-42885257D01*
X67157601Y-42885257D01*
X67157601Y-44079958D01*
X64704760Y-46532800D01*
X61619493Y-46532800D01*
X61569599Y-46527886D01*
X61519705Y-46532800D01*
X61519698Y-46532800D01*
X61370429Y-46547502D01*
X61178913Y-46605598D01*
X61002410Y-46699940D01*
X60847704Y-46826904D01*
X60815893Y-46865666D01*
X58079770Y-49601790D01*
X58079765Y-49601794D01*
X55347217Y-52334343D01*
X54673600Y-52334343D01*
X54574015Y-52344151D01*
X54478257Y-52373199D01*
X54390005Y-52420371D01*
X54312652Y-52483852D01*
X54249171Y-52561205D01*
X54213040Y-52628800D01*
X52831101Y-52628800D01*
X52781199Y-52623885D01*
X52582029Y-52643502D01*
X52390513Y-52701598D01*
X52214010Y-52795940D01*
X52059304Y-52922904D01*
X52027493Y-52961666D01*
X39525071Y-65464089D01*
X39525065Y-65464094D01*
X37061268Y-67927892D01*
X37022505Y-67959704D01*
X36895541Y-68114410D01*
X36838799Y-68220568D01*
X36801199Y-68290913D01*
X36743102Y-68482430D01*
X36723485Y-68681600D01*
X36728401Y-68731512D01*
X36728400Y-78535901D01*
X36728401Y-78535911D01*
X36728400Y-80264898D01*
X36728400Y-80264899D01*
X36728401Y-89358088D01*
X36723485Y-89408000D01*
X36743102Y-89607170D01*
X36775956Y-89715473D01*
X36801199Y-89798687D01*
X36895541Y-89975190D01*
X37022505Y-90129896D01*
X37061268Y-90161708D01*
X37454760Y-90555200D01*
X36587200Y-90555200D01*
X36587200Y-35892800D01*
X44481143Y-35892800D01*
X44481143Y-39392800D01*
X44490951Y-39492385D01*
X44519999Y-39588143D01*
X44567171Y-39676395D01*
X44630652Y-39753748D01*
X44708005Y-39817229D01*
X44796257Y-39864401D01*
X44892015Y-39893449D01*
X44991600Y-39903257D01*
X48491600Y-39903257D01*
X48591185Y-39893449D01*
X48686943Y-39864401D01*
X48775195Y-39817229D01*
X48852548Y-39753748D01*
X48916029Y-39676395D01*
X48963201Y-39588143D01*
X48992249Y-39492385D01*
X49002057Y-39392800D01*
X49002057Y-38658800D01*
X52065907Y-38658800D01*
X52329301Y-39052998D01*
X52665402Y-39389099D01*
X53060616Y-39653172D01*
X53499754Y-39835069D01*
X53649220Y-39864800D01*
X53499754Y-39894531D01*
X53060616Y-40076428D01*
X52665402Y-40340501D01*
X52329301Y-40676602D01*
X52065228Y-41071816D01*
X51883331Y-41510954D01*
X51790600Y-41977140D01*
X51790600Y-42452460D01*
X51883331Y-42918646D01*
X52065228Y-43357784D01*
X52329301Y-43752998D01*
X52665402Y-44089099D01*
X53060616Y-44353172D01*
X53499754Y-44535069D01*
X53649220Y-44564800D01*
X53499754Y-44594531D01*
X53060616Y-44776428D01*
X52665402Y-45040501D01*
X52329301Y-45376602D01*
X52065228Y-45771816D01*
X52012629Y-45898800D01*
X50823493Y-45898800D01*
X50773599Y-45893886D01*
X50723705Y-45898800D01*
X50723698Y-45898800D01*
X50593777Y-45911596D01*
X50574428Y-45913502D01*
X50542459Y-45923200D01*
X50382913Y-45971598D01*
X50206410Y-46065940D01*
X50051704Y-46192904D01*
X50019892Y-46231667D01*
X48702760Y-47548800D01*
X47914102Y-47548800D01*
X47905201Y-47519457D01*
X47858029Y-47431205D01*
X47794548Y-47353852D01*
X47717195Y-47290371D01*
X47628943Y-47243199D01*
X47533185Y-47214151D01*
X47433600Y-47204343D01*
X45733600Y-47204343D01*
X45634015Y-47214151D01*
X45538257Y-47243199D01*
X45450005Y-47290371D01*
X45372652Y-47353852D01*
X45309171Y-47431205D01*
X45261999Y-47519457D01*
X45232951Y-47615215D01*
X45223143Y-47714800D01*
X45223143Y-49414800D01*
X45232951Y-49514385D01*
X45261999Y-49610143D01*
X45309171Y-49698395D01*
X45372652Y-49775748D01*
X45450005Y-49839229D01*
X45538257Y-49886401D01*
X45634015Y-49915449D01*
X45733600Y-49925257D01*
X47433600Y-49925257D01*
X47533185Y-49915449D01*
X47628943Y-49886401D01*
X47717195Y-49839229D01*
X47794548Y-49775748D01*
X47858029Y-49698395D01*
X47905201Y-49610143D01*
X47914102Y-49580800D01*
X49073698Y-49580800D01*
X49123600Y-49585715D01*
X49173502Y-49580800D01*
X49322771Y-49566098D01*
X49514287Y-49508002D01*
X49690790Y-49413660D01*
X49845496Y-49286696D01*
X49877312Y-49247928D01*
X51194441Y-47930800D01*
X52012629Y-47930800D01*
X52065228Y-48057784D01*
X52329301Y-48452998D01*
X52665402Y-48789099D01*
X53060616Y-49053172D01*
X53499754Y-49235069D01*
X53965940Y-49327800D01*
X54441260Y-49327800D01*
X54907446Y-49235069D01*
X55346584Y-49053172D01*
X55741798Y-48789099D01*
X56077899Y-48452998D01*
X56341972Y-48057784D01*
X56523869Y-47618646D01*
X56616600Y-47152460D01*
X56616600Y-46677140D01*
X56523869Y-46210954D01*
X56341972Y-45771816D01*
X56077899Y-45376602D01*
X55741798Y-45040501D01*
X55346584Y-44776428D01*
X54907446Y-44594531D01*
X54757980Y-44564800D01*
X54907446Y-44535069D01*
X55346584Y-44353172D01*
X55741798Y-44089099D01*
X56077899Y-43752998D01*
X56341972Y-43357784D01*
X56394571Y-43230800D01*
X60929734Y-43230800D01*
X60940005Y-43239229D01*
X61028257Y-43286401D01*
X61124015Y-43315449D01*
X61223600Y-43325257D01*
X62423600Y-43325257D01*
X62523185Y-43315449D01*
X62618943Y-43286401D01*
X62707195Y-43239229D01*
X62784548Y-43175748D01*
X62848029Y-43098395D01*
X62895201Y-43010143D01*
X62924249Y-42914385D01*
X62934057Y-42814800D01*
X62934057Y-41614800D01*
X62924249Y-41515215D01*
X62895201Y-41419457D01*
X62848029Y-41331205D01*
X62784548Y-41253852D01*
X62707195Y-41190371D01*
X62618943Y-41143199D01*
X62523185Y-41114151D01*
X62423600Y-41104343D01*
X61223600Y-41104343D01*
X61124015Y-41114151D01*
X61028257Y-41143199D01*
X60940005Y-41190371D01*
X60929734Y-41198800D01*
X56394571Y-41198800D01*
X56341972Y-41071816D01*
X56077899Y-40676602D01*
X55741798Y-40340501D01*
X55346584Y-40076428D01*
X54907446Y-39894531D01*
X54757980Y-39864800D01*
X54907446Y-39835069D01*
X55346584Y-39653172D01*
X55741798Y-39389099D01*
X56077899Y-39052998D01*
X56341972Y-38657784D01*
X56523869Y-38218646D01*
X56616600Y-37752460D01*
X56616600Y-37277140D01*
X56523869Y-36810954D01*
X56341972Y-36371816D01*
X56077899Y-35976602D01*
X55741798Y-35640501D01*
X55346584Y-35376428D01*
X54907446Y-35194531D01*
X54441260Y-35101800D01*
X53965940Y-35101800D01*
X53499754Y-35194531D01*
X53060616Y-35376428D01*
X52665402Y-35640501D01*
X52329301Y-35976602D01*
X52065228Y-36371816D01*
X51959610Y-36626800D01*
X49002057Y-36626800D01*
X49002057Y-35892800D01*
X48992249Y-35793215D01*
X48963201Y-35697457D01*
X48916029Y-35609205D01*
X48852548Y-35531852D01*
X48775195Y-35468371D01*
X48686943Y-35421199D01*
X48591185Y-35392151D01*
X48491600Y-35382343D01*
X44991600Y-35382343D01*
X44892015Y-35392151D01*
X44796257Y-35421199D01*
X44708005Y-35468371D01*
X44630652Y-35531852D01*
X44567171Y-35609205D01*
X44519999Y-35697457D01*
X44490951Y-35793215D01*
X44481143Y-35892800D01*
X36587200Y-35892800D01*
X36587200Y-31758400D01*
X108384000Y-31758400D01*
X108384000Y-90555200D01*
G37*
X108384000Y-90555200D02*
X85836840Y-90555200D01*
X86687533Y-89704508D01*
X86726296Y-89672696D01*
X86853260Y-89517990D01*
X86947602Y-89341487D01*
X87005698Y-89149971D01*
X87020400Y-89000702D01*
X87020400Y-89000695D01*
X87025314Y-88950801D01*
X87020400Y-88900907D01*
X87020400Y-87334902D01*
X87049743Y-87326001D01*
X87137995Y-87278829D01*
X87215348Y-87215348D01*
X87278829Y-87137995D01*
X87326001Y-87049743D01*
X87355049Y-86953985D01*
X87364857Y-86854400D01*
X87364857Y-85154400D01*
X87355049Y-85054815D01*
X87326001Y-84959057D01*
X87278829Y-84870805D01*
X87215348Y-84793452D01*
X87137995Y-84729971D01*
X87049743Y-84682799D01*
X86953985Y-84653751D01*
X86854400Y-84643943D01*
X85154400Y-84643943D01*
X85054815Y-84653751D01*
X84959057Y-84682799D01*
X84870805Y-84729971D01*
X84793452Y-84793452D01*
X84729971Y-84870805D01*
X84682799Y-84959057D01*
X84653751Y-85054815D01*
X84643943Y-85154400D01*
X84643943Y-85325375D01*
X84519228Y-85138725D01*
X84330075Y-84949572D01*
X84107654Y-84800956D01*
X83860514Y-84698587D01*
X83598151Y-84646400D01*
X83389787Y-84646400D01*
X89664191Y-78371997D01*
X89691327Y-78349727D01*
X89780202Y-78241433D01*
X89846242Y-78117881D01*
X89886909Y-77983820D01*
X89897200Y-77879336D01*
X89897200Y-77879329D01*
X89900640Y-77844400D01*
X89897200Y-77809472D01*
X89897200Y-75636102D01*
X90044701Y-75734659D01*
X90209946Y-75803106D01*
X90385370Y-75838000D01*
X90564230Y-75838000D01*
X90739654Y-75803106D01*
X90904899Y-75734659D01*
X91044770Y-75641200D01*
X92720213Y-75641200D01*
X93431413Y-76352400D01*
X92694117Y-76352400D01*
X92659199Y-76348961D01*
X92624281Y-76352400D01*
X92624264Y-76352400D01*
X92519780Y-76362691D01*
X92385719Y-76403358D01*
X92328206Y-76434099D01*
X92262166Y-76469398D01*
X92181008Y-76536003D01*
X92181004Y-76536007D01*
X92153873Y-76558273D01*
X92131607Y-76585404D01*
X90657010Y-78060003D01*
X90629874Y-78082273D01*
X90607604Y-78109409D01*
X90607603Y-78109410D01*
X90540998Y-78190568D01*
X90511914Y-78244981D01*
X90474959Y-78314119D01*
X90437198Y-78438602D01*
X90434292Y-78448181D01*
X90420560Y-78587600D01*
X90424001Y-78622536D01*
X90424001Y-79218385D01*
X90394185Y-79227429D01*
X90262712Y-79297703D01*
X90147475Y-79392275D01*
X90052903Y-79507512D01*
X89982629Y-79638985D01*
X89939355Y-79781641D01*
X89924743Y-79929999D01*
X89924743Y-80630001D01*
X89939355Y-80778359D01*
X89982629Y-80921015D01*
X90052903Y-81052488D01*
X90147475Y-81167725D01*
X90262712Y-81262297D01*
X90295832Y-81280000D01*
X90262712Y-81297703D01*
X90147475Y-81392275D01*
X90052903Y-81507512D01*
X89982629Y-81638985D01*
X89939355Y-81781641D01*
X89924743Y-81929999D01*
X89924743Y-82630001D01*
X89939355Y-82778359D01*
X89982629Y-82921015D01*
X90052903Y-83052488D01*
X90147475Y-83167725D01*
X90262712Y-83262297D01*
X90394185Y-83332571D01*
X90536841Y-83375845D01*
X90685199Y-83390457D01*
X90919070Y-83390457D01*
X93298609Y-85769998D01*
X93379767Y-85836602D01*
X93491101Y-85896112D01*
X93491101Y-85964072D01*
X93451271Y-86012605D01*
X93404099Y-86100857D01*
X93375051Y-86196615D01*
X93365243Y-86296200D01*
X93365243Y-87676200D01*
X93375051Y-87775785D01*
X93404099Y-87871543D01*
X93451271Y-87959795D01*
X93514752Y-88037148D01*
X93592105Y-88100629D01*
X93680357Y-88147801D01*
X93776115Y-88176849D01*
X93875700Y-88186657D01*
X94325700Y-88186657D01*
X94425285Y-88176849D01*
X94425700Y-88176723D01*
X94426115Y-88176849D01*
X94525700Y-88186657D01*
X94975700Y-88186657D01*
X95075285Y-88176849D01*
X95075700Y-88176723D01*
X95076115Y-88176849D01*
X95175700Y-88186657D01*
X95625700Y-88186657D01*
X95725285Y-88176849D01*
X95821043Y-88147801D01*
X95909295Y-88100629D01*
X95986648Y-88037148D01*
X96050129Y-87959795D01*
X96097301Y-87871543D01*
X96126349Y-87775785D01*
X96136157Y-87676200D01*
X96136157Y-86296200D01*
X96126349Y-86196615D01*
X96097301Y-86100857D01*
X96050129Y-86012605D01*
X96010300Y-85964072D01*
X96010300Y-85953804D01*
X96030278Y-85933826D01*
X96133081Y-85902641D01*
X96256632Y-85836602D01*
X96337790Y-85769997D01*
X96890788Y-85217000D01*
X97526474Y-85217000D01*
X97561400Y-85220440D01*
X97596326Y-85217000D01*
X97596336Y-85217000D01*
X97700820Y-85206709D01*
X97834881Y-85166042D01*
X97958433Y-85100002D01*
X98066727Y-85011127D01*
X98089002Y-84983985D01*
X98877790Y-84195197D01*
X98904927Y-84172927D01*
X98993802Y-84064633D01*
X99015864Y-84023358D01*
X99059842Y-83941082D01*
X99100509Y-83807020D01*
X99106301Y-83748210D01*
X99110800Y-83702536D01*
X99110800Y-83702529D01*
X99114240Y-83667600D01*
X99110800Y-83632672D01*
X99110800Y-83376415D01*
X99140615Y-83367371D01*
X99272088Y-83297097D01*
X99387325Y-83202525D01*
X99481897Y-83087288D01*
X99552171Y-82955815D01*
X99595445Y-82813159D01*
X99610057Y-82664801D01*
X99610057Y-81964799D01*
X99595445Y-81816441D01*
X99552171Y-81673785D01*
X99481897Y-81542312D01*
X99387325Y-81427075D01*
X99272088Y-81332503D01*
X99238968Y-81314800D01*
X99272088Y-81297097D01*
X99387325Y-81202525D01*
X99481897Y-81087288D01*
X99552171Y-80955815D01*
X99595445Y-80813159D01*
X99610057Y-80664801D01*
X99610057Y-79964799D01*
X99595445Y-79816441D01*
X99552171Y-79673785D01*
X99481897Y-79542312D01*
X99387325Y-79427075D01*
X99272088Y-79332503D01*
X99140615Y-79262229D01*
X98997959Y-79218955D01*
X98849601Y-79204343D01*
X98294931Y-79204343D01*
X93542402Y-74451815D01*
X93520127Y-74424673D01*
X93411833Y-74335798D01*
X93288281Y-74269758D01*
X93154220Y-74229091D01*
X93049736Y-74218800D01*
X93049726Y-74218800D01*
X93014800Y-74215360D01*
X92979874Y-74218800D01*
X91044770Y-74218800D01*
X90904899Y-74125341D01*
X90739654Y-74056894D01*
X90564230Y-74022000D01*
X90385370Y-74022000D01*
X90209946Y-74056894D01*
X90044701Y-74125341D01*
X89897200Y-74223898D01*
X89897200Y-73841245D01*
X89993901Y-73905859D01*
X90159146Y-73974306D01*
X90334570Y-74009200D01*
X90513430Y-74009200D01*
X90688854Y-73974306D01*
X90854099Y-73905859D01*
X90993970Y-73812400D01*
X91506674Y-73812400D01*
X91541600Y-73815840D01*
X91576526Y-73812400D01*
X91576536Y-73812400D01*
X91681020Y-73802109D01*
X91815081Y-73761442D01*
X91938633Y-73695402D01*
X92046927Y-73606527D01*
X92069202Y-73579385D01*
X98413691Y-67234897D01*
X98440894Y-67371654D01*
X98509341Y-67536899D01*
X98602801Y-67676771D01*
X98602800Y-70088135D01*
X98602801Y-70088145D01*
X98602800Y-76927074D01*
X98599360Y-76962000D01*
X98602800Y-76996926D01*
X98602800Y-76996935D01*
X98613091Y-77101419D01*
X98653758Y-77235480D01*
X98719798Y-77359032D01*
X98808673Y-77467326D01*
X98835810Y-77489597D01*
X99412801Y-78066589D01*
X99435072Y-78093726D01*
X99543366Y-78182601D01*
X99666918Y-78248641D01*
X99800979Y-78289308D01*
X99905463Y-78299599D01*
X99905470Y-78299599D01*
X99940399Y-78303039D01*
X99975327Y-78299599D01*
X102795412Y-78299599D01*
X102982743Y-78486930D01*
X102982743Y-79691600D01*
X102992551Y-79791185D01*
X103021599Y-79886943D01*
X103068771Y-79975195D01*
X103132252Y-80052548D01*
X103209605Y-80116029D01*
X103297857Y-80163201D01*
X103393615Y-80192249D01*
X103493200Y-80202057D01*
X105193200Y-80202057D01*
X105292785Y-80192249D01*
X105388543Y-80163201D01*
X105476795Y-80116029D01*
X105554148Y-80052548D01*
X105617629Y-79975195D01*
X105664801Y-79886943D01*
X105693849Y-79791185D01*
X105703657Y-79691600D01*
X105703657Y-77991600D01*
X105693849Y-77892015D01*
X105664801Y-77796257D01*
X105617629Y-77708005D01*
X105554148Y-77630652D01*
X105476795Y-77567171D01*
X105388543Y-77519999D01*
X105292785Y-77490951D01*
X105193200Y-77481143D01*
X105022225Y-77481143D01*
X105208875Y-77356428D01*
X105398028Y-77167275D01*
X105546644Y-76944854D01*
X105649013Y-76697714D01*
X105701200Y-76435351D01*
X105701200Y-76167849D01*
X105649013Y-75905486D01*
X105546644Y-75658346D01*
X105398028Y-75435925D01*
X105208875Y-75246772D01*
X104986454Y-75098156D01*
X104825774Y-75031600D01*
X104986454Y-74965044D01*
X105208875Y-74816428D01*
X105398028Y-74627275D01*
X105546644Y-74404854D01*
X105649013Y-74157714D01*
X105701200Y-73895351D01*
X105701200Y-73627849D01*
X105649013Y-73365486D01*
X105546644Y-73118346D01*
X105398028Y-72895925D01*
X105208875Y-72706772D01*
X104986454Y-72558156D01*
X104825774Y-72491600D01*
X104986454Y-72425044D01*
X105208875Y-72276428D01*
X105398028Y-72087275D01*
X105546644Y-71864854D01*
X105649013Y-71617714D01*
X105701200Y-71355351D01*
X105701200Y-71087849D01*
X105649013Y-70825486D01*
X105546644Y-70578346D01*
X105398028Y-70355925D01*
X105208875Y-70166772D01*
X104986454Y-70018156D01*
X104739314Y-69915787D01*
X104476951Y-69863600D01*
X104209449Y-69863600D01*
X103947086Y-69915787D01*
X103699946Y-70018156D01*
X103477525Y-70166772D01*
X103288372Y-70355925D01*
X103139756Y-70578346D01*
X103073200Y-70739026D01*
X103006644Y-70578346D01*
X102858028Y-70355925D01*
X102668875Y-70166772D01*
X102446454Y-70018156D01*
X102199314Y-69915787D01*
X101936951Y-69863600D01*
X101669449Y-69863600D01*
X101407086Y-69915787D01*
X101159946Y-70018156D01*
X100937525Y-70166772D01*
X100748372Y-70355925D01*
X100599756Y-70578346D01*
X100497387Y-70825486D01*
X100445200Y-71087849D01*
X100445200Y-71355351D01*
X100497387Y-71617714D01*
X100599756Y-71864854D01*
X100748372Y-72087275D01*
X100937525Y-72276428D01*
X101159946Y-72425044D01*
X101320626Y-72491600D01*
X101159946Y-72558156D01*
X100937525Y-72706772D01*
X100748372Y-72895925D01*
X100599756Y-73118346D01*
X100497387Y-73365486D01*
X100445200Y-73627849D01*
X100445200Y-73895351D01*
X100497387Y-74157714D01*
X100599756Y-74404854D01*
X100748372Y-74627275D01*
X100937525Y-74816428D01*
X101159946Y-74965044D01*
X101320626Y-75031600D01*
X101159946Y-75098156D01*
X100937525Y-75246772D01*
X100748372Y-75435925D01*
X100599756Y-75658346D01*
X100497387Y-75905486D01*
X100445200Y-76167849D01*
X100445200Y-76435351D01*
X100497387Y-76697714D01*
X100571732Y-76877199D01*
X100234987Y-76877199D01*
X100025200Y-76667413D01*
X100025200Y-67676770D01*
X100118659Y-67536899D01*
X100187106Y-67371654D01*
X100222000Y-67196230D01*
X100222000Y-67017370D01*
X100187106Y-66841946D01*
X100118659Y-66676701D01*
X100019289Y-66527984D01*
X99892816Y-66401511D01*
X99744099Y-66302141D01*
X99578854Y-66233694D01*
X99442097Y-66206491D01*
X105906996Y-59741593D01*
X105934127Y-59719327D01*
X105956393Y-59692196D01*
X105956398Y-59692191D01*
X106023002Y-59611033D01*
X106089042Y-59487482D01*
X106129709Y-59353420D01*
X106130513Y-59345254D01*
X106140000Y-59248936D01*
X106140000Y-59248929D01*
X106143440Y-59214000D01*
X106140000Y-59179072D01*
X106140000Y-56588656D01*
X106201288Y-56555897D01*
X106316525Y-56461325D01*
X106411097Y-56346088D01*
X106481371Y-56214615D01*
X106524645Y-56071959D01*
X106539257Y-55923601D01*
X106539257Y-55023599D01*
X106524645Y-54875241D01*
X106481371Y-54732585D01*
X106411097Y-54601112D01*
X106376701Y-54559200D01*
X106492674Y-54559200D01*
X106527600Y-54562640D01*
X106562526Y-54559200D01*
X106562536Y-54559200D01*
X106667020Y-54548909D01*
X106801081Y-54508242D01*
X106924633Y-54442202D01*
X107032927Y-54353327D01*
X107055201Y-54326186D01*
X107513795Y-53867593D01*
X107540927Y-53845327D01*
X107563193Y-53818196D01*
X107563197Y-53818192D01*
X107629801Y-53737034D01*
X107637623Y-53722401D01*
X107695842Y-53613481D01*
X107736509Y-53479420D01*
X107746800Y-53374936D01*
X107746800Y-53374919D01*
X107750239Y-53340001D01*
X107746800Y-53305083D01*
X107746800Y-50225317D01*
X107750239Y-50190399D01*
X107746800Y-50155481D01*
X107746800Y-50155464D01*
X107736509Y-50050980D01*
X107695842Y-49916919D01*
X107629802Y-49793367D01*
X107611461Y-49771019D01*
X107563197Y-49712208D01*
X107563188Y-49712199D01*
X107540926Y-49685073D01*
X107513800Y-49662811D01*
X107055201Y-49204214D01*
X107032927Y-49177073D01*
X106924633Y-49088198D01*
X106801081Y-49022158D01*
X106667020Y-48981491D01*
X106562536Y-48971200D01*
X106562526Y-48971200D01*
X106527600Y-48967760D01*
X106492674Y-48971200D01*
X103712000Y-48971200D01*
X103712000Y-48906236D01*
X103750800Y-48910057D01*
X104450800Y-48910057D01*
X104550385Y-48900249D01*
X104646143Y-48871201D01*
X104734395Y-48824029D01*
X104811748Y-48760548D01*
X104875229Y-48683195D01*
X104922401Y-48594943D01*
X104951449Y-48499185D01*
X104961257Y-48399600D01*
X104961257Y-46799600D01*
X104951449Y-46700015D01*
X104922401Y-46604257D01*
X104875229Y-46516005D01*
X104812000Y-46438959D01*
X104812000Y-46428125D01*
X104815440Y-46393199D01*
X104812000Y-46358273D01*
X104812000Y-46358264D01*
X104801709Y-46253780D01*
X104761042Y-46119719D01*
X104695002Y-45996167D01*
X104606127Y-45887873D01*
X104578991Y-45865603D01*
X103447202Y-44733815D01*
X103424927Y-44706673D01*
X103316633Y-44617798D01*
X103193081Y-44551758D01*
X103059020Y-44511091D01*
X102954536Y-44500800D01*
X102954526Y-44500800D01*
X102919600Y-44497360D01*
X102884674Y-44500800D01*
X94472128Y-44500800D01*
X94437200Y-44497360D01*
X94402271Y-44500800D01*
X94402264Y-44500800D01*
X94297780Y-44511091D01*
X94163719Y-44551758D01*
X94040167Y-44617798D01*
X93931873Y-44706673D01*
X93909603Y-44733810D01*
X93070010Y-45573403D01*
X93042873Y-45595674D01*
X92953998Y-45703968D01*
X92887958Y-45827520D01*
X92847291Y-45961581D01*
X92837000Y-46066065D01*
X92837000Y-46066074D01*
X92833560Y-46101000D01*
X92837000Y-46135926D01*
X92837001Y-46873211D01*
X91450213Y-48260000D01*
X89392125Y-48260000D01*
X89357199Y-48256560D01*
X89322273Y-48260000D01*
X89322264Y-48260000D01*
X89217780Y-48270291D01*
X89083719Y-48310958D01*
X89025421Y-48342119D01*
X88960167Y-48376998D01*
X88879008Y-48443603D01*
X88879004Y-48443607D01*
X88851873Y-48465873D01*
X88829607Y-48493004D01*
X87271551Y-50051061D01*
X87274400Y-50022136D01*
X87274400Y-50022129D01*
X87277840Y-49987200D01*
X87274400Y-49952272D01*
X87274400Y-49490599D01*
X87329214Y-49473971D01*
X87460687Y-49403697D01*
X87575924Y-49309124D01*
X87670497Y-49193887D01*
X87740771Y-49062414D01*
X87784045Y-48919758D01*
X87798657Y-48771400D01*
X87798657Y-48096400D01*
X87784045Y-47948042D01*
X87740771Y-47805386D01*
X87670497Y-47673913D01*
X87575924Y-47558676D01*
X87460687Y-47464103D01*
X87334024Y-47396400D01*
X87460687Y-47328697D01*
X87575924Y-47234124D01*
X87670497Y-47118887D01*
X87740771Y-46987414D01*
X87784045Y-46844758D01*
X87798657Y-46696400D01*
X87798657Y-46021400D01*
X87784045Y-45873042D01*
X87740771Y-45730386D01*
X87670497Y-45598913D01*
X87575924Y-45483676D01*
X87460687Y-45389103D01*
X87329214Y-45318829D01*
X87186558Y-45275555D01*
X87038200Y-45260943D01*
X86088200Y-45260943D01*
X85939842Y-45275555D01*
X85797186Y-45318829D01*
X85665713Y-45389103D01*
X85550476Y-45483676D01*
X85455903Y-45598913D01*
X85429826Y-45647700D01*
X85275070Y-45647700D01*
X85135199Y-45554241D01*
X84969954Y-45485794D01*
X84794530Y-45450900D01*
X84615670Y-45450900D01*
X84440246Y-45485794D01*
X84275001Y-45554241D01*
X84135130Y-45647700D01*
X83949812Y-45647700D01*
X83937097Y-45623912D01*
X83842525Y-45508675D01*
X83727288Y-45414103D01*
X83595815Y-45343829D01*
X83566000Y-45334785D01*
X83566000Y-45196128D01*
X83569440Y-45161200D01*
X83566000Y-45126271D01*
X83566000Y-45126264D01*
X83555709Y-45021780D01*
X83515042Y-44887719D01*
X83449002Y-44764167D01*
X83382397Y-44683009D01*
X83382393Y-44683005D01*
X83360126Y-44655873D01*
X83332995Y-44633607D01*
X83071200Y-44371813D01*
X83071200Y-43864325D01*
X83143595Y-43825629D01*
X83220948Y-43762148D01*
X83284429Y-43684795D01*
X83331601Y-43596543D01*
X83360649Y-43500785D01*
X83370457Y-43401200D01*
X83370457Y-40201200D01*
X83360649Y-40101615D01*
X83331601Y-40005857D01*
X83284429Y-39917605D01*
X83220948Y-39840252D01*
X83143595Y-39776771D01*
X83071200Y-39738075D01*
X83071200Y-37064325D01*
X83143595Y-37025629D01*
X83220948Y-36962148D01*
X83284429Y-36884795D01*
X83331601Y-36796543D01*
X83360649Y-36700785D01*
X83370457Y-36601200D01*
X83370457Y-36300321D01*
X93292800Y-36300321D01*
X93292800Y-36498879D01*
X93331537Y-36693623D01*
X93407522Y-36877067D01*
X93517835Y-37042162D01*
X93658238Y-37182565D01*
X93823333Y-37292878D01*
X94006777Y-37368863D01*
X94201521Y-37407600D01*
X94400079Y-37407600D01*
X94594823Y-37368863D01*
X94778267Y-37292878D01*
X94943362Y-37182565D01*
X95083765Y-37042162D01*
X95194078Y-36877067D01*
X95270063Y-36693623D01*
X95308800Y-36498879D01*
X95308800Y-36300321D01*
X101692800Y-36300321D01*
X101692800Y-36498879D01*
X101731537Y-36693623D01*
X101807522Y-36877067D01*
X101917835Y-37042162D01*
X102058238Y-37182565D01*
X102223333Y-37292878D01*
X102406777Y-37368863D01*
X102601521Y-37407600D01*
X102800079Y-37407600D01*
X102994823Y-37368863D01*
X103178267Y-37292878D01*
X103343362Y-37182565D01*
X103483765Y-37042162D01*
X103594078Y-36877067D01*
X103670063Y-36693623D01*
X103708800Y-36498879D01*
X103708800Y-36300321D01*
X103670063Y-36105577D01*
X103594078Y-35922133D01*
X103483765Y-35757038D01*
X103343362Y-35616635D01*
X103178267Y-35506322D01*
X102994823Y-35430337D01*
X102800079Y-35391600D01*
X102601521Y-35391600D01*
X102406777Y-35430337D01*
X102223333Y-35506322D01*
X102058238Y-35616635D01*
X101917835Y-35757038D01*
X101807522Y-35922133D01*
X101731537Y-36105577D01*
X101692800Y-36300321D01*
X95308800Y-36300321D01*
X95270063Y-36105577D01*
X95194078Y-35922133D01*
X95083765Y-35757038D01*
X94943362Y-35616635D01*
X94778267Y-35506322D01*
X94594823Y-35430337D01*
X94400079Y-35391600D01*
X94201521Y-35391600D01*
X94006777Y-35430337D01*
X93823333Y-35506322D01*
X93658238Y-35616635D01*
X93517835Y-35757038D01*
X93407522Y-35922133D01*
X93331537Y-36105577D01*
X93292800Y-36300321D01*
X83370457Y-36300321D01*
X83370457Y-33401200D01*
X83360649Y-33301615D01*
X83331601Y-33205857D01*
X83284429Y-33117605D01*
X83220948Y-33040252D01*
X83143595Y-32976771D01*
X83055343Y-32929599D01*
X82959585Y-32900551D01*
X82860000Y-32890743D01*
X81860000Y-32890743D01*
X81760415Y-32900551D01*
X81664657Y-32929599D01*
X81576405Y-32976771D01*
X81499052Y-33040252D01*
X81435571Y-33117605D01*
X81388399Y-33205857D01*
X81359351Y-33301615D01*
X81349543Y-33401200D01*
X81349543Y-36601200D01*
X81359351Y-36700785D01*
X81388399Y-36796543D01*
X81435571Y-36884795D01*
X81499052Y-36962148D01*
X81576405Y-37025629D01*
X81648800Y-37064325D01*
X81648801Y-39738074D01*
X81576405Y-39776771D01*
X81499052Y-39840252D01*
X81435571Y-39917605D01*
X81388399Y-40005857D01*
X81359351Y-40101615D01*
X81349543Y-40201200D01*
X81349543Y-43401200D01*
X81359351Y-43500785D01*
X81388399Y-43596543D01*
X81435571Y-43684795D01*
X81499052Y-43762148D01*
X81576405Y-43825629D01*
X81648801Y-43864326D01*
X81648801Y-44631464D01*
X81645360Y-44666400D01*
X81648801Y-44701336D01*
X81654990Y-44764167D01*
X81659092Y-44805819D01*
X81699759Y-44939881D01*
X81765798Y-45063432D01*
X81817363Y-45126264D01*
X81854674Y-45171727D01*
X81881810Y-45193997D01*
X82060254Y-45372442D01*
X81982312Y-45414103D01*
X81867075Y-45508675D01*
X81772503Y-45623912D01*
X81702229Y-45755385D01*
X81658955Y-45898041D01*
X81644343Y-46046399D01*
X81644343Y-46746401D01*
X81658955Y-46894759D01*
X81702229Y-47037415D01*
X81772503Y-47168888D01*
X81867075Y-47284125D01*
X81982312Y-47378697D01*
X82015432Y-47396400D01*
X81982312Y-47414103D01*
X81867075Y-47508675D01*
X81772503Y-47623912D01*
X81702229Y-47755385D01*
X81658955Y-47898041D01*
X81644343Y-48046399D01*
X81644343Y-48746401D01*
X81658955Y-48894759D01*
X81702229Y-49037415D01*
X81772503Y-49168888D01*
X81867075Y-49284125D01*
X81908495Y-49318117D01*
X80395410Y-50831202D01*
X80368273Y-50853474D01*
X80279398Y-50961768D01*
X80213358Y-51085320D01*
X80172691Y-51219381D01*
X80162400Y-51323865D01*
X80162400Y-51323874D01*
X80158960Y-51358800D01*
X80162400Y-51393726D01*
X80162401Y-58267600D01*
X61482441Y-58267600D01*
X60519641Y-57304800D01*
X61988143Y-57304800D01*
X61988143Y-57604800D01*
X62000833Y-57733649D01*
X62038417Y-57857546D01*
X62099450Y-57971730D01*
X62181586Y-58071814D01*
X62281670Y-58153950D01*
X62395854Y-58214983D01*
X62519751Y-58252567D01*
X62648600Y-58265257D01*
X64398600Y-58265257D01*
X64527449Y-58252567D01*
X64651346Y-58214983D01*
X64765530Y-58153950D01*
X64865614Y-58071814D01*
X64947750Y-57971730D01*
X65008783Y-57857546D01*
X65046367Y-57733649D01*
X65059057Y-57604800D01*
X65059057Y-57304800D01*
X65046367Y-57175951D01*
X65008783Y-57052054D01*
X64947750Y-56937870D01*
X64865614Y-56837786D01*
X64765530Y-56755650D01*
X64651346Y-56694617D01*
X64527449Y-56657033D01*
X64398600Y-56644343D01*
X62648600Y-56644343D01*
X62519751Y-56657033D01*
X62395854Y-56694617D01*
X62281670Y-56755650D01*
X62181586Y-56837786D01*
X62099450Y-56937870D01*
X62038417Y-57052054D01*
X62000833Y-57175951D01*
X61988143Y-57304800D01*
X60519641Y-57304800D01*
X60096400Y-56881560D01*
X60096400Y-55117093D01*
X60101314Y-55067199D01*
X60096400Y-55017305D01*
X60096400Y-55017298D01*
X60081698Y-54868029D01*
X60023602Y-54676513D01*
X59929260Y-54500010D01*
X59802296Y-54345304D01*
X59763533Y-54313492D01*
X59065103Y-53615062D01*
X68313300Y-53615062D01*
X68313300Y-53877738D01*
X68364546Y-54135368D01*
X68465068Y-54378049D01*
X68611003Y-54596457D01*
X68796743Y-54782197D01*
X69015151Y-54928132D01*
X69257832Y-55028654D01*
X69515462Y-55079900D01*
X69697664Y-55079900D01*
X70130305Y-55512541D01*
X70158141Y-55546459D01*
X70293509Y-55657553D01*
X70447949Y-55740103D01*
X70512747Y-55759759D01*
X70615524Y-55790936D01*
X70648724Y-55794206D01*
X70746133Y-55803800D01*
X70746139Y-55803800D01*
X70789799Y-55808100D01*
X70833459Y-55803800D01*
X71331820Y-55803800D01*
X71300833Y-55905951D01*
X71288143Y-56034800D01*
X71288143Y-56334800D01*
X71300833Y-56463649D01*
X71338417Y-56587546D01*
X71399450Y-56701730D01*
X71481586Y-56801814D01*
X71503502Y-56819800D01*
X71481586Y-56837786D01*
X71399450Y-56937870D01*
X71338417Y-57052054D01*
X71300833Y-57175951D01*
X71288143Y-57304800D01*
X71288143Y-57604800D01*
X71300833Y-57733649D01*
X71338417Y-57857546D01*
X71399450Y-57971730D01*
X71481586Y-58071814D01*
X71581670Y-58153950D01*
X71695854Y-58214983D01*
X71819751Y-58252567D01*
X71948600Y-58265257D01*
X73698600Y-58265257D01*
X73827449Y-58252567D01*
X73951346Y-58214983D01*
X74065530Y-58153950D01*
X74165614Y-58071814D01*
X74247750Y-57971730D01*
X74308783Y-57857546D01*
X74346367Y-57733649D01*
X74359057Y-57604800D01*
X74359057Y-57304800D01*
X74346367Y-57175951D01*
X74308783Y-57052054D01*
X74247750Y-56937870D01*
X74165614Y-56837786D01*
X74143698Y-56819800D01*
X74165614Y-56801814D01*
X74247750Y-56701730D01*
X74308783Y-56587546D01*
X74346367Y-56463649D01*
X74359057Y-56334800D01*
X74359057Y-56034800D01*
X74346367Y-55905951D01*
X74308783Y-55782054D01*
X74247750Y-55667870D01*
X74165614Y-55567786D01*
X74143698Y-55549800D01*
X74165614Y-55531814D01*
X74247750Y-55431730D01*
X74308783Y-55317546D01*
X74346367Y-55193649D01*
X74359057Y-55064800D01*
X74359057Y-54764800D01*
X74346367Y-54635951D01*
X74308783Y-54512054D01*
X74247750Y-54397870D01*
X74165614Y-54297786D01*
X74143698Y-54279800D01*
X74165614Y-54261814D01*
X74247750Y-54161730D01*
X74308783Y-54047546D01*
X74346367Y-53923649D01*
X74359057Y-53794800D01*
X74359057Y-53494800D01*
X74346367Y-53365951D01*
X74315380Y-53263800D01*
X74937140Y-53263800D01*
X74980800Y-53268100D01*
X75024460Y-53263800D01*
X75024467Y-53263800D01*
X75155074Y-53250936D01*
X75322651Y-53200103D01*
X75477091Y-53117553D01*
X75612459Y-53006459D01*
X75640299Y-52972536D01*
X76579036Y-52033800D01*
X76923143Y-52033800D01*
X76923143Y-52894800D01*
X76932951Y-52994385D01*
X76961999Y-53090143D01*
X77009171Y-53178395D01*
X77072652Y-53255748D01*
X77150005Y-53319229D01*
X77238257Y-53366401D01*
X77334015Y-53395449D01*
X77433600Y-53405257D01*
X79233600Y-53405257D01*
X79333185Y-53395449D01*
X79428943Y-53366401D01*
X79517195Y-53319229D01*
X79594548Y-53255748D01*
X79658029Y-53178395D01*
X79705201Y-53090143D01*
X79734249Y-52994385D01*
X79744057Y-52894800D01*
X79744057Y-49394800D01*
X79734249Y-49295215D01*
X79705201Y-49199457D01*
X79658029Y-49111205D01*
X79594548Y-49033852D01*
X79517195Y-48970371D01*
X79428943Y-48923199D01*
X79333185Y-48894151D01*
X79233600Y-48884343D01*
X79089600Y-48884343D01*
X79089600Y-42885257D01*
X79523600Y-42885257D01*
X79623185Y-42875449D01*
X79718943Y-42846401D01*
X79807195Y-42799229D01*
X79884548Y-42735748D01*
X79948029Y-42658395D01*
X79995201Y-42570143D01*
X80024249Y-42474385D01*
X80034057Y-42374800D01*
X80034057Y-36974800D01*
X80024249Y-36875215D01*
X79995201Y-36779457D01*
X79948029Y-36691205D01*
X79884548Y-36613852D01*
X79807195Y-36550371D01*
X79718943Y-36503199D01*
X79623185Y-36474151D01*
X79523600Y-36464343D01*
X76623600Y-36464343D01*
X76524015Y-36474151D01*
X76428257Y-36503199D01*
X76340005Y-36550371D01*
X76262652Y-36613852D01*
X76199171Y-36691205D01*
X76151999Y-36779457D01*
X76122951Y-36875215D01*
X76113143Y-36974800D01*
X76113143Y-42374800D01*
X76122951Y-42474385D01*
X76151999Y-42570143D01*
X76199171Y-42658395D01*
X76262652Y-42735748D01*
X76340005Y-42799229D01*
X76428257Y-42846401D01*
X76524015Y-42875449D01*
X76623600Y-42885257D01*
X77057600Y-42885257D01*
X77057601Y-49052192D01*
X77009171Y-49111205D01*
X76961999Y-49199457D01*
X76932951Y-49295215D01*
X76923143Y-49394800D01*
X76923143Y-50255800D01*
X76254460Y-50255800D01*
X76210800Y-50251500D01*
X76167140Y-50255800D01*
X76167133Y-50255800D01*
X76053125Y-50267029D01*
X76036525Y-50268664D01*
X75987647Y-50283491D01*
X75868949Y-50319497D01*
X75714509Y-50402047D01*
X75707974Y-50407410D01*
X75620652Y-50479074D01*
X75579141Y-50513141D01*
X75551305Y-50547059D01*
X74612565Y-51485800D01*
X74315380Y-51485800D01*
X74346367Y-51383649D01*
X74359057Y-51254800D01*
X74359057Y-50954800D01*
X74346367Y-50825951D01*
X74308783Y-50702054D01*
X74247750Y-50587870D01*
X74165614Y-50487786D01*
X74143698Y-50469800D01*
X74165614Y-50451814D01*
X74247750Y-50351730D01*
X74308783Y-50237546D01*
X74346367Y-50113649D01*
X74359057Y-49984800D01*
X74359057Y-49684800D01*
X74346367Y-49555951D01*
X74308783Y-49432054D01*
X74247750Y-49317870D01*
X74165614Y-49217786D01*
X74065530Y-49135650D01*
X73951346Y-49074617D01*
X73827449Y-49037033D01*
X73698600Y-49024343D01*
X71948600Y-49024343D01*
X71819751Y-49037033D01*
X71695854Y-49074617D01*
X71581670Y-49135650D01*
X71481586Y-49217786D01*
X71399450Y-49317870D01*
X71338417Y-49432054D01*
X71300833Y-49555951D01*
X71288143Y-49684800D01*
X71288143Y-49984800D01*
X71300833Y-50113649D01*
X71338417Y-50237546D01*
X71399450Y-50351730D01*
X71481586Y-50451814D01*
X71503502Y-50469800D01*
X71481586Y-50487786D01*
X71399450Y-50587870D01*
X71338417Y-50702054D01*
X71300833Y-50825951D01*
X71288143Y-50954800D01*
X71288143Y-51254800D01*
X71300833Y-51383649D01*
X71338417Y-51507546D01*
X71399450Y-51621730D01*
X71481586Y-51721814D01*
X71503502Y-51739800D01*
X71481586Y-51757786D01*
X71399450Y-51857870D01*
X71338417Y-51972054D01*
X71300833Y-52095951D01*
X71288143Y-52224800D01*
X71288143Y-52524800D01*
X71300833Y-52653649D01*
X71338417Y-52777546D01*
X71399450Y-52891730D01*
X71481586Y-52991814D01*
X71503502Y-53009800D01*
X71481586Y-53027786D01*
X71399450Y-53127870D01*
X71338417Y-53242054D01*
X71300833Y-53365951D01*
X71288143Y-53494800D01*
X71288143Y-53794800D01*
X71300833Y-53923649D01*
X71331820Y-54025800D01*
X71158036Y-54025800D01*
X70980300Y-53848064D01*
X70980300Y-53615062D01*
X70929054Y-53357432D01*
X70828532Y-53114751D01*
X70682597Y-52896343D01*
X70496857Y-52710603D01*
X70278449Y-52564668D01*
X70035768Y-52464146D01*
X69778138Y-52412900D01*
X69515462Y-52412900D01*
X69257832Y-52464146D01*
X69015151Y-52564668D01*
X68796743Y-52710603D01*
X68611003Y-52896343D01*
X68465068Y-53114751D01*
X68364546Y-53357432D01*
X68313300Y-53615062D01*
X59065103Y-53615062D01*
X58592119Y-53142079D01*
X58557660Y-53077610D01*
X58430696Y-52922904D01*
X58275990Y-52795940D01*
X58099487Y-52701598D01*
X57910862Y-52644379D01*
X58852703Y-51702538D01*
X60122706Y-52972542D01*
X60150541Y-53006459D01*
X60285909Y-53117553D01*
X60440349Y-53200103D01*
X60462450Y-53206807D01*
X60607924Y-53250936D01*
X60637989Y-53253897D01*
X60738533Y-53263800D01*
X60738539Y-53263800D01*
X60782199Y-53268100D01*
X60825859Y-53263800D01*
X63567267Y-53263800D01*
X63697874Y-53250936D01*
X63865451Y-53200103D01*
X63893226Y-53185257D01*
X64398600Y-53185257D01*
X64527449Y-53172567D01*
X64651346Y-53134983D01*
X64765530Y-53073950D01*
X64865614Y-52991814D01*
X64947750Y-52891730D01*
X65008783Y-52777546D01*
X65046367Y-52653649D01*
X65059057Y-52524800D01*
X65059057Y-52224800D01*
X65046367Y-52095951D01*
X65008783Y-51972054D01*
X64947750Y-51857870D01*
X64865614Y-51757786D01*
X64843698Y-51739800D01*
X64865614Y-51721814D01*
X64947750Y-51621730D01*
X65008783Y-51507546D01*
X65046367Y-51383649D01*
X65059057Y-51254800D01*
X65059057Y-50954800D01*
X65046367Y-50825951D01*
X65008783Y-50702054D01*
X64947750Y-50587870D01*
X64865614Y-50487786D01*
X64843698Y-50469800D01*
X64865614Y-50451814D01*
X64947750Y-50351730D01*
X65008783Y-50237546D01*
X65046367Y-50113649D01*
X65059057Y-49984800D01*
X65059057Y-49684800D01*
X65046367Y-49555951D01*
X65008783Y-49432054D01*
X64947750Y-49317870D01*
X64865614Y-49217786D01*
X64765530Y-49135650D01*
X64651346Y-49074617D01*
X64527449Y-49037033D01*
X64398600Y-49024343D01*
X62648600Y-49024343D01*
X62519751Y-49037033D01*
X62395854Y-49074617D01*
X62281670Y-49135650D01*
X62181586Y-49217786D01*
X62099450Y-49317870D01*
X62038417Y-49432054D01*
X62000833Y-49555951D01*
X61988143Y-49684800D01*
X61988143Y-49984800D01*
X62000833Y-50113649D01*
X62038417Y-50237546D01*
X62099450Y-50351730D01*
X62181586Y-50451814D01*
X62203502Y-50469800D01*
X62181586Y-50487786D01*
X62099450Y-50587870D01*
X62038417Y-50702054D01*
X62000833Y-50825951D01*
X61988143Y-50954800D01*
X61988143Y-51254800D01*
X62000833Y-51383649D01*
X62031820Y-51485800D01*
X61150436Y-51485800D01*
X60109938Y-50445302D01*
X61990441Y-48564800D01*
X65075698Y-48564800D01*
X65125600Y-48569715D01*
X65175502Y-48564800D01*
X65324771Y-48550098D01*
X65516287Y-48492002D01*
X65692790Y-48397660D01*
X65847496Y-48270696D01*
X65879312Y-48231928D01*
X68856733Y-45254508D01*
X68895496Y-45222696D01*
X69022460Y-45067990D01*
X69091663Y-44938519D01*
X69116802Y-44891488D01*
X69174898Y-44699971D01*
X69194515Y-44500800D01*
X69189600Y-44450898D01*
X69189600Y-42885257D01*
X69623600Y-42885257D01*
X69723185Y-42875449D01*
X69818943Y-42846401D01*
X69907195Y-42799229D01*
X69984548Y-42735748D01*
X70048029Y-42658395D01*
X70095201Y-42570143D01*
X70124249Y-42474385D01*
X70134057Y-42374800D01*
X70134057Y-36974800D01*
X70124249Y-36875215D01*
X70095201Y-36779457D01*
X70048029Y-36691205D01*
X69984548Y-36613852D01*
X69907195Y-36550371D01*
X69818943Y-36503199D01*
X69723185Y-36474151D01*
X69623600Y-36464343D01*
X66723600Y-36464343D01*
X66624015Y-36474151D01*
X66528257Y-36503199D01*
X66440005Y-36550371D01*
X66362652Y-36613852D01*
X66299171Y-36691205D01*
X66251999Y-36779457D01*
X66222951Y-36875215D01*
X66213143Y-36974800D01*
X66213143Y-42374800D01*
X66222951Y-42474385D01*
X66251999Y-42570143D01*
X66299171Y-42658395D01*
X66362652Y-42735748D01*
X66440005Y-42799229D01*
X66528257Y-42846401D01*
X66624015Y-42875449D01*
X66723600Y-42885257D01*
X67157601Y-42885257D01*
X67157601Y-44079958D01*
X64704760Y-46532800D01*
X61619493Y-46532800D01*
X61569599Y-46527886D01*
X61519705Y-46532800D01*
X61519698Y-46532800D01*
X61370429Y-46547502D01*
X61178913Y-46605598D01*
X61002410Y-46699940D01*
X60847704Y-46826904D01*
X60815893Y-46865666D01*
X58079770Y-49601790D01*
X58079765Y-49601794D01*
X55347217Y-52334343D01*
X54673600Y-52334343D01*
X54574015Y-52344151D01*
X54478257Y-52373199D01*
X54390005Y-52420371D01*
X54312652Y-52483852D01*
X54249171Y-52561205D01*
X54213040Y-52628800D01*
X52831101Y-52628800D01*
X52781199Y-52623885D01*
X52582029Y-52643502D01*
X52390513Y-52701598D01*
X52214010Y-52795940D01*
X52059304Y-52922904D01*
X52027493Y-52961666D01*
X39525071Y-65464089D01*
X39525065Y-65464094D01*
X37061268Y-67927892D01*
X37022505Y-67959704D01*
X36895541Y-68114410D01*
X36838799Y-68220568D01*
X36801199Y-68290913D01*
X36743102Y-68482430D01*
X36723485Y-68681600D01*
X36728401Y-68731512D01*
X36728400Y-78535901D01*
X36728401Y-78535911D01*
X36728400Y-80264898D01*
X36728400Y-80264899D01*
X36728401Y-89358088D01*
X36723485Y-89408000D01*
X36743102Y-89607170D01*
X36775956Y-89715473D01*
X36801199Y-89798687D01*
X36895541Y-89975190D01*
X37022505Y-90129896D01*
X37061268Y-90161708D01*
X37454760Y-90555200D01*
X36587200Y-90555200D01*
X36587200Y-35892800D01*
X44481143Y-35892800D01*
X44481143Y-39392800D01*
X44490951Y-39492385D01*
X44519999Y-39588143D01*
X44567171Y-39676395D01*
X44630652Y-39753748D01*
X44708005Y-39817229D01*
X44796257Y-39864401D01*
X44892015Y-39893449D01*
X44991600Y-39903257D01*
X48491600Y-39903257D01*
X48591185Y-39893449D01*
X48686943Y-39864401D01*
X48775195Y-39817229D01*
X48852548Y-39753748D01*
X48916029Y-39676395D01*
X48963201Y-39588143D01*
X48992249Y-39492385D01*
X49002057Y-39392800D01*
X49002057Y-38658800D01*
X52065907Y-38658800D01*
X52329301Y-39052998D01*
X52665402Y-39389099D01*
X53060616Y-39653172D01*
X53499754Y-39835069D01*
X53649220Y-39864800D01*
X53499754Y-39894531D01*
X53060616Y-40076428D01*
X52665402Y-40340501D01*
X52329301Y-40676602D01*
X52065228Y-41071816D01*
X51883331Y-41510954D01*
X51790600Y-41977140D01*
X51790600Y-42452460D01*
X51883331Y-42918646D01*
X52065228Y-43357784D01*
X52329301Y-43752998D01*
X52665402Y-44089099D01*
X53060616Y-44353172D01*
X53499754Y-44535069D01*
X53649220Y-44564800D01*
X53499754Y-44594531D01*
X53060616Y-44776428D01*
X52665402Y-45040501D01*
X52329301Y-45376602D01*
X52065228Y-45771816D01*
X52012629Y-45898800D01*
X50823493Y-45898800D01*
X50773599Y-45893886D01*
X50723705Y-45898800D01*
X50723698Y-45898800D01*
X50593777Y-45911596D01*
X50574428Y-45913502D01*
X50542459Y-45923200D01*
X50382913Y-45971598D01*
X50206410Y-46065940D01*
X50051704Y-46192904D01*
X50019892Y-46231667D01*
X48702760Y-47548800D01*
X47914102Y-47548800D01*
X47905201Y-47519457D01*
X47858029Y-47431205D01*
X47794548Y-47353852D01*
X47717195Y-47290371D01*
X47628943Y-47243199D01*
X47533185Y-47214151D01*
X47433600Y-47204343D01*
X45733600Y-47204343D01*
X45634015Y-47214151D01*
X45538257Y-47243199D01*
X45450005Y-47290371D01*
X45372652Y-47353852D01*
X45309171Y-47431205D01*
X45261999Y-47519457D01*
X45232951Y-47615215D01*
X45223143Y-47714800D01*
X45223143Y-49414800D01*
X45232951Y-49514385D01*
X45261999Y-49610143D01*
X45309171Y-49698395D01*
X45372652Y-49775748D01*
X45450005Y-49839229D01*
X45538257Y-49886401D01*
X45634015Y-49915449D01*
X45733600Y-49925257D01*
X47433600Y-49925257D01*
X47533185Y-49915449D01*
X47628943Y-49886401D01*
X47717195Y-49839229D01*
X47794548Y-49775748D01*
X47858029Y-49698395D01*
X47905201Y-49610143D01*
X47914102Y-49580800D01*
X49073698Y-49580800D01*
X49123600Y-49585715D01*
X49173502Y-49580800D01*
X49322771Y-49566098D01*
X49514287Y-49508002D01*
X49690790Y-49413660D01*
X49845496Y-49286696D01*
X49877312Y-49247928D01*
X51194441Y-47930800D01*
X52012629Y-47930800D01*
X52065228Y-48057784D01*
X52329301Y-48452998D01*
X52665402Y-48789099D01*
X53060616Y-49053172D01*
X53499754Y-49235069D01*
X53965940Y-49327800D01*
X54441260Y-49327800D01*
X54907446Y-49235069D01*
X55346584Y-49053172D01*
X55741798Y-48789099D01*
X56077899Y-48452998D01*
X56341972Y-48057784D01*
X56523869Y-47618646D01*
X56616600Y-47152460D01*
X56616600Y-46677140D01*
X56523869Y-46210954D01*
X56341972Y-45771816D01*
X56077899Y-45376602D01*
X55741798Y-45040501D01*
X55346584Y-44776428D01*
X54907446Y-44594531D01*
X54757980Y-44564800D01*
X54907446Y-44535069D01*
X55346584Y-44353172D01*
X55741798Y-44089099D01*
X56077899Y-43752998D01*
X56341972Y-43357784D01*
X56394571Y-43230800D01*
X60929734Y-43230800D01*
X60940005Y-43239229D01*
X61028257Y-43286401D01*
X61124015Y-43315449D01*
X61223600Y-43325257D01*
X62423600Y-43325257D01*
X62523185Y-43315449D01*
X62618943Y-43286401D01*
X62707195Y-43239229D01*
X62784548Y-43175748D01*
X62848029Y-43098395D01*
X62895201Y-43010143D01*
X62924249Y-42914385D01*
X62934057Y-42814800D01*
X62934057Y-41614800D01*
X62924249Y-41515215D01*
X62895201Y-41419457D01*
X62848029Y-41331205D01*
X62784548Y-41253852D01*
X62707195Y-41190371D01*
X62618943Y-41143199D01*
X62523185Y-41114151D01*
X62423600Y-41104343D01*
X61223600Y-41104343D01*
X61124015Y-41114151D01*
X61028257Y-41143199D01*
X60940005Y-41190371D01*
X60929734Y-41198800D01*
X56394571Y-41198800D01*
X56341972Y-41071816D01*
X56077899Y-40676602D01*
X55741798Y-40340501D01*
X55346584Y-40076428D01*
X54907446Y-39894531D01*
X54757980Y-39864800D01*
X54907446Y-39835069D01*
X55346584Y-39653172D01*
X55741798Y-39389099D01*
X56077899Y-39052998D01*
X56341972Y-38657784D01*
X56523869Y-38218646D01*
X56616600Y-37752460D01*
X56616600Y-37277140D01*
X56523869Y-36810954D01*
X56341972Y-36371816D01*
X56077899Y-35976602D01*
X55741798Y-35640501D01*
X55346584Y-35376428D01*
X54907446Y-35194531D01*
X54441260Y-35101800D01*
X53965940Y-35101800D01*
X53499754Y-35194531D01*
X53060616Y-35376428D01*
X52665402Y-35640501D01*
X52329301Y-35976602D01*
X52065228Y-36371816D01*
X51959610Y-36626800D01*
X49002057Y-36626800D01*
X49002057Y-35892800D01*
X48992249Y-35793215D01*
X48963201Y-35697457D01*
X48916029Y-35609205D01*
X48852548Y-35531852D01*
X48775195Y-35468371D01*
X48686943Y-35421199D01*
X48591185Y-35392151D01*
X48491600Y-35382343D01*
X44991600Y-35382343D01*
X44892015Y-35392151D01*
X44796257Y-35421199D01*
X44708005Y-35468371D01*
X44630652Y-35531852D01*
X44567171Y-35609205D01*
X44519999Y-35697457D01*
X44490951Y-35793215D01*
X44481143Y-35892800D01*
X36587200Y-35892800D01*
X36587200Y-31758400D01*
X108384000Y-31758400D01*
X108384000Y-90555200D01*
G36*
X80409338Y-64005255D02*
G01*
X80381473Y-64008000D01*
X80381464Y-64008000D01*
X80276980Y-64018291D01*
X80142919Y-64058958D01*
X80019367Y-64124998D01*
X79911073Y-64213873D01*
X79888798Y-64241015D01*
X79760415Y-64369398D01*
X79760409Y-64369403D01*
X78820610Y-65309203D01*
X78793474Y-65331473D01*
X78771204Y-65358609D01*
X78771203Y-65358610D01*
X78704598Y-65439768D01*
X78638559Y-65563319D01*
X78597892Y-65697381D01*
X78584160Y-65836800D01*
X78587601Y-65871736D01*
X78587600Y-74044630D01*
X78473830Y-74022000D01*
X78294970Y-74022000D01*
X78119546Y-74056894D01*
X77954301Y-74125341D01*
X77805584Y-74224711D01*
X77679111Y-74351184D01*
X77579741Y-74499901D01*
X77511294Y-74665146D01*
X77495400Y-74745051D01*
X77479506Y-74665146D01*
X77411059Y-74499901D01*
X77311689Y-74351184D01*
X77185216Y-74224711D01*
X77036499Y-74125341D01*
X76871254Y-74056894D01*
X76695830Y-74022000D01*
X76516970Y-74022000D01*
X76341546Y-74056894D01*
X76176301Y-74125341D01*
X76027584Y-74224711D01*
X75901111Y-74351184D01*
X75801741Y-74499901D01*
X75733294Y-74665146D01*
X75700475Y-74830137D01*
X72977813Y-77552800D01*
X71807925Y-77552800D01*
X71769229Y-77480405D01*
X71705748Y-77403052D01*
X71628395Y-77339571D01*
X71540143Y-77292399D01*
X71444385Y-77263351D01*
X71344800Y-77253543D01*
X68144800Y-77253543D01*
X68045215Y-77263351D01*
X67949457Y-77292399D01*
X67861205Y-77339571D01*
X67783852Y-77403052D01*
X67720371Y-77480405D01*
X67681675Y-77552800D01*
X65007925Y-77552800D01*
X64969229Y-77480405D01*
X64905748Y-77403052D01*
X64828395Y-77339571D01*
X64740143Y-77292399D01*
X64644385Y-77263351D01*
X64544800Y-77253543D01*
X63630900Y-77253543D01*
X63630900Y-76114174D01*
X63679687Y-76088097D01*
X63794924Y-75993524D01*
X63889497Y-75878287D01*
X63959771Y-75746814D01*
X64003045Y-75604158D01*
X64017657Y-75455800D01*
X64017657Y-74505800D01*
X64003045Y-74357442D01*
X63959771Y-74214786D01*
X63889497Y-74083313D01*
X63794924Y-73968076D01*
X63679687Y-73873503D01*
X63548214Y-73803229D01*
X63405558Y-73759955D01*
X63257200Y-73745343D01*
X62582200Y-73745343D01*
X62433842Y-73759955D01*
X62291186Y-73803229D01*
X62159713Y-73873503D01*
X62044476Y-73968076D01*
X61949903Y-74083313D01*
X61879629Y-74214786D01*
X61836355Y-74357442D01*
X61821743Y-74505800D01*
X61821743Y-75455800D01*
X61836355Y-75604158D01*
X61879629Y-75746814D01*
X61949903Y-75878287D01*
X62044476Y-75993524D01*
X62159713Y-76088097D01*
X62208500Y-76114174D01*
X62208501Y-77253543D01*
X61344800Y-77253543D01*
X61245215Y-77263351D01*
X61149457Y-77292399D01*
X61061205Y-77339571D01*
X60983852Y-77403052D01*
X60920371Y-77480405D01*
X60873199Y-77568657D01*
X60844151Y-77664415D01*
X60834343Y-77764000D01*
X60834343Y-78764000D01*
X60844151Y-78863585D01*
X60873199Y-78959343D01*
X60920371Y-79047595D01*
X60983852Y-79124948D01*
X61061205Y-79188429D01*
X61149457Y-79235601D01*
X61245215Y-79264649D01*
X61344800Y-79274457D01*
X64544800Y-79274457D01*
X64644385Y-79264649D01*
X64740143Y-79235601D01*
X64828395Y-79188429D01*
X64905748Y-79124948D01*
X64969229Y-79047595D01*
X65007925Y-78975200D01*
X67681675Y-78975200D01*
X67720371Y-79047595D01*
X67783852Y-79124948D01*
X67861205Y-79188429D01*
X67949457Y-79235601D01*
X68045215Y-79264649D01*
X68144800Y-79274457D01*
X71344800Y-79274457D01*
X71444385Y-79264649D01*
X71540143Y-79235601D01*
X71628395Y-79188429D01*
X71705748Y-79124948D01*
X71769229Y-79047595D01*
X71807925Y-78975200D01*
X73237474Y-78975200D01*
X73272400Y-78978640D01*
X73285100Y-78977389D01*
X73297800Y-78978640D01*
X73332726Y-78975200D01*
X73332736Y-78975200D01*
X73437220Y-78964909D01*
X73571281Y-78924242D01*
X73694833Y-78858202D01*
X73803127Y-78769327D01*
X73825402Y-78742186D01*
X74530497Y-78037091D01*
X74530501Y-78037086D01*
X75120500Y-77447088D01*
X75133201Y-77459789D01*
X75133200Y-80756135D01*
X75133201Y-80756145D01*
X75133201Y-81802059D01*
X75076489Y-81717184D01*
X74950016Y-81590711D01*
X74801299Y-81491341D01*
X74636054Y-81422894D01*
X74460630Y-81388000D01*
X74281770Y-81388000D01*
X74106346Y-81422894D01*
X73941101Y-81491341D01*
X73792384Y-81590711D01*
X73665911Y-81717184D01*
X73566541Y-81865901D01*
X73498094Y-82031146D01*
X73463200Y-82206570D01*
X73463200Y-82224150D01*
X72629351Y-83058000D01*
X66887728Y-83058000D01*
X66852800Y-83054560D01*
X66817871Y-83058000D01*
X66817864Y-83058000D01*
X66713380Y-83068291D01*
X66579319Y-83108958D01*
X66455767Y-83174998D01*
X66347473Y-83263873D01*
X66325203Y-83291010D01*
X65460210Y-84156003D01*
X65433074Y-84178273D01*
X65344199Y-84286567D01*
X65278159Y-84410119D01*
X65237790Y-84543200D01*
X65237492Y-84544181D01*
X65223760Y-84683600D01*
X65227201Y-84718535D01*
X65227201Y-84846355D01*
X65072725Y-84949572D01*
X64883572Y-85138725D01*
X64734956Y-85361146D01*
X64632587Y-85608286D01*
X64580400Y-85870649D01*
X64580400Y-86138151D01*
X64632587Y-86400514D01*
X64734956Y-86647654D01*
X64883572Y-86870075D01*
X65072725Y-87059228D01*
X65295146Y-87207844D01*
X65542286Y-87310213D01*
X65804649Y-87362400D01*
X66072151Y-87362400D01*
X66334514Y-87310213D01*
X66581654Y-87207844D01*
X66804075Y-87059228D01*
X66993228Y-86870075D01*
X67117943Y-86683425D01*
X67117943Y-86854400D01*
X67127751Y-86953985D01*
X67156799Y-87049743D01*
X67203971Y-87137995D01*
X67267452Y-87215348D01*
X67344805Y-87278829D01*
X67433057Y-87326001D01*
X67462400Y-87334902D01*
X67462401Y-89255600D01*
X60282587Y-89255600D01*
X60293201Y-89235743D01*
X60322249Y-89139985D01*
X60332057Y-89040400D01*
X60332057Y-87540400D01*
X60322249Y-87440815D01*
X60293201Y-87345057D01*
X60246029Y-87256805D01*
X60182548Y-87179452D01*
X60105195Y-87115971D01*
X60016943Y-87068799D01*
X59921185Y-87039751D01*
X59821600Y-87029943D01*
X57221600Y-87029943D01*
X57122015Y-87039751D01*
X57026257Y-87068799D01*
X56938005Y-87115971D01*
X56860652Y-87179452D01*
X56797171Y-87256805D01*
X56749999Y-87345057D01*
X56720951Y-87440815D01*
X56711143Y-87540400D01*
X56711143Y-87563200D01*
X55369456Y-87563200D01*
X55336697Y-87501912D01*
X55242125Y-87386675D01*
X55126888Y-87292103D01*
X55093768Y-87274400D01*
X55126888Y-87256697D01*
X55242125Y-87162125D01*
X55336697Y-87046888D01*
X55406971Y-86915415D01*
X55450245Y-86772759D01*
X55464857Y-86624401D01*
X55464857Y-85924399D01*
X55450245Y-85776041D01*
X55406971Y-85633385D01*
X55336697Y-85501912D01*
X55242125Y-85386675D01*
X55126888Y-85292103D01*
X54995415Y-85221829D01*
X54852759Y-85178555D01*
X54704401Y-85163943D01*
X53804399Y-85163943D01*
X53656041Y-85178555D01*
X53513385Y-85221829D01*
X53381912Y-85292103D01*
X53266675Y-85386675D01*
X53172103Y-85501912D01*
X53139344Y-85563200D01*
X53003325Y-85563200D01*
X52968399Y-85559760D01*
X52933473Y-85563200D01*
X52933464Y-85563200D01*
X52828980Y-85573491D01*
X52694919Y-85614158D01*
X52571367Y-85680198D01*
X52463073Y-85769073D01*
X52440802Y-85796210D01*
X51947410Y-86289603D01*
X51920273Y-86311874D01*
X51831398Y-86420168D01*
X51765358Y-86543720D01*
X51724691Y-86677781D01*
X51714400Y-86782265D01*
X51714400Y-86782274D01*
X51710960Y-86817200D01*
X51714400Y-86852126D01*
X51714401Y-89255600D01*
X51506907Y-89255600D01*
X51533849Y-89166785D01*
X51543657Y-89067200D01*
X51543657Y-87567200D01*
X51533849Y-87467615D01*
X51504801Y-87371857D01*
X51457629Y-87283605D01*
X51394148Y-87206252D01*
X51316795Y-87142771D01*
X51228543Y-87095599D01*
X51132785Y-87066551D01*
X51033200Y-87056743D01*
X48433200Y-87056743D01*
X48333615Y-87066551D01*
X48237857Y-87095599D01*
X48149605Y-87142771D01*
X48072252Y-87206252D01*
X48008771Y-87283605D01*
X47961599Y-87371857D01*
X47932551Y-87467615D01*
X47922743Y-87567200D01*
X47922743Y-87579200D01*
X46428656Y-87579200D01*
X46395897Y-87517912D01*
X46301325Y-87402675D01*
X46186088Y-87308103D01*
X46152968Y-87290400D01*
X46186088Y-87272697D01*
X46301325Y-87178125D01*
X46395897Y-87062888D01*
X46466171Y-86931415D01*
X46509445Y-86788759D01*
X46524057Y-86640401D01*
X46524057Y-85940399D01*
X46509445Y-85792041D01*
X46466171Y-85649385D01*
X46395897Y-85517912D01*
X46301325Y-85402675D01*
X46186088Y-85308103D01*
X46054615Y-85237829D01*
X45911959Y-85194555D01*
X45763601Y-85179943D01*
X44863599Y-85179943D01*
X44715241Y-85194555D01*
X44572585Y-85237829D01*
X44441112Y-85308103D01*
X44325875Y-85402675D01*
X44231303Y-85517912D01*
X44198544Y-85579200D01*
X44046528Y-85579200D01*
X44011600Y-85575760D01*
X43976671Y-85579200D01*
X43976664Y-85579200D01*
X43872180Y-85589491D01*
X43738118Y-85630158D01*
X43614567Y-85696198D01*
X43533409Y-85762802D01*
X43533404Y-85762807D01*
X43506273Y-85785073D01*
X43484007Y-85812205D01*
X43006610Y-86289603D01*
X42979473Y-86311874D01*
X42890598Y-86420168D01*
X42824558Y-86543720D01*
X42783891Y-86677781D01*
X42773600Y-86782265D01*
X42773600Y-86782274D01*
X42770160Y-86817200D01*
X42773600Y-86852126D01*
X42773601Y-89255600D01*
X42554884Y-89255600D01*
X42564001Y-89238543D01*
X42593049Y-89142785D01*
X42602857Y-89043200D01*
X42602857Y-87543200D01*
X42593049Y-87443615D01*
X42564001Y-87347857D01*
X42516829Y-87259605D01*
X42453348Y-87182252D01*
X42375995Y-87118771D01*
X42287743Y-87071599D01*
X42191985Y-87042551D01*
X42092400Y-87032743D01*
X39492400Y-87032743D01*
X39420800Y-87039795D01*
X39420800Y-86546605D01*
X39492400Y-86553657D01*
X42092400Y-86553657D01*
X42191985Y-86543849D01*
X42287743Y-86514801D01*
X42375995Y-86467629D01*
X42453348Y-86404148D01*
X42516829Y-86326795D01*
X42564001Y-86238543D01*
X42593049Y-86142785D01*
X42602857Y-86043200D01*
X42602857Y-84793330D01*
X56326989Y-71069200D01*
X56597130Y-71069200D01*
X56593873Y-71071873D01*
X56571607Y-71099004D01*
X50982210Y-76688403D01*
X50955074Y-76710673D01*
X50932804Y-76737809D01*
X50932803Y-76737810D01*
X50866198Y-76818968D01*
X50829572Y-76887491D01*
X50800159Y-76942519D01*
X50759492Y-77076580D01*
X50752902Y-77143491D01*
X50745760Y-77216000D01*
X50749201Y-77250936D01*
X50749200Y-81950611D01*
X50501881Y-82197930D01*
X50573649Y-82024668D01*
X50631600Y-81733325D01*
X50631600Y-81436275D01*
X50573649Y-81144932D01*
X50459973Y-80870494D01*
X50294940Y-80623506D01*
X50084894Y-80413460D01*
X49837906Y-80248427D01*
X49563468Y-80134751D01*
X49272125Y-80076800D01*
X48975075Y-80076800D01*
X48683732Y-80134751D01*
X48409294Y-80248427D01*
X48162306Y-80413460D01*
X47952260Y-80623506D01*
X47787227Y-80870494D01*
X47673551Y-81144932D01*
X47615600Y-81436275D01*
X47615600Y-81733325D01*
X47673551Y-82024668D01*
X47787227Y-82299106D01*
X47952260Y-82546094D01*
X48162306Y-82756140D01*
X48409294Y-82921173D01*
X48683732Y-83034849D01*
X48975075Y-83092800D01*
X49272125Y-83092800D01*
X49563468Y-83034849D01*
X49736732Y-82963081D01*
X49255010Y-83444803D01*
X49227874Y-83467073D01*
X49205604Y-83494209D01*
X49205603Y-83494210D01*
X49138998Y-83575368D01*
X49089784Y-83667441D01*
X49072959Y-83698919D01*
X49043935Y-83794600D01*
X49032292Y-83832981D01*
X49018560Y-83972400D01*
X49022001Y-84007335D01*
X49022001Y-84056743D01*
X48433200Y-84056743D01*
X48333615Y-84066551D01*
X48237857Y-84095599D01*
X48149605Y-84142771D01*
X48072252Y-84206252D01*
X48008771Y-84283605D01*
X47961599Y-84371857D01*
X47932551Y-84467615D01*
X47922743Y-84567200D01*
X47922743Y-86067200D01*
X47932551Y-86166785D01*
X47961599Y-86262543D01*
X48008771Y-86350795D01*
X48072252Y-86428148D01*
X48149605Y-86491629D01*
X48237857Y-86538801D01*
X48333615Y-86567849D01*
X48433200Y-86577657D01*
X51033200Y-86577657D01*
X51132785Y-86567849D01*
X51228543Y-86538801D01*
X51316795Y-86491629D01*
X51394148Y-86428148D01*
X51457629Y-86350795D01*
X51504801Y-86262543D01*
X51533849Y-86166785D01*
X51543657Y-86067200D01*
X51543657Y-84567200D01*
X51533849Y-84467615D01*
X51504801Y-84371857D01*
X51457629Y-84283605D01*
X51394148Y-84206252D01*
X51316795Y-84142771D01*
X51228543Y-84095599D01*
X51132785Y-84066551D01*
X51033200Y-84056743D01*
X50654644Y-84056743D01*
X51938601Y-82772788D01*
X51965726Y-82750527D01*
X51987988Y-82723401D01*
X51987998Y-82723391D01*
X52054602Y-82642233D01*
X52120642Y-82518682D01*
X52161309Y-82384620D01*
X52164042Y-82356873D01*
X52171600Y-82280136D01*
X52171600Y-82280129D01*
X52175040Y-82245200D01*
X52171600Y-82210272D01*
X52171600Y-77510587D01*
X57393789Y-72288400D01*
X61099775Y-72288400D01*
X61070967Y-72303798D01*
X60962673Y-72392673D01*
X60940403Y-72419809D01*
X58043411Y-75316802D01*
X58016273Y-75339074D01*
X57927398Y-75447368D01*
X57861358Y-75570920D01*
X57820691Y-75704981D01*
X57810400Y-75809465D01*
X57810400Y-75809474D01*
X57806960Y-75844400D01*
X57810400Y-75879326D01*
X57810401Y-80432255D01*
X57810400Y-80432265D01*
X57810401Y-84029943D01*
X57221600Y-84029943D01*
X57122015Y-84039751D01*
X57026257Y-84068799D01*
X56938005Y-84115971D01*
X56860652Y-84179452D01*
X56797171Y-84256805D01*
X56749999Y-84345057D01*
X56720951Y-84440815D01*
X56711143Y-84540400D01*
X56711143Y-86040400D01*
X56720951Y-86139985D01*
X56749999Y-86235743D01*
X56797171Y-86323995D01*
X56860652Y-86401348D01*
X56938005Y-86464829D01*
X57026257Y-86512001D01*
X57122015Y-86541049D01*
X57221600Y-86550857D01*
X59821600Y-86550857D01*
X59921185Y-86541049D01*
X60016943Y-86512001D01*
X60105195Y-86464829D01*
X60182548Y-86401348D01*
X60246029Y-86323995D01*
X60293201Y-86235743D01*
X60322249Y-86139985D01*
X60332057Y-86040400D01*
X60332057Y-84540400D01*
X60322249Y-84440815D01*
X60293201Y-84345057D01*
X60246029Y-84256805D01*
X60182548Y-84179452D01*
X60105195Y-84115971D01*
X60016943Y-84068799D01*
X59921185Y-84039751D01*
X59821600Y-84029943D01*
X59232800Y-84029943D01*
X59232800Y-76138987D01*
X61762588Y-73609200D01*
X70272274Y-73609200D01*
X70307200Y-73612640D01*
X70342126Y-73609200D01*
X70342136Y-73609200D01*
X70446620Y-73598909D01*
X70580681Y-73558242D01*
X70704233Y-73492202D01*
X70812527Y-73403327D01*
X70834801Y-73376186D01*
X70965863Y-73245125D01*
X71130854Y-73212306D01*
X71296099Y-73143859D01*
X71444816Y-73044489D01*
X71571289Y-72918016D01*
X71670659Y-72769299D01*
X71739106Y-72604054D01*
X71774000Y-72428630D01*
X71774000Y-72249770D01*
X71739106Y-72074346D01*
X71670659Y-71909101D01*
X71571289Y-71760384D01*
X71444816Y-71633911D01*
X71296099Y-71534541D01*
X71130854Y-71466094D01*
X70955430Y-71431200D01*
X70899148Y-71431200D01*
X70875506Y-71312346D01*
X70807059Y-71147101D01*
X70707689Y-70998384D01*
X70676905Y-70967600D01*
X70707689Y-70936816D01*
X70807059Y-70788099D01*
X70875506Y-70622854D01*
X70910400Y-70447430D01*
X70910400Y-70268570D01*
X70875506Y-70093146D01*
X70807059Y-69927901D01*
X70707689Y-69779184D01*
X70581216Y-69652711D01*
X70544319Y-69628057D01*
X70840400Y-69628057D01*
X70939985Y-69618249D01*
X71035743Y-69589201D01*
X71123995Y-69542029D01*
X71201348Y-69478548D01*
X71264829Y-69401195D01*
X71303525Y-69328800D01*
X72902040Y-69328800D01*
X72933303Y-69387288D01*
X73027875Y-69502525D01*
X73143112Y-69597097D01*
X73274585Y-69667371D01*
X73417241Y-69710645D01*
X73565599Y-69725257D01*
X74465601Y-69725257D01*
X74613959Y-69710645D01*
X74756615Y-69667371D01*
X74760374Y-69665362D01*
X76149200Y-71054189D01*
X76149201Y-71745455D01*
X76149200Y-71745465D01*
X76149200Y-72110674D01*
X76145760Y-72145600D01*
X76149200Y-72180526D01*
X76149200Y-72180536D01*
X76159491Y-72285020D01*
X76200158Y-72419081D01*
X76266198Y-72542633D01*
X76355074Y-72650927D01*
X76382209Y-72673197D01*
X76564075Y-72855063D01*
X76596894Y-73020054D01*
X76665341Y-73185299D01*
X76764711Y-73334016D01*
X76891184Y-73460489D01*
X77039901Y-73559859D01*
X77205146Y-73628306D01*
X77380570Y-73663200D01*
X77559430Y-73663200D01*
X77734854Y-73628306D01*
X77900099Y-73559859D01*
X78048816Y-73460489D01*
X78175289Y-73334016D01*
X78274659Y-73185299D01*
X78343106Y-73020054D01*
X78378000Y-72844630D01*
X78378000Y-72665770D01*
X78343106Y-72490346D01*
X78274659Y-72325101D01*
X78175289Y-72176384D01*
X78048816Y-72049911D01*
X77900099Y-71950541D01*
X77734854Y-71882094D01*
X77571600Y-71849621D01*
X77571600Y-70794525D01*
X77575040Y-70759599D01*
X77571600Y-70724673D01*
X77571600Y-70724664D01*
X77561309Y-70620180D01*
X77520642Y-70486119D01*
X77454602Y-70362567D01*
X77425151Y-70326681D01*
X77387997Y-70281408D01*
X77387988Y-70281399D01*
X77365726Y-70254273D01*
X77338601Y-70232012D01*
X75243202Y-68136615D01*
X75220927Y-68109473D01*
X75205488Y-68096802D01*
X75168171Y-67973785D01*
X75097897Y-67842312D01*
X75003325Y-67727075D01*
X74888088Y-67632503D01*
X74854968Y-67614800D01*
X74888088Y-67597097D01*
X75003325Y-67502525D01*
X75097897Y-67387288D01*
X75168171Y-67255815D01*
X75211445Y-67113159D01*
X75226057Y-66964801D01*
X75226057Y-66264799D01*
X75211445Y-66116441D01*
X75168171Y-65973785D01*
X75097897Y-65842312D01*
X75003325Y-65727075D01*
X74888088Y-65632503D01*
X74756615Y-65562229D01*
X74726800Y-65553185D01*
X74726800Y-65521787D01*
X76291388Y-63957200D01*
X80481258Y-63957200D01*
X80409338Y-64005255D01*
G37*
X80409338Y-64005255D02*
X80381473Y-64008000D01*
X80381464Y-64008000D01*
X80276980Y-64018291D01*
X80142919Y-64058958D01*
X80019367Y-64124998D01*
X79911073Y-64213873D01*
X79888798Y-64241015D01*
X79760415Y-64369398D01*
X79760409Y-64369403D01*
X78820610Y-65309203D01*
X78793474Y-65331473D01*
X78771204Y-65358609D01*
X78771203Y-65358610D01*
X78704598Y-65439768D01*
X78638559Y-65563319D01*
X78597892Y-65697381D01*
X78584160Y-65836800D01*
X78587601Y-65871736D01*
X78587600Y-74044630D01*
X78473830Y-74022000D01*
X78294970Y-74022000D01*
X78119546Y-74056894D01*
X77954301Y-74125341D01*
X77805584Y-74224711D01*
X77679111Y-74351184D01*
X77579741Y-74499901D01*
X77511294Y-74665146D01*
X77495400Y-74745051D01*
X77479506Y-74665146D01*
X77411059Y-74499901D01*
X77311689Y-74351184D01*
X77185216Y-74224711D01*
X77036499Y-74125341D01*
X76871254Y-74056894D01*
X76695830Y-74022000D01*
X76516970Y-74022000D01*
X76341546Y-74056894D01*
X76176301Y-74125341D01*
X76027584Y-74224711D01*
X75901111Y-74351184D01*
X75801741Y-74499901D01*
X75733294Y-74665146D01*
X75700475Y-74830137D01*
X72977813Y-77552800D01*
X71807925Y-77552800D01*
X71769229Y-77480405D01*
X71705748Y-77403052D01*
X71628395Y-77339571D01*
X71540143Y-77292399D01*
X71444385Y-77263351D01*
X71344800Y-77253543D01*
X68144800Y-77253543D01*
X68045215Y-77263351D01*
X67949457Y-77292399D01*
X67861205Y-77339571D01*
X67783852Y-77403052D01*
X67720371Y-77480405D01*
X67681675Y-77552800D01*
X65007925Y-77552800D01*
X64969229Y-77480405D01*
X64905748Y-77403052D01*
X64828395Y-77339571D01*
X64740143Y-77292399D01*
X64644385Y-77263351D01*
X64544800Y-77253543D01*
X63630900Y-77253543D01*
X63630900Y-76114174D01*
X63679687Y-76088097D01*
X63794924Y-75993524D01*
X63889497Y-75878287D01*
X63959771Y-75746814D01*
X64003045Y-75604158D01*
X64017657Y-75455800D01*
X64017657Y-74505800D01*
X64003045Y-74357442D01*
X63959771Y-74214786D01*
X63889497Y-74083313D01*
X63794924Y-73968076D01*
X63679687Y-73873503D01*
X63548214Y-73803229D01*
X63405558Y-73759955D01*
X63257200Y-73745343D01*
X62582200Y-73745343D01*
X62433842Y-73759955D01*
X62291186Y-73803229D01*
X62159713Y-73873503D01*
X62044476Y-73968076D01*
X61949903Y-74083313D01*
X61879629Y-74214786D01*
X61836355Y-74357442D01*
X61821743Y-74505800D01*
X61821743Y-75455800D01*
X61836355Y-75604158D01*
X61879629Y-75746814D01*
X61949903Y-75878287D01*
X62044476Y-75993524D01*
X62159713Y-76088097D01*
X62208500Y-76114174D01*
X62208501Y-77253543D01*
X61344800Y-77253543D01*
X61245215Y-77263351D01*
X61149457Y-77292399D01*
X61061205Y-77339571D01*
X60983852Y-77403052D01*
X60920371Y-77480405D01*
X60873199Y-77568657D01*
X60844151Y-77664415D01*
X60834343Y-77764000D01*
X60834343Y-78764000D01*
X60844151Y-78863585D01*
X60873199Y-78959343D01*
X60920371Y-79047595D01*
X60983852Y-79124948D01*
X61061205Y-79188429D01*
X61149457Y-79235601D01*
X61245215Y-79264649D01*
X61344800Y-79274457D01*
X64544800Y-79274457D01*
X64644385Y-79264649D01*
X64740143Y-79235601D01*
X64828395Y-79188429D01*
X64905748Y-79124948D01*
X64969229Y-79047595D01*
X65007925Y-78975200D01*
X67681675Y-78975200D01*
X67720371Y-79047595D01*
X67783852Y-79124948D01*
X67861205Y-79188429D01*
X67949457Y-79235601D01*
X68045215Y-79264649D01*
X68144800Y-79274457D01*
X71344800Y-79274457D01*
X71444385Y-79264649D01*
X71540143Y-79235601D01*
X71628395Y-79188429D01*
X71705748Y-79124948D01*
X71769229Y-79047595D01*
X71807925Y-78975200D01*
X73237474Y-78975200D01*
X73272400Y-78978640D01*
X73285100Y-78977389D01*
X73297800Y-78978640D01*
X73332726Y-78975200D01*
X73332736Y-78975200D01*
X73437220Y-78964909D01*
X73571281Y-78924242D01*
X73694833Y-78858202D01*
X73803127Y-78769327D01*
X73825402Y-78742186D01*
X74530497Y-78037091D01*
X74530501Y-78037086D01*
X75120500Y-77447088D01*
X75133201Y-77459789D01*
X75133200Y-80756135D01*
X75133201Y-80756145D01*
X75133201Y-81802059D01*
X75076489Y-81717184D01*
X74950016Y-81590711D01*
X74801299Y-81491341D01*
X74636054Y-81422894D01*
X74460630Y-81388000D01*
X74281770Y-81388000D01*
X74106346Y-81422894D01*
X73941101Y-81491341D01*
X73792384Y-81590711D01*
X73665911Y-81717184D01*
X73566541Y-81865901D01*
X73498094Y-82031146D01*
X73463200Y-82206570D01*
X73463200Y-82224150D01*
X72629351Y-83058000D01*
X66887728Y-83058000D01*
X66852800Y-83054560D01*
X66817871Y-83058000D01*
X66817864Y-83058000D01*
X66713380Y-83068291D01*
X66579319Y-83108958D01*
X66455767Y-83174998D01*
X66347473Y-83263873D01*
X66325203Y-83291010D01*
X65460210Y-84156003D01*
X65433074Y-84178273D01*
X65344199Y-84286567D01*
X65278159Y-84410119D01*
X65237790Y-84543200D01*
X65237492Y-84544181D01*
X65223760Y-84683600D01*
X65227201Y-84718535D01*
X65227201Y-84846355D01*
X65072725Y-84949572D01*
X64883572Y-85138725D01*
X64734956Y-85361146D01*
X64632587Y-85608286D01*
X64580400Y-85870649D01*
X64580400Y-86138151D01*
X64632587Y-86400514D01*
X64734956Y-86647654D01*
X64883572Y-86870075D01*
X65072725Y-87059228D01*
X65295146Y-87207844D01*
X65542286Y-87310213D01*
X65804649Y-87362400D01*
X66072151Y-87362400D01*
X66334514Y-87310213D01*
X66581654Y-87207844D01*
X66804075Y-87059228D01*
X66993228Y-86870075D01*
X67117943Y-86683425D01*
X67117943Y-86854400D01*
X67127751Y-86953985D01*
X67156799Y-87049743D01*
X67203971Y-87137995D01*
X67267452Y-87215348D01*
X67344805Y-87278829D01*
X67433057Y-87326001D01*
X67462400Y-87334902D01*
X67462401Y-89255600D01*
X60282587Y-89255600D01*
X60293201Y-89235743D01*
X60322249Y-89139985D01*
X60332057Y-89040400D01*
X60332057Y-87540400D01*
X60322249Y-87440815D01*
X60293201Y-87345057D01*
X60246029Y-87256805D01*
X60182548Y-87179452D01*
X60105195Y-87115971D01*
X60016943Y-87068799D01*
X59921185Y-87039751D01*
X59821600Y-87029943D01*
X57221600Y-87029943D01*
X57122015Y-87039751D01*
X57026257Y-87068799D01*
X56938005Y-87115971D01*
X56860652Y-87179452D01*
X56797171Y-87256805D01*
X56749999Y-87345057D01*
X56720951Y-87440815D01*
X56711143Y-87540400D01*
X56711143Y-87563200D01*
X55369456Y-87563200D01*
X55336697Y-87501912D01*
X55242125Y-87386675D01*
X55126888Y-87292103D01*
X55093768Y-87274400D01*
X55126888Y-87256697D01*
X55242125Y-87162125D01*
X55336697Y-87046888D01*
X55406971Y-86915415D01*
X55450245Y-86772759D01*
X55464857Y-86624401D01*
X55464857Y-85924399D01*
X55450245Y-85776041D01*
X55406971Y-85633385D01*
X55336697Y-85501912D01*
X55242125Y-85386675D01*
X55126888Y-85292103D01*
X54995415Y-85221829D01*
X54852759Y-85178555D01*
X54704401Y-85163943D01*
X53804399Y-85163943D01*
X53656041Y-85178555D01*
X53513385Y-85221829D01*
X53381912Y-85292103D01*
X53266675Y-85386675D01*
X53172103Y-85501912D01*
X53139344Y-85563200D01*
X53003325Y-85563200D01*
X52968399Y-85559760D01*
X52933473Y-85563200D01*
X52933464Y-85563200D01*
X52828980Y-85573491D01*
X52694919Y-85614158D01*
X52571367Y-85680198D01*
X52463073Y-85769073D01*
X52440802Y-85796210D01*
X51947410Y-86289603D01*
X51920273Y-86311874D01*
X51831398Y-86420168D01*
X51765358Y-86543720D01*
X51724691Y-86677781D01*
X51714400Y-86782265D01*
X51714400Y-86782274D01*
X51710960Y-86817200D01*
X51714400Y-86852126D01*
X51714401Y-89255600D01*
X51506907Y-89255600D01*
X51533849Y-89166785D01*
X51543657Y-89067200D01*
X51543657Y-87567200D01*
X51533849Y-87467615D01*
X51504801Y-87371857D01*
X51457629Y-87283605D01*
X51394148Y-87206252D01*
X51316795Y-87142771D01*
X51228543Y-87095599D01*
X51132785Y-87066551D01*
X51033200Y-87056743D01*
X48433200Y-87056743D01*
X48333615Y-87066551D01*
X48237857Y-87095599D01*
X48149605Y-87142771D01*
X48072252Y-87206252D01*
X48008771Y-87283605D01*
X47961599Y-87371857D01*
X47932551Y-87467615D01*
X47922743Y-87567200D01*
X47922743Y-87579200D01*
X46428656Y-87579200D01*
X46395897Y-87517912D01*
X46301325Y-87402675D01*
X46186088Y-87308103D01*
X46152968Y-87290400D01*
X46186088Y-87272697D01*
X46301325Y-87178125D01*
X46395897Y-87062888D01*
X46466171Y-86931415D01*
X46509445Y-86788759D01*
X46524057Y-86640401D01*
X46524057Y-85940399D01*
X46509445Y-85792041D01*
X46466171Y-85649385D01*
X46395897Y-85517912D01*
X46301325Y-85402675D01*
X46186088Y-85308103D01*
X46054615Y-85237829D01*
X45911959Y-85194555D01*
X45763601Y-85179943D01*
X44863599Y-85179943D01*
X44715241Y-85194555D01*
X44572585Y-85237829D01*
X44441112Y-85308103D01*
X44325875Y-85402675D01*
X44231303Y-85517912D01*
X44198544Y-85579200D01*
X44046528Y-85579200D01*
X44011600Y-85575760D01*
X43976671Y-85579200D01*
X43976664Y-85579200D01*
X43872180Y-85589491D01*
X43738118Y-85630158D01*
X43614567Y-85696198D01*
X43533409Y-85762802D01*
X43533404Y-85762807D01*
X43506273Y-85785073D01*
X43484007Y-85812205D01*
X43006610Y-86289603D01*
X42979473Y-86311874D01*
X42890598Y-86420168D01*
X42824558Y-86543720D01*
X42783891Y-86677781D01*
X42773600Y-86782265D01*
X42773600Y-86782274D01*
X42770160Y-86817200D01*
X42773600Y-86852126D01*
X42773601Y-89255600D01*
X42554884Y-89255600D01*
X42564001Y-89238543D01*
X42593049Y-89142785D01*
X42602857Y-89043200D01*
X42602857Y-87543200D01*
X42593049Y-87443615D01*
X42564001Y-87347857D01*
X42516829Y-87259605D01*
X42453348Y-87182252D01*
X42375995Y-87118771D01*
X42287743Y-87071599D01*
X42191985Y-87042551D01*
X42092400Y-87032743D01*
X39492400Y-87032743D01*
X39420800Y-87039795D01*
X39420800Y-86546605D01*
X39492400Y-86553657D01*
X42092400Y-86553657D01*
X42191985Y-86543849D01*
X42287743Y-86514801D01*
X42375995Y-86467629D01*
X42453348Y-86404148D01*
X42516829Y-86326795D01*
X42564001Y-86238543D01*
X42593049Y-86142785D01*
X42602857Y-86043200D01*
X42602857Y-84793330D01*
X56326989Y-71069200D01*
X56597130Y-71069200D01*
X56593873Y-71071873D01*
X56571607Y-71099004D01*
X50982210Y-76688403D01*
X50955074Y-76710673D01*
X50932804Y-76737809D01*
X50932803Y-76737810D01*
X50866198Y-76818968D01*
X50829572Y-76887491D01*
X50800159Y-76942519D01*
X50759492Y-77076580D01*
X50752902Y-77143491D01*
X50745760Y-77216000D01*
X50749201Y-77250936D01*
X50749200Y-81950611D01*
X50501881Y-82197930D01*
X50573649Y-82024668D01*
X50631600Y-81733325D01*
X50631600Y-81436275D01*
X50573649Y-81144932D01*
X50459973Y-80870494D01*
X50294940Y-80623506D01*
X50084894Y-80413460D01*
X49837906Y-80248427D01*
X49563468Y-80134751D01*
X49272125Y-80076800D01*
X48975075Y-80076800D01*
X48683732Y-80134751D01*
X48409294Y-80248427D01*
X48162306Y-80413460D01*
X47952260Y-80623506D01*
X47787227Y-80870494D01*
X47673551Y-81144932D01*
X47615600Y-81436275D01*
X47615600Y-81733325D01*
X47673551Y-82024668D01*
X47787227Y-82299106D01*
X47952260Y-82546094D01*
X48162306Y-82756140D01*
X48409294Y-82921173D01*
X48683732Y-83034849D01*
X48975075Y-83092800D01*
X49272125Y-83092800D01*
X49563468Y-83034849D01*
X49736732Y-82963081D01*
X49255010Y-83444803D01*
X49227874Y-83467073D01*
X49205604Y-83494209D01*
X49205603Y-83494210D01*
X49138998Y-83575368D01*
X49089784Y-83667441D01*
X49072959Y-83698919D01*
X49043935Y-83794600D01*
X49032292Y-83832981D01*
X49018560Y-83972400D01*
X49022001Y-84007335D01*
X49022001Y-84056743D01*
X48433200Y-84056743D01*
X48333615Y-84066551D01*
X48237857Y-84095599D01*
X48149605Y-84142771D01*
X48072252Y-84206252D01*
X48008771Y-84283605D01*
X47961599Y-84371857D01*
X47932551Y-84467615D01*
X47922743Y-84567200D01*
X47922743Y-86067200D01*
X47932551Y-86166785D01*
X47961599Y-86262543D01*
X48008771Y-86350795D01*
X48072252Y-86428148D01*
X48149605Y-86491629D01*
X48237857Y-86538801D01*
X48333615Y-86567849D01*
X48433200Y-86577657D01*
X51033200Y-86577657D01*
X51132785Y-86567849D01*
X51228543Y-86538801D01*
X51316795Y-86491629D01*
X51394148Y-86428148D01*
X51457629Y-86350795D01*
X51504801Y-86262543D01*
X51533849Y-86166785D01*
X51543657Y-86067200D01*
X51543657Y-84567200D01*
X51533849Y-84467615D01*
X51504801Y-84371857D01*
X51457629Y-84283605D01*
X51394148Y-84206252D01*
X51316795Y-84142771D01*
X51228543Y-84095599D01*
X51132785Y-84066551D01*
X51033200Y-84056743D01*
X50654644Y-84056743D01*
X51938601Y-82772788D01*
X51965726Y-82750527D01*
X51987988Y-82723401D01*
X51987998Y-82723391D01*
X52054602Y-82642233D01*
X52120642Y-82518682D01*
X52161309Y-82384620D01*
X52164042Y-82356873D01*
X52171600Y-82280136D01*
X52171600Y-82280129D01*
X52175040Y-82245200D01*
X52171600Y-82210272D01*
X52171600Y-77510587D01*
X57393789Y-72288400D01*
X61099775Y-72288400D01*
X61070967Y-72303798D01*
X60962673Y-72392673D01*
X60940403Y-72419809D01*
X58043411Y-75316802D01*
X58016273Y-75339074D01*
X57927398Y-75447368D01*
X57861358Y-75570920D01*
X57820691Y-75704981D01*
X57810400Y-75809465D01*
X57810400Y-75809474D01*
X57806960Y-75844400D01*
X57810400Y-75879326D01*
X57810401Y-80432255D01*
X57810400Y-80432265D01*
X57810401Y-84029943D01*
X57221600Y-84029943D01*
X57122015Y-84039751D01*
X57026257Y-84068799D01*
X56938005Y-84115971D01*
X56860652Y-84179452D01*
X56797171Y-84256805D01*
X56749999Y-84345057D01*
X56720951Y-84440815D01*
X56711143Y-84540400D01*
X56711143Y-86040400D01*
X56720951Y-86139985D01*
X56749999Y-86235743D01*
X56797171Y-86323995D01*
X56860652Y-86401348D01*
X56938005Y-86464829D01*
X57026257Y-86512001D01*
X57122015Y-86541049D01*
X57221600Y-86550857D01*
X59821600Y-86550857D01*
X59921185Y-86541049D01*
X60016943Y-86512001D01*
X60105195Y-86464829D01*
X60182548Y-86401348D01*
X60246029Y-86323995D01*
X60293201Y-86235743D01*
X60322249Y-86139985D01*
X60332057Y-86040400D01*
X60332057Y-84540400D01*
X60322249Y-84440815D01*
X60293201Y-84345057D01*
X60246029Y-84256805D01*
X60182548Y-84179452D01*
X60105195Y-84115971D01*
X60016943Y-84068799D01*
X59921185Y-84039751D01*
X59821600Y-84029943D01*
X59232800Y-84029943D01*
X59232800Y-76138987D01*
X61762588Y-73609200D01*
X70272274Y-73609200D01*
X70307200Y-73612640D01*
X70342126Y-73609200D01*
X70342136Y-73609200D01*
X70446620Y-73598909D01*
X70580681Y-73558242D01*
X70704233Y-73492202D01*
X70812527Y-73403327D01*
X70834801Y-73376186D01*
X70965863Y-73245125D01*
X71130854Y-73212306D01*
X71296099Y-73143859D01*
X71444816Y-73044489D01*
X71571289Y-72918016D01*
X71670659Y-72769299D01*
X71739106Y-72604054D01*
X71774000Y-72428630D01*
X71774000Y-72249770D01*
X71739106Y-72074346D01*
X71670659Y-71909101D01*
X71571289Y-71760384D01*
X71444816Y-71633911D01*
X71296099Y-71534541D01*
X71130854Y-71466094D01*
X70955430Y-71431200D01*
X70899148Y-71431200D01*
X70875506Y-71312346D01*
X70807059Y-71147101D01*
X70707689Y-70998384D01*
X70676905Y-70967600D01*
X70707689Y-70936816D01*
X70807059Y-70788099D01*
X70875506Y-70622854D01*
X70910400Y-70447430D01*
X70910400Y-70268570D01*
X70875506Y-70093146D01*
X70807059Y-69927901D01*
X70707689Y-69779184D01*
X70581216Y-69652711D01*
X70544319Y-69628057D01*
X70840400Y-69628057D01*
X70939985Y-69618249D01*
X71035743Y-69589201D01*
X71123995Y-69542029D01*
X71201348Y-69478548D01*
X71264829Y-69401195D01*
X71303525Y-69328800D01*
X72902040Y-69328800D01*
X72933303Y-69387288D01*
X73027875Y-69502525D01*
X73143112Y-69597097D01*
X73274585Y-69667371D01*
X73417241Y-69710645D01*
X73565599Y-69725257D01*
X74465601Y-69725257D01*
X74613959Y-69710645D01*
X74756615Y-69667371D01*
X74760374Y-69665362D01*
X76149200Y-71054189D01*
X76149201Y-71745455D01*
X76149200Y-71745465D01*
X76149200Y-72110674D01*
X76145760Y-72145600D01*
X76149200Y-72180526D01*
X76149200Y-72180536D01*
X76159491Y-72285020D01*
X76200158Y-72419081D01*
X76266198Y-72542633D01*
X76355074Y-72650927D01*
X76382209Y-72673197D01*
X76564075Y-72855063D01*
X76596894Y-73020054D01*
X76665341Y-73185299D01*
X76764711Y-73334016D01*
X76891184Y-73460489D01*
X77039901Y-73559859D01*
X77205146Y-73628306D01*
X77380570Y-73663200D01*
X77559430Y-73663200D01*
X77734854Y-73628306D01*
X77900099Y-73559859D01*
X78048816Y-73460489D01*
X78175289Y-73334016D01*
X78274659Y-73185299D01*
X78343106Y-73020054D01*
X78378000Y-72844630D01*
X78378000Y-72665770D01*
X78343106Y-72490346D01*
X78274659Y-72325101D01*
X78175289Y-72176384D01*
X78048816Y-72049911D01*
X77900099Y-71950541D01*
X77734854Y-71882094D01*
X77571600Y-71849621D01*
X77571600Y-70794525D01*
X77575040Y-70759599D01*
X77571600Y-70724673D01*
X77571600Y-70724664D01*
X77561309Y-70620180D01*
X77520642Y-70486119D01*
X77454602Y-70362567D01*
X77425151Y-70326681D01*
X77387997Y-70281408D01*
X77387988Y-70281399D01*
X77365726Y-70254273D01*
X77338601Y-70232012D01*
X75243202Y-68136615D01*
X75220927Y-68109473D01*
X75205488Y-68096802D01*
X75168171Y-67973785D01*
X75097897Y-67842312D01*
X75003325Y-67727075D01*
X74888088Y-67632503D01*
X74854968Y-67614800D01*
X74888088Y-67597097D01*
X75003325Y-67502525D01*
X75097897Y-67387288D01*
X75168171Y-67255815D01*
X75211445Y-67113159D01*
X75226057Y-66964801D01*
X75226057Y-66264799D01*
X75211445Y-66116441D01*
X75168171Y-65973785D01*
X75097897Y-65842312D01*
X75003325Y-65727075D01*
X74888088Y-65632503D01*
X74756615Y-65562229D01*
X74726800Y-65553185D01*
X74726800Y-65521787D01*
X76291388Y-63957200D01*
X80481258Y-63957200D01*
X80409338Y-64005255D01*
G36*
X86207600Y-77327811D02*
G01*
X82246938Y-81288475D01*
X82081946Y-81321294D01*
X81916701Y-81389741D01*
X81767984Y-81489111D01*
X81641511Y-81615584D01*
X81542141Y-81764301D01*
X81473694Y-81929546D01*
X81439948Y-82099200D01*
X81393770Y-82099200D01*
X81218346Y-82134094D01*
X81053101Y-82202541D01*
X80904384Y-82301911D01*
X80777911Y-82428384D01*
X80678541Y-82577101D01*
X80634435Y-82683581D01*
X80505830Y-82658000D01*
X80326970Y-82658000D01*
X80151546Y-82692894D01*
X79986301Y-82761341D01*
X79837584Y-82860711D01*
X79711111Y-82987184D01*
X79611741Y-83135901D01*
X79543294Y-83301146D01*
X79508400Y-83476570D01*
X79508400Y-83655430D01*
X79543294Y-83830854D01*
X79611741Y-83996099D01*
X79711111Y-84144816D01*
X79837584Y-84271289D01*
X79986301Y-84370659D01*
X80151546Y-84439106D01*
X80316536Y-84471925D01*
X80549207Y-84704596D01*
X80571473Y-84731727D01*
X80598604Y-84753993D01*
X80598609Y-84753998D01*
X80679767Y-84820602D01*
X80803318Y-84886642D01*
X80937377Y-84927308D01*
X80937380Y-84927309D01*
X81041864Y-84937600D01*
X81041871Y-84937600D01*
X81076800Y-84941040D01*
X81111728Y-84937600D01*
X82616642Y-84937600D01*
X82598725Y-84949572D01*
X82409572Y-85138725D01*
X82260956Y-85361146D01*
X82158587Y-85608286D01*
X82106400Y-85870649D01*
X82106400Y-86138151D01*
X82158587Y-86400514D01*
X82260956Y-86647654D01*
X82409572Y-86870075D01*
X82598725Y-87059228D01*
X82821146Y-87207844D01*
X83068286Y-87310213D01*
X83330649Y-87362400D01*
X83598151Y-87362400D01*
X83860514Y-87310213D01*
X84107654Y-87207844D01*
X84330075Y-87059228D01*
X84519228Y-86870075D01*
X84643943Y-86683425D01*
X84643943Y-86854400D01*
X84653751Y-86953985D01*
X84682799Y-87049743D01*
X84729971Y-87137995D01*
X84793452Y-87215348D01*
X84870805Y-87278829D01*
X84959057Y-87326001D01*
X84988401Y-87334902D01*
X84988400Y-88529959D01*
X84262760Y-89255600D01*
X69494400Y-89255600D01*
X69494400Y-87334902D01*
X69523743Y-87326001D01*
X69611995Y-87278829D01*
X69689348Y-87215348D01*
X69752829Y-87137995D01*
X69800001Y-87049743D01*
X69829049Y-86953985D01*
X69838857Y-86854400D01*
X69838857Y-85154400D01*
X69829049Y-85054815D01*
X69800001Y-84959057D01*
X69752829Y-84870805D01*
X69689348Y-84793452D01*
X69611995Y-84729971D01*
X69523743Y-84682799D01*
X69427985Y-84653751D01*
X69328400Y-84643943D01*
X67628400Y-84643943D01*
X67528815Y-84653751D01*
X67433057Y-84682799D01*
X67344805Y-84729971D01*
X67267452Y-84793452D01*
X67203971Y-84870805D01*
X67156799Y-84959057D01*
X67127751Y-85054815D01*
X67117943Y-85154400D01*
X67117943Y-85325375D01*
X66993228Y-85138725D01*
X66804075Y-84949572D01*
X66728627Y-84899160D01*
X67147388Y-84480400D01*
X72889012Y-84480400D01*
X72923938Y-84483840D01*
X72958864Y-84480400D01*
X72958874Y-84480400D01*
X73063358Y-84470109D01*
X73197419Y-84429442D01*
X73320971Y-84363402D01*
X73429265Y-84274527D01*
X73451540Y-84247386D01*
X74503442Y-83195484D01*
X74636054Y-83169106D01*
X74801299Y-83100659D01*
X74950016Y-83001289D01*
X75076489Y-82874816D01*
X75133201Y-82789941D01*
X75133200Y-84846356D01*
X74978725Y-84949572D01*
X74789572Y-85138725D01*
X74640956Y-85361146D01*
X74574400Y-85521826D01*
X74507844Y-85361146D01*
X74359228Y-85138725D01*
X74170075Y-84949572D01*
X73947654Y-84800956D01*
X73700514Y-84698587D01*
X73438151Y-84646400D01*
X73170649Y-84646400D01*
X72908286Y-84698587D01*
X72661146Y-84800956D01*
X72438725Y-84949572D01*
X72249572Y-85138725D01*
X72100956Y-85361146D01*
X71998587Y-85608286D01*
X71946400Y-85870649D01*
X71946400Y-86138151D01*
X71998587Y-86400514D01*
X72100956Y-86647654D01*
X72249572Y-86870075D01*
X72438725Y-87059228D01*
X72661146Y-87207844D01*
X72908286Y-87310213D01*
X73170649Y-87362400D01*
X73438151Y-87362400D01*
X73700514Y-87310213D01*
X73947654Y-87207844D01*
X74170075Y-87059228D01*
X74359228Y-86870075D01*
X74507844Y-86647654D01*
X74574400Y-86486974D01*
X74640956Y-86647654D01*
X74789572Y-86870075D01*
X74978725Y-87059228D01*
X75201146Y-87207844D01*
X75448286Y-87310213D01*
X75710649Y-87362400D01*
X75978151Y-87362400D01*
X76240514Y-87310213D01*
X76487654Y-87207844D01*
X76710075Y-87059228D01*
X76899228Y-86870075D01*
X77047844Y-86647654D01*
X77114400Y-86486974D01*
X77180956Y-86647654D01*
X77329572Y-86870075D01*
X77518725Y-87059228D01*
X77741146Y-87207844D01*
X77988286Y-87310213D01*
X78250649Y-87362400D01*
X78518151Y-87362400D01*
X78780514Y-87310213D01*
X79027654Y-87207844D01*
X79250075Y-87059228D01*
X79439228Y-86870075D01*
X79587844Y-86647654D01*
X79690213Y-86400514D01*
X79742400Y-86138151D01*
X79742400Y-85870649D01*
X79690213Y-85608286D01*
X79587844Y-85361146D01*
X79439228Y-85138725D01*
X79250075Y-84949572D01*
X79095600Y-84846356D01*
X79095600Y-76577370D01*
X79209370Y-76600000D01*
X79388230Y-76600000D01*
X79563654Y-76565106D01*
X79728899Y-76496659D01*
X79857600Y-76410663D01*
X79986301Y-76496659D01*
X80151546Y-76565106D01*
X80326970Y-76600000D01*
X80505830Y-76600000D01*
X80681254Y-76565106D01*
X80846499Y-76496659D01*
X80995216Y-76397289D01*
X81121689Y-76270816D01*
X81136028Y-76249356D01*
X81184311Y-76321616D01*
X81310784Y-76448089D01*
X81459501Y-76547459D01*
X81624746Y-76615906D01*
X81800170Y-76650800D01*
X81979030Y-76650800D01*
X82154454Y-76615906D01*
X82319699Y-76547459D01*
X82468416Y-76448089D01*
X82594889Y-76321616D01*
X82694259Y-76172899D01*
X82762706Y-76007654D01*
X82795525Y-75842662D01*
X86207600Y-72430588D01*
X86207600Y-77327811D01*
G37*
X86207600Y-77327811D02*
X82246938Y-81288475D01*
X82081946Y-81321294D01*
X81916701Y-81389741D01*
X81767984Y-81489111D01*
X81641511Y-81615584D01*
X81542141Y-81764301D01*
X81473694Y-81929546D01*
X81439948Y-82099200D01*
X81393770Y-82099200D01*
X81218346Y-82134094D01*
X81053101Y-82202541D01*
X80904384Y-82301911D01*
X80777911Y-82428384D01*
X80678541Y-82577101D01*
X80634435Y-82683581D01*
X80505830Y-82658000D01*
X80326970Y-82658000D01*
X80151546Y-82692894D01*
X79986301Y-82761341D01*
X79837584Y-82860711D01*
X79711111Y-82987184D01*
X79611741Y-83135901D01*
X79543294Y-83301146D01*
X79508400Y-83476570D01*
X79508400Y-83655430D01*
X79543294Y-83830854D01*
X79611741Y-83996099D01*
X79711111Y-84144816D01*
X79837584Y-84271289D01*
X79986301Y-84370659D01*
X80151546Y-84439106D01*
X80316536Y-84471925D01*
X80549207Y-84704596D01*
X80571473Y-84731727D01*
X80598604Y-84753993D01*
X80598609Y-84753998D01*
X80679767Y-84820602D01*
X80803318Y-84886642D01*
X80937377Y-84927308D01*
X80937380Y-84927309D01*
X81041864Y-84937600D01*
X81041871Y-84937600D01*
X81076800Y-84941040D01*
X81111728Y-84937600D01*
X82616642Y-84937600D01*
X82598725Y-84949572D01*
X82409572Y-85138725D01*
X82260956Y-85361146D01*
X82158587Y-85608286D01*
X82106400Y-85870649D01*
X82106400Y-86138151D01*
X82158587Y-86400514D01*
X82260956Y-86647654D01*
X82409572Y-86870075D01*
X82598725Y-87059228D01*
X82821146Y-87207844D01*
X83068286Y-87310213D01*
X83330649Y-87362400D01*
X83598151Y-87362400D01*
X83860514Y-87310213D01*
X84107654Y-87207844D01*
X84330075Y-87059228D01*
X84519228Y-86870075D01*
X84643943Y-86683425D01*
X84643943Y-86854400D01*
X84653751Y-86953985D01*
X84682799Y-87049743D01*
X84729971Y-87137995D01*
X84793452Y-87215348D01*
X84870805Y-87278829D01*
X84959057Y-87326001D01*
X84988401Y-87334902D01*
X84988400Y-88529959D01*
X84262760Y-89255600D01*
X69494400Y-89255600D01*
X69494400Y-87334902D01*
X69523743Y-87326001D01*
X69611995Y-87278829D01*
X69689348Y-87215348D01*
X69752829Y-87137995D01*
X69800001Y-87049743D01*
X69829049Y-86953985D01*
X69838857Y-86854400D01*
X69838857Y-85154400D01*
X69829049Y-85054815D01*
X69800001Y-84959057D01*
X69752829Y-84870805D01*
X69689348Y-84793452D01*
X69611995Y-84729971D01*
X69523743Y-84682799D01*
X69427985Y-84653751D01*
X69328400Y-84643943D01*
X67628400Y-84643943D01*
X67528815Y-84653751D01*
X67433057Y-84682799D01*
X67344805Y-84729971D01*
X67267452Y-84793452D01*
X67203971Y-84870805D01*
X67156799Y-84959057D01*
X67127751Y-85054815D01*
X67117943Y-85154400D01*
X67117943Y-85325375D01*
X66993228Y-85138725D01*
X66804075Y-84949572D01*
X66728627Y-84899160D01*
X67147388Y-84480400D01*
X72889012Y-84480400D01*
X72923938Y-84483840D01*
X72958864Y-84480400D01*
X72958874Y-84480400D01*
X73063358Y-84470109D01*
X73197419Y-84429442D01*
X73320971Y-84363402D01*
X73429265Y-84274527D01*
X73451540Y-84247386D01*
X74503442Y-83195484D01*
X74636054Y-83169106D01*
X74801299Y-83100659D01*
X74950016Y-83001289D01*
X75076489Y-82874816D01*
X75133201Y-82789941D01*
X75133200Y-84846356D01*
X74978725Y-84949572D01*
X74789572Y-85138725D01*
X74640956Y-85361146D01*
X74574400Y-85521826D01*
X74507844Y-85361146D01*
X74359228Y-85138725D01*
X74170075Y-84949572D01*
X73947654Y-84800956D01*
X73700514Y-84698587D01*
X73438151Y-84646400D01*
X73170649Y-84646400D01*
X72908286Y-84698587D01*
X72661146Y-84800956D01*
X72438725Y-84949572D01*
X72249572Y-85138725D01*
X72100956Y-85361146D01*
X71998587Y-85608286D01*
X71946400Y-85870649D01*
X71946400Y-86138151D01*
X71998587Y-86400514D01*
X72100956Y-86647654D01*
X72249572Y-86870075D01*
X72438725Y-87059228D01*
X72661146Y-87207844D01*
X72908286Y-87310213D01*
X73170649Y-87362400D01*
X73438151Y-87362400D01*
X73700514Y-87310213D01*
X73947654Y-87207844D01*
X74170075Y-87059228D01*
X74359228Y-86870075D01*
X74507844Y-86647654D01*
X74574400Y-86486974D01*
X74640956Y-86647654D01*
X74789572Y-86870075D01*
X74978725Y-87059228D01*
X75201146Y-87207844D01*
X75448286Y-87310213D01*
X75710649Y-87362400D01*
X75978151Y-87362400D01*
X76240514Y-87310213D01*
X76487654Y-87207844D01*
X76710075Y-87059228D01*
X76899228Y-86870075D01*
X77047844Y-86647654D01*
X77114400Y-86486974D01*
X77180956Y-86647654D01*
X77329572Y-86870075D01*
X77518725Y-87059228D01*
X77741146Y-87207844D01*
X77988286Y-87310213D01*
X78250649Y-87362400D01*
X78518151Y-87362400D01*
X78780514Y-87310213D01*
X79027654Y-87207844D01*
X79250075Y-87059228D01*
X79439228Y-86870075D01*
X79587844Y-86647654D01*
X79690213Y-86400514D01*
X79742400Y-86138151D01*
X79742400Y-85870649D01*
X79690213Y-85608286D01*
X79587844Y-85361146D01*
X79439228Y-85138725D01*
X79250075Y-84949572D01*
X79095600Y-84846356D01*
X79095600Y-76577370D01*
X79209370Y-76600000D01*
X79388230Y-76600000D01*
X79563654Y-76565106D01*
X79728899Y-76496659D01*
X79857600Y-76410663D01*
X79986301Y-76496659D01*
X80151546Y-76565106D01*
X80326970Y-76600000D01*
X80505830Y-76600000D01*
X80681254Y-76565106D01*
X80846499Y-76496659D01*
X80995216Y-76397289D01*
X81121689Y-76270816D01*
X81136028Y-76249356D01*
X81184311Y-76321616D01*
X81310784Y-76448089D01*
X81459501Y-76547459D01*
X81624746Y-76615906D01*
X81800170Y-76650800D01*
X81979030Y-76650800D01*
X82154454Y-76615906D01*
X82319699Y-76547459D01*
X82468416Y-76448089D01*
X82594889Y-76321616D01*
X82694259Y-76172899D01*
X82762706Y-76007654D01*
X82795525Y-75842662D01*
X86207600Y-72430588D01*
X86207600Y-77327811D01*
G36*
X54249171Y-54728395D02*
G01*
X54312652Y-54805748D01*
X54390005Y-54869229D01*
X54478257Y-54916401D01*
X54574015Y-54945449D01*
X54673600Y-54955257D01*
X56273600Y-54955257D01*
X56373185Y-54945449D01*
X56468943Y-54916401D01*
X56557195Y-54869229D01*
X56634548Y-54805748D01*
X56698029Y-54728395D01*
X56734160Y-54660800D01*
X57237160Y-54660800D01*
X58064400Y-55488041D01*
X58064401Y-57252489D01*
X58059485Y-57302400D01*
X58079102Y-57501570D01*
X58122618Y-57645020D01*
X58137199Y-57693087D01*
X58231541Y-57869590D01*
X58358505Y-58024296D01*
X58397268Y-58056108D01*
X60307892Y-59966733D01*
X60339704Y-60005496D01*
X60494410Y-60132460D01*
X60574973Y-60175522D01*
X60561912Y-60182503D01*
X60446675Y-60277075D01*
X60352103Y-60392312D01*
X60281829Y-60523785D01*
X60238555Y-60666441D01*
X60223943Y-60814799D01*
X60223943Y-61714801D01*
X60238555Y-61863159D01*
X60281829Y-62005815D01*
X60352103Y-62137288D01*
X60446675Y-62252525D01*
X60561912Y-62347097D01*
X60693385Y-62417371D01*
X60836041Y-62460645D01*
X60984399Y-62475257D01*
X61684401Y-62475257D01*
X61832759Y-62460645D01*
X61975415Y-62417371D01*
X62106888Y-62347097D01*
X62222125Y-62252525D01*
X62316697Y-62137288D01*
X62386971Y-62005815D01*
X62396015Y-61976000D01*
X64483101Y-61976000D01*
X64499729Y-62030814D01*
X64570003Y-62162287D01*
X64664576Y-62277524D01*
X64779813Y-62372097D01*
X64911286Y-62442371D01*
X65053942Y-62485645D01*
X65202300Y-62500257D01*
X65877300Y-62500257D01*
X66025658Y-62485645D01*
X66168314Y-62442371D01*
X66299787Y-62372097D01*
X66415024Y-62277524D01*
X66509597Y-62162287D01*
X66577300Y-62035624D01*
X66645003Y-62162287D01*
X66739576Y-62277524D01*
X66837074Y-62357539D01*
X66069810Y-63124803D01*
X66042674Y-63147073D01*
X66020404Y-63174209D01*
X66020403Y-63174210D01*
X65953798Y-63255368D01*
X65887759Y-63378919D01*
X65847092Y-63512981D01*
X65833360Y-63652400D01*
X65836801Y-63687336D01*
X65836800Y-65890274D01*
X65833360Y-65925200D01*
X65836800Y-65960126D01*
X65836800Y-65960135D01*
X65847091Y-66064619D01*
X65887758Y-66198680D01*
X65953798Y-66322232D01*
X66042673Y-66430526D01*
X66069810Y-66452797D01*
X67331198Y-67714186D01*
X67279452Y-67756652D01*
X67215971Y-67834005D01*
X67177275Y-67906400D01*
X64503525Y-67906400D01*
X64464829Y-67834005D01*
X64401348Y-67756652D01*
X64323995Y-67693171D01*
X64235743Y-67645999D01*
X64139985Y-67616951D01*
X64040400Y-67607143D01*
X60840400Y-67607143D01*
X60740815Y-67616951D01*
X60645057Y-67645999D01*
X60556805Y-67693171D01*
X60479452Y-67756652D01*
X60415971Y-67834005D01*
X60368799Y-67922257D01*
X60339751Y-68018015D01*
X60329943Y-68117600D01*
X60329943Y-69117600D01*
X60339751Y-69217185D01*
X60368799Y-69312943D01*
X60415971Y-69401195D01*
X60479452Y-69478548D01*
X60556805Y-69542029D01*
X60645057Y-69589201D01*
X60740815Y-69618249D01*
X60840400Y-69628057D01*
X64040400Y-69628057D01*
X64139985Y-69618249D01*
X64235743Y-69589201D01*
X64323995Y-69542029D01*
X64401348Y-69478548D01*
X64464829Y-69401195D01*
X64503525Y-69328800D01*
X67177275Y-69328800D01*
X67215971Y-69401195D01*
X67279452Y-69478548D01*
X67356805Y-69542029D01*
X67445057Y-69589201D01*
X67540815Y-69618249D01*
X67640400Y-69628057D01*
X69460481Y-69628057D01*
X69432430Y-69646800D01*
X56067325Y-69646800D01*
X56032399Y-69643360D01*
X55997473Y-69646800D01*
X55997464Y-69646800D01*
X55892980Y-69657091D01*
X55758919Y-69697758D01*
X55635367Y-69763798D01*
X55554208Y-69830403D01*
X55554204Y-69830407D01*
X55527073Y-69852673D01*
X55504807Y-69879804D01*
X41351870Y-84032743D01*
X39492400Y-84032743D01*
X39420800Y-84039795D01*
X39420800Y-82225899D01*
X39527999Y-82236457D01*
X40228001Y-82236457D01*
X40376359Y-82221845D01*
X40519015Y-82178571D01*
X40650488Y-82108297D01*
X40765725Y-82013725D01*
X40860297Y-81898488D01*
X40878000Y-81865368D01*
X40895703Y-81898488D01*
X40990275Y-82013725D01*
X41105512Y-82108297D01*
X41236985Y-82178571D01*
X41379641Y-82221845D01*
X41527999Y-82236457D01*
X42228001Y-82236457D01*
X42376359Y-82221845D01*
X42519015Y-82178571D01*
X42650488Y-82108297D01*
X42765725Y-82013725D01*
X42860297Y-81898488D01*
X42930571Y-81767015D01*
X42973845Y-81624359D01*
X42988457Y-81476001D01*
X42988457Y-80575999D01*
X42973845Y-80427641D01*
X42930571Y-80284985D01*
X42860297Y-80153512D01*
X42765725Y-80038275D01*
X42650488Y-79943703D01*
X42589200Y-79910944D01*
X42589200Y-79708125D01*
X42592640Y-79673199D01*
X42589200Y-79638273D01*
X42589200Y-79638264D01*
X42578909Y-79533780D01*
X42538242Y-79399719D01*
X42472202Y-79276167D01*
X42460763Y-79262229D01*
X42405597Y-79195008D01*
X42405593Y-79195004D01*
X42383327Y-79167873D01*
X42356196Y-79145607D01*
X41218401Y-78007814D01*
X41196127Y-77980673D01*
X41087833Y-77891798D01*
X40964281Y-77825758D01*
X40830220Y-77785091D01*
X40725736Y-77774800D01*
X40725726Y-77774800D01*
X40690800Y-77771360D01*
X40655874Y-77774800D01*
X38760400Y-77774800D01*
X38760400Y-69102440D01*
X40961906Y-66900935D01*
X40961911Y-66900929D01*
X53202041Y-54660800D01*
X54213040Y-54660800D01*
X54249171Y-54728395D01*
G37*
X54249171Y-54728395D02*
X54312652Y-54805748D01*
X54390005Y-54869229D01*
X54478257Y-54916401D01*
X54574015Y-54945449D01*
X54673600Y-54955257D01*
X56273600Y-54955257D01*
X56373185Y-54945449D01*
X56468943Y-54916401D01*
X56557195Y-54869229D01*
X56634548Y-54805748D01*
X56698029Y-54728395D01*
X56734160Y-54660800D01*
X57237160Y-54660800D01*
X58064400Y-55488041D01*
X58064401Y-57252489D01*
X58059485Y-57302400D01*
X58079102Y-57501570D01*
X58122618Y-57645020D01*
X58137199Y-57693087D01*
X58231541Y-57869590D01*
X58358505Y-58024296D01*
X58397268Y-58056108D01*
X60307892Y-59966733D01*
X60339704Y-60005496D01*
X60494410Y-60132460D01*
X60574973Y-60175522D01*
X60561912Y-60182503D01*
X60446675Y-60277075D01*
X60352103Y-60392312D01*
X60281829Y-60523785D01*
X60238555Y-60666441D01*
X60223943Y-60814799D01*
X60223943Y-61714801D01*
X60238555Y-61863159D01*
X60281829Y-62005815D01*
X60352103Y-62137288D01*
X60446675Y-62252525D01*
X60561912Y-62347097D01*
X60693385Y-62417371D01*
X60836041Y-62460645D01*
X60984399Y-62475257D01*
X61684401Y-62475257D01*
X61832759Y-62460645D01*
X61975415Y-62417371D01*
X62106888Y-62347097D01*
X62222125Y-62252525D01*
X62316697Y-62137288D01*
X62386971Y-62005815D01*
X62396015Y-61976000D01*
X64483101Y-61976000D01*
X64499729Y-62030814D01*
X64570003Y-62162287D01*
X64664576Y-62277524D01*
X64779813Y-62372097D01*
X64911286Y-62442371D01*
X65053942Y-62485645D01*
X65202300Y-62500257D01*
X65877300Y-62500257D01*
X66025658Y-62485645D01*
X66168314Y-62442371D01*
X66299787Y-62372097D01*
X66415024Y-62277524D01*
X66509597Y-62162287D01*
X66577300Y-62035624D01*
X66645003Y-62162287D01*
X66739576Y-62277524D01*
X66837074Y-62357539D01*
X66069810Y-63124803D01*
X66042674Y-63147073D01*
X66020404Y-63174209D01*
X66020403Y-63174210D01*
X65953798Y-63255368D01*
X65887759Y-63378919D01*
X65847092Y-63512981D01*
X65833360Y-63652400D01*
X65836801Y-63687336D01*
X65836800Y-65890274D01*
X65833360Y-65925200D01*
X65836800Y-65960126D01*
X65836800Y-65960135D01*
X65847091Y-66064619D01*
X65887758Y-66198680D01*
X65953798Y-66322232D01*
X66042673Y-66430526D01*
X66069810Y-66452797D01*
X67331198Y-67714186D01*
X67279452Y-67756652D01*
X67215971Y-67834005D01*
X67177275Y-67906400D01*
X64503525Y-67906400D01*
X64464829Y-67834005D01*
X64401348Y-67756652D01*
X64323995Y-67693171D01*
X64235743Y-67645999D01*
X64139985Y-67616951D01*
X64040400Y-67607143D01*
X60840400Y-67607143D01*
X60740815Y-67616951D01*
X60645057Y-67645999D01*
X60556805Y-67693171D01*
X60479452Y-67756652D01*
X60415971Y-67834005D01*
X60368799Y-67922257D01*
X60339751Y-68018015D01*
X60329943Y-68117600D01*
X60329943Y-69117600D01*
X60339751Y-69217185D01*
X60368799Y-69312943D01*
X60415971Y-69401195D01*
X60479452Y-69478548D01*
X60556805Y-69542029D01*
X60645057Y-69589201D01*
X60740815Y-69618249D01*
X60840400Y-69628057D01*
X64040400Y-69628057D01*
X64139985Y-69618249D01*
X64235743Y-69589201D01*
X64323995Y-69542029D01*
X64401348Y-69478548D01*
X64464829Y-69401195D01*
X64503525Y-69328800D01*
X67177275Y-69328800D01*
X67215971Y-69401195D01*
X67279452Y-69478548D01*
X67356805Y-69542029D01*
X67445057Y-69589201D01*
X67540815Y-69618249D01*
X67640400Y-69628057D01*
X69460481Y-69628057D01*
X69432430Y-69646800D01*
X56067325Y-69646800D01*
X56032399Y-69643360D01*
X55997473Y-69646800D01*
X55997464Y-69646800D01*
X55892980Y-69657091D01*
X55758919Y-69697758D01*
X55635367Y-69763798D01*
X55554208Y-69830403D01*
X55554204Y-69830407D01*
X55527073Y-69852673D01*
X55504807Y-69879804D01*
X41351870Y-84032743D01*
X39492400Y-84032743D01*
X39420800Y-84039795D01*
X39420800Y-82225899D01*
X39527999Y-82236457D01*
X40228001Y-82236457D01*
X40376359Y-82221845D01*
X40519015Y-82178571D01*
X40650488Y-82108297D01*
X40765725Y-82013725D01*
X40860297Y-81898488D01*
X40878000Y-81865368D01*
X40895703Y-81898488D01*
X40990275Y-82013725D01*
X41105512Y-82108297D01*
X41236985Y-82178571D01*
X41379641Y-82221845D01*
X41527999Y-82236457D01*
X42228001Y-82236457D01*
X42376359Y-82221845D01*
X42519015Y-82178571D01*
X42650488Y-82108297D01*
X42765725Y-82013725D01*
X42860297Y-81898488D01*
X42930571Y-81767015D01*
X42973845Y-81624359D01*
X42988457Y-81476001D01*
X42988457Y-80575999D01*
X42973845Y-80427641D01*
X42930571Y-80284985D01*
X42860297Y-80153512D01*
X42765725Y-80038275D01*
X42650488Y-79943703D01*
X42589200Y-79910944D01*
X42589200Y-79708125D01*
X42592640Y-79673199D01*
X42589200Y-79638273D01*
X42589200Y-79638264D01*
X42578909Y-79533780D01*
X42538242Y-79399719D01*
X42472202Y-79276167D01*
X42460763Y-79262229D01*
X42405597Y-79195008D01*
X42405593Y-79195004D01*
X42383327Y-79167873D01*
X42356196Y-79145607D01*
X41218401Y-78007814D01*
X41196127Y-77980673D01*
X41087833Y-77891798D01*
X40964281Y-77825758D01*
X40830220Y-77785091D01*
X40725736Y-77774800D01*
X40725726Y-77774800D01*
X40690800Y-77771360D01*
X40655874Y-77774800D01*
X38760400Y-77774800D01*
X38760400Y-69102440D01*
X40961906Y-66900935D01*
X40961911Y-66900929D01*
X53202041Y-54660800D01*
X54213040Y-54660800D01*
X54249171Y-54728395D01*
G36*
X84489002Y-70613610D02*
G01*
X84053014Y-71049599D01*
X84053009Y-71049603D01*
X80316538Y-74786075D01*
X80151546Y-74818894D01*
X80010000Y-74877525D01*
X80010000Y-66131387D01*
X80596315Y-65545073D01*
X80710346Y-65592306D01*
X80885770Y-65627200D01*
X81064630Y-65627200D01*
X81240054Y-65592306D01*
X81405299Y-65523859D01*
X81554016Y-65424489D01*
X81680489Y-65298016D01*
X81779859Y-65149299D01*
X81848306Y-64984054D01*
X81883200Y-64808630D01*
X81883200Y-64629770D01*
X81848306Y-64454346D01*
X81779859Y-64289101D01*
X81680489Y-64140384D01*
X81554016Y-64013911D01*
X81469142Y-63957200D01*
X83327874Y-63957200D01*
X83362800Y-63960640D01*
X83397726Y-63957200D01*
X83397736Y-63957200D01*
X83502220Y-63946909D01*
X83636281Y-63906242D01*
X83759833Y-63840202D01*
X83868127Y-63751327D01*
X83890401Y-63724186D01*
X84425195Y-63189393D01*
X84452327Y-63167127D01*
X84474593Y-63139996D01*
X84474598Y-63139991D01*
X84489002Y-63122440D01*
X84489002Y-70613610D01*
G37*
X84489002Y-70613610D02*
X84053014Y-71049599D01*
X84053009Y-71049603D01*
X80316538Y-74786075D01*
X80151546Y-74818894D01*
X80010000Y-74877525D01*
X80010000Y-66131387D01*
X80596315Y-65545073D01*
X80710346Y-65592306D01*
X80885770Y-65627200D01*
X81064630Y-65627200D01*
X81240054Y-65592306D01*
X81405299Y-65523859D01*
X81554016Y-65424489D01*
X81680489Y-65298016D01*
X81779859Y-65149299D01*
X81848306Y-64984054D01*
X81883200Y-64808630D01*
X81883200Y-64629770D01*
X81848306Y-64454346D01*
X81779859Y-64289101D01*
X81680489Y-64140384D01*
X81554016Y-64013911D01*
X81469142Y-63957200D01*
X83327874Y-63957200D01*
X83362800Y-63960640D01*
X83397726Y-63957200D01*
X83397736Y-63957200D01*
X83502220Y-63946909D01*
X83636281Y-63906242D01*
X83759833Y-63840202D01*
X83868127Y-63751327D01*
X83890401Y-63724186D01*
X84425195Y-63189393D01*
X84452327Y-63167127D01*
X84474593Y-63139996D01*
X84474598Y-63139991D01*
X84489002Y-63122440D01*
X84489002Y-70613610D01*
G36*
X97889601Y-50929210D02*
G01*
X97843386Y-50943229D01*
X97711913Y-51013503D01*
X97596676Y-51108076D01*
X97502103Y-51223313D01*
X97431829Y-51354786D01*
X97388555Y-51497442D01*
X97373943Y-51645800D01*
X97373943Y-52595800D01*
X97388555Y-52744158D01*
X97431829Y-52886814D01*
X97455900Y-52931848D01*
X97455901Y-54571528D01*
X97410329Y-54656786D01*
X97367055Y-54799442D01*
X97352443Y-54947800D01*
X97352443Y-55897800D01*
X97367055Y-56046158D01*
X97410329Y-56188814D01*
X97434400Y-56233848D01*
X97434401Y-58122784D01*
X97410055Y-58203042D01*
X97395443Y-58351400D01*
X97395443Y-59301400D01*
X97410055Y-59449758D01*
X97453329Y-59592414D01*
X97477400Y-59637448D01*
X97477401Y-61511889D01*
X97472485Y-61561800D01*
X97492102Y-61760970D01*
X97530685Y-61888158D01*
X97550199Y-61952487D01*
X97644541Y-62128990D01*
X97771505Y-62283696D01*
X97790001Y-62298875D01*
X97790001Y-62443410D01*
X92864138Y-67369275D01*
X92699146Y-67402094D01*
X92533901Y-67470541D01*
X92385184Y-67569911D01*
X92258711Y-67696384D01*
X92159341Y-67845101D01*
X92090894Y-68010346D01*
X92056000Y-68185770D01*
X92056000Y-68364630D01*
X92090894Y-68540054D01*
X92159341Y-68705299D01*
X92258711Y-68854016D01*
X92385184Y-68980489D01*
X92533901Y-69079859D01*
X92699146Y-69148306D01*
X92874570Y-69183200D01*
X93053430Y-69183200D01*
X93216187Y-69150826D01*
X91145413Y-71221600D01*
X90993970Y-71221600D01*
X90854099Y-71128141D01*
X90688854Y-71059694D01*
X90513430Y-71024800D01*
X90334570Y-71024800D01*
X90159146Y-71059694D01*
X89993901Y-71128141D01*
X89897200Y-71192755D01*
X89897200Y-59941456D01*
X89958488Y-59908697D01*
X90073725Y-59814125D01*
X90168297Y-59698888D01*
X90186000Y-59665768D01*
X90203703Y-59698888D01*
X90298275Y-59814125D01*
X90413512Y-59908697D01*
X90544985Y-59978971D01*
X90687641Y-60022245D01*
X90835999Y-60036857D01*
X91536001Y-60036857D01*
X91684359Y-60022245D01*
X91827015Y-59978971D01*
X91958488Y-59908697D01*
X92073725Y-59814125D01*
X92168297Y-59698888D01*
X92238571Y-59567415D01*
X92247615Y-59537600D01*
X92648030Y-59537600D01*
X92787901Y-59631059D01*
X92953146Y-59699506D01*
X93128570Y-59734400D01*
X93307430Y-59734400D01*
X93482854Y-59699506D01*
X93648099Y-59631059D01*
X93796816Y-59531689D01*
X93923289Y-59405216D01*
X94022659Y-59256499D01*
X94091106Y-59091254D01*
X94126000Y-58915830D01*
X94126000Y-58736970D01*
X94091106Y-58561546D01*
X94022659Y-58396301D01*
X93923289Y-58247584D01*
X93796816Y-58121111D01*
X93648099Y-58021741D01*
X93482854Y-57953294D01*
X93307430Y-57918400D01*
X93302987Y-57918400D01*
X95118595Y-56102793D01*
X95145726Y-56080527D01*
X95167993Y-56053395D01*
X95167997Y-56053391D01*
X95234602Y-55972233D01*
X95260596Y-55923601D01*
X95300642Y-55848681D01*
X95341309Y-55714620D01*
X95351600Y-55610136D01*
X95351600Y-55610129D01*
X95355040Y-55575200D01*
X95351600Y-55540272D01*
X95351600Y-51704187D01*
X95747788Y-51308000D01*
X96789874Y-51308000D01*
X96824800Y-51311440D01*
X96859726Y-51308000D01*
X96859736Y-51308000D01*
X96964220Y-51297709D01*
X97098281Y-51257042D01*
X97221833Y-51191002D01*
X97330127Y-51102127D01*
X97352401Y-51074986D01*
X97889601Y-50537788D01*
X97889601Y-50929210D01*
G37*
X97889601Y-50929210D02*
X97843386Y-50943229D01*
X97711913Y-51013503D01*
X97596676Y-51108076D01*
X97502103Y-51223313D01*
X97431829Y-51354786D01*
X97388555Y-51497442D01*
X97373943Y-51645800D01*
X97373943Y-52595800D01*
X97388555Y-52744158D01*
X97431829Y-52886814D01*
X97455900Y-52931848D01*
X97455901Y-54571528D01*
X97410329Y-54656786D01*
X97367055Y-54799442D01*
X97352443Y-54947800D01*
X97352443Y-55897800D01*
X97367055Y-56046158D01*
X97410329Y-56188814D01*
X97434400Y-56233848D01*
X97434401Y-58122784D01*
X97410055Y-58203042D01*
X97395443Y-58351400D01*
X97395443Y-59301400D01*
X97410055Y-59449758D01*
X97453329Y-59592414D01*
X97477400Y-59637448D01*
X97477401Y-61511889D01*
X97472485Y-61561800D01*
X97492102Y-61760970D01*
X97530685Y-61888158D01*
X97550199Y-61952487D01*
X97644541Y-62128990D01*
X97771505Y-62283696D01*
X97790001Y-62298875D01*
X97790001Y-62443410D01*
X92864138Y-67369275D01*
X92699146Y-67402094D01*
X92533901Y-67470541D01*
X92385184Y-67569911D01*
X92258711Y-67696384D01*
X92159341Y-67845101D01*
X92090894Y-68010346D01*
X92056000Y-68185770D01*
X92056000Y-68364630D01*
X92090894Y-68540054D01*
X92159341Y-68705299D01*
X92258711Y-68854016D01*
X92385184Y-68980489D01*
X92533901Y-69079859D01*
X92699146Y-69148306D01*
X92874570Y-69183200D01*
X93053430Y-69183200D01*
X93216187Y-69150826D01*
X91145413Y-71221600D01*
X90993970Y-71221600D01*
X90854099Y-71128141D01*
X90688854Y-71059694D01*
X90513430Y-71024800D01*
X90334570Y-71024800D01*
X90159146Y-71059694D01*
X89993901Y-71128141D01*
X89897200Y-71192755D01*
X89897200Y-59941456D01*
X89958488Y-59908697D01*
X90073725Y-59814125D01*
X90168297Y-59698888D01*
X90186000Y-59665768D01*
X90203703Y-59698888D01*
X90298275Y-59814125D01*
X90413512Y-59908697D01*
X90544985Y-59978971D01*
X90687641Y-60022245D01*
X90835999Y-60036857D01*
X91536001Y-60036857D01*
X91684359Y-60022245D01*
X91827015Y-59978971D01*
X91958488Y-59908697D01*
X92073725Y-59814125D01*
X92168297Y-59698888D01*
X92238571Y-59567415D01*
X92247615Y-59537600D01*
X92648030Y-59537600D01*
X92787901Y-59631059D01*
X92953146Y-59699506D01*
X93128570Y-59734400D01*
X93307430Y-59734400D01*
X93482854Y-59699506D01*
X93648099Y-59631059D01*
X93796816Y-59531689D01*
X93923289Y-59405216D01*
X94022659Y-59256499D01*
X94091106Y-59091254D01*
X94126000Y-58915830D01*
X94126000Y-58736970D01*
X94091106Y-58561546D01*
X94022659Y-58396301D01*
X93923289Y-58247584D01*
X93796816Y-58121111D01*
X93648099Y-58021741D01*
X93482854Y-57953294D01*
X93307430Y-57918400D01*
X93302987Y-57918400D01*
X95118595Y-56102793D01*
X95145726Y-56080527D01*
X95167993Y-56053395D01*
X95167997Y-56053391D01*
X95234602Y-55972233D01*
X95260596Y-55923601D01*
X95300642Y-55848681D01*
X95341309Y-55714620D01*
X95351600Y-55610136D01*
X95351600Y-55610129D01*
X95355040Y-55575200D01*
X95351600Y-55540272D01*
X95351600Y-51704187D01*
X95747788Y-51308000D01*
X96789874Y-51308000D01*
X96824800Y-51311440D01*
X96859726Y-51308000D01*
X96859736Y-51308000D01*
X96964220Y-51297709D01*
X97098281Y-51257042D01*
X97221833Y-51191002D01*
X97330127Y-51102127D01*
X97352401Y-51074986D01*
X97889601Y-50537788D01*
X97889601Y-50929210D01*
G36*
X102990956Y-46289143D02*
G01*
X102650800Y-46289143D01*
X102551215Y-46298951D01*
X102455457Y-46327999D01*
X102450800Y-46330488D01*
X102446143Y-46327999D01*
X102350385Y-46298951D01*
X102250800Y-46289143D01*
X101550800Y-46289143D01*
X101451215Y-46298951D01*
X101355457Y-46327999D01*
X101267205Y-46375171D01*
X101189852Y-46438652D01*
X101126371Y-46516005D01*
X101079199Y-46604257D01*
X101050151Y-46700015D01*
X101040343Y-46799600D01*
X101040343Y-48399600D01*
X101050151Y-48499185D01*
X101079199Y-48594943D01*
X101126371Y-48683195D01*
X101189601Y-48760242D01*
X101189600Y-49897464D01*
X101189600Y-50456274D01*
X101186160Y-50491200D01*
X101189600Y-50526126D01*
X101189601Y-61177410D01*
X93839626Y-68527387D01*
X93869925Y-68375062D01*
X98979396Y-63265593D01*
X99006527Y-63243327D01*
X99028793Y-63216196D01*
X99028797Y-63216192D01*
X99095402Y-63135033D01*
X99118977Y-63090927D01*
X99161442Y-63011481D01*
X99202109Y-62877420D01*
X99212400Y-62772936D01*
X99212400Y-62772927D01*
X99215840Y-62738001D01*
X99212400Y-62703075D01*
X99212400Y-62300274D01*
X99223096Y-62291496D01*
X99350059Y-62136789D01*
X99444402Y-61960287D01*
X99502498Y-61768770D01*
X99522115Y-61569600D01*
X99509400Y-61440506D01*
X99509400Y-59637448D01*
X99533471Y-59592414D01*
X99576745Y-59449758D01*
X99591357Y-59301400D01*
X99591357Y-58351400D01*
X99576745Y-58203042D01*
X99533471Y-58060386D01*
X99466400Y-57934905D01*
X99466400Y-56233848D01*
X99490471Y-56188814D01*
X99533745Y-56046158D01*
X99548357Y-55897800D01*
X99548357Y-54947800D01*
X99533745Y-54799442D01*
X99490471Y-54656786D01*
X99487900Y-54651976D01*
X99487900Y-52931848D01*
X99511971Y-52886814D01*
X99555245Y-52744158D01*
X99569857Y-52595800D01*
X99569857Y-51645800D01*
X99555245Y-51497442D01*
X99511971Y-51354786D01*
X99441697Y-51223313D01*
X99347124Y-51108076D01*
X99312000Y-51079250D01*
X99312000Y-48906236D01*
X99350800Y-48910057D01*
X100050800Y-48910057D01*
X100150385Y-48900249D01*
X100246143Y-48871201D01*
X100334395Y-48824029D01*
X100411748Y-48760548D01*
X100475229Y-48683195D01*
X100522401Y-48594943D01*
X100551449Y-48499185D01*
X100561257Y-48399600D01*
X100561257Y-46799600D01*
X100551449Y-46700015D01*
X100522401Y-46604257D01*
X100475229Y-46516005D01*
X100412000Y-46438959D01*
X100412000Y-46395728D01*
X100415440Y-46360800D01*
X100412000Y-46325871D01*
X100412000Y-46325864D01*
X100401709Y-46221380D01*
X100361042Y-46087319D01*
X100295002Y-45963767D01*
X100261709Y-45923200D01*
X102625013Y-45923200D01*
X102990956Y-46289143D01*
G37*
X102990956Y-46289143D02*
X102650800Y-46289143D01*
X102551215Y-46298951D01*
X102455457Y-46327999D01*
X102450800Y-46330488D01*
X102446143Y-46327999D01*
X102350385Y-46298951D01*
X102250800Y-46289143D01*
X101550800Y-46289143D01*
X101451215Y-46298951D01*
X101355457Y-46327999D01*
X101267205Y-46375171D01*
X101189852Y-46438652D01*
X101126371Y-46516005D01*
X101079199Y-46604257D01*
X101050151Y-46700015D01*
X101040343Y-46799600D01*
X101040343Y-48399600D01*
X101050151Y-48499185D01*
X101079199Y-48594943D01*
X101126371Y-48683195D01*
X101189601Y-48760242D01*
X101189600Y-49897464D01*
X101189600Y-50456274D01*
X101186160Y-50491200D01*
X101189600Y-50526126D01*
X101189601Y-61177410D01*
X93839626Y-68527387D01*
X93869925Y-68375062D01*
X98979396Y-63265593D01*
X99006527Y-63243327D01*
X99028793Y-63216196D01*
X99028797Y-63216192D01*
X99095402Y-63135033D01*
X99118977Y-63090927D01*
X99161442Y-63011481D01*
X99202109Y-62877420D01*
X99212400Y-62772936D01*
X99212400Y-62772927D01*
X99215840Y-62738001D01*
X99212400Y-62703075D01*
X99212400Y-62300274D01*
X99223096Y-62291496D01*
X99350059Y-62136789D01*
X99444402Y-61960287D01*
X99502498Y-61768770D01*
X99522115Y-61569600D01*
X99509400Y-61440506D01*
X99509400Y-59637448D01*
X99533471Y-59592414D01*
X99576745Y-59449758D01*
X99591357Y-59301400D01*
X99591357Y-58351400D01*
X99576745Y-58203042D01*
X99533471Y-58060386D01*
X99466400Y-57934905D01*
X99466400Y-56233848D01*
X99490471Y-56188814D01*
X99533745Y-56046158D01*
X99548357Y-55897800D01*
X99548357Y-54947800D01*
X99533745Y-54799442D01*
X99490471Y-54656786D01*
X99487900Y-54651976D01*
X99487900Y-52931848D01*
X99511971Y-52886814D01*
X99555245Y-52744158D01*
X99569857Y-52595800D01*
X99569857Y-51645800D01*
X99555245Y-51497442D01*
X99511971Y-51354786D01*
X99441697Y-51223313D01*
X99347124Y-51108076D01*
X99312000Y-51079250D01*
X99312000Y-48906236D01*
X99350800Y-48910057D01*
X100050800Y-48910057D01*
X100150385Y-48900249D01*
X100246143Y-48871201D01*
X100334395Y-48824029D01*
X100411748Y-48760548D01*
X100475229Y-48683195D01*
X100522401Y-48594943D01*
X100551449Y-48499185D01*
X100561257Y-48399600D01*
X100561257Y-46799600D01*
X100551449Y-46700015D01*
X100522401Y-46604257D01*
X100475229Y-46516005D01*
X100412000Y-46438959D01*
X100412000Y-46395728D01*
X100415440Y-46360800D01*
X100412000Y-46325871D01*
X100412000Y-46325864D01*
X100401709Y-46221380D01*
X100361042Y-46087319D01*
X100295002Y-45963767D01*
X100261709Y-45923200D01*
X102625013Y-45923200D01*
X102990956Y-46289143D01*
G36*
X70036052Y-60358652D02*
G01*
X69972571Y-60436005D01*
X69925399Y-60524257D01*
X69896351Y-60620015D01*
X69886543Y-60719600D01*
X69886543Y-62419600D01*
X69896351Y-62519185D01*
X69925399Y-62614943D01*
X69972571Y-62703195D01*
X70036052Y-62780548D01*
X70113405Y-62844029D01*
X70201657Y-62891201D01*
X70297415Y-62920249D01*
X70397000Y-62930057D01*
X72097000Y-62930057D01*
X72196585Y-62920249D01*
X72292343Y-62891201D01*
X72380595Y-62844029D01*
X72457948Y-62780548D01*
X72521429Y-62703195D01*
X72568601Y-62614943D01*
X72597649Y-62519185D01*
X72607457Y-62419600D01*
X72607457Y-62248625D01*
X72732172Y-62435275D01*
X72921325Y-62624428D01*
X73143746Y-62773044D01*
X73390886Y-62875413D01*
X73653249Y-62927600D01*
X73920751Y-62927600D01*
X74183114Y-62875413D01*
X74430254Y-62773044D01*
X74652675Y-62624428D01*
X74841828Y-62435275D01*
X74990444Y-62212854D01*
X75057000Y-62052174D01*
X75123556Y-62212854D01*
X75272172Y-62435275D01*
X75461325Y-62624428D01*
X75556020Y-62687701D01*
X75491473Y-62740673D01*
X75469203Y-62767809D01*
X73537410Y-64699602D01*
X73510273Y-64721874D01*
X73421398Y-64830168D01*
X73355358Y-64953720D01*
X73314691Y-65087781D01*
X73304400Y-65192265D01*
X73304400Y-65192274D01*
X73300960Y-65227200D01*
X73304400Y-65262126D01*
X73304400Y-65553185D01*
X73274585Y-65562229D01*
X73143112Y-65632503D01*
X73027875Y-65727075D01*
X72933303Y-65842312D01*
X72863029Y-65973785D01*
X72819755Y-66116441D01*
X72805143Y-66264799D01*
X72805143Y-66964801D01*
X72819755Y-67113159D01*
X72863029Y-67255815D01*
X72933303Y-67387288D01*
X73027875Y-67502525D01*
X73143112Y-67597097D01*
X73176232Y-67614800D01*
X73143112Y-67632503D01*
X73027875Y-67727075D01*
X72933303Y-67842312D01*
X72899047Y-67906400D01*
X71303525Y-67906400D01*
X71264829Y-67834005D01*
X71201348Y-67756652D01*
X71123995Y-67693171D01*
X71035743Y-67645999D01*
X70939985Y-67616951D01*
X70840400Y-67607143D01*
X69235732Y-67607143D01*
X67259200Y-65630613D01*
X67259200Y-63946987D01*
X68092991Y-63113197D01*
X68120127Y-63090927D01*
X68209002Y-62982633D01*
X68275042Y-62859081D01*
X68315709Y-62725020D01*
X68326000Y-62620536D01*
X68326000Y-62620527D01*
X68329440Y-62585601D01*
X68326000Y-62550675D01*
X68326000Y-62398174D01*
X68374787Y-62372097D01*
X68490024Y-62277524D01*
X68584597Y-62162287D01*
X68654871Y-62030814D01*
X68698145Y-61888158D01*
X68712757Y-61739800D01*
X68712757Y-60789800D01*
X68698145Y-60641442D01*
X68654871Y-60498786D01*
X68584597Y-60367313D01*
X68529026Y-60299600D01*
X70108008Y-60299600D01*
X70036052Y-60358652D01*
G37*
X70036052Y-60358652D02*
X69972571Y-60436005D01*
X69925399Y-60524257D01*
X69896351Y-60620015D01*
X69886543Y-60719600D01*
X69886543Y-62419600D01*
X69896351Y-62519185D01*
X69925399Y-62614943D01*
X69972571Y-62703195D01*
X70036052Y-62780548D01*
X70113405Y-62844029D01*
X70201657Y-62891201D01*
X70297415Y-62920249D01*
X70397000Y-62930057D01*
X72097000Y-62930057D01*
X72196585Y-62920249D01*
X72292343Y-62891201D01*
X72380595Y-62844029D01*
X72457948Y-62780548D01*
X72521429Y-62703195D01*
X72568601Y-62614943D01*
X72597649Y-62519185D01*
X72607457Y-62419600D01*
X72607457Y-62248625D01*
X72732172Y-62435275D01*
X72921325Y-62624428D01*
X73143746Y-62773044D01*
X73390886Y-62875413D01*
X73653249Y-62927600D01*
X73920751Y-62927600D01*
X74183114Y-62875413D01*
X74430254Y-62773044D01*
X74652675Y-62624428D01*
X74841828Y-62435275D01*
X74990444Y-62212854D01*
X75057000Y-62052174D01*
X75123556Y-62212854D01*
X75272172Y-62435275D01*
X75461325Y-62624428D01*
X75556020Y-62687701D01*
X75491473Y-62740673D01*
X75469203Y-62767809D01*
X73537410Y-64699602D01*
X73510273Y-64721874D01*
X73421398Y-64830168D01*
X73355358Y-64953720D01*
X73314691Y-65087781D01*
X73304400Y-65192265D01*
X73304400Y-65192274D01*
X73300960Y-65227200D01*
X73304400Y-65262126D01*
X73304400Y-65553185D01*
X73274585Y-65562229D01*
X73143112Y-65632503D01*
X73027875Y-65727075D01*
X72933303Y-65842312D01*
X72863029Y-65973785D01*
X72819755Y-66116441D01*
X72805143Y-66264799D01*
X72805143Y-66964801D01*
X72819755Y-67113159D01*
X72863029Y-67255815D01*
X72933303Y-67387288D01*
X73027875Y-67502525D01*
X73143112Y-67597097D01*
X73176232Y-67614800D01*
X73143112Y-67632503D01*
X73027875Y-67727075D01*
X72933303Y-67842312D01*
X72899047Y-67906400D01*
X71303525Y-67906400D01*
X71264829Y-67834005D01*
X71201348Y-67756652D01*
X71123995Y-67693171D01*
X71035743Y-67645999D01*
X70939985Y-67616951D01*
X70840400Y-67607143D01*
X69235732Y-67607143D01*
X67259200Y-65630613D01*
X67259200Y-63946987D01*
X68092991Y-63113197D01*
X68120127Y-63090927D01*
X68209002Y-62982633D01*
X68275042Y-62859081D01*
X68315709Y-62725020D01*
X68326000Y-62620536D01*
X68326000Y-62620527D01*
X68329440Y-62585601D01*
X68326000Y-62550675D01*
X68326000Y-62398174D01*
X68374787Y-62372097D01*
X68490024Y-62277524D01*
X68584597Y-62162287D01*
X68654871Y-62030814D01*
X68698145Y-61888158D01*
X68712757Y-61739800D01*
X68712757Y-60789800D01*
X68698145Y-60641442D01*
X68654871Y-60498786D01*
X68584597Y-60367313D01*
X68529026Y-60299600D01*
X70108008Y-60299600D01*
X70036052Y-60358652D01*
G36*
X82870588Y-60736228D02*
G01*
X82743556Y-60926346D01*
X82641187Y-61173486D01*
X82589000Y-61435849D01*
X82589000Y-61703351D01*
X82641187Y-61965714D01*
X82743556Y-62212854D01*
X82892172Y-62435275D01*
X82991697Y-62534800D01*
X79822303Y-62534800D01*
X79921828Y-62435275D01*
X80070444Y-62212854D01*
X80172813Y-61965714D01*
X80225000Y-61703351D01*
X80225000Y-61435849D01*
X80172813Y-61173486D01*
X80070444Y-60926346D01*
X79921828Y-60703925D01*
X79732675Y-60514772D01*
X79510254Y-60366156D01*
X79349574Y-60299600D01*
X82433960Y-60299600D01*
X82870588Y-60736228D01*
G37*
X82870588Y-60736228D02*
X82743556Y-60926346D01*
X82641187Y-61173486D01*
X82589000Y-61435849D01*
X82589000Y-61703351D01*
X82641187Y-61965714D01*
X82743556Y-62212854D01*
X82892172Y-62435275D01*
X82991697Y-62534800D01*
X79822303Y-62534800D01*
X79921828Y-62435275D01*
X80070444Y-62212854D01*
X80172813Y-61965714D01*
X80225000Y-61703351D01*
X80225000Y-61435849D01*
X80172813Y-61173486D01*
X80070444Y-60926346D01*
X79921828Y-60703925D01*
X79732675Y-60514772D01*
X79510254Y-60366156D01*
X79349574Y-60299600D01*
X82433960Y-60299600D01*
X82870588Y-60736228D01*
G36*
X82143600Y-51120665D02*
G01*
X82143600Y-51120674D01*
X82140160Y-51155600D01*
X82143600Y-51190526D01*
X82143600Y-51989585D01*
X82113785Y-51998629D01*
X81982312Y-52068903D01*
X81867075Y-52163475D01*
X81772503Y-52278712D01*
X81702229Y-52410185D01*
X81658955Y-52552841D01*
X81644343Y-52701199D01*
X81644343Y-53401201D01*
X81658955Y-53549559D01*
X81702229Y-53692215D01*
X81772503Y-53823688D01*
X81867075Y-53938925D01*
X81982312Y-54033497D01*
X82113785Y-54103771D01*
X82256441Y-54147045D01*
X82404799Y-54161657D01*
X83304801Y-54161657D01*
X83453159Y-54147045D01*
X83595815Y-54103771D01*
X83727288Y-54033497D01*
X83842525Y-53938925D01*
X83937097Y-53823688D01*
X84007371Y-53692215D01*
X84050645Y-53549559D01*
X84065257Y-53401201D01*
X84065257Y-52701199D01*
X84050645Y-52552841D01*
X84007371Y-52410185D01*
X83937097Y-52278712D01*
X83842525Y-52163475D01*
X83727288Y-52068903D01*
X83595815Y-51998629D01*
X83566000Y-51989585D01*
X83566000Y-51450188D01*
X83758988Y-51257200D01*
X85969474Y-51257200D01*
X86004400Y-51260640D01*
X86039326Y-51257200D01*
X86039336Y-51257200D01*
X86068261Y-51254351D01*
X84722012Y-52600601D01*
X84694874Y-52622873D01*
X84605999Y-52731167D01*
X84539959Y-52854719D01*
X84499292Y-52988780D01*
X84489001Y-53093264D01*
X84489001Y-53093273D01*
X84485561Y-53128199D01*
X84489001Y-53163125D01*
X84489001Y-59480961D01*
X83608512Y-58600472D01*
X83576696Y-58561704D01*
X83421990Y-58434740D01*
X83245487Y-58340398D01*
X83053971Y-58282302D01*
X82904702Y-58267600D01*
X82854800Y-58262685D01*
X82804898Y-58267600D01*
X81584800Y-58267600D01*
X81584800Y-51653387D01*
X82146449Y-51091738D01*
X82143600Y-51120665D01*
G37*
X82143600Y-51120665D02*
X82143600Y-51120674D01*
X82140160Y-51155600D01*
X82143600Y-51190526D01*
X82143600Y-51989585D01*
X82113785Y-51998629D01*
X81982312Y-52068903D01*
X81867075Y-52163475D01*
X81772503Y-52278712D01*
X81702229Y-52410185D01*
X81658955Y-52552841D01*
X81644343Y-52701199D01*
X81644343Y-53401201D01*
X81658955Y-53549559D01*
X81702229Y-53692215D01*
X81772503Y-53823688D01*
X81867075Y-53938925D01*
X81982312Y-54033497D01*
X82113785Y-54103771D01*
X82256441Y-54147045D01*
X82404799Y-54161657D01*
X83304801Y-54161657D01*
X83453159Y-54147045D01*
X83595815Y-54103771D01*
X83727288Y-54033497D01*
X83842525Y-53938925D01*
X83937097Y-53823688D01*
X84007371Y-53692215D01*
X84050645Y-53549559D01*
X84065257Y-53401201D01*
X84065257Y-52701199D01*
X84050645Y-52552841D01*
X84007371Y-52410185D01*
X83937097Y-52278712D01*
X83842525Y-52163475D01*
X83727288Y-52068903D01*
X83595815Y-51998629D01*
X83566000Y-51989585D01*
X83566000Y-51450188D01*
X83758988Y-51257200D01*
X85969474Y-51257200D01*
X86004400Y-51260640D01*
X86039326Y-51257200D01*
X86039336Y-51257200D01*
X86068261Y-51254351D01*
X84722012Y-52600601D01*
X84694874Y-52622873D01*
X84605999Y-52731167D01*
X84539959Y-52854719D01*
X84499292Y-52988780D01*
X84489001Y-53093264D01*
X84489001Y-53093273D01*
X84485561Y-53128199D01*
X84489001Y-53163125D01*
X84489001Y-59480961D01*
X83608512Y-58600472D01*
X83576696Y-58561704D01*
X83421990Y-58434740D01*
X83245487Y-58340398D01*
X83053971Y-58282302D01*
X82904702Y-58267600D01*
X82854800Y-58262685D01*
X82804898Y-58267600D01*
X81584800Y-58267600D01*
X81584800Y-51653387D01*
X82146449Y-51091738D01*
X82143600Y-51120665D01*
%TD*%
M02*
