%TF.GenerationSoftware,KiCad,Pcbnew,(5.1.6)-1*%
%TF.CreationDate,2020-11-04T18:23:40+01:00*%
%TF.ProjectId,rps_ki,7270735f-6b69-42e6-9b69-6361645f7063,rev?*%
%TF.SameCoordinates,Original*%
%TF.FileFunction,Legend,Top*%
%TF.FilePolarity,Positive*%
%FSLAX46Y46*%
G04 Gerber Fmt 4.6, Leading zero omitted, Abs format (unit mm)*
G04 Created by KiCad (PCBNEW (5.1.6)-1) date 2020-11-04 18:23:40*
%MOMM*%
%LPD*%
G01*
G04 APERTURE LIST*
%TA.AperFunction,Profile*%
%ADD10C,0.050000*%
%TD*%
%ADD11C,0.120000*%
%ADD12C,0.150000*%
G04 APERTURE END LIST*
D10*
X109485600Y-91656800D02*
X35485600Y-91656800D01*
X109485600Y-91656800D02*
X109485600Y-91656800D01*
X35485600Y-30656800D02*
X109485600Y-30656800D01*
X109485600Y-30656800D02*
X109485600Y-91656800D01*
X35485600Y-91656800D02*
X35485600Y-30656800D01*
D11*
%TO.C,J5*%
X71974400Y-84674400D02*
X71974400Y-87334400D01*
X84734400Y-84674400D02*
X71974400Y-84674400D01*
X84734400Y-87334400D02*
X71974400Y-87334400D01*
X84734400Y-84674400D02*
X84734400Y-87334400D01*
X86004400Y-84674400D02*
X87334400Y-84674400D01*
X87334400Y-84674400D02*
X87334400Y-86004400D01*
%TO.C,J4*%
X105673200Y-80171600D02*
X103073200Y-80171600D01*
X105673200Y-80171600D02*
X105673200Y-69891600D01*
X105673200Y-69891600D02*
X100473200Y-69891600D01*
X100473200Y-77571600D02*
X100473200Y-69891600D01*
X103073200Y-77571600D02*
X100473200Y-77571600D01*
X103073200Y-80171600D02*
X103073200Y-77571600D01*
X100473200Y-80171600D02*
X100473200Y-78841600D01*
X101803200Y-80171600D02*
X100473200Y-80171600D01*
%TO.C,J1*%
X47841600Y-33892800D02*
X47841600Y-32842800D01*
X46791600Y-32842800D02*
X47841600Y-32842800D01*
X41741600Y-42242800D02*
X32941600Y-42242800D01*
X32941600Y-42242800D02*
X32941600Y-33042800D01*
X47641600Y-39542800D02*
X47641600Y-42242800D01*
X47641600Y-42242800D02*
X45741600Y-42242800D01*
X32941600Y-33042800D02*
X47641600Y-33042800D01*
X47641600Y-33042800D02*
X47641600Y-35642800D01*
%TO.C,SW4*%
X62490400Y-69717600D02*
X62490400Y-69517600D01*
X62490400Y-63517600D02*
X62490400Y-63717600D01*
X69190400Y-63517600D02*
X69190400Y-63717600D01*
X69190400Y-69717600D02*
X69190400Y-69517600D01*
X69190400Y-67817600D02*
X69190400Y-65417600D01*
X62490400Y-67817600D02*
X62490400Y-65417600D01*
X62490400Y-69717600D02*
X69190400Y-69717600D01*
X69190400Y-63517600D02*
X62490400Y-63517600D01*
%TO.C,SW3*%
X81260000Y-35051200D02*
X81460000Y-35051200D01*
X87460000Y-35051200D02*
X87260000Y-35051200D01*
X87460000Y-41751200D02*
X87260000Y-41751200D01*
X81260000Y-41751200D02*
X81460000Y-41751200D01*
X83160000Y-41751200D02*
X85560000Y-41751200D01*
X83160000Y-35051200D02*
X85560000Y-35051200D01*
X81260000Y-35051200D02*
X81260000Y-41751200D01*
X87460000Y-41751200D02*
X87460000Y-35051200D01*
%TO.C,SW2*%
X69694800Y-77164000D02*
X69694800Y-77364000D01*
X69694800Y-83364000D02*
X69694800Y-83164000D01*
X62994800Y-83364000D02*
X62994800Y-83164000D01*
X62994800Y-77164000D02*
X62994800Y-77364000D01*
X62994800Y-79064000D02*
X62994800Y-81464000D01*
X69694800Y-79064000D02*
X69694800Y-81464000D01*
X69694800Y-77164000D02*
X62994800Y-77164000D01*
X62994800Y-83364000D02*
X69694800Y-83364000D01*
%TO.C,R12*%
X83589800Y-53824136D02*
X83589800Y-54278264D01*
X82119800Y-53824136D02*
X82119800Y-54278264D01*
%TO.C,L1*%
X66823600Y-36374800D02*
X66823600Y-33374800D01*
X66823600Y-33374800D02*
X79423600Y-33374800D01*
X79423600Y-33374800D02*
X79423600Y-36374800D01*
X79423600Y-42974800D02*
X79423600Y-45974800D01*
X79423600Y-45974800D02*
X66823600Y-45974800D01*
X66823600Y-45974800D02*
X66823600Y-42974800D01*
%TO.C,J6*%
X85277000Y-62899600D02*
X85277000Y-60239600D01*
X72517000Y-62899600D02*
X85277000Y-62899600D01*
X72517000Y-60239600D02*
X85277000Y-60239600D01*
X72517000Y-62899600D02*
X72517000Y-60239600D01*
X71247000Y-62899600D02*
X69917000Y-62899600D01*
X69917000Y-62899600D02*
X69917000Y-61569600D01*
%TO.C,J3*%
X62068400Y-84674400D02*
X62068400Y-87334400D01*
X67208400Y-84674400D02*
X62068400Y-84674400D01*
X67208400Y-87334400D02*
X62068400Y-87334400D01*
X67208400Y-84674400D02*
X67208400Y-87334400D01*
X68478400Y-84674400D02*
X69808400Y-84674400D01*
X69808400Y-84674400D02*
X69808400Y-86004400D01*
%TO.C,J2*%
X99210700Y-86736200D02*
X98830700Y-86736200D01*
X99210700Y-90786200D02*
X99210700Y-91046200D01*
X99210700Y-86736200D02*
X99210700Y-88506200D01*
X91590700Y-86736200D02*
X91970700Y-86736200D01*
X91590700Y-88506200D02*
X91590700Y-86736200D01*
X91590700Y-91046200D02*
X91590700Y-90786200D01*
%TO.C,D4*%
X39192400Y-89043200D02*
X39192400Y-84393200D01*
X42392400Y-89043200D02*
X42392400Y-84393200D01*
X42392400Y-84393200D02*
X41592400Y-84393200D01*
%TO.C,D3*%
X48133200Y-89067200D02*
X48133200Y-84417200D01*
X51333200Y-89067200D02*
X51333200Y-84417200D01*
X51333200Y-84417200D02*
X50533200Y-84417200D01*
%TO.C,D2*%
X56921600Y-89040400D02*
X56921600Y-84390400D01*
X60121600Y-89040400D02*
X60121600Y-84390400D01*
X60121600Y-84390400D02*
X59321600Y-84390400D01*
%TO.C,D1*%
X79983600Y-49244800D02*
X76683600Y-49244800D01*
X76683600Y-49244800D02*
X76683600Y-56144800D01*
X79983600Y-49244800D02*
X79983600Y-56144800D01*
%TO.C,C17*%
X85828200Y-47657652D02*
X85828200Y-47135148D01*
X87298200Y-47657652D02*
X87298200Y-47135148D01*
%TO.C,C2*%
X59593600Y-54894800D02*
G75*
G03*
X59593600Y-54894800I-4120000J0D01*
G01*
X59553600Y-54894800D02*
X51393600Y-54894800D01*
X59553600Y-54934800D02*
X51393600Y-54934800D01*
X59553600Y-54974800D02*
X51393600Y-54974800D01*
X59552600Y-55014800D02*
X51394600Y-55014800D01*
X59550600Y-55054800D02*
X51396600Y-55054800D01*
X59549600Y-55094800D02*
X51397600Y-55094800D01*
X59547600Y-55134800D02*
X56513600Y-55134800D01*
X54433600Y-55134800D02*
X51399600Y-55134800D01*
X59544600Y-55174800D02*
X56513600Y-55174800D01*
X54433600Y-55174800D02*
X51402600Y-55174800D01*
X59541600Y-55214800D02*
X56513600Y-55214800D01*
X54433600Y-55214800D02*
X51405600Y-55214800D01*
X59538600Y-55254800D02*
X56513600Y-55254800D01*
X54433600Y-55254800D02*
X51408600Y-55254800D01*
X59534600Y-55294800D02*
X56513600Y-55294800D01*
X54433600Y-55294800D02*
X51412600Y-55294800D01*
X59530600Y-55334800D02*
X56513600Y-55334800D01*
X54433600Y-55334800D02*
X51416600Y-55334800D01*
X59525600Y-55374800D02*
X56513600Y-55374800D01*
X54433600Y-55374800D02*
X51421600Y-55374800D01*
X59521600Y-55414800D02*
X56513600Y-55414800D01*
X54433600Y-55414800D02*
X51425600Y-55414800D01*
X59515600Y-55454800D02*
X56513600Y-55454800D01*
X54433600Y-55454800D02*
X51431600Y-55454800D01*
X59510600Y-55494800D02*
X56513600Y-55494800D01*
X54433600Y-55494800D02*
X51436600Y-55494800D01*
X59503600Y-55534800D02*
X56513600Y-55534800D01*
X54433600Y-55534800D02*
X51443600Y-55534800D01*
X59497600Y-55574800D02*
X56513600Y-55574800D01*
X54433600Y-55574800D02*
X51449600Y-55574800D01*
X59490600Y-55615800D02*
X56513600Y-55615800D01*
X54433600Y-55615800D02*
X51456600Y-55615800D01*
X59483600Y-55655800D02*
X56513600Y-55655800D01*
X54433600Y-55655800D02*
X51463600Y-55655800D01*
X59475600Y-55695800D02*
X56513600Y-55695800D01*
X54433600Y-55695800D02*
X51471600Y-55695800D01*
X59467600Y-55735800D02*
X56513600Y-55735800D01*
X54433600Y-55735800D02*
X51479600Y-55735800D01*
X59458600Y-55775800D02*
X56513600Y-55775800D01*
X54433600Y-55775800D02*
X51488600Y-55775800D01*
X59449600Y-55815800D02*
X56513600Y-55815800D01*
X54433600Y-55815800D02*
X51497600Y-55815800D01*
X59440600Y-55855800D02*
X56513600Y-55855800D01*
X54433600Y-55855800D02*
X51506600Y-55855800D01*
X59430600Y-55895800D02*
X56513600Y-55895800D01*
X54433600Y-55895800D02*
X51516600Y-55895800D01*
X59420600Y-55935800D02*
X56513600Y-55935800D01*
X54433600Y-55935800D02*
X51526600Y-55935800D01*
X59409600Y-55975800D02*
X56513600Y-55975800D01*
X54433600Y-55975800D02*
X51537600Y-55975800D01*
X59398600Y-56015800D02*
X56513600Y-56015800D01*
X54433600Y-56015800D02*
X51548600Y-56015800D01*
X59387600Y-56055800D02*
X56513600Y-56055800D01*
X54433600Y-56055800D02*
X51559600Y-56055800D01*
X59375600Y-56095800D02*
X56513600Y-56095800D01*
X54433600Y-56095800D02*
X51571600Y-56095800D01*
X59362600Y-56135800D02*
X56513600Y-56135800D01*
X54433600Y-56135800D02*
X51584600Y-56135800D01*
X59350600Y-56175800D02*
X56513600Y-56175800D01*
X54433600Y-56175800D02*
X51596600Y-56175800D01*
X59336600Y-56215800D02*
X56513600Y-56215800D01*
X54433600Y-56215800D02*
X51610600Y-56215800D01*
X59323600Y-56255800D02*
X56513600Y-56255800D01*
X54433600Y-56255800D02*
X51623600Y-56255800D01*
X59308600Y-56295800D02*
X56513600Y-56295800D01*
X54433600Y-56295800D02*
X51638600Y-56295800D01*
X59294600Y-56335800D02*
X56513600Y-56335800D01*
X54433600Y-56335800D02*
X51652600Y-56335800D01*
X59278600Y-56375800D02*
X56513600Y-56375800D01*
X54433600Y-56375800D02*
X51668600Y-56375800D01*
X59263600Y-56415800D02*
X56513600Y-56415800D01*
X54433600Y-56415800D02*
X51683600Y-56415800D01*
X59247600Y-56455800D02*
X56513600Y-56455800D01*
X54433600Y-56455800D02*
X51699600Y-56455800D01*
X59230600Y-56495800D02*
X56513600Y-56495800D01*
X54433600Y-56495800D02*
X51716600Y-56495800D01*
X59213600Y-56535800D02*
X56513600Y-56535800D01*
X54433600Y-56535800D02*
X51733600Y-56535800D01*
X59195600Y-56575800D02*
X56513600Y-56575800D01*
X54433600Y-56575800D02*
X51751600Y-56575800D01*
X59177600Y-56615800D02*
X56513600Y-56615800D01*
X54433600Y-56615800D02*
X51769600Y-56615800D01*
X59159600Y-56655800D02*
X56513600Y-56655800D01*
X54433600Y-56655800D02*
X51787600Y-56655800D01*
X59139600Y-56695800D02*
X56513600Y-56695800D01*
X54433600Y-56695800D02*
X51807600Y-56695800D01*
X59120600Y-56735800D02*
X56513600Y-56735800D01*
X54433600Y-56735800D02*
X51826600Y-56735800D01*
X59100600Y-56775800D02*
X56513600Y-56775800D01*
X54433600Y-56775800D02*
X51846600Y-56775800D01*
X59079600Y-56815800D02*
X56513600Y-56815800D01*
X54433600Y-56815800D02*
X51867600Y-56815800D01*
X59057600Y-56855800D02*
X56513600Y-56855800D01*
X54433600Y-56855800D02*
X51889600Y-56855800D01*
X59035600Y-56895800D02*
X56513600Y-56895800D01*
X54433600Y-56895800D02*
X51911600Y-56895800D01*
X59013600Y-56935800D02*
X56513600Y-56935800D01*
X54433600Y-56935800D02*
X51933600Y-56935800D01*
X58990600Y-56975800D02*
X56513600Y-56975800D01*
X54433600Y-56975800D02*
X51956600Y-56975800D01*
X58966600Y-57015800D02*
X56513600Y-57015800D01*
X54433600Y-57015800D02*
X51980600Y-57015800D01*
X58942600Y-57055800D02*
X56513600Y-57055800D01*
X54433600Y-57055800D02*
X52004600Y-57055800D01*
X58917600Y-57095800D02*
X56513600Y-57095800D01*
X54433600Y-57095800D02*
X52029600Y-57095800D01*
X58891600Y-57135800D02*
X56513600Y-57135800D01*
X54433600Y-57135800D02*
X52055600Y-57135800D01*
X58865600Y-57175800D02*
X56513600Y-57175800D01*
X54433600Y-57175800D02*
X52081600Y-57175800D01*
X58838600Y-57215800D02*
X52108600Y-57215800D01*
X58811600Y-57255800D02*
X52135600Y-57255800D01*
X58782600Y-57295800D02*
X52164600Y-57295800D01*
X58753600Y-57335800D02*
X52193600Y-57335800D01*
X58723600Y-57375800D02*
X52223600Y-57375800D01*
X58693600Y-57415800D02*
X52253600Y-57415800D01*
X58662600Y-57455800D02*
X52284600Y-57455800D01*
X58629600Y-57495800D02*
X52317600Y-57495800D01*
X58597600Y-57535800D02*
X52349600Y-57535800D01*
X58563600Y-57575800D02*
X52383600Y-57575800D01*
X58528600Y-57615800D02*
X52418600Y-57615800D01*
X58492600Y-57655800D02*
X52454600Y-57655800D01*
X58456600Y-57695800D02*
X52490600Y-57695800D01*
X58418600Y-57735800D02*
X52528600Y-57735800D01*
X58380600Y-57775800D02*
X52566600Y-57775800D01*
X58340600Y-57815800D02*
X52606600Y-57815800D01*
X58299600Y-57855800D02*
X52647600Y-57855800D01*
X58257600Y-57895800D02*
X52689600Y-57895800D01*
X58214600Y-57935800D02*
X52732600Y-57935800D01*
X58170600Y-57975800D02*
X52776600Y-57975800D01*
X58124600Y-58015800D02*
X52822600Y-58015800D01*
X58077600Y-58055800D02*
X52869600Y-58055800D01*
X58029600Y-58095800D02*
X52917600Y-58095800D01*
X57978600Y-58135800D02*
X52968600Y-58135800D01*
X57927600Y-58175800D02*
X53019600Y-58175800D01*
X57873600Y-58215800D02*
X53073600Y-58215800D01*
X57818600Y-58255800D02*
X53128600Y-58255800D01*
X57760600Y-58295800D02*
X53186600Y-58295800D01*
X57701600Y-58335800D02*
X53245600Y-58335800D01*
X57639600Y-58375800D02*
X53307600Y-58375800D01*
X57575600Y-58415800D02*
X53371600Y-58415800D01*
X57507600Y-58455800D02*
X53439600Y-58455800D01*
X57437600Y-58495800D02*
X53509600Y-58495800D01*
X57363600Y-58535800D02*
X53583600Y-58535800D01*
X57286600Y-58575800D02*
X53660600Y-58575800D01*
X57204600Y-58615800D02*
X53742600Y-58615800D01*
X57118600Y-58655800D02*
X53828600Y-58655800D01*
X57025600Y-58695800D02*
X53921600Y-58695800D01*
X56926600Y-58735800D02*
X54020600Y-58735800D01*
X56819600Y-58775800D02*
X54127600Y-58775800D01*
X56702600Y-58815800D02*
X54244600Y-58815800D01*
X56571600Y-58855800D02*
X54375600Y-58855800D01*
X56421600Y-58895800D02*
X54525600Y-58895800D01*
X56241600Y-58935800D02*
X54705600Y-58935800D01*
X56006600Y-58975800D02*
X54940600Y-58975800D01*
X57788600Y-50485102D02*
X57788600Y-51285102D01*
X58188600Y-50885102D02*
X57388600Y-50885102D01*
%TO.C,C1*%
X63943600Y-41464800D02*
G75*
G03*
X63943600Y-41464800I-2120000J0D01*
G01*
X62663600Y-41464800D02*
X63903600Y-41464800D01*
X59743600Y-41464800D02*
X60983600Y-41464800D01*
X62663600Y-41424800D02*
X63903600Y-41424800D01*
X59743600Y-41424800D02*
X60983600Y-41424800D01*
X62663600Y-41384800D02*
X63902600Y-41384800D01*
X59744600Y-41384800D02*
X60983600Y-41384800D01*
X59746600Y-41344800D02*
X60983600Y-41344800D01*
X62663600Y-41344800D02*
X63900600Y-41344800D01*
X59749600Y-41304800D02*
X60983600Y-41304800D01*
X62663600Y-41304800D02*
X63897600Y-41304800D01*
X59752600Y-41264800D02*
X60983600Y-41264800D01*
X62663600Y-41264800D02*
X63894600Y-41264800D01*
X59756600Y-41224800D02*
X60983600Y-41224800D01*
X62663600Y-41224800D02*
X63890600Y-41224800D01*
X59761600Y-41184800D02*
X60983600Y-41184800D01*
X62663600Y-41184800D02*
X63885600Y-41184800D01*
X59767600Y-41144800D02*
X60983600Y-41144800D01*
X62663600Y-41144800D02*
X63879600Y-41144800D01*
X59773600Y-41104800D02*
X60983600Y-41104800D01*
X62663600Y-41104800D02*
X63873600Y-41104800D01*
X59781600Y-41064800D02*
X60983600Y-41064800D01*
X62663600Y-41064800D02*
X63865600Y-41064800D01*
X59789600Y-41024800D02*
X60983600Y-41024800D01*
X62663600Y-41024800D02*
X63857600Y-41024800D01*
X59798600Y-40984800D02*
X60983600Y-40984800D01*
X62663600Y-40984800D02*
X63848600Y-40984800D01*
X59807600Y-40944800D02*
X60983600Y-40944800D01*
X62663600Y-40944800D02*
X63839600Y-40944800D01*
X59818600Y-40904800D02*
X60983600Y-40904800D01*
X62663600Y-40904800D02*
X63828600Y-40904800D01*
X59829600Y-40864800D02*
X60983600Y-40864800D01*
X62663600Y-40864800D02*
X63817600Y-40864800D01*
X59841600Y-40824800D02*
X60983600Y-40824800D01*
X62663600Y-40824800D02*
X63805600Y-40824800D01*
X59855600Y-40784800D02*
X60983600Y-40784800D01*
X62663600Y-40784800D02*
X63791600Y-40784800D01*
X59869600Y-40743800D02*
X60983600Y-40743800D01*
X62663600Y-40743800D02*
X63777600Y-40743800D01*
X59883600Y-40703800D02*
X60983600Y-40703800D01*
X62663600Y-40703800D02*
X63763600Y-40703800D01*
X59899600Y-40663800D02*
X60983600Y-40663800D01*
X62663600Y-40663800D02*
X63747600Y-40663800D01*
X59916600Y-40623800D02*
X60983600Y-40623800D01*
X62663600Y-40623800D02*
X63730600Y-40623800D01*
X59934600Y-40583800D02*
X60983600Y-40583800D01*
X62663600Y-40583800D02*
X63712600Y-40583800D01*
X59953600Y-40543800D02*
X60983600Y-40543800D01*
X62663600Y-40543800D02*
X63693600Y-40543800D01*
X59972600Y-40503800D02*
X60983600Y-40503800D01*
X62663600Y-40503800D02*
X63674600Y-40503800D01*
X59993600Y-40463800D02*
X60983600Y-40463800D01*
X62663600Y-40463800D02*
X63653600Y-40463800D01*
X60015600Y-40423800D02*
X60983600Y-40423800D01*
X62663600Y-40423800D02*
X63631600Y-40423800D01*
X60038600Y-40383800D02*
X60983600Y-40383800D01*
X62663600Y-40383800D02*
X63608600Y-40383800D01*
X60063600Y-40343800D02*
X60983600Y-40343800D01*
X62663600Y-40343800D02*
X63583600Y-40343800D01*
X60088600Y-40303800D02*
X60983600Y-40303800D01*
X62663600Y-40303800D02*
X63558600Y-40303800D01*
X60115600Y-40263800D02*
X60983600Y-40263800D01*
X62663600Y-40263800D02*
X63531600Y-40263800D01*
X60143600Y-40223800D02*
X60983600Y-40223800D01*
X62663600Y-40223800D02*
X63503600Y-40223800D01*
X60173600Y-40183800D02*
X60983600Y-40183800D01*
X62663600Y-40183800D02*
X63473600Y-40183800D01*
X60204600Y-40143800D02*
X60983600Y-40143800D01*
X62663600Y-40143800D02*
X63442600Y-40143800D01*
X60236600Y-40103800D02*
X60983600Y-40103800D01*
X62663600Y-40103800D02*
X63410600Y-40103800D01*
X60271600Y-40063800D02*
X60983600Y-40063800D01*
X62663600Y-40063800D02*
X63375600Y-40063800D01*
X60307600Y-40023800D02*
X60983600Y-40023800D01*
X62663600Y-40023800D02*
X63339600Y-40023800D01*
X60345600Y-39983800D02*
X60983600Y-39983800D01*
X62663600Y-39983800D02*
X63301600Y-39983800D01*
X60385600Y-39943800D02*
X60983600Y-39943800D01*
X62663600Y-39943800D02*
X63261600Y-39943800D01*
X60427600Y-39903800D02*
X60983600Y-39903800D01*
X62663600Y-39903800D02*
X63219600Y-39903800D01*
X60472600Y-39863800D02*
X63174600Y-39863800D01*
X60519600Y-39823800D02*
X63127600Y-39823800D01*
X60569600Y-39783800D02*
X63077600Y-39783800D01*
X60623600Y-39743800D02*
X63023600Y-39743800D01*
X60681600Y-39703800D02*
X62965600Y-39703800D01*
X60743600Y-39663800D02*
X62903600Y-39663800D01*
X60810600Y-39623800D02*
X62836600Y-39623800D01*
X60883600Y-39583800D02*
X62763600Y-39583800D01*
X60964600Y-39543800D02*
X62682600Y-39543800D01*
X61055600Y-39503800D02*
X62591600Y-39503800D01*
X61159600Y-39463800D02*
X62487600Y-39463800D01*
X61286600Y-39423800D02*
X62360600Y-39423800D01*
X61453600Y-39383800D02*
X62193600Y-39383800D01*
X60628600Y-43734601D02*
X60628600Y-43334601D01*
X60428600Y-43534601D02*
X60828600Y-43534601D01*
%TO.C,U2*%
X64313600Y-49274800D02*
X62498600Y-49274800D01*
X64313600Y-49034800D02*
X64313600Y-49274800D01*
X68173600Y-49034800D02*
X64313600Y-49034800D01*
X72033600Y-49034800D02*
X72033600Y-49274800D01*
X68173600Y-49034800D02*
X72033600Y-49034800D01*
X64313600Y-58254800D02*
X64313600Y-58014800D01*
X68173600Y-58254800D02*
X64313600Y-58254800D01*
X72033600Y-58254800D02*
X72033600Y-58014800D01*
X68173600Y-58254800D02*
X72033600Y-58254800D01*
%TO.C,R17*%
X40650936Y-81761000D02*
X41105064Y-81761000D01*
X40650936Y-80291000D02*
X41105064Y-80291000D01*
%TO.C,R16*%
X46048600Y-87517464D02*
X46048600Y-87063336D01*
X44578600Y-87517464D02*
X44578600Y-87063336D01*
%TO.C,R15*%
X54989400Y-87501464D02*
X54989400Y-87047336D01*
X53519400Y-87501464D02*
X53519400Y-87047336D01*
%TO.C,R14*%
X60561464Y-60529800D02*
X60107336Y-60529800D01*
X60561464Y-61999800D02*
X60107336Y-61999800D01*
%TO.C,R13*%
X73280600Y-67387736D02*
X73280600Y-67841864D01*
X74750600Y-67387736D02*
X74750600Y-67841864D01*
%TO.C,R11*%
X83589800Y-47623464D02*
X83589800Y-47169336D01*
X82119800Y-47623464D02*
X82119800Y-47169336D01*
%TO.C,R10*%
X90413064Y-51436600D02*
X89958936Y-51436600D01*
X90413064Y-52906600D02*
X89958936Y-52906600D01*
%TO.C,R9*%
X104655864Y-54738600D02*
X104201736Y-54738600D01*
X104655864Y-56208600D02*
X104201736Y-56208600D01*
%TO.C,R8*%
X90413064Y-54687800D02*
X89958936Y-54687800D01*
X90413064Y-56157800D02*
X89958936Y-56157800D01*
%TO.C,R7*%
X104671864Y-51385800D02*
X104217736Y-51385800D01*
X104671864Y-52855800D02*
X104217736Y-52855800D01*
%TO.C,R6*%
X90413064Y-58091400D02*
X89958936Y-58091400D01*
X90413064Y-59561400D02*
X89958936Y-59561400D01*
%TO.C,R3*%
X91870200Y-81507064D02*
X91870200Y-81052936D01*
X90400200Y-81507064D02*
X90400200Y-81052936D01*
%TO.C,R2*%
X95477000Y-81507064D02*
X95477000Y-81052936D01*
X94007000Y-81507064D02*
X94007000Y-81052936D01*
%TO.C,R1*%
X99134600Y-81541864D02*
X99134600Y-81087736D01*
X97664600Y-81541864D02*
X97664600Y-81087736D01*
%TO.C,C18*%
X66316048Y-61999800D02*
X66838552Y-61999800D01*
X66316048Y-60529800D02*
X66838552Y-60529800D01*
%TO.C,C14*%
X63695948Y-75715800D02*
X64218452Y-75715800D01*
X63695948Y-74245800D02*
X64218452Y-74245800D01*
%TO.C,C11*%
X97695652Y-51385800D02*
X97173148Y-51385800D01*
X97695652Y-52855800D02*
X97173148Y-52855800D01*
%TO.C,C9*%
X97717152Y-58091400D02*
X97194648Y-58091400D01*
X97717152Y-59561400D02*
X97194648Y-59561400D01*
%TO.C,C7*%
X97674152Y-54687800D02*
X97151648Y-54687800D01*
X97674152Y-56157800D02*
X97151648Y-56157800D01*
%TO.C,BT2*%
X45123600Y-83584800D02*
X45123600Y-79584800D01*
X53123600Y-83584800D02*
X45123600Y-83584800D01*
X53123600Y-79584800D02*
X53123600Y-83584800D01*
X45123600Y-79584798D02*
G75*
G02*
X53123599Y-79584799I4000000J9999998D01*
G01*
%TO.C,BT1*%
X45253600Y-47234800D02*
X46583600Y-47234800D01*
X45253600Y-48564800D02*
X45253600Y-47234800D01*
X45253600Y-49834800D02*
X47913600Y-49834800D01*
X47913600Y-49834800D02*
X47913600Y-52434800D01*
X45253600Y-49834800D02*
X45253600Y-52434800D01*
X45253600Y-52434800D02*
X47913600Y-52434800D01*
%TD*%
%TO.C,J5*%
D12*
X87786780Y-86337733D02*
X88501066Y-86337733D01*
X88643923Y-86385352D01*
X88739161Y-86480590D01*
X88786780Y-86623447D01*
X88786780Y-86718685D01*
X87786780Y-85385352D02*
X87786780Y-85861542D01*
X88262971Y-85909161D01*
X88215352Y-85861542D01*
X88167733Y-85766304D01*
X88167733Y-85528209D01*
X88215352Y-85432971D01*
X88262971Y-85385352D01*
X88358209Y-85337733D01*
X88596304Y-85337733D01*
X88691542Y-85385352D01*
X88739161Y-85432971D01*
X88786780Y-85528209D01*
X88786780Y-85766304D01*
X88739161Y-85861542D01*
X88691542Y-85909161D01*
%TO.C,J4*%
X102739866Y-81063980D02*
X102739866Y-81778266D01*
X102692247Y-81921123D01*
X102597009Y-82016361D01*
X102454152Y-82063980D01*
X102358914Y-82063980D01*
X103644628Y-81397314D02*
X103644628Y-82063980D01*
X103406533Y-81016361D02*
X103168438Y-81730647D01*
X103787485Y-81730647D01*
%TO.C,J1*%
X37958266Y-42845180D02*
X37958266Y-43559466D01*
X37910647Y-43702323D01*
X37815409Y-43797561D01*
X37672552Y-43845180D01*
X37577314Y-43845180D01*
X38958266Y-43845180D02*
X38386838Y-43845180D01*
X38672552Y-43845180D02*
X38672552Y-42845180D01*
X38577314Y-42988038D01*
X38482076Y-43083276D01*
X38386838Y-43130895D01*
%TO.C,SW4*%
X64457066Y-70972361D02*
X64599923Y-71019980D01*
X64838019Y-71019980D01*
X64933257Y-70972361D01*
X64980876Y-70924742D01*
X65028495Y-70829504D01*
X65028495Y-70734266D01*
X64980876Y-70639028D01*
X64933257Y-70591409D01*
X64838019Y-70543790D01*
X64647542Y-70496171D01*
X64552304Y-70448552D01*
X64504685Y-70400933D01*
X64457066Y-70305695D01*
X64457066Y-70210457D01*
X64504685Y-70115219D01*
X64552304Y-70067600D01*
X64647542Y-70019980D01*
X64885638Y-70019980D01*
X65028495Y-70067600D01*
X65361828Y-70019980D02*
X65599923Y-71019980D01*
X65790400Y-70305695D01*
X65980876Y-71019980D01*
X66218971Y-70019980D01*
X67028495Y-70353314D02*
X67028495Y-71019980D01*
X66790400Y-69972361D02*
X66552304Y-70686647D01*
X67171352Y-70686647D01*
%TO.C,SW3*%
X88949161Y-39534933D02*
X88996780Y-39392076D01*
X88996780Y-39153980D01*
X88949161Y-39058742D01*
X88901542Y-39011123D01*
X88806304Y-38963504D01*
X88711066Y-38963504D01*
X88615828Y-39011123D01*
X88568209Y-39058742D01*
X88520590Y-39153980D01*
X88472971Y-39344457D01*
X88425352Y-39439695D01*
X88377733Y-39487314D01*
X88282495Y-39534933D01*
X88187257Y-39534933D01*
X88092019Y-39487314D01*
X88044400Y-39439695D01*
X87996780Y-39344457D01*
X87996780Y-39106361D01*
X88044400Y-38963504D01*
X87996780Y-38630171D02*
X88996780Y-38392076D01*
X88282495Y-38201600D01*
X88996780Y-38011123D01*
X87996780Y-37773028D01*
X87996780Y-37487314D02*
X87996780Y-36868266D01*
X88377733Y-37201600D01*
X88377733Y-37058742D01*
X88425352Y-36963504D01*
X88472971Y-36915885D01*
X88568209Y-36868266D01*
X88806304Y-36868266D01*
X88901542Y-36915885D01*
X88949161Y-36963504D01*
X88996780Y-37058742D01*
X88996780Y-37344457D01*
X88949161Y-37439695D01*
X88901542Y-37487314D01*
%TO.C,SW2*%
X66281466Y-76452361D02*
X66424323Y-76499980D01*
X66662419Y-76499980D01*
X66757657Y-76452361D01*
X66805276Y-76404742D01*
X66852895Y-76309504D01*
X66852895Y-76214266D01*
X66805276Y-76119028D01*
X66757657Y-76071409D01*
X66662419Y-76023790D01*
X66471942Y-75976171D01*
X66376704Y-75928552D01*
X66329085Y-75880933D01*
X66281466Y-75785695D01*
X66281466Y-75690457D01*
X66329085Y-75595219D01*
X66376704Y-75547600D01*
X66471942Y-75499980D01*
X66710038Y-75499980D01*
X66852895Y-75547600D01*
X67186228Y-75499980D02*
X67424323Y-76499980D01*
X67614800Y-75785695D01*
X67805276Y-76499980D01*
X68043371Y-75499980D01*
X68376704Y-75595219D02*
X68424323Y-75547600D01*
X68519561Y-75499980D01*
X68757657Y-75499980D01*
X68852895Y-75547600D01*
X68900514Y-75595219D01*
X68948133Y-75690457D01*
X68948133Y-75785695D01*
X68900514Y-75928552D01*
X68329085Y-76499980D01*
X68948133Y-76499980D01*
%TO.C,SW1*%
X51608361Y-43348133D02*
X51655980Y-43205276D01*
X51655980Y-42967180D01*
X51608361Y-42871942D01*
X51560742Y-42824323D01*
X51465504Y-42776704D01*
X51370266Y-42776704D01*
X51275028Y-42824323D01*
X51227409Y-42871942D01*
X51179790Y-42967180D01*
X51132171Y-43157657D01*
X51084552Y-43252895D01*
X51036933Y-43300514D01*
X50941695Y-43348133D01*
X50846457Y-43348133D01*
X50751219Y-43300514D01*
X50703600Y-43252895D01*
X50655980Y-43157657D01*
X50655980Y-42919561D01*
X50703600Y-42776704D01*
X50655980Y-42443371D02*
X51655980Y-42205276D01*
X50941695Y-42014800D01*
X51655980Y-41824323D01*
X50655980Y-41586228D01*
X51655980Y-40681466D02*
X51655980Y-41252895D01*
X51655980Y-40967180D02*
X50655980Y-40967180D01*
X50798838Y-41062419D01*
X50894076Y-41157657D01*
X50941695Y-41252895D01*
%TO.C,R12*%
X84957180Y-54694057D02*
X84480990Y-55027390D01*
X84957180Y-55265485D02*
X83957180Y-55265485D01*
X83957180Y-54884533D01*
X84004800Y-54789295D01*
X84052419Y-54741676D01*
X84147657Y-54694057D01*
X84290514Y-54694057D01*
X84385752Y-54741676D01*
X84433371Y-54789295D01*
X84480990Y-54884533D01*
X84480990Y-55265485D01*
X84957180Y-53741676D02*
X84957180Y-54313104D01*
X84957180Y-54027390D02*
X83957180Y-54027390D01*
X84100038Y-54122628D01*
X84195276Y-54217866D01*
X84242895Y-54313104D01*
X84052419Y-53360723D02*
X84004800Y-53313104D01*
X83957180Y-53217866D01*
X83957180Y-52979771D01*
X84004800Y-52884533D01*
X84052419Y-52836914D01*
X84147657Y-52789295D01*
X84242895Y-52789295D01*
X84385752Y-52836914D01*
X84957180Y-53408342D01*
X84957180Y-52789295D01*
%TO.C,L1*%
X72956933Y-47227180D02*
X72480742Y-47227180D01*
X72480742Y-46227180D01*
X73814076Y-47227180D02*
X73242647Y-47227180D01*
X73528361Y-47227180D02*
X73528361Y-46227180D01*
X73433123Y-46370038D01*
X73337885Y-46465276D01*
X73242647Y-46512895D01*
%TO.C,J7*%
X98067466Y-38951980D02*
X98067466Y-39666266D01*
X98019847Y-39809123D01*
X97924609Y-39904361D01*
X97781752Y-39951980D01*
X97686514Y-39951980D01*
X98448419Y-38951980D02*
X99115085Y-38951980D01*
X98686514Y-39951980D01*
%TO.C,J6*%
X86269580Y-61902933D02*
X86983866Y-61902933D01*
X87126723Y-61950552D01*
X87221961Y-62045790D01*
X87269580Y-62188647D01*
X87269580Y-62283885D01*
X86269580Y-60998171D02*
X86269580Y-61188647D01*
X86317200Y-61283885D01*
X86364819Y-61331504D01*
X86507676Y-61426742D01*
X86698152Y-61474361D01*
X87079104Y-61474361D01*
X87174342Y-61426742D01*
X87221961Y-61379123D01*
X87269580Y-61283885D01*
X87269580Y-61093409D01*
X87221961Y-60998171D01*
X87174342Y-60950552D01*
X87079104Y-60902933D01*
X86841009Y-60902933D01*
X86745771Y-60950552D01*
X86698152Y-60998171D01*
X86650533Y-61093409D01*
X86650533Y-61283885D01*
X86698152Y-61379123D01*
X86745771Y-61426742D01*
X86841009Y-61474361D01*
%TO.C,J3*%
X70260780Y-86337733D02*
X70975066Y-86337733D01*
X71117923Y-86385352D01*
X71213161Y-86480590D01*
X71260780Y-86623447D01*
X71260780Y-86718685D01*
X70260780Y-85956780D02*
X70260780Y-85337733D01*
X70641733Y-85671066D01*
X70641733Y-85528209D01*
X70689352Y-85432971D01*
X70736971Y-85385352D01*
X70832209Y-85337733D01*
X71070304Y-85337733D01*
X71165542Y-85385352D01*
X71213161Y-85432971D01*
X71260780Y-85528209D01*
X71260780Y-85813923D01*
X71213161Y-85909161D01*
X71165542Y-85956780D01*
%TO.C,J2*%
X95067366Y-84598580D02*
X95067366Y-85312866D01*
X95019747Y-85455723D01*
X94924509Y-85550961D01*
X94781652Y-85598580D01*
X94686414Y-85598580D01*
X95495938Y-84693819D02*
X95543557Y-84646200D01*
X95638795Y-84598580D01*
X95876890Y-84598580D01*
X95972128Y-84646200D01*
X96019747Y-84693819D01*
X96067366Y-84789057D01*
X96067366Y-84884295D01*
X96019747Y-85027152D01*
X95448319Y-85598580D01*
X96067366Y-85598580D01*
%TO.C,D4*%
X38653980Y-87656895D02*
X37653980Y-87656895D01*
X37653980Y-87418800D01*
X37701600Y-87275942D01*
X37796838Y-87180704D01*
X37892076Y-87133085D01*
X38082552Y-87085466D01*
X38225409Y-87085466D01*
X38415885Y-87133085D01*
X38511123Y-87180704D01*
X38606361Y-87275942D01*
X38653980Y-87418800D01*
X38653980Y-87656895D01*
X37987314Y-86228323D02*
X38653980Y-86228323D01*
X37606361Y-86466419D02*
X38320647Y-86704514D01*
X38320647Y-86085466D01*
%TO.C,D3*%
X47645580Y-87504495D02*
X46645580Y-87504495D01*
X46645580Y-87266400D01*
X46693200Y-87123542D01*
X46788438Y-87028304D01*
X46883676Y-86980685D01*
X47074152Y-86933066D01*
X47217009Y-86933066D01*
X47407485Y-86980685D01*
X47502723Y-87028304D01*
X47597961Y-87123542D01*
X47645580Y-87266400D01*
X47645580Y-87504495D01*
X46645580Y-86599733D02*
X46645580Y-85980685D01*
X47026533Y-86314019D01*
X47026533Y-86171161D01*
X47074152Y-86075923D01*
X47121771Y-86028304D01*
X47217009Y-85980685D01*
X47455104Y-85980685D01*
X47550342Y-86028304D01*
X47597961Y-86075923D01*
X47645580Y-86171161D01*
X47645580Y-86456876D01*
X47597961Y-86552114D01*
X47550342Y-86599733D01*
%TO.C,D2*%
X56484780Y-87809295D02*
X55484780Y-87809295D01*
X55484780Y-87571200D01*
X55532400Y-87428342D01*
X55627638Y-87333104D01*
X55722876Y-87285485D01*
X55913352Y-87237866D01*
X56056209Y-87237866D01*
X56246685Y-87285485D01*
X56341923Y-87333104D01*
X56437161Y-87428342D01*
X56484780Y-87571200D01*
X56484780Y-87809295D01*
X55580019Y-86856914D02*
X55532400Y-86809295D01*
X55484780Y-86714057D01*
X55484780Y-86475961D01*
X55532400Y-86380723D01*
X55580019Y-86333104D01*
X55675257Y-86285485D01*
X55770495Y-86285485D01*
X55913352Y-86333104D01*
X56484780Y-86904533D01*
X56484780Y-86285485D01*
%TO.C,D1*%
X81285980Y-54382895D02*
X80285980Y-54382895D01*
X80285980Y-54144800D01*
X80333600Y-54001942D01*
X80428838Y-53906704D01*
X80524076Y-53859085D01*
X80714552Y-53811466D01*
X80857409Y-53811466D01*
X81047885Y-53859085D01*
X81143123Y-53906704D01*
X81238361Y-54001942D01*
X81285980Y-54144800D01*
X81285980Y-54382895D01*
X81285980Y-52859085D02*
X81285980Y-53430514D01*
X81285980Y-53144800D02*
X80285980Y-53144800D01*
X80428838Y-53240038D01*
X80524076Y-53335276D01*
X80571695Y-53430514D01*
%TO.C,C17*%
X85240342Y-48039257D02*
X85287961Y-48086876D01*
X85335580Y-48229733D01*
X85335580Y-48324971D01*
X85287961Y-48467828D01*
X85192723Y-48563066D01*
X85097485Y-48610685D01*
X84907009Y-48658304D01*
X84764152Y-48658304D01*
X84573676Y-48610685D01*
X84478438Y-48563066D01*
X84383200Y-48467828D01*
X84335580Y-48324971D01*
X84335580Y-48229733D01*
X84383200Y-48086876D01*
X84430819Y-48039257D01*
X85335580Y-47086876D02*
X85335580Y-47658304D01*
X85335580Y-47372590D02*
X84335580Y-47372590D01*
X84478438Y-47467828D01*
X84573676Y-47563066D01*
X84621295Y-47658304D01*
X84335580Y-46753542D02*
X84335580Y-46086876D01*
X85335580Y-46515447D01*
%TO.C,C2*%
X61080742Y-55061466D02*
X61128361Y-55109085D01*
X61175980Y-55251942D01*
X61175980Y-55347180D01*
X61128361Y-55490038D01*
X61033123Y-55585276D01*
X60937885Y-55632895D01*
X60747409Y-55680514D01*
X60604552Y-55680514D01*
X60414076Y-55632895D01*
X60318838Y-55585276D01*
X60223600Y-55490038D01*
X60175980Y-55347180D01*
X60175980Y-55251942D01*
X60223600Y-55109085D01*
X60271219Y-55061466D01*
X60271219Y-54680514D02*
X60223600Y-54632895D01*
X60175980Y-54537657D01*
X60175980Y-54299561D01*
X60223600Y-54204323D01*
X60271219Y-54156704D01*
X60366457Y-54109085D01*
X60461695Y-54109085D01*
X60604552Y-54156704D01*
X61175980Y-54728133D01*
X61175980Y-54109085D01*
%TO.C,C1*%
X58930742Y-41631466D02*
X58978361Y-41679085D01*
X59025980Y-41821942D01*
X59025980Y-41917180D01*
X58978361Y-42060038D01*
X58883123Y-42155276D01*
X58787885Y-42202895D01*
X58597409Y-42250514D01*
X58454552Y-42250514D01*
X58264076Y-42202895D01*
X58168838Y-42155276D01*
X58073600Y-42060038D01*
X58025980Y-41917180D01*
X58025980Y-41821942D01*
X58073600Y-41679085D01*
X58121219Y-41631466D01*
X59025980Y-40679085D02*
X59025980Y-41250514D01*
X59025980Y-40964800D02*
X58025980Y-40964800D01*
X58168838Y-41060038D01*
X58264076Y-41155276D01*
X58311695Y-41250514D01*
%TO.C,U2*%
X67411695Y-47647180D02*
X67411695Y-48456704D01*
X67459314Y-48551942D01*
X67506933Y-48599561D01*
X67602171Y-48647180D01*
X67792647Y-48647180D01*
X67887885Y-48599561D01*
X67935504Y-48551942D01*
X67983123Y-48456704D01*
X67983123Y-47647180D01*
X68411695Y-47742419D02*
X68459314Y-47694800D01*
X68554552Y-47647180D01*
X68792647Y-47647180D01*
X68887885Y-47694800D01*
X68935504Y-47742419D01*
X68983123Y-47837657D01*
X68983123Y-47932895D01*
X68935504Y-48075752D01*
X68364076Y-48647180D01*
X68983123Y-48647180D01*
%TO.C,R17*%
X40235142Y-79828380D02*
X39901809Y-79352190D01*
X39663714Y-79828380D02*
X39663714Y-78828380D01*
X40044666Y-78828380D01*
X40139904Y-78876000D01*
X40187523Y-78923619D01*
X40235142Y-79018857D01*
X40235142Y-79161714D01*
X40187523Y-79256952D01*
X40139904Y-79304571D01*
X40044666Y-79352190D01*
X39663714Y-79352190D01*
X41187523Y-79828380D02*
X40616095Y-79828380D01*
X40901809Y-79828380D02*
X40901809Y-78828380D01*
X40806571Y-78971238D01*
X40711333Y-79066476D01*
X40616095Y-79114095D01*
X41520857Y-78828380D02*
X42187523Y-78828380D01*
X41758952Y-79828380D01*
%TO.C,R16*%
X44115980Y-87933257D02*
X43639790Y-88266590D01*
X44115980Y-88504685D02*
X43115980Y-88504685D01*
X43115980Y-88123733D01*
X43163600Y-88028495D01*
X43211219Y-87980876D01*
X43306457Y-87933257D01*
X43449314Y-87933257D01*
X43544552Y-87980876D01*
X43592171Y-88028495D01*
X43639790Y-88123733D01*
X43639790Y-88504685D01*
X44115980Y-86980876D02*
X44115980Y-87552304D01*
X44115980Y-87266590D02*
X43115980Y-87266590D01*
X43258838Y-87361828D01*
X43354076Y-87457066D01*
X43401695Y-87552304D01*
X43115980Y-86123733D02*
X43115980Y-86314209D01*
X43163600Y-86409447D01*
X43211219Y-86457066D01*
X43354076Y-86552304D01*
X43544552Y-86599923D01*
X43925504Y-86599923D01*
X44020742Y-86552304D01*
X44068361Y-86504685D01*
X44115980Y-86409447D01*
X44115980Y-86218971D01*
X44068361Y-86123733D01*
X44020742Y-86076114D01*
X43925504Y-86028495D01*
X43687409Y-86028495D01*
X43592171Y-86076114D01*
X43544552Y-86123733D01*
X43496933Y-86218971D01*
X43496933Y-86409447D01*
X43544552Y-86504685D01*
X43592171Y-86552304D01*
X43687409Y-86599923D01*
%TO.C,R15*%
X53056780Y-87917257D02*
X52580590Y-88250590D01*
X53056780Y-88488685D02*
X52056780Y-88488685D01*
X52056780Y-88107733D01*
X52104400Y-88012495D01*
X52152019Y-87964876D01*
X52247257Y-87917257D01*
X52390114Y-87917257D01*
X52485352Y-87964876D01*
X52532971Y-88012495D01*
X52580590Y-88107733D01*
X52580590Y-88488685D01*
X53056780Y-86964876D02*
X53056780Y-87536304D01*
X53056780Y-87250590D02*
X52056780Y-87250590D01*
X52199638Y-87345828D01*
X52294876Y-87441066D01*
X52342495Y-87536304D01*
X52056780Y-86060114D02*
X52056780Y-86536304D01*
X52532971Y-86583923D01*
X52485352Y-86536304D01*
X52437733Y-86441066D01*
X52437733Y-86202971D01*
X52485352Y-86107733D01*
X52532971Y-86060114D01*
X52628209Y-86012495D01*
X52866304Y-86012495D01*
X52961542Y-86060114D01*
X53009161Y-86107733D01*
X53056780Y-86202971D01*
X53056780Y-86441066D01*
X53009161Y-86536304D01*
X52961542Y-86583923D01*
%TO.C,R14*%
X59691542Y-63367180D02*
X59358209Y-62890990D01*
X59120114Y-63367180D02*
X59120114Y-62367180D01*
X59501066Y-62367180D01*
X59596304Y-62414800D01*
X59643923Y-62462419D01*
X59691542Y-62557657D01*
X59691542Y-62700514D01*
X59643923Y-62795752D01*
X59596304Y-62843371D01*
X59501066Y-62890990D01*
X59120114Y-62890990D01*
X60643923Y-63367180D02*
X60072495Y-63367180D01*
X60358209Y-63367180D02*
X60358209Y-62367180D01*
X60262971Y-62510038D01*
X60167733Y-62605276D01*
X60072495Y-62652895D01*
X61501066Y-62700514D02*
X61501066Y-63367180D01*
X61262971Y-62319561D02*
X61024876Y-63033847D01*
X61643923Y-63033847D01*
%TO.C,R13*%
X76117980Y-68257657D02*
X75641790Y-68590990D01*
X76117980Y-68829085D02*
X75117980Y-68829085D01*
X75117980Y-68448133D01*
X75165600Y-68352895D01*
X75213219Y-68305276D01*
X75308457Y-68257657D01*
X75451314Y-68257657D01*
X75546552Y-68305276D01*
X75594171Y-68352895D01*
X75641790Y-68448133D01*
X75641790Y-68829085D01*
X76117980Y-67305276D02*
X76117980Y-67876704D01*
X76117980Y-67590990D02*
X75117980Y-67590990D01*
X75260838Y-67686228D01*
X75356076Y-67781466D01*
X75403695Y-67876704D01*
X75117980Y-66971942D02*
X75117980Y-66352895D01*
X75498933Y-66686228D01*
X75498933Y-66543371D01*
X75546552Y-66448133D01*
X75594171Y-66400514D01*
X75689409Y-66352895D01*
X75927504Y-66352895D01*
X76022742Y-66400514D01*
X76070361Y-66448133D01*
X76117980Y-66543371D01*
X76117980Y-66829085D01*
X76070361Y-66924323D01*
X76022742Y-66971942D01*
%TO.C,R11*%
X81657180Y-48039257D02*
X81180990Y-48372590D01*
X81657180Y-48610685D02*
X80657180Y-48610685D01*
X80657180Y-48229733D01*
X80704800Y-48134495D01*
X80752419Y-48086876D01*
X80847657Y-48039257D01*
X80990514Y-48039257D01*
X81085752Y-48086876D01*
X81133371Y-48134495D01*
X81180990Y-48229733D01*
X81180990Y-48610685D01*
X81657180Y-47086876D02*
X81657180Y-47658304D01*
X81657180Y-47372590D02*
X80657180Y-47372590D01*
X80800038Y-47467828D01*
X80895276Y-47563066D01*
X80942895Y-47658304D01*
X81657180Y-46134495D02*
X81657180Y-46705923D01*
X81657180Y-46420209D02*
X80657180Y-46420209D01*
X80800038Y-46515447D01*
X80895276Y-46610685D01*
X80942895Y-46705923D01*
%TO.C,R10*%
X89543142Y-54273980D02*
X89209809Y-53797790D01*
X88971714Y-54273980D02*
X88971714Y-53273980D01*
X89352666Y-53273980D01*
X89447904Y-53321600D01*
X89495523Y-53369219D01*
X89543142Y-53464457D01*
X89543142Y-53607314D01*
X89495523Y-53702552D01*
X89447904Y-53750171D01*
X89352666Y-53797790D01*
X88971714Y-53797790D01*
X90495523Y-54273980D02*
X89924095Y-54273980D01*
X90209809Y-54273980D02*
X90209809Y-53273980D01*
X90114571Y-53416838D01*
X90019333Y-53512076D01*
X89924095Y-53559695D01*
X91114571Y-53273980D02*
X91209809Y-53273980D01*
X91305047Y-53321600D01*
X91352666Y-53369219D01*
X91400285Y-53464457D01*
X91447904Y-53654933D01*
X91447904Y-53893028D01*
X91400285Y-54083504D01*
X91352666Y-54178742D01*
X91305047Y-54226361D01*
X91209809Y-54273980D01*
X91114571Y-54273980D01*
X91019333Y-54226361D01*
X90971714Y-54178742D01*
X90924095Y-54083504D01*
X90876476Y-53893028D01*
X90876476Y-53654933D01*
X90924095Y-53464457D01*
X90971714Y-53369219D01*
X91019333Y-53321600D01*
X91114571Y-53273980D01*
%TO.C,R9*%
X104262133Y-57575980D02*
X103928800Y-57099790D01*
X103690704Y-57575980D02*
X103690704Y-56575980D01*
X104071657Y-56575980D01*
X104166895Y-56623600D01*
X104214514Y-56671219D01*
X104262133Y-56766457D01*
X104262133Y-56909314D01*
X104214514Y-57004552D01*
X104166895Y-57052171D01*
X104071657Y-57099790D01*
X103690704Y-57099790D01*
X104738323Y-57575980D02*
X104928800Y-57575980D01*
X105024038Y-57528361D01*
X105071657Y-57480742D01*
X105166895Y-57337885D01*
X105214514Y-57147409D01*
X105214514Y-56766457D01*
X105166895Y-56671219D01*
X105119276Y-56623600D01*
X105024038Y-56575980D01*
X104833561Y-56575980D01*
X104738323Y-56623600D01*
X104690704Y-56671219D01*
X104643085Y-56766457D01*
X104643085Y-57004552D01*
X104690704Y-57099790D01*
X104738323Y-57147409D01*
X104833561Y-57195028D01*
X105024038Y-57195028D01*
X105119276Y-57147409D01*
X105166895Y-57099790D01*
X105214514Y-57004552D01*
%TO.C,R8*%
X90019333Y-57525180D02*
X89686000Y-57048990D01*
X89447904Y-57525180D02*
X89447904Y-56525180D01*
X89828857Y-56525180D01*
X89924095Y-56572800D01*
X89971714Y-56620419D01*
X90019333Y-56715657D01*
X90019333Y-56858514D01*
X89971714Y-56953752D01*
X89924095Y-57001371D01*
X89828857Y-57048990D01*
X89447904Y-57048990D01*
X90590761Y-56953752D02*
X90495523Y-56906133D01*
X90447904Y-56858514D01*
X90400285Y-56763276D01*
X90400285Y-56715657D01*
X90447904Y-56620419D01*
X90495523Y-56572800D01*
X90590761Y-56525180D01*
X90781238Y-56525180D01*
X90876476Y-56572800D01*
X90924095Y-56620419D01*
X90971714Y-56715657D01*
X90971714Y-56763276D01*
X90924095Y-56858514D01*
X90876476Y-56906133D01*
X90781238Y-56953752D01*
X90590761Y-56953752D01*
X90495523Y-57001371D01*
X90447904Y-57048990D01*
X90400285Y-57144228D01*
X90400285Y-57334704D01*
X90447904Y-57429942D01*
X90495523Y-57477561D01*
X90590761Y-57525180D01*
X90781238Y-57525180D01*
X90876476Y-57477561D01*
X90924095Y-57429942D01*
X90971714Y-57334704D01*
X90971714Y-57144228D01*
X90924095Y-57048990D01*
X90876476Y-57001371D01*
X90781238Y-56953752D01*
%TO.C,R7*%
X104278133Y-54223180D02*
X103944800Y-53746990D01*
X103706704Y-54223180D02*
X103706704Y-53223180D01*
X104087657Y-53223180D01*
X104182895Y-53270800D01*
X104230514Y-53318419D01*
X104278133Y-53413657D01*
X104278133Y-53556514D01*
X104230514Y-53651752D01*
X104182895Y-53699371D01*
X104087657Y-53746990D01*
X103706704Y-53746990D01*
X104611466Y-53223180D02*
X105278133Y-53223180D01*
X104849561Y-54223180D01*
%TO.C,R6*%
X90019333Y-60928780D02*
X89686000Y-60452590D01*
X89447904Y-60928780D02*
X89447904Y-59928780D01*
X89828857Y-59928780D01*
X89924095Y-59976400D01*
X89971714Y-60024019D01*
X90019333Y-60119257D01*
X90019333Y-60262114D01*
X89971714Y-60357352D01*
X89924095Y-60404971D01*
X89828857Y-60452590D01*
X89447904Y-60452590D01*
X90876476Y-59928780D02*
X90686000Y-59928780D01*
X90590761Y-59976400D01*
X90543142Y-60024019D01*
X90447904Y-60166876D01*
X90400285Y-60357352D01*
X90400285Y-60738304D01*
X90447904Y-60833542D01*
X90495523Y-60881161D01*
X90590761Y-60928780D01*
X90781238Y-60928780D01*
X90876476Y-60881161D01*
X90924095Y-60833542D01*
X90971714Y-60738304D01*
X90971714Y-60500209D01*
X90924095Y-60404971D01*
X90876476Y-60357352D01*
X90781238Y-60309733D01*
X90590761Y-60309733D01*
X90495523Y-60357352D01*
X90447904Y-60404971D01*
X90400285Y-60500209D01*
%TO.C,R3*%
X89937580Y-81446666D02*
X89461390Y-81780000D01*
X89937580Y-82018095D02*
X88937580Y-82018095D01*
X88937580Y-81637142D01*
X88985200Y-81541904D01*
X89032819Y-81494285D01*
X89128057Y-81446666D01*
X89270914Y-81446666D01*
X89366152Y-81494285D01*
X89413771Y-81541904D01*
X89461390Y-81637142D01*
X89461390Y-82018095D01*
X88937580Y-81113333D02*
X88937580Y-80494285D01*
X89318533Y-80827619D01*
X89318533Y-80684761D01*
X89366152Y-80589523D01*
X89413771Y-80541904D01*
X89509009Y-80494285D01*
X89747104Y-80494285D01*
X89842342Y-80541904D01*
X89889961Y-80589523D01*
X89937580Y-80684761D01*
X89937580Y-80970476D01*
X89889961Y-81065714D01*
X89842342Y-81113333D01*
%TO.C,R2*%
X93544380Y-81446666D02*
X93068190Y-81780000D01*
X93544380Y-82018095D02*
X92544380Y-82018095D01*
X92544380Y-81637142D01*
X92592000Y-81541904D01*
X92639619Y-81494285D01*
X92734857Y-81446666D01*
X92877714Y-81446666D01*
X92972952Y-81494285D01*
X93020571Y-81541904D01*
X93068190Y-81637142D01*
X93068190Y-82018095D01*
X92639619Y-81065714D02*
X92592000Y-81018095D01*
X92544380Y-80922857D01*
X92544380Y-80684761D01*
X92592000Y-80589523D01*
X92639619Y-80541904D01*
X92734857Y-80494285D01*
X92830095Y-80494285D01*
X92972952Y-80541904D01*
X93544380Y-81113333D01*
X93544380Y-80494285D01*
%TO.C,R1*%
X97201980Y-81481466D02*
X96725790Y-81814800D01*
X97201980Y-82052895D02*
X96201980Y-82052895D01*
X96201980Y-81671942D01*
X96249600Y-81576704D01*
X96297219Y-81529085D01*
X96392457Y-81481466D01*
X96535314Y-81481466D01*
X96630552Y-81529085D01*
X96678171Y-81576704D01*
X96725790Y-81671942D01*
X96725790Y-82052895D01*
X97201980Y-80529085D02*
X97201980Y-81100514D01*
X97201980Y-80814800D02*
X96201980Y-80814800D01*
X96344838Y-80910038D01*
X96440076Y-81005276D01*
X96487695Y-81100514D01*
%TO.C,C18*%
X65934442Y-59941942D02*
X65886823Y-59989561D01*
X65743966Y-60037180D01*
X65648728Y-60037180D01*
X65505871Y-59989561D01*
X65410633Y-59894323D01*
X65363014Y-59799085D01*
X65315395Y-59608609D01*
X65315395Y-59465752D01*
X65363014Y-59275276D01*
X65410633Y-59180038D01*
X65505871Y-59084800D01*
X65648728Y-59037180D01*
X65743966Y-59037180D01*
X65886823Y-59084800D01*
X65934442Y-59132419D01*
X66886823Y-60037180D02*
X66315395Y-60037180D01*
X66601109Y-60037180D02*
X66601109Y-59037180D01*
X66505871Y-59180038D01*
X66410633Y-59275276D01*
X66315395Y-59322895D01*
X67458252Y-59465752D02*
X67363014Y-59418133D01*
X67315395Y-59370514D01*
X67267776Y-59275276D01*
X67267776Y-59227657D01*
X67315395Y-59132419D01*
X67363014Y-59084800D01*
X67458252Y-59037180D01*
X67648728Y-59037180D01*
X67743966Y-59084800D01*
X67791585Y-59132419D01*
X67839204Y-59227657D01*
X67839204Y-59275276D01*
X67791585Y-59370514D01*
X67743966Y-59418133D01*
X67648728Y-59465752D01*
X67458252Y-59465752D01*
X67363014Y-59513371D01*
X67315395Y-59560990D01*
X67267776Y-59656228D01*
X67267776Y-59846704D01*
X67315395Y-59941942D01*
X67363014Y-59989561D01*
X67458252Y-60037180D01*
X67648728Y-60037180D01*
X67743966Y-59989561D01*
X67791585Y-59941942D01*
X67839204Y-59846704D01*
X67839204Y-59656228D01*
X67791585Y-59560990D01*
X67743966Y-59513371D01*
X67648728Y-59465752D01*
%TO.C,C14*%
X63314342Y-73657942D02*
X63266723Y-73705561D01*
X63123866Y-73753180D01*
X63028628Y-73753180D01*
X62885771Y-73705561D01*
X62790533Y-73610323D01*
X62742914Y-73515085D01*
X62695295Y-73324609D01*
X62695295Y-73181752D01*
X62742914Y-72991276D01*
X62790533Y-72896038D01*
X62885771Y-72800800D01*
X63028628Y-72753180D01*
X63123866Y-72753180D01*
X63266723Y-72800800D01*
X63314342Y-72848419D01*
X64266723Y-73753180D02*
X63695295Y-73753180D01*
X63981009Y-73753180D02*
X63981009Y-72753180D01*
X63885771Y-72896038D01*
X63790533Y-72991276D01*
X63695295Y-73038895D01*
X65123866Y-73086514D02*
X65123866Y-73753180D01*
X64885771Y-72705561D02*
X64647676Y-73419847D01*
X65266723Y-73419847D01*
%TO.C,C11*%
X96791542Y-54157942D02*
X96743923Y-54205561D01*
X96601066Y-54253180D01*
X96505828Y-54253180D01*
X96362971Y-54205561D01*
X96267733Y-54110323D01*
X96220114Y-54015085D01*
X96172495Y-53824609D01*
X96172495Y-53681752D01*
X96220114Y-53491276D01*
X96267733Y-53396038D01*
X96362971Y-53300800D01*
X96505828Y-53253180D01*
X96601066Y-53253180D01*
X96743923Y-53300800D01*
X96791542Y-53348419D01*
X97743923Y-54253180D02*
X97172495Y-54253180D01*
X97458209Y-54253180D02*
X97458209Y-53253180D01*
X97362971Y-53396038D01*
X97267733Y-53491276D01*
X97172495Y-53538895D01*
X98696304Y-54253180D02*
X98124876Y-54253180D01*
X98410590Y-54253180D02*
X98410590Y-53253180D01*
X98315352Y-53396038D01*
X98220114Y-53491276D01*
X98124876Y-53538895D01*
%TO.C,C9*%
X97289233Y-60863542D02*
X97241614Y-60911161D01*
X97098757Y-60958780D01*
X97003519Y-60958780D01*
X96860661Y-60911161D01*
X96765423Y-60815923D01*
X96717804Y-60720685D01*
X96670185Y-60530209D01*
X96670185Y-60387352D01*
X96717804Y-60196876D01*
X96765423Y-60101638D01*
X96860661Y-60006400D01*
X97003519Y-59958780D01*
X97098757Y-59958780D01*
X97241614Y-60006400D01*
X97289233Y-60054019D01*
X97765423Y-60958780D02*
X97955900Y-60958780D01*
X98051138Y-60911161D01*
X98098757Y-60863542D01*
X98193995Y-60720685D01*
X98241614Y-60530209D01*
X98241614Y-60149257D01*
X98193995Y-60054019D01*
X98146376Y-60006400D01*
X98051138Y-59958780D01*
X97860661Y-59958780D01*
X97765423Y-60006400D01*
X97717804Y-60054019D01*
X97670185Y-60149257D01*
X97670185Y-60387352D01*
X97717804Y-60482590D01*
X97765423Y-60530209D01*
X97860661Y-60577828D01*
X98051138Y-60577828D01*
X98146376Y-60530209D01*
X98193995Y-60482590D01*
X98241614Y-60387352D01*
%TO.C,C7*%
X97246233Y-57459942D02*
X97198614Y-57507561D01*
X97055757Y-57555180D01*
X96960519Y-57555180D01*
X96817661Y-57507561D01*
X96722423Y-57412323D01*
X96674804Y-57317085D01*
X96627185Y-57126609D01*
X96627185Y-56983752D01*
X96674804Y-56793276D01*
X96722423Y-56698038D01*
X96817661Y-56602800D01*
X96960519Y-56555180D01*
X97055757Y-56555180D01*
X97198614Y-56602800D01*
X97246233Y-56650419D01*
X97579566Y-56555180D02*
X98246233Y-56555180D01*
X97817661Y-57555180D01*
%TO.C,BT2*%
X57942171Y-72370514D02*
X57989790Y-72227657D01*
X58037409Y-72180038D01*
X58132647Y-72132419D01*
X58275504Y-72132419D01*
X58370742Y-72180038D01*
X58418361Y-72227657D01*
X58465980Y-72322895D01*
X58465980Y-72703847D01*
X57465980Y-72703847D01*
X57465980Y-72370514D01*
X57513600Y-72275276D01*
X57561219Y-72227657D01*
X57656457Y-72180038D01*
X57751695Y-72180038D01*
X57846933Y-72227657D01*
X57894552Y-72275276D01*
X57942171Y-72370514D01*
X57942171Y-72703847D01*
X57465980Y-71846704D02*
X57465980Y-71275276D01*
X58465980Y-71560990D02*
X57465980Y-71560990D01*
X57561219Y-70989561D02*
X57513600Y-70941942D01*
X57465980Y-70846704D01*
X57465980Y-70608609D01*
X57513600Y-70513371D01*
X57561219Y-70465752D01*
X57656457Y-70418133D01*
X57751695Y-70418133D01*
X57894552Y-70465752D01*
X58465980Y-71037180D01*
X58465980Y-70418133D01*
%TO.C,BT1*%
X45797885Y-46163371D02*
X45940742Y-46210990D01*
X45988361Y-46258609D01*
X46035980Y-46353847D01*
X46035980Y-46496704D01*
X45988361Y-46591942D01*
X45940742Y-46639561D01*
X45845504Y-46687180D01*
X45464552Y-46687180D01*
X45464552Y-45687180D01*
X45797885Y-45687180D01*
X45893123Y-45734800D01*
X45940742Y-45782419D01*
X45988361Y-45877657D01*
X45988361Y-45972895D01*
X45940742Y-46068133D01*
X45893123Y-46115752D01*
X45797885Y-46163371D01*
X45464552Y-46163371D01*
X46321695Y-45687180D02*
X46893123Y-45687180D01*
X46607409Y-46687180D02*
X46607409Y-45687180D01*
X47750266Y-46687180D02*
X47178838Y-46687180D01*
X47464552Y-46687180D02*
X47464552Y-45687180D01*
X47369314Y-45830038D01*
X47274076Y-45925276D01*
X47178838Y-45972895D01*
%TD*%
M02*
