%TF.GenerationSoftware,KiCad,Pcbnew,(5.1.6)-1*%
%TF.CreationDate,2020-11-04T18:23:40+01:00*%
%TF.ProjectId,rps_ki,7270735f-6b69-42e6-9b69-6361645f7063,rev?*%
%TF.SameCoordinates,Original*%
%TF.FileFunction,Copper,L2,Bot*%
%TF.FilePolarity,Positive*%
%FSLAX46Y46*%
G04 Gerber Fmt 4.6, Leading zero omitted, Abs format (unit mm)*
G04 Created by KiCad (PCBNEW (5.1.6)-1) date 2020-11-04 18:23:40*
%MOMM*%
%LPD*%
G01*
G04 APERTURE LIST*
%TA.AperFunction,Profile*%
%ADD10C,0.050000*%
%TD*%
%TA.AperFunction,ComponentPad*%
%ADD11O,1.700000X1.700000*%
%TD*%
%TA.AperFunction,ComponentPad*%
%ADD12R,1.700000X1.700000*%
%TD*%
%TA.AperFunction,ComponentPad*%
%ADD13C,1.700000*%
%TD*%
%TA.AperFunction,ComponentPad*%
%ADD14R,3.500000X3.500000*%
%TD*%
%TA.AperFunction,SMDPad,CuDef*%
%ADD15R,7.175000X4.100000*%
%TD*%
%TA.AperFunction,SMDPad,CuDef*%
%ADD16R,7.875000X2.000000*%
%TD*%
%TA.AperFunction,ComponentPad*%
%ADD17C,3.810000*%
%TD*%
%TA.AperFunction,ComponentPad*%
%ADD18C,1.000000*%
%TD*%
%TA.AperFunction,ComponentPad*%
%ADD19C,1.600000*%
%TD*%
%TA.AperFunction,ComponentPad*%
%ADD20R,1.600000X1.600000*%
%TD*%
%TA.AperFunction,ComponentPad*%
%ADD21C,1.200000*%
%TD*%
%TA.AperFunction,ComponentPad*%
%ADD22R,1.200000X1.200000*%
%TD*%
%TA.AperFunction,ComponentPad*%
%ADD23C,2.000000*%
%TD*%
%TA.AperFunction,ViaPad*%
%ADD24C,0.800000*%
%TD*%
%TA.AperFunction,ViaPad*%
%ADD25C,1.651000*%
%TD*%
%TA.AperFunction,Conductor*%
%ADD26C,0.203200*%
%TD*%
%TA.AperFunction,Conductor*%
%ADD27C,1.016000*%
%TD*%
%TA.AperFunction,Conductor*%
%ADD28C,0.406400*%
%TD*%
G04 APERTURE END LIST*
D10*
X109485600Y-91656800D02*
X35485600Y-91656800D01*
X109485600Y-91656800D02*
X109485600Y-91656800D01*
X35485600Y-30656800D02*
X109485600Y-30656800D01*
X109485600Y-30656800D02*
X109485600Y-91656800D01*
X35485600Y-91656800D02*
X35485600Y-30656800D01*
D11*
%TO.P,J5,6*%
%TO.N,/SWO*%
X73304400Y-86004400D03*
%TO.P,J5,5*%
%TO.N,/NRST*%
X75844400Y-86004400D03*
%TO.P,J5,4*%
%TO.N,/SWDIO*%
X78384400Y-86004400D03*
%TO.P,J5,3*%
%TO.N,GND*%
X80924400Y-86004400D03*
%TO.P,J5,2*%
%TO.N,/SWCLK*%
X83464400Y-86004400D03*
D12*
%TO.P,J5,1*%
%TO.N,+3V3*%
X86004400Y-86004400D03*
%TD*%
D13*
%TO.P,J4,5*%
%TO.N,GND*%
X101803200Y-78841600D03*
D12*
%TO.P,J4,1*%
%TO.N,/ESP_TX*%
X104343200Y-78841600D03*
D11*
%TO.P,J4,6*%
%TO.N,N/C*%
X101803200Y-76301600D03*
%TO.P,J4,2*%
%TO.N,/ESP_CH_PD*%
X104343200Y-76301600D03*
%TO.P,J4,7*%
%TO.N,N/C*%
X101803200Y-73761600D03*
%TO.P,J4,3*%
%TO.N,/ESP_NRST*%
X104343200Y-73761600D03*
%TO.P,J4,8*%
%TO.N,/ESP_RX*%
X101803200Y-71221600D03*
%TO.P,J4,4*%
%TO.N,+3V3*%
X104343200Y-71221600D03*
%TD*%
%TO.P,J1,3*%
%TO.N,GND*%
%TA.AperFunction,ComponentPad*%
G36*
G01*
X41991600Y-43217800D02*
X41991600Y-41467800D01*
G75*
G02*
X42866600Y-40592800I875000J0D01*
G01*
X44616600Y-40592800D01*
G75*
G02*
X45491600Y-41467800I0J-875000D01*
G01*
X45491600Y-43217800D01*
G75*
G02*
X44616600Y-44092800I-875000J0D01*
G01*
X42866600Y-44092800D01*
G75*
G02*
X41991600Y-43217800I0J875000D01*
G01*
G37*
%TD.AperFunction*%
%TO.P,J1,2*%
%TA.AperFunction,ComponentPad*%
G36*
G01*
X39241600Y-38642800D02*
X39241600Y-36642800D01*
G75*
G02*
X39991600Y-35892800I750000J0D01*
G01*
X41491600Y-35892800D01*
G75*
G02*
X42241600Y-36642800I0J-750000D01*
G01*
X42241600Y-38642800D01*
G75*
G02*
X41491600Y-39392800I-750000J0D01*
G01*
X39991600Y-39392800D01*
G75*
G02*
X39241600Y-38642800I0J750000D01*
G01*
G37*
%TD.AperFunction*%
D14*
%TO.P,J1,1*%
%TO.N,/5V_DC*%
X46741600Y-37642800D03*
%TD*%
D15*
%TO.P,Y2,2*%
%TO.N,/OSC_RTC_IN*%
X61823600Y-76504800D03*
%TO.P,Y2,1*%
%TO.N,/OSC_RTC_OUT*%
X50748600Y-76504800D03*
%TD*%
D16*
%TO.P,Y1,2*%
%TO.N,/OSC_IN*%
X61823600Y-70154800D03*
%TO.P,Y1,1*%
%TO.N,/OSC_OUT*%
X49948600Y-70154800D03*
%TD*%
D17*
%TO.P,SW1,2*%
%TO.N,/V_IN*%
X54203600Y-42214800D03*
%TO.P,SW1,3*%
%TO.N,/5V_DC*%
X54203600Y-37514800D03*
%TO.P,SW1,1*%
%TO.N,/BAT_AA*%
X54203600Y-46914800D03*
%TD*%
D18*
%TO.P,J7,2*%
%TO.N,N/C*%
X94300800Y-36399600D03*
X102700800Y-36399600D03*
%TD*%
D11*
%TO.P,J6,6*%
%TO.N,+3V3*%
X83947000Y-61569600D03*
%TO.P,J6,5*%
%TO.N,GND*%
X81407000Y-61569600D03*
%TO.P,J6,4*%
%TO.N,/SPI_MOSI*%
X78867000Y-61569600D03*
%TO.P,J6,3*%
%TO.N,/SPI_SCK*%
X76327000Y-61569600D03*
%TO.P,J6,2*%
%TO.N,/SPI_MISO*%
X73787000Y-61569600D03*
D12*
%TO.P,J6,1*%
%TO.N,/SPI_CS*%
X71247000Y-61569600D03*
%TD*%
D11*
%TO.P,J3,3*%
%TO.N,GND*%
X63398400Y-86004400D03*
%TO.P,J3,2*%
%TO.N,/BOOT0*%
X65938400Y-86004400D03*
D12*
%TO.P,J3,1*%
%TO.N,+3V3*%
X68478400Y-86004400D03*
%TD*%
D19*
%TO.P,C2,2*%
%TO.N,GND*%
X55473600Y-56144800D03*
D20*
%TO.P,C2,1*%
%TO.N,+3V3*%
X55473600Y-53644800D03*
%TD*%
D21*
%TO.P,C1,2*%
%TO.N,GND*%
X61823600Y-40714800D03*
D22*
%TO.P,C1,1*%
%TO.N,/V_IN*%
X61823600Y-42214800D03*
%TD*%
%TO.P,U1,64*%
%TO.N,+3V3*%
%TA.AperFunction,SMDPad,CuDef*%
G36*
G01*
X75703600Y-79069800D02*
X75703600Y-77669800D01*
G75*
G02*
X75778600Y-77594800I75000J0D01*
G01*
X75928600Y-77594800D01*
G75*
G02*
X76003600Y-77669800I0J-75000D01*
G01*
X76003600Y-79069800D01*
G75*
G02*
X75928600Y-79144800I-75000J0D01*
G01*
X75778600Y-79144800D01*
G75*
G02*
X75703600Y-79069800I0J75000D01*
G01*
G37*
%TD.AperFunction*%
%TO.P,U1,63*%
%TO.N,GND*%
%TA.AperFunction,SMDPad,CuDef*%
G36*
G01*
X76203600Y-79069800D02*
X76203600Y-77669800D01*
G75*
G02*
X76278600Y-77594800I75000J0D01*
G01*
X76428600Y-77594800D01*
G75*
G02*
X76503600Y-77669800I0J-75000D01*
G01*
X76503600Y-79069800D01*
G75*
G02*
X76428600Y-79144800I-75000J0D01*
G01*
X76278600Y-79144800D01*
G75*
G02*
X76203600Y-79069800I0J75000D01*
G01*
G37*
%TD.AperFunction*%
%TO.P,U1,62*%
%TO.N,N/C*%
%TA.AperFunction,SMDPad,CuDef*%
G36*
G01*
X76703600Y-79069800D02*
X76703600Y-77669800D01*
G75*
G02*
X76778600Y-77594800I75000J0D01*
G01*
X76928600Y-77594800D01*
G75*
G02*
X77003600Y-77669800I0J-75000D01*
G01*
X77003600Y-79069800D01*
G75*
G02*
X76928600Y-79144800I-75000J0D01*
G01*
X76778600Y-79144800D01*
G75*
G02*
X76703600Y-79069800I0J75000D01*
G01*
G37*
%TD.AperFunction*%
%TO.P,U1,61*%
%TA.AperFunction,SMDPad,CuDef*%
G36*
G01*
X77203600Y-79069800D02*
X77203600Y-77669800D01*
G75*
G02*
X77278600Y-77594800I75000J0D01*
G01*
X77428600Y-77594800D01*
G75*
G02*
X77503600Y-77669800I0J-75000D01*
G01*
X77503600Y-79069800D01*
G75*
G02*
X77428600Y-79144800I-75000J0D01*
G01*
X77278600Y-79144800D01*
G75*
G02*
X77203600Y-79069800I0J75000D01*
G01*
G37*
%TD.AperFunction*%
%TO.P,U1,60*%
%TO.N,/BOOT0*%
%TA.AperFunction,SMDPad,CuDef*%
G36*
G01*
X77703600Y-79069800D02*
X77703600Y-77669800D01*
G75*
G02*
X77778600Y-77594800I75000J0D01*
G01*
X77928600Y-77594800D01*
G75*
G02*
X78003600Y-77669800I0J-75000D01*
G01*
X78003600Y-79069800D01*
G75*
G02*
X77928600Y-79144800I-75000J0D01*
G01*
X77778600Y-79144800D01*
G75*
G02*
X77703600Y-79069800I0J75000D01*
G01*
G37*
%TD.AperFunction*%
%TO.P,U1,59*%
%TO.N,/Button1*%
%TA.AperFunction,SMDPad,CuDef*%
G36*
G01*
X78203600Y-79069800D02*
X78203600Y-77669800D01*
G75*
G02*
X78278600Y-77594800I75000J0D01*
G01*
X78428600Y-77594800D01*
G75*
G02*
X78503600Y-77669800I0J-75000D01*
G01*
X78503600Y-79069800D01*
G75*
G02*
X78428600Y-79144800I-75000J0D01*
G01*
X78278600Y-79144800D01*
G75*
G02*
X78203600Y-79069800I0J75000D01*
G01*
G37*
%TD.AperFunction*%
%TO.P,U1,58*%
%TO.N,/Button0*%
%TA.AperFunction,SMDPad,CuDef*%
G36*
G01*
X78703600Y-79069800D02*
X78703600Y-77669800D01*
G75*
G02*
X78778600Y-77594800I75000J0D01*
G01*
X78928600Y-77594800D01*
G75*
G02*
X79003600Y-77669800I0J-75000D01*
G01*
X79003600Y-79069800D01*
G75*
G02*
X78928600Y-79144800I-75000J0D01*
G01*
X78778600Y-79144800D01*
G75*
G02*
X78703600Y-79069800I0J75000D01*
G01*
G37*
%TD.AperFunction*%
%TO.P,U1,57*%
%TO.N,/SD_CD*%
%TA.AperFunction,SMDPad,CuDef*%
G36*
G01*
X79203600Y-79069800D02*
X79203600Y-77669800D01*
G75*
G02*
X79278600Y-77594800I75000J0D01*
G01*
X79428600Y-77594800D01*
G75*
G02*
X79503600Y-77669800I0J-75000D01*
G01*
X79503600Y-79069800D01*
G75*
G02*
X79428600Y-79144800I-75000J0D01*
G01*
X79278600Y-79144800D01*
G75*
G02*
X79203600Y-79069800I0J75000D01*
G01*
G37*
%TD.AperFunction*%
%TO.P,U1,56*%
%TO.N,N/C*%
%TA.AperFunction,SMDPad,CuDef*%
G36*
G01*
X79703600Y-79069800D02*
X79703600Y-77669800D01*
G75*
G02*
X79778600Y-77594800I75000J0D01*
G01*
X79928600Y-77594800D01*
G75*
G02*
X80003600Y-77669800I0J-75000D01*
G01*
X80003600Y-79069800D01*
G75*
G02*
X79928600Y-79144800I-75000J0D01*
G01*
X79778600Y-79144800D01*
G75*
G02*
X79703600Y-79069800I0J75000D01*
G01*
G37*
%TD.AperFunction*%
%TO.P,U1,55*%
%TO.N,/SWO*%
%TA.AperFunction,SMDPad,CuDef*%
G36*
G01*
X80203600Y-79069800D02*
X80203600Y-77669800D01*
G75*
G02*
X80278600Y-77594800I75000J0D01*
G01*
X80428600Y-77594800D01*
G75*
G02*
X80503600Y-77669800I0J-75000D01*
G01*
X80503600Y-79069800D01*
G75*
G02*
X80428600Y-79144800I-75000J0D01*
G01*
X80278600Y-79144800D01*
G75*
G02*
X80203600Y-79069800I0J75000D01*
G01*
G37*
%TD.AperFunction*%
%TO.P,U1,54*%
%TO.N,/SD_CMD*%
%TA.AperFunction,SMDPad,CuDef*%
G36*
G01*
X80703600Y-79069800D02*
X80703600Y-77669800D01*
G75*
G02*
X80778600Y-77594800I75000J0D01*
G01*
X80928600Y-77594800D01*
G75*
G02*
X81003600Y-77669800I0J-75000D01*
G01*
X81003600Y-79069800D01*
G75*
G02*
X80928600Y-79144800I-75000J0D01*
G01*
X80778600Y-79144800D01*
G75*
G02*
X80703600Y-79069800I0J75000D01*
G01*
G37*
%TD.AperFunction*%
%TO.P,U1,53*%
%TO.N,/SD_CLK*%
%TA.AperFunction,SMDPad,CuDef*%
G36*
G01*
X81203600Y-79069800D02*
X81203600Y-77669800D01*
G75*
G02*
X81278600Y-77594800I75000J0D01*
G01*
X81428600Y-77594800D01*
G75*
G02*
X81503600Y-77669800I0J-75000D01*
G01*
X81503600Y-79069800D01*
G75*
G02*
X81428600Y-79144800I-75000J0D01*
G01*
X81278600Y-79144800D01*
G75*
G02*
X81203600Y-79069800I0J75000D01*
G01*
G37*
%TD.AperFunction*%
%TO.P,U1,52*%
%TO.N,/SD_D3*%
%TA.AperFunction,SMDPad,CuDef*%
G36*
G01*
X81703600Y-79069800D02*
X81703600Y-77669800D01*
G75*
G02*
X81778600Y-77594800I75000J0D01*
G01*
X81928600Y-77594800D01*
G75*
G02*
X82003600Y-77669800I0J-75000D01*
G01*
X82003600Y-79069800D01*
G75*
G02*
X81928600Y-79144800I-75000J0D01*
G01*
X81778600Y-79144800D01*
G75*
G02*
X81703600Y-79069800I0J75000D01*
G01*
G37*
%TD.AperFunction*%
%TO.P,U1,51*%
%TO.N,/SD_D2*%
%TA.AperFunction,SMDPad,CuDef*%
G36*
G01*
X82203600Y-79069800D02*
X82203600Y-77669800D01*
G75*
G02*
X82278600Y-77594800I75000J0D01*
G01*
X82428600Y-77594800D01*
G75*
G02*
X82503600Y-77669800I0J-75000D01*
G01*
X82503600Y-79069800D01*
G75*
G02*
X82428600Y-79144800I-75000J0D01*
G01*
X82278600Y-79144800D01*
G75*
G02*
X82203600Y-79069800I0J75000D01*
G01*
G37*
%TD.AperFunction*%
%TO.P,U1,50*%
%TO.N,N/C*%
%TA.AperFunction,SMDPad,CuDef*%
G36*
G01*
X82703600Y-79069800D02*
X82703600Y-77669800D01*
G75*
G02*
X82778600Y-77594800I75000J0D01*
G01*
X82928600Y-77594800D01*
G75*
G02*
X83003600Y-77669800I0J-75000D01*
G01*
X83003600Y-79069800D01*
G75*
G02*
X82928600Y-79144800I-75000J0D01*
G01*
X82778600Y-79144800D01*
G75*
G02*
X82703600Y-79069800I0J75000D01*
G01*
G37*
%TD.AperFunction*%
%TO.P,U1,49*%
%TO.N,/SWCLK*%
%TA.AperFunction,SMDPad,CuDef*%
G36*
G01*
X83203600Y-79069800D02*
X83203600Y-77669800D01*
G75*
G02*
X83278600Y-77594800I75000J0D01*
G01*
X83428600Y-77594800D01*
G75*
G02*
X83503600Y-77669800I0J-75000D01*
G01*
X83503600Y-79069800D01*
G75*
G02*
X83428600Y-79144800I-75000J0D01*
G01*
X83278600Y-79144800D01*
G75*
G02*
X83203600Y-79069800I0J75000D01*
G01*
G37*
%TD.AperFunction*%
%TO.P,U1,48*%
%TO.N,+3V3*%
%TA.AperFunction,SMDPad,CuDef*%
G36*
G01*
X84503600Y-76519800D02*
X84503600Y-76369800D01*
G75*
G02*
X84578600Y-76294800I75000J0D01*
G01*
X85978600Y-76294800D01*
G75*
G02*
X86053600Y-76369800I0J-75000D01*
G01*
X86053600Y-76519800D01*
G75*
G02*
X85978600Y-76594800I-75000J0D01*
G01*
X84578600Y-76594800D01*
G75*
G02*
X84503600Y-76519800I0J75000D01*
G01*
G37*
%TD.AperFunction*%
%TO.P,U1,47*%
%TO.N,GND*%
%TA.AperFunction,SMDPad,CuDef*%
G36*
G01*
X84503600Y-76019800D02*
X84503600Y-75869800D01*
G75*
G02*
X84578600Y-75794800I75000J0D01*
G01*
X85978600Y-75794800D01*
G75*
G02*
X86053600Y-75869800I0J-75000D01*
G01*
X86053600Y-76019800D01*
G75*
G02*
X85978600Y-76094800I-75000J0D01*
G01*
X84578600Y-76094800D01*
G75*
G02*
X84503600Y-76019800I0J75000D01*
G01*
G37*
%TD.AperFunction*%
%TO.P,U1,46*%
%TO.N,/SWDIO*%
%TA.AperFunction,SMDPad,CuDef*%
G36*
G01*
X84503600Y-75519800D02*
X84503600Y-75369800D01*
G75*
G02*
X84578600Y-75294800I75000J0D01*
G01*
X85978600Y-75294800D01*
G75*
G02*
X86053600Y-75369800I0J-75000D01*
G01*
X86053600Y-75519800D01*
G75*
G02*
X85978600Y-75594800I-75000J0D01*
G01*
X84578600Y-75594800D01*
G75*
G02*
X84503600Y-75519800I0J75000D01*
G01*
G37*
%TD.AperFunction*%
%TO.P,U1,45*%
%TO.N,/USB_D+*%
%TA.AperFunction,SMDPad,CuDef*%
G36*
G01*
X84503600Y-75019800D02*
X84503600Y-74869800D01*
G75*
G02*
X84578600Y-74794800I75000J0D01*
G01*
X85978600Y-74794800D01*
G75*
G02*
X86053600Y-74869800I0J-75000D01*
G01*
X86053600Y-75019800D01*
G75*
G02*
X85978600Y-75094800I-75000J0D01*
G01*
X84578600Y-75094800D01*
G75*
G02*
X84503600Y-75019800I0J75000D01*
G01*
G37*
%TD.AperFunction*%
%TO.P,U1,44*%
%TO.N,/USB_D-*%
%TA.AperFunction,SMDPad,CuDef*%
G36*
G01*
X84503600Y-74519800D02*
X84503600Y-74369800D01*
G75*
G02*
X84578600Y-74294800I75000J0D01*
G01*
X85978600Y-74294800D01*
G75*
G02*
X86053600Y-74369800I0J-75000D01*
G01*
X86053600Y-74519800D01*
G75*
G02*
X85978600Y-74594800I-75000J0D01*
G01*
X84578600Y-74594800D01*
G75*
G02*
X84503600Y-74519800I0J75000D01*
G01*
G37*
%TD.AperFunction*%
%TO.P,U1,43*%
%TO.N,N/C*%
%TA.AperFunction,SMDPad,CuDef*%
G36*
G01*
X84503600Y-74019800D02*
X84503600Y-73869800D01*
G75*
G02*
X84578600Y-73794800I75000J0D01*
G01*
X85978600Y-73794800D01*
G75*
G02*
X86053600Y-73869800I0J-75000D01*
G01*
X86053600Y-74019800D01*
G75*
G02*
X85978600Y-74094800I-75000J0D01*
G01*
X84578600Y-74094800D01*
G75*
G02*
X84503600Y-74019800I0J75000D01*
G01*
G37*
%TD.AperFunction*%
%TO.P,U1,42*%
%TA.AperFunction,SMDPad,CuDef*%
G36*
G01*
X84503600Y-73519800D02*
X84503600Y-73369800D01*
G75*
G02*
X84578600Y-73294800I75000J0D01*
G01*
X85978600Y-73294800D01*
G75*
G02*
X86053600Y-73369800I0J-75000D01*
G01*
X86053600Y-73519800D01*
G75*
G02*
X85978600Y-73594800I-75000J0D01*
G01*
X84578600Y-73594800D01*
G75*
G02*
X84503600Y-73519800I0J75000D01*
G01*
G37*
%TD.AperFunction*%
%TO.P,U1,41*%
%TA.AperFunction,SMDPad,CuDef*%
G36*
G01*
X84503600Y-73019800D02*
X84503600Y-72869800D01*
G75*
G02*
X84578600Y-72794800I75000J0D01*
G01*
X85978600Y-72794800D01*
G75*
G02*
X86053600Y-72869800I0J-75000D01*
G01*
X86053600Y-73019800D01*
G75*
G02*
X85978600Y-73094800I-75000J0D01*
G01*
X84578600Y-73094800D01*
G75*
G02*
X84503600Y-73019800I0J75000D01*
G01*
G37*
%TD.AperFunction*%
%TO.P,U1,40*%
%TO.N,/SD_D1*%
%TA.AperFunction,SMDPad,CuDef*%
G36*
G01*
X84503600Y-72519800D02*
X84503600Y-72369800D01*
G75*
G02*
X84578600Y-72294800I75000J0D01*
G01*
X85978600Y-72294800D01*
G75*
G02*
X86053600Y-72369800I0J-75000D01*
G01*
X86053600Y-72519800D01*
G75*
G02*
X85978600Y-72594800I-75000J0D01*
G01*
X84578600Y-72594800D01*
G75*
G02*
X84503600Y-72519800I0J75000D01*
G01*
G37*
%TD.AperFunction*%
%TO.P,U1,39*%
%TO.N,/SD_D0*%
%TA.AperFunction,SMDPad,CuDef*%
G36*
G01*
X84503600Y-72019800D02*
X84503600Y-71869800D01*
G75*
G02*
X84578600Y-71794800I75000J0D01*
G01*
X85978600Y-71794800D01*
G75*
G02*
X86053600Y-71869800I0J-75000D01*
G01*
X86053600Y-72019800D01*
G75*
G02*
X85978600Y-72094800I-75000J0D01*
G01*
X84578600Y-72094800D01*
G75*
G02*
X84503600Y-72019800I0J75000D01*
G01*
G37*
%TD.AperFunction*%
%TO.P,U1,38*%
%TO.N,N/C*%
%TA.AperFunction,SMDPad,CuDef*%
G36*
G01*
X84503600Y-71519800D02*
X84503600Y-71369800D01*
G75*
G02*
X84578600Y-71294800I75000J0D01*
G01*
X85978600Y-71294800D01*
G75*
G02*
X86053600Y-71369800I0J-75000D01*
G01*
X86053600Y-71519800D01*
G75*
G02*
X85978600Y-71594800I-75000J0D01*
G01*
X84578600Y-71594800D01*
G75*
G02*
X84503600Y-71519800I0J75000D01*
G01*
G37*
%TD.AperFunction*%
%TO.P,U1,37*%
%TA.AperFunction,SMDPad,CuDef*%
G36*
G01*
X84503600Y-71019800D02*
X84503600Y-70869800D01*
G75*
G02*
X84578600Y-70794800I75000J0D01*
G01*
X85978600Y-70794800D01*
G75*
G02*
X86053600Y-70869800I0J-75000D01*
G01*
X86053600Y-71019800D01*
G75*
G02*
X85978600Y-71094800I-75000J0D01*
G01*
X84578600Y-71094800D01*
G75*
G02*
X84503600Y-71019800I0J75000D01*
G01*
G37*
%TD.AperFunction*%
%TO.P,U1,36*%
%TO.N,/ESP_CH_PD*%
%TA.AperFunction,SMDPad,CuDef*%
G36*
G01*
X84503600Y-70519800D02*
X84503600Y-70369800D01*
G75*
G02*
X84578600Y-70294800I75000J0D01*
G01*
X85978600Y-70294800D01*
G75*
G02*
X86053600Y-70369800I0J-75000D01*
G01*
X86053600Y-70519800D01*
G75*
G02*
X85978600Y-70594800I-75000J0D01*
G01*
X84578600Y-70594800D01*
G75*
G02*
X84503600Y-70519800I0J75000D01*
G01*
G37*
%TD.AperFunction*%
%TO.P,U1,35*%
%TO.N,N/C*%
%TA.AperFunction,SMDPad,CuDef*%
G36*
G01*
X84503600Y-70019800D02*
X84503600Y-69869800D01*
G75*
G02*
X84578600Y-69794800I75000J0D01*
G01*
X85978600Y-69794800D01*
G75*
G02*
X86053600Y-69869800I0J-75000D01*
G01*
X86053600Y-70019800D01*
G75*
G02*
X85978600Y-70094800I-75000J0D01*
G01*
X84578600Y-70094800D01*
G75*
G02*
X84503600Y-70019800I0J75000D01*
G01*
G37*
%TD.AperFunction*%
%TO.P,U1,34*%
%TA.AperFunction,SMDPad,CuDef*%
G36*
G01*
X84503600Y-69519800D02*
X84503600Y-69369800D01*
G75*
G02*
X84578600Y-69294800I75000J0D01*
G01*
X85978600Y-69294800D01*
G75*
G02*
X86053600Y-69369800I0J-75000D01*
G01*
X86053600Y-69519800D01*
G75*
G02*
X85978600Y-69594800I-75000J0D01*
G01*
X84578600Y-69594800D01*
G75*
G02*
X84503600Y-69519800I0J75000D01*
G01*
G37*
%TD.AperFunction*%
%TO.P,U1,33*%
%TA.AperFunction,SMDPad,CuDef*%
G36*
G01*
X84503600Y-69019800D02*
X84503600Y-68869800D01*
G75*
G02*
X84578600Y-68794800I75000J0D01*
G01*
X85978600Y-68794800D01*
G75*
G02*
X86053600Y-68869800I0J-75000D01*
G01*
X86053600Y-69019800D01*
G75*
G02*
X85978600Y-69094800I-75000J0D01*
G01*
X84578600Y-69094800D01*
G75*
G02*
X84503600Y-69019800I0J75000D01*
G01*
G37*
%TD.AperFunction*%
%TO.P,U1,32*%
%TO.N,+3V3*%
%TA.AperFunction,SMDPad,CuDef*%
G36*
G01*
X83203600Y-67719800D02*
X83203600Y-66319800D01*
G75*
G02*
X83278600Y-66244800I75000J0D01*
G01*
X83428600Y-66244800D01*
G75*
G02*
X83503600Y-66319800I0J-75000D01*
G01*
X83503600Y-67719800D01*
G75*
G02*
X83428600Y-67794800I-75000J0D01*
G01*
X83278600Y-67794800D01*
G75*
G02*
X83203600Y-67719800I0J75000D01*
G01*
G37*
%TD.AperFunction*%
%TO.P,U1,31*%
%TO.N,GND*%
%TA.AperFunction,SMDPad,CuDef*%
G36*
G01*
X82703600Y-67719800D02*
X82703600Y-66319800D01*
G75*
G02*
X82778600Y-66244800I75000J0D01*
G01*
X82928600Y-66244800D01*
G75*
G02*
X83003600Y-66319800I0J-75000D01*
G01*
X83003600Y-67719800D01*
G75*
G02*
X82928600Y-67794800I-75000J0D01*
G01*
X82778600Y-67794800D01*
G75*
G02*
X82703600Y-67719800I0J75000D01*
G01*
G37*
%TD.AperFunction*%
%TO.P,U1,30*%
%TO.N,/ESP_TX*%
%TA.AperFunction,SMDPad,CuDef*%
G36*
G01*
X82203600Y-67719800D02*
X82203600Y-66319800D01*
G75*
G02*
X82278600Y-66244800I75000J0D01*
G01*
X82428600Y-66244800D01*
G75*
G02*
X82503600Y-66319800I0J-75000D01*
G01*
X82503600Y-67719800D01*
G75*
G02*
X82428600Y-67794800I-75000J0D01*
G01*
X82278600Y-67794800D01*
G75*
G02*
X82203600Y-67719800I0J75000D01*
G01*
G37*
%TD.AperFunction*%
%TO.P,U1,29*%
%TO.N,/ESP_RX*%
%TA.AperFunction,SMDPad,CuDef*%
G36*
G01*
X81703600Y-67719800D02*
X81703600Y-66319800D01*
G75*
G02*
X81778600Y-66244800I75000J0D01*
G01*
X81928600Y-66244800D01*
G75*
G02*
X82003600Y-66319800I0J-75000D01*
G01*
X82003600Y-67719800D01*
G75*
G02*
X81928600Y-67794800I-75000J0D01*
G01*
X81778600Y-67794800D01*
G75*
G02*
X81703600Y-67719800I0J75000D01*
G01*
G37*
%TD.AperFunction*%
%TO.P,U1,28*%
%TO.N,N/C*%
%TA.AperFunction,SMDPad,CuDef*%
G36*
G01*
X81203600Y-67719800D02*
X81203600Y-66319800D01*
G75*
G02*
X81278600Y-66244800I75000J0D01*
G01*
X81428600Y-66244800D01*
G75*
G02*
X81503600Y-66319800I0J-75000D01*
G01*
X81503600Y-67719800D01*
G75*
G02*
X81428600Y-67794800I-75000J0D01*
G01*
X81278600Y-67794800D01*
G75*
G02*
X81203600Y-67719800I0J75000D01*
G01*
G37*
%TD.AperFunction*%
%TO.P,U1,27*%
%TO.N,/ESP_NRST*%
%TA.AperFunction,SMDPad,CuDef*%
G36*
G01*
X80703600Y-67719800D02*
X80703600Y-66319800D01*
G75*
G02*
X80778600Y-66244800I75000J0D01*
G01*
X80928600Y-66244800D01*
G75*
G02*
X81003600Y-66319800I0J-75000D01*
G01*
X81003600Y-67719800D01*
G75*
G02*
X80928600Y-67794800I-75000J0D01*
G01*
X80778600Y-67794800D01*
G75*
G02*
X80703600Y-67719800I0J75000D01*
G01*
G37*
%TD.AperFunction*%
%TO.P,U1,26*%
%TO.N,/SPI_CS*%
%TA.AperFunction,SMDPad,CuDef*%
G36*
G01*
X80203600Y-67719800D02*
X80203600Y-66319800D01*
G75*
G02*
X80278600Y-66244800I75000J0D01*
G01*
X80428600Y-66244800D01*
G75*
G02*
X80503600Y-66319800I0J-75000D01*
G01*
X80503600Y-67719800D01*
G75*
G02*
X80428600Y-67794800I-75000J0D01*
G01*
X80278600Y-67794800D01*
G75*
G02*
X80203600Y-67719800I0J75000D01*
G01*
G37*
%TD.AperFunction*%
%TO.P,U1,25*%
%TO.N,N/C*%
%TA.AperFunction,SMDPad,CuDef*%
G36*
G01*
X79703600Y-67719800D02*
X79703600Y-66319800D01*
G75*
G02*
X79778600Y-66244800I75000J0D01*
G01*
X79928600Y-66244800D01*
G75*
G02*
X80003600Y-66319800I0J-75000D01*
G01*
X80003600Y-67719800D01*
G75*
G02*
X79928600Y-67794800I-75000J0D01*
G01*
X79778600Y-67794800D01*
G75*
G02*
X79703600Y-67719800I0J75000D01*
G01*
G37*
%TD.AperFunction*%
%TO.P,U1,24*%
%TA.AperFunction,SMDPad,CuDef*%
G36*
G01*
X79203600Y-67719800D02*
X79203600Y-66319800D01*
G75*
G02*
X79278600Y-66244800I75000J0D01*
G01*
X79428600Y-66244800D01*
G75*
G02*
X79503600Y-66319800I0J-75000D01*
G01*
X79503600Y-67719800D01*
G75*
G02*
X79428600Y-67794800I-75000J0D01*
G01*
X79278600Y-67794800D01*
G75*
G02*
X79203600Y-67719800I0J75000D01*
G01*
G37*
%TD.AperFunction*%
%TO.P,U1,23*%
%TO.N,/SPI_MOSI*%
%TA.AperFunction,SMDPad,CuDef*%
G36*
G01*
X78703600Y-67719800D02*
X78703600Y-66319800D01*
G75*
G02*
X78778600Y-66244800I75000J0D01*
G01*
X78928600Y-66244800D01*
G75*
G02*
X79003600Y-66319800I0J-75000D01*
G01*
X79003600Y-67719800D01*
G75*
G02*
X78928600Y-67794800I-75000J0D01*
G01*
X78778600Y-67794800D01*
G75*
G02*
X78703600Y-67719800I0J75000D01*
G01*
G37*
%TD.AperFunction*%
%TO.P,U1,22*%
%TO.N,/SPI_MISO*%
%TA.AperFunction,SMDPad,CuDef*%
G36*
G01*
X78203600Y-67719800D02*
X78203600Y-66319800D01*
G75*
G02*
X78278600Y-66244800I75000J0D01*
G01*
X78428600Y-66244800D01*
G75*
G02*
X78503600Y-66319800I0J-75000D01*
G01*
X78503600Y-67719800D01*
G75*
G02*
X78428600Y-67794800I-75000J0D01*
G01*
X78278600Y-67794800D01*
G75*
G02*
X78203600Y-67719800I0J75000D01*
G01*
G37*
%TD.AperFunction*%
%TO.P,U1,21*%
%TO.N,/SPI_SCK*%
%TA.AperFunction,SMDPad,CuDef*%
G36*
G01*
X77703600Y-67719800D02*
X77703600Y-66319800D01*
G75*
G02*
X77778600Y-66244800I75000J0D01*
G01*
X77928600Y-66244800D01*
G75*
G02*
X78003600Y-66319800I0J-75000D01*
G01*
X78003600Y-67719800D01*
G75*
G02*
X77928600Y-67794800I-75000J0D01*
G01*
X77778600Y-67794800D01*
G75*
G02*
X77703600Y-67719800I0J75000D01*
G01*
G37*
%TD.AperFunction*%
%TO.P,U1,20*%
%TO.N,N/C*%
%TA.AperFunction,SMDPad,CuDef*%
G36*
G01*
X77203600Y-67719800D02*
X77203600Y-66319800D01*
G75*
G02*
X77278600Y-66244800I75000J0D01*
G01*
X77428600Y-66244800D01*
G75*
G02*
X77503600Y-66319800I0J-75000D01*
G01*
X77503600Y-67719800D01*
G75*
G02*
X77428600Y-67794800I-75000J0D01*
G01*
X77278600Y-67794800D01*
G75*
G02*
X77203600Y-67719800I0J75000D01*
G01*
G37*
%TD.AperFunction*%
%TO.P,U1,19*%
%TO.N,+3V3*%
%TA.AperFunction,SMDPad,CuDef*%
G36*
G01*
X76703600Y-67719800D02*
X76703600Y-66319800D01*
G75*
G02*
X76778600Y-66244800I75000J0D01*
G01*
X76928600Y-66244800D01*
G75*
G02*
X77003600Y-66319800I0J-75000D01*
G01*
X77003600Y-67719800D01*
G75*
G02*
X76928600Y-67794800I-75000J0D01*
G01*
X76778600Y-67794800D01*
G75*
G02*
X76703600Y-67719800I0J75000D01*
G01*
G37*
%TD.AperFunction*%
%TO.P,U1,18*%
%TO.N,GND*%
%TA.AperFunction,SMDPad,CuDef*%
G36*
G01*
X76203600Y-67719800D02*
X76203600Y-66319800D01*
G75*
G02*
X76278600Y-66244800I75000J0D01*
G01*
X76428600Y-66244800D01*
G75*
G02*
X76503600Y-66319800I0J-75000D01*
G01*
X76503600Y-67719800D01*
G75*
G02*
X76428600Y-67794800I-75000J0D01*
G01*
X76278600Y-67794800D01*
G75*
G02*
X76203600Y-67719800I0J75000D01*
G01*
G37*
%TD.AperFunction*%
%TO.P,U1,17*%
%TO.N,N/C*%
%TA.AperFunction,SMDPad,CuDef*%
G36*
G01*
X75703600Y-67719800D02*
X75703600Y-66319800D01*
G75*
G02*
X75778600Y-66244800I75000J0D01*
G01*
X75928600Y-66244800D01*
G75*
G02*
X76003600Y-66319800I0J-75000D01*
G01*
X76003600Y-67719800D01*
G75*
G02*
X75928600Y-67794800I-75000J0D01*
G01*
X75778600Y-67794800D01*
G75*
G02*
X75703600Y-67719800I0J75000D01*
G01*
G37*
%TD.AperFunction*%
%TO.P,U1,16*%
%TA.AperFunction,SMDPad,CuDef*%
G36*
G01*
X73153600Y-69019800D02*
X73153600Y-68869800D01*
G75*
G02*
X73228600Y-68794800I75000J0D01*
G01*
X74628600Y-68794800D01*
G75*
G02*
X74703600Y-68869800I0J-75000D01*
G01*
X74703600Y-69019800D01*
G75*
G02*
X74628600Y-69094800I-75000J0D01*
G01*
X73228600Y-69094800D01*
G75*
G02*
X73153600Y-69019800I0J75000D01*
G01*
G37*
%TD.AperFunction*%
%TO.P,U1,15*%
%TA.AperFunction,SMDPad,CuDef*%
G36*
G01*
X73153600Y-69519800D02*
X73153600Y-69369800D01*
G75*
G02*
X73228600Y-69294800I75000J0D01*
G01*
X74628600Y-69294800D01*
G75*
G02*
X74703600Y-69369800I0J-75000D01*
G01*
X74703600Y-69519800D01*
G75*
G02*
X74628600Y-69594800I-75000J0D01*
G01*
X73228600Y-69594800D01*
G75*
G02*
X73153600Y-69519800I0J75000D01*
G01*
G37*
%TD.AperFunction*%
%TO.P,U1,14*%
%TA.AperFunction,SMDPad,CuDef*%
G36*
G01*
X73153600Y-70019800D02*
X73153600Y-69869800D01*
G75*
G02*
X73228600Y-69794800I75000J0D01*
G01*
X74628600Y-69794800D01*
G75*
G02*
X74703600Y-69869800I0J-75000D01*
G01*
X74703600Y-70019800D01*
G75*
G02*
X74628600Y-70094800I-75000J0D01*
G01*
X73228600Y-70094800D01*
G75*
G02*
X73153600Y-70019800I0J75000D01*
G01*
G37*
%TD.AperFunction*%
%TO.P,U1,13*%
%TO.N,+3V3*%
%TA.AperFunction,SMDPad,CuDef*%
G36*
G01*
X73153600Y-70519800D02*
X73153600Y-70369800D01*
G75*
G02*
X73228600Y-70294800I75000J0D01*
G01*
X74628600Y-70294800D01*
G75*
G02*
X74703600Y-70369800I0J-75000D01*
G01*
X74703600Y-70519800D01*
G75*
G02*
X74628600Y-70594800I-75000J0D01*
G01*
X73228600Y-70594800D01*
G75*
G02*
X73153600Y-70519800I0J75000D01*
G01*
G37*
%TD.AperFunction*%
%TO.P,U1,12*%
%TO.N,GND*%
%TA.AperFunction,SMDPad,CuDef*%
G36*
G01*
X73153600Y-71019800D02*
X73153600Y-70869800D01*
G75*
G02*
X73228600Y-70794800I75000J0D01*
G01*
X74628600Y-70794800D01*
G75*
G02*
X74703600Y-70869800I0J-75000D01*
G01*
X74703600Y-71019800D01*
G75*
G02*
X74628600Y-71094800I-75000J0D01*
G01*
X73228600Y-71094800D01*
G75*
G02*
X73153600Y-71019800I0J75000D01*
G01*
G37*
%TD.AperFunction*%
%TO.P,U1,11*%
%TO.N,/LED2*%
%TA.AperFunction,SMDPad,CuDef*%
G36*
G01*
X73153600Y-71519800D02*
X73153600Y-71369800D01*
G75*
G02*
X73228600Y-71294800I75000J0D01*
G01*
X74628600Y-71294800D01*
G75*
G02*
X74703600Y-71369800I0J-75000D01*
G01*
X74703600Y-71519800D01*
G75*
G02*
X74628600Y-71594800I-75000J0D01*
G01*
X73228600Y-71594800D01*
G75*
G02*
X73153600Y-71519800I0J75000D01*
G01*
G37*
%TD.AperFunction*%
%TO.P,U1,10*%
%TO.N,/LED1*%
%TA.AperFunction,SMDPad,CuDef*%
G36*
G01*
X73153600Y-72019800D02*
X73153600Y-71869800D01*
G75*
G02*
X73228600Y-71794800I75000J0D01*
G01*
X74628600Y-71794800D01*
G75*
G02*
X74703600Y-71869800I0J-75000D01*
G01*
X74703600Y-72019800D01*
G75*
G02*
X74628600Y-72094800I-75000J0D01*
G01*
X73228600Y-72094800D01*
G75*
G02*
X73153600Y-72019800I0J75000D01*
G01*
G37*
%TD.AperFunction*%
%TO.P,U1,9*%
%TO.N,/LED0*%
%TA.AperFunction,SMDPad,CuDef*%
G36*
G01*
X73153600Y-72519800D02*
X73153600Y-72369800D01*
G75*
G02*
X73228600Y-72294800I75000J0D01*
G01*
X74628600Y-72294800D01*
G75*
G02*
X74703600Y-72369800I0J-75000D01*
G01*
X74703600Y-72519800D01*
G75*
G02*
X74628600Y-72594800I-75000J0D01*
G01*
X73228600Y-72594800D01*
G75*
G02*
X73153600Y-72519800I0J75000D01*
G01*
G37*
%TD.AperFunction*%
%TO.P,U1,8*%
%TO.N,N/C*%
%TA.AperFunction,SMDPad,CuDef*%
G36*
G01*
X73153600Y-73019800D02*
X73153600Y-72869800D01*
G75*
G02*
X73228600Y-72794800I75000J0D01*
G01*
X74628600Y-72794800D01*
G75*
G02*
X74703600Y-72869800I0J-75000D01*
G01*
X74703600Y-73019800D01*
G75*
G02*
X74628600Y-73094800I-75000J0D01*
G01*
X73228600Y-73094800D01*
G75*
G02*
X73153600Y-73019800I0J75000D01*
G01*
G37*
%TD.AperFunction*%
%TO.P,U1,7*%
%TO.N,/NRST*%
%TA.AperFunction,SMDPad,CuDef*%
G36*
G01*
X73153600Y-73519800D02*
X73153600Y-73369800D01*
G75*
G02*
X73228600Y-73294800I75000J0D01*
G01*
X74628600Y-73294800D01*
G75*
G02*
X74703600Y-73369800I0J-75000D01*
G01*
X74703600Y-73519800D01*
G75*
G02*
X74628600Y-73594800I-75000J0D01*
G01*
X73228600Y-73594800D01*
G75*
G02*
X73153600Y-73519800I0J75000D01*
G01*
G37*
%TD.AperFunction*%
%TO.P,U1,6*%
%TO.N,/OSC_OUT*%
%TA.AperFunction,SMDPad,CuDef*%
G36*
G01*
X73153600Y-74019800D02*
X73153600Y-73869800D01*
G75*
G02*
X73228600Y-73794800I75000J0D01*
G01*
X74628600Y-73794800D01*
G75*
G02*
X74703600Y-73869800I0J-75000D01*
G01*
X74703600Y-74019800D01*
G75*
G02*
X74628600Y-74094800I-75000J0D01*
G01*
X73228600Y-74094800D01*
G75*
G02*
X73153600Y-74019800I0J75000D01*
G01*
G37*
%TD.AperFunction*%
%TO.P,U1,5*%
%TO.N,/OSC_IN*%
%TA.AperFunction,SMDPad,CuDef*%
G36*
G01*
X73153600Y-74519800D02*
X73153600Y-74369800D01*
G75*
G02*
X73228600Y-74294800I75000J0D01*
G01*
X74628600Y-74294800D01*
G75*
G02*
X74703600Y-74369800I0J-75000D01*
G01*
X74703600Y-74519800D01*
G75*
G02*
X74628600Y-74594800I-75000J0D01*
G01*
X73228600Y-74594800D01*
G75*
G02*
X73153600Y-74519800I0J75000D01*
G01*
G37*
%TD.AperFunction*%
%TO.P,U1,4*%
%TO.N,/OSC_RTC_OUT*%
%TA.AperFunction,SMDPad,CuDef*%
G36*
G01*
X73153600Y-75019800D02*
X73153600Y-74869800D01*
G75*
G02*
X73228600Y-74794800I75000J0D01*
G01*
X74628600Y-74794800D01*
G75*
G02*
X74703600Y-74869800I0J-75000D01*
G01*
X74703600Y-75019800D01*
G75*
G02*
X74628600Y-75094800I-75000J0D01*
G01*
X73228600Y-75094800D01*
G75*
G02*
X73153600Y-75019800I0J75000D01*
G01*
G37*
%TD.AperFunction*%
%TO.P,U1,3*%
%TO.N,/OSC_RTC_IN*%
%TA.AperFunction,SMDPad,CuDef*%
G36*
G01*
X73153600Y-75519800D02*
X73153600Y-75369800D01*
G75*
G02*
X73228600Y-75294800I75000J0D01*
G01*
X74628600Y-75294800D01*
G75*
G02*
X74703600Y-75369800I0J-75000D01*
G01*
X74703600Y-75519800D01*
G75*
G02*
X74628600Y-75594800I-75000J0D01*
G01*
X73228600Y-75594800D01*
G75*
G02*
X73153600Y-75519800I0J75000D01*
G01*
G37*
%TD.AperFunction*%
%TO.P,U1,2*%
%TO.N,N/C*%
%TA.AperFunction,SMDPad,CuDef*%
G36*
G01*
X73153600Y-76019800D02*
X73153600Y-75869800D01*
G75*
G02*
X73228600Y-75794800I75000J0D01*
G01*
X74628600Y-75794800D01*
G75*
G02*
X74703600Y-75869800I0J-75000D01*
G01*
X74703600Y-76019800D01*
G75*
G02*
X74628600Y-76094800I-75000J0D01*
G01*
X73228600Y-76094800D01*
G75*
G02*
X73153600Y-76019800I0J75000D01*
G01*
G37*
%TD.AperFunction*%
%TO.P,U1,1*%
%TO.N,/BAT_RTC*%
%TA.AperFunction,SMDPad,CuDef*%
G36*
G01*
X73153600Y-76519800D02*
X73153600Y-76369800D01*
G75*
G02*
X73228600Y-76294800I75000J0D01*
G01*
X74628600Y-76294800D01*
G75*
G02*
X74703600Y-76369800I0J-75000D01*
G01*
X74703600Y-76519800D01*
G75*
G02*
X74628600Y-76594800I-75000J0D01*
G01*
X73228600Y-76594800D01*
G75*
G02*
X73153600Y-76519800I0J75000D01*
G01*
G37*
%TD.AperFunction*%
%TD*%
%TO.P,R5,2*%
%TO.N,+3V3*%
%TA.AperFunction,SMDPad,CuDef*%
G36*
G01*
X97884401Y-70278800D02*
X96984399Y-70278800D01*
G75*
G02*
X96734400Y-70028801I0J249999D01*
G01*
X96734400Y-69328799D01*
G75*
G02*
X96984399Y-69078800I249999J0D01*
G01*
X97884401Y-69078800D01*
G75*
G02*
X98134400Y-69328799I0J-249999D01*
G01*
X98134400Y-70028801D01*
G75*
G02*
X97884401Y-70278800I-249999J0D01*
G01*
G37*
%TD.AperFunction*%
%TO.P,R5,1*%
%TO.N,/ESP_NRST*%
%TA.AperFunction,SMDPad,CuDef*%
G36*
G01*
X97884401Y-72278800D02*
X96984399Y-72278800D01*
G75*
G02*
X96734400Y-72028801I0J249999D01*
G01*
X96734400Y-71328799D01*
G75*
G02*
X96984399Y-71078800I249999J0D01*
G01*
X97884401Y-71078800D01*
G75*
G02*
X98134400Y-71328799I0J-249999D01*
G01*
X98134400Y-72028801D01*
G75*
G02*
X97884401Y-72278800I-249999J0D01*
G01*
G37*
%TD.AperFunction*%
%TD*%
%TO.P,R4,2*%
%TO.N,/ESP_CH_PD*%
%TA.AperFunction,SMDPad,CuDef*%
G36*
G01*
X97884401Y-75358800D02*
X96984399Y-75358800D01*
G75*
G02*
X96734400Y-75108801I0J249999D01*
G01*
X96734400Y-74408799D01*
G75*
G02*
X96984399Y-74158800I249999J0D01*
G01*
X97884401Y-74158800D01*
G75*
G02*
X98134400Y-74408799I0J-249999D01*
G01*
X98134400Y-75108801D01*
G75*
G02*
X97884401Y-75358800I-249999J0D01*
G01*
G37*
%TD.AperFunction*%
%TO.P,R4,1*%
%TO.N,GND*%
%TA.AperFunction,SMDPad,CuDef*%
G36*
G01*
X97884401Y-77358800D02*
X96984399Y-77358800D01*
G75*
G02*
X96734400Y-77108801I0J249999D01*
G01*
X96734400Y-76408799D01*
G75*
G02*
X96984399Y-76158800I249999J0D01*
G01*
X97884401Y-76158800D01*
G75*
G02*
X98134400Y-76408799I0J-249999D01*
G01*
X98134400Y-77108801D01*
G75*
G02*
X97884401Y-77358800I-249999J0D01*
G01*
G37*
%TD.AperFunction*%
%TD*%
%TO.P,C16,2*%
%TO.N,GND*%
%TA.AperFunction,SMDPad,CuDef*%
G36*
G01*
X41946500Y-76080600D02*
X41946500Y-77030600D01*
G75*
G02*
X41696500Y-77280600I-250000J0D01*
G01*
X41021500Y-77280600D01*
G75*
G02*
X40771500Y-77030600I0J250000D01*
G01*
X40771500Y-76080600D01*
G75*
G02*
X41021500Y-75830600I250000J0D01*
G01*
X41696500Y-75830600D01*
G75*
G02*
X41946500Y-76080600I0J-250000D01*
G01*
G37*
%TD.AperFunction*%
%TO.P,C16,1*%
%TO.N,/OSC_RTC_OUT*%
%TA.AperFunction,SMDPad,CuDef*%
G36*
G01*
X44021500Y-76080600D02*
X44021500Y-77030600D01*
G75*
G02*
X43771500Y-77280600I-250000J0D01*
G01*
X43096500Y-77280600D01*
G75*
G02*
X42846500Y-77030600I0J250000D01*
G01*
X42846500Y-76080600D01*
G75*
G02*
X43096500Y-75830600I250000J0D01*
G01*
X43771500Y-75830600D01*
G75*
G02*
X44021500Y-76080600I0J-250000D01*
G01*
G37*
%TD.AperFunction*%
%TD*%
%TO.P,C15,2*%
%TO.N,GND*%
%TA.AperFunction,SMDPad,CuDef*%
G36*
G01*
X60285300Y-80855800D02*
X60285300Y-81805800D01*
G75*
G02*
X60035300Y-82055800I-250000J0D01*
G01*
X59360300Y-82055800D01*
G75*
G02*
X59110300Y-81805800I0J250000D01*
G01*
X59110300Y-80855800D01*
G75*
G02*
X59360300Y-80605800I250000J0D01*
G01*
X60035300Y-80605800D01*
G75*
G02*
X60285300Y-80855800I0J-250000D01*
G01*
G37*
%TD.AperFunction*%
%TO.P,C15,1*%
%TO.N,/OSC_RTC_IN*%
%TA.AperFunction,SMDPad,CuDef*%
G36*
G01*
X62360300Y-80855800D02*
X62360300Y-81805800D01*
G75*
G02*
X62110300Y-82055800I-250000J0D01*
G01*
X61435300Y-82055800D01*
G75*
G02*
X61185300Y-81805800I0J250000D01*
G01*
X61185300Y-80855800D01*
G75*
G02*
X61435300Y-80605800I250000J0D01*
G01*
X62110300Y-80605800D01*
G75*
G02*
X62360300Y-80855800I0J-250000D01*
G01*
G37*
%TD.AperFunction*%
%TD*%
%TO.P,C13,2*%
%TO.N,GND*%
%TA.AperFunction,SMDPad,CuDef*%
G36*
G01*
X41968000Y-69679800D02*
X41968000Y-70629800D01*
G75*
G02*
X41718000Y-70879800I-250000J0D01*
G01*
X41043000Y-70879800D01*
G75*
G02*
X40793000Y-70629800I0J250000D01*
G01*
X40793000Y-69679800D01*
G75*
G02*
X41043000Y-69429800I250000J0D01*
G01*
X41718000Y-69429800D01*
G75*
G02*
X41968000Y-69679800I0J-250000D01*
G01*
G37*
%TD.AperFunction*%
%TO.P,C13,1*%
%TO.N,/OSC_OUT*%
%TA.AperFunction,SMDPad,CuDef*%
G36*
G01*
X44043000Y-69679800D02*
X44043000Y-70629800D01*
G75*
G02*
X43793000Y-70879800I-250000J0D01*
G01*
X43118000Y-70879800D01*
G75*
G02*
X42868000Y-70629800I0J250000D01*
G01*
X42868000Y-69679800D01*
G75*
G02*
X43118000Y-69429800I250000J0D01*
G01*
X43793000Y-69429800D01*
G75*
G02*
X44043000Y-69679800I0J-250000D01*
G01*
G37*
%TD.AperFunction*%
%TD*%
%TO.P,C12,2*%
%TO.N,GND*%
%TA.AperFunction,SMDPad,CuDef*%
G36*
G01*
X64741300Y-65651400D02*
X64741300Y-64701400D01*
G75*
G02*
X64991300Y-64451400I250000J0D01*
G01*
X65666300Y-64451400D01*
G75*
G02*
X65916300Y-64701400I0J-250000D01*
G01*
X65916300Y-65651400D01*
G75*
G02*
X65666300Y-65901400I-250000J0D01*
G01*
X64991300Y-65901400D01*
G75*
G02*
X64741300Y-65651400I0J250000D01*
G01*
G37*
%TD.AperFunction*%
%TO.P,C12,1*%
%TO.N,/OSC_IN*%
%TA.AperFunction,SMDPad,CuDef*%
G36*
G01*
X62666300Y-65651400D02*
X62666300Y-64701400D01*
G75*
G02*
X62916300Y-64451400I250000J0D01*
G01*
X63591300Y-64451400D01*
G75*
G02*
X63841300Y-64701400I0J-250000D01*
G01*
X63841300Y-65651400D01*
G75*
G02*
X63591300Y-65901400I-250000J0D01*
G01*
X62916300Y-65901400D01*
G75*
G02*
X62666300Y-65651400I0J250000D01*
G01*
G37*
%TD.AperFunction*%
%TD*%
%TO.P,C10,2*%
%TO.N,GND*%
%TA.AperFunction,SMDPad,CuDef*%
G36*
G01*
X69581700Y-64752200D02*
X69581700Y-65702200D01*
G75*
G02*
X69331700Y-65952200I-250000J0D01*
G01*
X68656700Y-65952200D01*
G75*
G02*
X68406700Y-65702200I0J250000D01*
G01*
X68406700Y-64752200D01*
G75*
G02*
X68656700Y-64502200I250000J0D01*
G01*
X69331700Y-64502200D01*
G75*
G02*
X69581700Y-64752200I0J-250000D01*
G01*
G37*
%TD.AperFunction*%
%TO.P,C10,1*%
%TO.N,+3V3*%
%TA.AperFunction,SMDPad,CuDef*%
G36*
G01*
X71656700Y-64752200D02*
X71656700Y-65702200D01*
G75*
G02*
X71406700Y-65952200I-250000J0D01*
G01*
X70731700Y-65952200D01*
G75*
G02*
X70481700Y-65702200I0J250000D01*
G01*
X70481700Y-64752200D01*
G75*
G02*
X70731700Y-64502200I250000J0D01*
G01*
X71406700Y-64502200D01*
G75*
G02*
X71656700Y-64752200I0J-250000D01*
G01*
G37*
%TD.AperFunction*%
%TD*%
%TO.P,C8,2*%
%TO.N,GND*%
%TA.AperFunction,SMDPad,CuDef*%
G36*
G01*
X71356200Y-81222000D02*
X72306200Y-81222000D01*
G75*
G02*
X72556200Y-81472000I0J-250000D01*
G01*
X72556200Y-82147000D01*
G75*
G02*
X72306200Y-82397000I-250000J0D01*
G01*
X71356200Y-82397000D01*
G75*
G02*
X71106200Y-82147000I0J250000D01*
G01*
X71106200Y-81472000D01*
G75*
G02*
X71356200Y-81222000I250000J0D01*
G01*
G37*
%TD.AperFunction*%
%TO.P,C8,1*%
%TO.N,+3V3*%
%TA.AperFunction,SMDPad,CuDef*%
G36*
G01*
X71356200Y-79147000D02*
X72306200Y-79147000D01*
G75*
G02*
X72556200Y-79397000I0J-250000D01*
G01*
X72556200Y-80072000D01*
G75*
G02*
X72306200Y-80322000I-250000J0D01*
G01*
X71356200Y-80322000D01*
G75*
G02*
X71106200Y-80072000I0J250000D01*
G01*
X71106200Y-79397000D01*
G75*
G02*
X71356200Y-79147000I250000J0D01*
G01*
G37*
%TD.AperFunction*%
%TD*%
%TO.P,C6,2*%
%TO.N,GND*%
%TA.AperFunction,SMDPad,CuDef*%
G36*
G01*
X89959600Y-80180200D02*
X89959600Y-79230200D01*
G75*
G02*
X90209600Y-78980200I250000J0D01*
G01*
X90884600Y-78980200D01*
G75*
G02*
X91134600Y-79230200I0J-250000D01*
G01*
X91134600Y-80180200D01*
G75*
G02*
X90884600Y-80430200I-250000J0D01*
G01*
X90209600Y-80430200D01*
G75*
G02*
X89959600Y-80180200I0J250000D01*
G01*
G37*
%TD.AperFunction*%
%TO.P,C6,1*%
%TO.N,+3V3*%
%TA.AperFunction,SMDPad,CuDef*%
G36*
G01*
X87884600Y-80180200D02*
X87884600Y-79230200D01*
G75*
G02*
X88134600Y-78980200I250000J0D01*
G01*
X88809600Y-78980200D01*
G75*
G02*
X89059600Y-79230200I0J-250000D01*
G01*
X89059600Y-80180200D01*
G75*
G02*
X88809600Y-80430200I-250000J0D01*
G01*
X88134600Y-80430200D01*
G75*
G02*
X87884600Y-80180200I0J250000D01*
G01*
G37*
%TD.AperFunction*%
%TD*%
%TO.P,C5,2*%
%TO.N,GND*%
%TA.AperFunction,SMDPad,CuDef*%
G36*
G01*
X89959600Y-66819800D02*
X89959600Y-65869800D01*
G75*
G02*
X90209600Y-65619800I250000J0D01*
G01*
X90884600Y-65619800D01*
G75*
G02*
X91134600Y-65869800I0J-250000D01*
G01*
X91134600Y-66819800D01*
G75*
G02*
X90884600Y-67069800I-250000J0D01*
G01*
X90209600Y-67069800D01*
G75*
G02*
X89959600Y-66819800I0J250000D01*
G01*
G37*
%TD.AperFunction*%
%TO.P,C5,1*%
%TO.N,+3V3*%
%TA.AperFunction,SMDPad,CuDef*%
G36*
G01*
X87884600Y-66819800D02*
X87884600Y-65869800D01*
G75*
G02*
X88134600Y-65619800I250000J0D01*
G01*
X88809600Y-65619800D01*
G75*
G02*
X89059600Y-65869800I0J-250000D01*
G01*
X89059600Y-66819800D01*
G75*
G02*
X88809600Y-67069800I-250000J0D01*
G01*
X88134600Y-67069800D01*
G75*
G02*
X87884600Y-66819800I0J250000D01*
G01*
G37*
%TD.AperFunction*%
%TD*%
%TO.P,C4,2*%
%TO.N,GND*%
%TA.AperFunction,SMDPad,CuDef*%
G36*
G01*
X69581700Y-67647800D02*
X69581700Y-68597800D01*
G75*
G02*
X69331700Y-68847800I-250000J0D01*
G01*
X68656700Y-68847800D01*
G75*
G02*
X68406700Y-68597800I0J250000D01*
G01*
X68406700Y-67647800D01*
G75*
G02*
X68656700Y-67397800I250000J0D01*
G01*
X69331700Y-67397800D01*
G75*
G02*
X69581700Y-67647800I0J-250000D01*
G01*
G37*
%TD.AperFunction*%
%TO.P,C4,1*%
%TO.N,+3V3*%
%TA.AperFunction,SMDPad,CuDef*%
G36*
G01*
X71656700Y-67647800D02*
X71656700Y-68597800D01*
G75*
G02*
X71406700Y-68847800I-250000J0D01*
G01*
X70731700Y-68847800D01*
G75*
G02*
X70481700Y-68597800I0J250000D01*
G01*
X70481700Y-67647800D01*
G75*
G02*
X70731700Y-67397800I250000J0D01*
G01*
X71406700Y-67397800D01*
G75*
G02*
X71656700Y-67647800I0J-250000D01*
G01*
G37*
%TD.AperFunction*%
%TD*%
%TO.P,C3,2*%
%TO.N,GND*%
%TA.AperFunction,SMDPad,CuDef*%
G36*
G01*
X67749400Y-81192700D02*
X68699400Y-81192700D01*
G75*
G02*
X68949400Y-81442700I0J-250000D01*
G01*
X68949400Y-82117700D01*
G75*
G02*
X68699400Y-82367700I-250000J0D01*
G01*
X67749400Y-82367700D01*
G75*
G02*
X67499400Y-82117700I0J250000D01*
G01*
X67499400Y-81442700D01*
G75*
G02*
X67749400Y-81192700I250000J0D01*
G01*
G37*
%TD.AperFunction*%
%TO.P,C3,1*%
%TO.N,/BAT_RTC*%
%TA.AperFunction,SMDPad,CuDef*%
G36*
G01*
X67749400Y-79117700D02*
X68699400Y-79117700D01*
G75*
G02*
X68949400Y-79367700I0J-250000D01*
G01*
X68949400Y-80042700D01*
G75*
G02*
X68699400Y-80292700I-250000J0D01*
G01*
X67749400Y-80292700D01*
G75*
G02*
X67499400Y-80042700I0J250000D01*
G01*
X67499400Y-79367700D01*
G75*
G02*
X67749400Y-79117700I250000J0D01*
G01*
G37*
%TD.AperFunction*%
%TD*%
D23*
%TO.P,BT2,2*%
%TO.N,GND*%
X49123600Y-61584800D03*
%TO.P,BT2,1*%
%TO.N,/BAT_RTC*%
X49123600Y-81584800D03*
%TD*%
D11*
%TO.P,BT1,2*%
%TO.N,GND*%
X46583600Y-51104800D03*
D12*
%TO.P,BT1,1*%
%TO.N,/BAT_AA*%
X46583600Y-48564800D03*
%TD*%
D24*
%TO.N,GND*%
X94589600Y-57048400D03*
X100736400Y-50088800D03*
X81737200Y-56794400D03*
X74371200Y-80568800D03*
X65481200Y-66802000D03*
X68935600Y-66649600D03*
X78079600Y-70358000D03*
X84328000Y-65522400D03*
X92710000Y-66344800D03*
D25*
%TO.N,/V_IN*%
X69646800Y-53746400D03*
D24*
%TO.N,+3V3*%
X98501200Y-61569600D03*
X93218000Y-58826400D03*
X91186000Y-53848000D03*
X103378000Y-59080400D03*
X92964000Y-68275200D03*
%TO.N,/NRST*%
X76606400Y-74930000D03*
%TO.N,/USB_D+*%
X90474800Y-74930000D03*
%TO.N,/USB_D-*%
X93624400Y-78232000D03*
%TO.N,/SD_CMD*%
X80416400Y-83566000D03*
%TO.N,/SD_D0*%
X90424000Y-71932800D03*
%TO.N,/SD_D3*%
X81483200Y-83007200D03*
%TO.N,/SD_D1*%
X90424000Y-73101200D03*
%TO.N,/SD_D2*%
X82346800Y-82194400D03*
%TO.N,/Button0*%
X79298800Y-75692000D03*
X84705100Y-46358900D03*
X80975200Y-64719200D03*
%TO.N,/Button1*%
X77470000Y-72755200D03*
%TO.N,/BOOT0*%
X74371200Y-82296000D03*
%TO.N,/SD_CLK*%
X81889600Y-75742800D03*
%TO.N,/SWDIO*%
X78384400Y-74930000D03*
%TO.N,/ESP_TX*%
X99314000Y-67106800D03*
%TO.N,/LED2*%
X70002400Y-70358000D03*
%TO.N,/LED1*%
X70002400Y-71577200D03*
%TO.N,/LED0*%
X70866000Y-72339200D03*
%TO.N,/SD_CD*%
X80416400Y-75692000D03*
%TD*%
D26*
%TO.N,GND*%
X76353600Y-79177410D02*
X76352400Y-79178610D01*
X76353600Y-78369800D02*
X76353600Y-79177410D01*
X76352400Y-79178610D02*
X76352400Y-80010000D01*
X76352400Y-80010000D02*
X75793600Y-80568800D01*
X75793600Y-80568800D02*
X74371200Y-80568800D01*
X73928600Y-70944800D02*
X77492800Y-70944800D01*
X77492800Y-70944800D02*
X78079600Y-70358000D01*
X76353600Y-68632000D02*
X78079600Y-70358000D01*
X76353600Y-67019800D02*
X76353600Y-68632000D01*
X85289590Y-75993190D02*
X86965990Y-75993190D01*
X85278600Y-75944800D02*
X85278600Y-75982200D01*
X85278600Y-75982200D02*
X85289590Y-75993190D01*
X83543390Y-65522400D02*
X84328000Y-65522400D01*
X82853600Y-67019800D02*
X82853600Y-66212190D01*
X82853600Y-66212190D02*
X83543390Y-65522400D01*
D27*
%TO.N,/BAT_RTC*%
X49123600Y-81584800D02*
X54305200Y-81584800D01*
X54305200Y-81584800D02*
X56184800Y-83464400D01*
X56184800Y-83464400D02*
X63754000Y-83464400D01*
X63754000Y-83464400D02*
X66040000Y-81178400D01*
X67513200Y-79705200D02*
X68224400Y-79705200D01*
X66040000Y-81178400D02*
X67513200Y-79705200D01*
D28*
X73609200Y-77368400D02*
X73928600Y-77049000D01*
X73928600Y-77049000D02*
X73928600Y-76498010D01*
X70561200Y-77368400D02*
X70967600Y-77368400D01*
X70967600Y-77368400D02*
X73609200Y-77368400D01*
D27*
X68224400Y-78333600D02*
X68224400Y-79705200D01*
X69189600Y-77368400D02*
X68224400Y-78333600D01*
X70967600Y-77368400D02*
X69189600Y-77368400D01*
%TO.N,/V_IN*%
X61823600Y-42214800D02*
X61823600Y-45948600D01*
X61823600Y-45948600D02*
X69621400Y-53746400D01*
D26*
%TO.N,+3V3*%
X73928600Y-70444800D02*
X72273600Y-70444800D01*
D28*
X72085200Y-70256400D02*
X72186800Y-70358000D01*
D26*
X72273600Y-70444800D02*
X72186800Y-70358000D01*
D28*
X88472100Y-66344800D02*
X84886800Y-66344800D01*
X84211800Y-67019800D02*
X83406810Y-67019800D01*
X84886800Y-66344800D02*
X84211800Y-67019800D01*
X88472100Y-79705200D02*
X87477600Y-79705200D01*
X85278600Y-77506200D02*
X85278600Y-76498010D01*
X87477600Y-79705200D02*
X85278600Y-77506200D01*
X71069200Y-69240400D02*
X72186800Y-70358000D01*
X71069200Y-68122800D02*
X71069200Y-69240400D01*
X71069200Y-65227200D02*
X71069200Y-68122800D01*
D26*
X76853600Y-66148400D02*
X76853600Y-67019800D01*
X76860400Y-66141600D02*
X76853600Y-66148400D01*
X76860400Y-65227200D02*
X76860400Y-66141600D01*
X76853600Y-65576000D02*
X76504800Y-65227200D01*
X76853600Y-67019800D02*
X76853600Y-65576000D01*
D28*
X71069200Y-65227200D02*
X76504800Y-65227200D01*
X76504800Y-65227200D02*
X76860400Y-65227200D01*
D27*
X83947000Y-61569600D02*
X91135200Y-61569600D01*
D28*
X93218000Y-61417200D02*
X93065600Y-61569600D01*
X93218000Y-58826400D02*
X93218000Y-61417200D01*
D27*
X91135200Y-61569600D02*
X93065600Y-61569600D01*
X93065600Y-61569600D02*
X98501200Y-61569600D01*
D28*
X93218000Y-58826400D02*
X93218000Y-55880000D01*
X93218000Y-55880000D02*
X91186000Y-53848000D01*
D27*
X104343200Y-65379600D02*
X104343200Y-71221600D01*
X98501200Y-61569600D02*
X100533200Y-61569600D01*
D28*
X103378000Y-59080400D02*
X103378000Y-62484000D01*
D27*
X100533200Y-61569600D02*
X102412800Y-63449200D01*
D28*
X103378000Y-62484000D02*
X102412800Y-63449200D01*
D27*
X102412800Y-63449200D02*
X104343200Y-65379600D01*
D28*
X88472100Y-66344800D02*
X88472100Y-67593300D01*
X88472100Y-67593300D02*
X89154000Y-68275200D01*
X95231200Y-69678800D02*
X97434400Y-69678800D01*
X93827600Y-68275200D02*
X95231200Y-69678800D01*
X89154000Y-68275200D02*
X92964000Y-68275200D01*
X92964000Y-68275200D02*
X93827600Y-68275200D01*
X86004400Y-86004400D02*
X86004400Y-84074000D01*
X88472100Y-81606300D02*
X88472100Y-79705200D01*
X86004400Y-84074000D02*
X88472100Y-81606300D01*
X69951600Y-86004400D02*
X68478400Y-86004400D01*
X71831200Y-79734500D02*
X73427500Y-79734500D01*
X74792200Y-78369800D02*
X75046200Y-78369800D01*
X73427500Y-79734500D02*
X74792200Y-78369800D01*
X75046200Y-78369800D02*
X75800390Y-78369800D01*
X72186800Y-83769200D02*
X69951600Y-86004400D01*
X73427500Y-79734500D02*
X73427500Y-82528500D01*
X73427500Y-82528500D02*
X72186800Y-83769200D01*
D27*
X60211800Y-53644800D02*
X55473600Y-53644800D01*
X71069200Y-65227200D02*
X71069200Y-64502200D01*
X71069200Y-64502200D02*
X60211800Y-53644800D01*
D28*
%TO.N,/OSC_IN*%
X70612000Y-74015600D02*
X70408800Y-74015600D01*
X70408800Y-74015600D02*
X71323200Y-74015600D01*
X61823600Y-70154800D02*
X61823600Y-68427600D01*
X63253800Y-65176400D02*
X63253800Y-66692600D01*
X61823600Y-68122800D02*
X61823600Y-68427600D01*
X63253800Y-66692600D02*
X61823600Y-68122800D01*
D26*
X71323200Y-74015600D02*
X71628000Y-74015600D01*
X72057200Y-74444800D02*
X73928600Y-74444800D01*
X71628000Y-74015600D02*
X72057200Y-74444800D01*
D28*
X61823600Y-71561200D02*
X62906400Y-72644000D01*
X61823600Y-70154800D02*
X61823600Y-71561200D01*
X62906400Y-72644000D02*
X66141600Y-72644000D01*
X67513200Y-74015600D02*
X70408800Y-74015600D01*
X66141600Y-72644000D02*
X67513200Y-74015600D01*
%TO.N,/OSC_OUT*%
X43455500Y-70154800D02*
X49948600Y-70154800D01*
D26*
X71374000Y-73253600D02*
X71780400Y-73253600D01*
X72471600Y-73944800D02*
X73928600Y-73944800D01*
X71780400Y-73253600D02*
X72471600Y-73944800D01*
D28*
X69900800Y-73253600D02*
X71374000Y-73253600D01*
X69392800Y-73253600D02*
X69900800Y-73253600D01*
X61976000Y-63246000D02*
X66141600Y-63246000D01*
X55067200Y-70154800D02*
X61976000Y-63246000D01*
X49948600Y-70154800D02*
X55067200Y-70154800D01*
X67106800Y-70967600D02*
X69392800Y-73253600D01*
X67106800Y-64211200D02*
X67106800Y-70967600D01*
X66141600Y-63246000D02*
X67106800Y-64211200D01*
D26*
%TO.N,/NRST*%
X73940600Y-73456800D02*
X73928600Y-73444800D01*
X76606400Y-74015600D02*
X76047600Y-73456800D01*
X76606400Y-74930000D02*
X76606400Y-74015600D01*
X76047600Y-73456800D02*
X73940600Y-73456800D01*
D28*
%TO.N,/OSC_RTC_IN*%
X61823600Y-81280000D02*
X61772800Y-81330800D01*
X61823600Y-76504800D02*
X61823600Y-81280000D01*
D26*
X73057200Y-75444800D02*
X73928600Y-75444800D01*
X73050400Y-75438000D02*
X73057200Y-75444800D01*
X71272400Y-75438000D02*
X73050400Y-75438000D01*
D28*
X62890400Y-75438000D02*
X61823600Y-76504800D01*
X71272400Y-75438000D02*
X62890400Y-75438000D01*
%TO.N,/OSC_RTC_OUT*%
X50697800Y-76555600D02*
X50748600Y-76504800D01*
X43434000Y-76555600D02*
X50697800Y-76555600D01*
D26*
X71272400Y-74726800D02*
X71729600Y-74726800D01*
X71947600Y-74944800D02*
X73928600Y-74944800D01*
X71729600Y-74726800D02*
X71947600Y-74944800D01*
D28*
X55930800Y-75387200D02*
X54813200Y-76504800D01*
X54813200Y-76504800D02*
X50748600Y-76504800D01*
X56794400Y-73456800D02*
X55930800Y-74320400D01*
X65735200Y-73456800D02*
X56794400Y-73456800D01*
X55930800Y-74320400D02*
X55930800Y-75387200D01*
X67005200Y-74726800D02*
X65735200Y-73456800D01*
X71272400Y-74726800D02*
X67005200Y-74726800D01*
%TO.N,/USB_D+*%
X90474800Y-74930000D02*
X87630000Y-74930000D01*
D26*
X85293400Y-74930000D02*
X85278600Y-74944800D01*
X87630000Y-74930000D02*
X85293400Y-74930000D01*
D28*
%TO.N,/USB_D-*%
X92100400Y-76708000D02*
X93624400Y-78232000D01*
X90982800Y-74015600D02*
X92100400Y-75133200D01*
X92100400Y-75133200D02*
X92100400Y-76708000D01*
X87985600Y-74015600D02*
X90982800Y-74015600D01*
X87985600Y-74015600D02*
X87579200Y-74015600D01*
D26*
X87150000Y-74444800D02*
X87579200Y-74015600D01*
X85278600Y-74444800D02*
X87150000Y-74444800D01*
D28*
%TO.N,/ESP_CH_PD*%
X97690401Y-75014801D02*
X97434400Y-74758800D01*
X103056401Y-75014801D02*
X97690401Y-75014801D01*
X104343200Y-76301600D02*
X103056401Y-75014801D01*
X97434400Y-74758800D02*
X96196400Y-74758800D01*
X96196400Y-74758800D02*
X91897200Y-70459600D01*
X91897200Y-70459600D02*
X87680800Y-70459600D01*
D26*
X86091200Y-70444800D02*
X85278600Y-70444800D01*
X86106000Y-70459600D02*
X86091200Y-70444800D01*
X87680800Y-70459600D02*
X86106000Y-70459600D01*
D28*
%TO.N,/ESP_NRST*%
X103056401Y-72474801D02*
X104343200Y-73761600D01*
X99449601Y-72474801D02*
X103056401Y-72474801D01*
X98653600Y-71678800D02*
X99449601Y-72474801D01*
X97434400Y-71678800D02*
X98653600Y-71678800D01*
X84277200Y-67970400D02*
X83693000Y-68554600D01*
X83693000Y-68554600D02*
X80859000Y-68554600D01*
D26*
X80853600Y-67019800D02*
X80853600Y-68549200D01*
D28*
X80853600Y-68549200D02*
X80859000Y-68554600D01*
X97434400Y-71678800D02*
X94488000Y-71678800D01*
X94488000Y-71678800D02*
X92151200Y-69342000D01*
X87985600Y-69342000D02*
X86614000Y-67970400D01*
X92151200Y-69342000D02*
X87985600Y-69342000D01*
X86614000Y-67970400D02*
X84277200Y-67970400D01*
D26*
%TO.N,/SD_CMD*%
X80870410Y-78386610D02*
X80853600Y-78369800D01*
X80416400Y-82908308D02*
X80870410Y-82454299D01*
X80870410Y-82454299D02*
X80870410Y-78386610D01*
X80416400Y-83566000D02*
X80416400Y-82908308D01*
%TO.N,/SD_D0*%
X85278600Y-71944800D02*
X88888000Y-71944800D01*
X88900000Y-71932800D02*
X88888000Y-71944800D01*
X90424000Y-71932800D02*
X88900000Y-71932800D01*
%TO.N,/SD_D3*%
X81853600Y-78369800D02*
X81853600Y-80858800D01*
X81483200Y-81229200D02*
X81483200Y-83007200D01*
X81853600Y-80858800D02*
X81483200Y-81229200D01*
%TO.N,/SD_D1*%
X87532400Y-72444800D02*
X85278600Y-72444800D01*
X88188800Y-73101200D02*
X87532400Y-72444800D01*
X90424000Y-73101200D02*
X88849200Y-73101200D01*
X88900000Y-73101200D02*
X88849200Y-73101200D01*
X88849200Y-73101200D02*
X88188800Y-73101200D01*
%TO.N,/SD_D2*%
X82346800Y-78638400D02*
X82346800Y-82194400D01*
X82353600Y-78631600D02*
X82346800Y-78638400D01*
X82353600Y-78369800D02*
X82353600Y-78631600D01*
%TO.N,/Button0*%
X78853600Y-78369800D02*
X78853600Y-76137200D01*
X78853600Y-76137200D02*
X79298800Y-75692000D01*
D28*
X82693799Y-48370201D02*
X84705100Y-46358900D01*
X82693799Y-62441801D02*
X82693799Y-48370201D01*
X80975200Y-64160400D02*
X82693799Y-62441801D01*
X80975200Y-64160400D02*
X80975200Y-64719200D01*
D26*
%TO.N,/Button1*%
X77470000Y-75692000D02*
X77470000Y-72755200D01*
X78353600Y-76575600D02*
X77470000Y-75692000D01*
X78353600Y-78369800D02*
X78353600Y-76575600D01*
%TO.N,/BOOT0*%
X77853600Y-81353600D02*
X77853600Y-78369800D01*
X77571600Y-81635600D02*
X77853600Y-81353600D01*
D28*
X76911200Y-82296000D02*
X77571600Y-81635600D01*
X74371200Y-82296000D02*
X76911200Y-82296000D01*
D26*
%TO.N,/SWO*%
X80353600Y-81166400D02*
X80365600Y-81178400D01*
X80353600Y-78369800D02*
X80353600Y-81166400D01*
D28*
X80365600Y-81178400D02*
X80365600Y-80949800D01*
X76073000Y-83235800D02*
X73304400Y-86004400D01*
X79019400Y-83235800D02*
X76073000Y-83235800D01*
X80365600Y-81889600D02*
X79019400Y-83235800D01*
X80365600Y-81178400D02*
X80365600Y-81889600D01*
D26*
%TO.N,/SD_CLK*%
X81353600Y-76278800D02*
X81353600Y-76431200D01*
X81889600Y-75742800D02*
X81353600Y-76278800D01*
X81353600Y-78369800D02*
X81353600Y-76431200D01*
%TO.N,/SWCLK*%
X83353600Y-78369800D02*
X83353600Y-80737400D01*
D28*
X83353600Y-85893600D02*
X83464400Y-86004400D01*
X83353600Y-80737400D02*
X83353600Y-85893600D01*
D26*
%TO.N,/SWDIO*%
X85297200Y-75463400D02*
X85278600Y-75444800D01*
X83559200Y-75444800D02*
X85278600Y-75444800D01*
X83044400Y-74930000D02*
X83559200Y-75444800D01*
X78384400Y-74930000D02*
X83044400Y-74930000D01*
D28*
%TO.N,/ESP_TX*%
X103657938Y-78841600D02*
X104343200Y-78841600D01*
X99314000Y-66243200D02*
X99314000Y-65125600D01*
X99314000Y-65125600D02*
X98907600Y-64719200D01*
X98907600Y-64719200D02*
X82804000Y-64719200D01*
X82804000Y-64719200D02*
X82600800Y-64922400D01*
D26*
X82353600Y-65118800D02*
X82353600Y-67019800D01*
X82550000Y-64922400D02*
X82353600Y-65118800D01*
X82600800Y-64922400D02*
X82550000Y-64922400D01*
D28*
X99314000Y-66243200D02*
X99314000Y-67106800D01*
D26*
%TO.N,/ESP_RX*%
X81838800Y-67005000D02*
X81853600Y-67019800D01*
X81838800Y-64719200D02*
X81838800Y-67005000D01*
D28*
X82550000Y-64008000D02*
X81838800Y-64719200D01*
X100228400Y-64008000D02*
X82550000Y-64008000D01*
X101803200Y-71221600D02*
X101803200Y-65582800D01*
X101803200Y-65582800D02*
X100228400Y-64008000D01*
%TO.N,/SPI_CS*%
X71247000Y-61569600D02*
X73355200Y-59461400D01*
X73355200Y-59461400D02*
X79298800Y-59461400D01*
X79298800Y-59461400D02*
X80137000Y-60299600D01*
D26*
X80353600Y-65291400D02*
X80353600Y-67019800D01*
X80137000Y-65074800D02*
X80353600Y-65291400D01*
X80137000Y-60299600D02*
X80137000Y-65074800D01*
%TO.N,/SPI_MOSI*%
X78867000Y-66343400D02*
X78867000Y-61569600D01*
X78853600Y-66356800D02*
X78867000Y-66343400D01*
X78853600Y-67019800D02*
X78853600Y-66356800D01*
D28*
%TO.N,/SPI_MISO*%
X73787000Y-61569600D02*
X75260200Y-60096400D01*
X75260200Y-60096400D02*
X77241400Y-60096400D01*
D26*
X78353600Y-63025976D02*
X77571600Y-62243976D01*
X78353600Y-67019800D02*
X78353600Y-63025976D01*
X77571600Y-62243976D02*
X77571600Y-61160630D01*
X77571600Y-61160630D02*
X77571600Y-60714198D01*
D28*
X77571600Y-60426600D02*
X77241400Y-60096400D01*
X77571600Y-60714198D02*
X77571600Y-60426600D01*
D26*
%TO.N,/SPI_SCK*%
X77853600Y-63096200D02*
X76327000Y-61569600D01*
X77853600Y-67019800D02*
X77853600Y-63096200D01*
%TO.N,/LED2*%
X72003600Y-71444800D02*
X73928600Y-71444800D01*
X70002400Y-70358000D02*
X70916800Y-70358000D01*
X70916800Y-70358000D02*
X72003600Y-71444800D01*
%TO.N,/LED1*%
X71616000Y-71944800D02*
X73928600Y-71944800D01*
X71248400Y-71577200D02*
X71489000Y-71817800D01*
X70002400Y-71577200D02*
X71248400Y-71577200D01*
X71489000Y-71817800D02*
X71616000Y-71944800D01*
%TO.N,/LED0*%
X70971600Y-72444800D02*
X73928600Y-72444800D01*
X70866000Y-72339200D02*
X70971600Y-72444800D01*
%TO.N,/SD_CD*%
X79353600Y-76754800D02*
X79353600Y-78369800D01*
X80416400Y-75692000D02*
X79353600Y-76754800D01*
%TD*%
%TO.N,GND*%
G36*
X108384000Y-90555200D02*
G01*
X36587200Y-90555200D01*
X36587200Y-76080600D01*
X42336043Y-76080600D01*
X42336043Y-77030600D01*
X42350655Y-77178958D01*
X42393929Y-77321614D01*
X42464203Y-77453087D01*
X42558776Y-77568324D01*
X42674013Y-77662897D01*
X42805486Y-77733171D01*
X42948142Y-77776445D01*
X43096500Y-77791057D01*
X43771500Y-77791057D01*
X43919858Y-77776445D01*
X44062514Y-77733171D01*
X44193987Y-77662897D01*
X44309224Y-77568324D01*
X44403797Y-77453087D01*
X44474071Y-77321614D01*
X44490699Y-77266800D01*
X46650643Y-77266800D01*
X46650643Y-78554800D01*
X46660451Y-78654385D01*
X46689499Y-78750143D01*
X46736671Y-78838395D01*
X46800152Y-78915748D01*
X46877505Y-78979229D01*
X46965757Y-79026401D01*
X47061515Y-79055449D01*
X47161100Y-79065257D01*
X54336100Y-79065257D01*
X54435685Y-79055449D01*
X54531443Y-79026401D01*
X54619695Y-78979229D01*
X54697048Y-78915748D01*
X54760529Y-78838395D01*
X54807701Y-78750143D01*
X54836749Y-78654385D01*
X54846557Y-78554800D01*
X54846557Y-77216155D01*
X54848126Y-77216000D01*
X54848136Y-77216000D01*
X54952620Y-77205709D01*
X55086681Y-77165042D01*
X55210233Y-77099002D01*
X55318527Y-77010127D01*
X55340802Y-76982985D01*
X56408991Y-75914797D01*
X56436127Y-75892527D01*
X56525002Y-75784233D01*
X56591042Y-75660681D01*
X56631709Y-75526620D01*
X56642000Y-75422136D01*
X56642000Y-75422127D01*
X56645440Y-75387201D01*
X56642000Y-75352275D01*
X56642000Y-74614987D01*
X57088988Y-74168000D01*
X57814301Y-74168000D01*
X57811671Y-74171205D01*
X57764499Y-74259457D01*
X57735451Y-74355215D01*
X57725643Y-74454800D01*
X57725643Y-78554800D01*
X57735451Y-78654385D01*
X57764499Y-78750143D01*
X57811671Y-78838395D01*
X57875152Y-78915748D01*
X57952505Y-78979229D01*
X58040757Y-79026401D01*
X58136515Y-79055449D01*
X58236100Y-79065257D01*
X61112401Y-79065257D01*
X61112401Y-80170272D01*
X61012813Y-80223503D01*
X60897576Y-80318076D01*
X60803003Y-80433313D01*
X60732729Y-80564786D01*
X60689455Y-80707442D01*
X60674843Y-80855800D01*
X60674843Y-81805800D01*
X60689455Y-81954158D01*
X60732729Y-82096814D01*
X60803003Y-82228287D01*
X60897576Y-82343524D01*
X61012813Y-82438097D01*
X61032088Y-82448400D01*
X56605641Y-82448400D01*
X55058912Y-80901672D01*
X55027096Y-80862904D01*
X54872390Y-80735940D01*
X54695887Y-80641598D01*
X54504371Y-80583502D01*
X54355102Y-80568800D01*
X54305200Y-80563885D01*
X54255298Y-80568800D01*
X50240234Y-80568800D01*
X50084894Y-80413460D01*
X49837906Y-80248427D01*
X49563468Y-80134751D01*
X49272125Y-80076800D01*
X48975075Y-80076800D01*
X48683732Y-80134751D01*
X48409294Y-80248427D01*
X48162306Y-80413460D01*
X47952260Y-80623506D01*
X47787227Y-80870494D01*
X47673551Y-81144932D01*
X47615600Y-81436275D01*
X47615600Y-81733325D01*
X47673551Y-82024668D01*
X47787227Y-82299106D01*
X47952260Y-82546094D01*
X48162306Y-82756140D01*
X48409294Y-82921173D01*
X48683732Y-83034849D01*
X48975075Y-83092800D01*
X49272125Y-83092800D01*
X49563468Y-83034849D01*
X49837906Y-82921173D01*
X50084894Y-82756140D01*
X50240234Y-82600800D01*
X53884360Y-82600800D01*
X55431092Y-84147533D01*
X55462904Y-84186296D01*
X55617610Y-84313260D01*
X55794111Y-84407601D01*
X55794113Y-84407602D01*
X55985629Y-84465698D01*
X56184800Y-84485315D01*
X56234702Y-84480400D01*
X63704098Y-84480400D01*
X63754000Y-84485315D01*
X63803902Y-84480400D01*
X63953171Y-84465698D01*
X64144687Y-84407602D01*
X64321190Y-84313260D01*
X64475896Y-84186296D01*
X64507712Y-84147528D01*
X66793706Y-81861535D01*
X66793710Y-81861530D01*
X67852084Y-80803157D01*
X68699400Y-80803157D01*
X68847758Y-80788545D01*
X68990414Y-80745271D01*
X69121887Y-80674997D01*
X69237124Y-80580424D01*
X69331697Y-80465187D01*
X69401971Y-80333714D01*
X69445245Y-80191058D01*
X69459857Y-80042700D01*
X69459857Y-79367700D01*
X69445245Y-79219342D01*
X69401971Y-79076686D01*
X69331697Y-78945213D01*
X69240400Y-78833968D01*
X69240400Y-78754440D01*
X69610441Y-78384400D01*
X71017502Y-78384400D01*
X71166771Y-78369698D01*
X71358287Y-78311602D01*
X71534790Y-78217260D01*
X71689496Y-78090296D01*
X71698274Y-78079600D01*
X73574274Y-78079600D01*
X73609200Y-78083040D01*
X73644126Y-78079600D01*
X73644136Y-78079600D01*
X73748620Y-78069309D01*
X73882681Y-78028642D01*
X74006233Y-77962602D01*
X74114527Y-77873727D01*
X74136802Y-77846585D01*
X74406790Y-77576597D01*
X74433926Y-77554327D01*
X74522802Y-77446033D01*
X74588842Y-77322481D01*
X74629509Y-77188420D01*
X74637789Y-77104352D01*
X74742817Y-77094008D01*
X74852645Y-77060692D01*
X74953862Y-77006590D01*
X75042581Y-76933781D01*
X75115390Y-76845062D01*
X75169492Y-76743845D01*
X75202808Y-76634017D01*
X75214057Y-76519800D01*
X75214057Y-76369800D01*
X75202808Y-76255583D01*
X75184370Y-76194800D01*
X75202808Y-76134017D01*
X75214057Y-76019800D01*
X75214057Y-75869800D01*
X75202808Y-75755583D01*
X75184370Y-75694800D01*
X75202808Y-75634017D01*
X75214057Y-75519800D01*
X75214057Y-75369800D01*
X75202808Y-75255583D01*
X75184370Y-75194800D01*
X75202808Y-75134017D01*
X75214057Y-75019800D01*
X75214057Y-74869800D01*
X75202808Y-74755583D01*
X75184370Y-74694800D01*
X75202808Y-74634017D01*
X75214057Y-74519800D01*
X75214057Y-74369800D01*
X75202808Y-74255583D01*
X75184370Y-74194800D01*
X75202808Y-74134017D01*
X75209467Y-74066400D01*
X75795096Y-74066400D01*
X75990495Y-74261800D01*
X75901111Y-74351184D01*
X75801741Y-74499901D01*
X75733294Y-74665146D01*
X75698400Y-74840570D01*
X75698400Y-75019430D01*
X75733294Y-75194854D01*
X75801741Y-75360099D01*
X75901111Y-75508816D01*
X76027584Y-75635289D01*
X76176301Y-75734659D01*
X76341546Y-75803106D01*
X76516970Y-75838000D01*
X76695830Y-75838000D01*
X76868449Y-75803664D01*
X76869221Y-75811502D01*
X76871390Y-75818651D01*
X76904079Y-75926411D01*
X76960684Y-76032313D01*
X77036862Y-76125138D01*
X77060132Y-76144235D01*
X77744001Y-76828105D01*
X77744001Y-77087751D01*
X77664383Y-77095592D01*
X77603600Y-77114030D01*
X77542817Y-77095592D01*
X77428600Y-77084343D01*
X77278600Y-77084343D01*
X77164383Y-77095592D01*
X77103600Y-77114030D01*
X77042817Y-77095592D01*
X76928600Y-77084343D01*
X76778600Y-77084343D01*
X76664383Y-77095592D01*
X76554555Y-77128908D01*
X76453338Y-77183010D01*
X76364619Y-77255819D01*
X76353600Y-77269246D01*
X76342581Y-77255819D01*
X76253862Y-77183010D01*
X76152645Y-77128908D01*
X76042817Y-77095592D01*
X75928600Y-77084343D01*
X75778600Y-77084343D01*
X75664383Y-77095592D01*
X75554555Y-77128908D01*
X75453338Y-77183010D01*
X75364619Y-77255819D01*
X75291810Y-77344538D01*
X75237708Y-77445755D01*
X75204392Y-77555583D01*
X75194246Y-77658600D01*
X74827125Y-77658600D01*
X74792199Y-77655160D01*
X74757273Y-77658600D01*
X74757264Y-77658600D01*
X74652780Y-77668891D01*
X74518719Y-77709558D01*
X74443228Y-77749909D01*
X74395167Y-77775598D01*
X74314008Y-77842203D01*
X74314004Y-77842207D01*
X74286873Y-77864473D01*
X74264607Y-77891604D01*
X73132913Y-79023300D01*
X72964574Y-79023300D01*
X72938497Y-78974513D01*
X72843924Y-78859276D01*
X72728687Y-78764703D01*
X72597214Y-78694429D01*
X72454558Y-78651155D01*
X72306200Y-78636543D01*
X71356200Y-78636543D01*
X71207842Y-78651155D01*
X71065186Y-78694429D01*
X70933713Y-78764703D01*
X70818476Y-78859276D01*
X70723903Y-78974513D01*
X70653629Y-79105986D01*
X70610355Y-79248642D01*
X70595743Y-79397000D01*
X70595743Y-80072000D01*
X70610355Y-80220358D01*
X70653629Y-80363014D01*
X70723903Y-80494487D01*
X70818476Y-80609724D01*
X70933713Y-80704297D01*
X71065186Y-80774571D01*
X71207842Y-80817845D01*
X71356200Y-80832457D01*
X72306200Y-80832457D01*
X72454558Y-80817845D01*
X72597214Y-80774571D01*
X72716300Y-80710918D01*
X72716301Y-82233911D01*
X71708614Y-83241599D01*
X71708609Y-83241603D01*
X69834998Y-85115215D01*
X69829049Y-85054815D01*
X69800001Y-84959057D01*
X69752829Y-84870805D01*
X69689348Y-84793452D01*
X69611995Y-84729971D01*
X69523743Y-84682799D01*
X69427985Y-84653751D01*
X69328400Y-84643943D01*
X67628400Y-84643943D01*
X67528815Y-84653751D01*
X67433057Y-84682799D01*
X67344805Y-84729971D01*
X67267452Y-84793452D01*
X67203971Y-84870805D01*
X67156799Y-84959057D01*
X67127751Y-85054815D01*
X67117943Y-85154400D01*
X67117943Y-85325375D01*
X66993228Y-85138725D01*
X66804075Y-84949572D01*
X66581654Y-84800956D01*
X66334514Y-84698587D01*
X66072151Y-84646400D01*
X65804649Y-84646400D01*
X65542286Y-84698587D01*
X65295146Y-84800956D01*
X65072725Y-84949572D01*
X64883572Y-85138725D01*
X64734956Y-85361146D01*
X64632587Y-85608286D01*
X64580400Y-85870649D01*
X64580400Y-86138151D01*
X64632587Y-86400514D01*
X64734956Y-86647654D01*
X64883572Y-86870075D01*
X65072725Y-87059228D01*
X65295146Y-87207844D01*
X65542286Y-87310213D01*
X65804649Y-87362400D01*
X66072151Y-87362400D01*
X66334514Y-87310213D01*
X66581654Y-87207844D01*
X66804075Y-87059228D01*
X66993228Y-86870075D01*
X67117943Y-86683425D01*
X67117943Y-86854400D01*
X67127751Y-86953985D01*
X67156799Y-87049743D01*
X67203971Y-87137995D01*
X67267452Y-87215348D01*
X67344805Y-87278829D01*
X67433057Y-87326001D01*
X67528815Y-87355049D01*
X67628400Y-87364857D01*
X69328400Y-87364857D01*
X69427985Y-87355049D01*
X69523743Y-87326001D01*
X69611995Y-87278829D01*
X69689348Y-87215348D01*
X69752829Y-87137995D01*
X69800001Y-87049743D01*
X69829049Y-86953985D01*
X69838857Y-86854400D01*
X69838857Y-86715600D01*
X69916674Y-86715600D01*
X69951600Y-86719040D01*
X69986526Y-86715600D01*
X69986536Y-86715600D01*
X70091020Y-86705309D01*
X70225081Y-86664642D01*
X70348633Y-86598602D01*
X70456927Y-86509727D01*
X70479202Y-86482585D01*
X72714397Y-84247391D01*
X72714401Y-84247386D01*
X73893161Y-83068627D01*
X73941101Y-83100659D01*
X74106346Y-83169106D01*
X74281770Y-83204000D01*
X74460630Y-83204000D01*
X74636054Y-83169106D01*
X74801299Y-83100659D01*
X74941170Y-83007200D01*
X75295811Y-83007200D01*
X73620367Y-84682645D01*
X73438151Y-84646400D01*
X73170649Y-84646400D01*
X72908286Y-84698587D01*
X72661146Y-84800956D01*
X72438725Y-84949572D01*
X72249572Y-85138725D01*
X72100956Y-85361146D01*
X71998587Y-85608286D01*
X71946400Y-85870649D01*
X71946400Y-86138151D01*
X71998587Y-86400514D01*
X72100956Y-86647654D01*
X72249572Y-86870075D01*
X72438725Y-87059228D01*
X72661146Y-87207844D01*
X72908286Y-87310213D01*
X73170649Y-87362400D01*
X73438151Y-87362400D01*
X73700514Y-87310213D01*
X73947654Y-87207844D01*
X74170075Y-87059228D01*
X74359228Y-86870075D01*
X74507844Y-86647654D01*
X74574400Y-86486974D01*
X74640956Y-86647654D01*
X74789572Y-86870075D01*
X74978725Y-87059228D01*
X75201146Y-87207844D01*
X75448286Y-87310213D01*
X75710649Y-87362400D01*
X75978151Y-87362400D01*
X76240514Y-87310213D01*
X76487654Y-87207844D01*
X76710075Y-87059228D01*
X76899228Y-86870075D01*
X77047844Y-86647654D01*
X77114400Y-86486974D01*
X77180956Y-86647654D01*
X77329572Y-86870075D01*
X77518725Y-87059228D01*
X77741146Y-87207844D01*
X77988286Y-87310213D01*
X78250649Y-87362400D01*
X78518151Y-87362400D01*
X78780514Y-87310213D01*
X79027654Y-87207844D01*
X79250075Y-87059228D01*
X79439228Y-86870075D01*
X79587844Y-86647654D01*
X79690213Y-86400514D01*
X79742400Y-86138151D01*
X79742400Y-85870649D01*
X79690213Y-85608286D01*
X79587844Y-85361146D01*
X79439228Y-85138725D01*
X79250075Y-84949572D01*
X79027654Y-84800956D01*
X78780514Y-84698587D01*
X78518151Y-84646400D01*
X78250649Y-84646400D01*
X77988286Y-84698587D01*
X77741146Y-84800956D01*
X77518725Y-84949572D01*
X77329572Y-85138725D01*
X77180956Y-85361146D01*
X77114400Y-85521826D01*
X77047844Y-85361146D01*
X76899228Y-85138725D01*
X76710075Y-84949572D01*
X76487654Y-84800956D01*
X76240514Y-84698587D01*
X75978151Y-84646400D01*
X75710649Y-84646400D01*
X75657645Y-84656943D01*
X76367589Y-83947000D01*
X78984474Y-83947000D01*
X79019400Y-83950440D01*
X79054326Y-83947000D01*
X79054336Y-83947000D01*
X79158820Y-83936709D01*
X79292881Y-83896042D01*
X79416433Y-83830002D01*
X79524727Y-83741127D01*
X79525306Y-83740422D01*
X79543294Y-83830854D01*
X79611741Y-83996099D01*
X79711111Y-84144816D01*
X79837584Y-84271289D01*
X79986301Y-84370659D01*
X80151546Y-84439106D01*
X80326970Y-84474000D01*
X80505830Y-84474000D01*
X80681254Y-84439106D01*
X80846499Y-84370659D01*
X80995216Y-84271289D01*
X81121689Y-84144816D01*
X81221059Y-83996099D01*
X81265165Y-83889619D01*
X81393770Y-83915200D01*
X81572630Y-83915200D01*
X81748054Y-83880306D01*
X81913299Y-83811859D01*
X82062016Y-83712489D01*
X82188489Y-83586016D01*
X82287859Y-83437299D01*
X82356306Y-83272054D01*
X82390052Y-83102400D01*
X82436230Y-83102400D01*
X82611654Y-83067506D01*
X82642400Y-83054770D01*
X82642401Y-84920389D01*
X82598725Y-84949572D01*
X82409572Y-85138725D01*
X82260956Y-85361146D01*
X82158587Y-85608286D01*
X82106400Y-85870649D01*
X82106400Y-86138151D01*
X82158587Y-86400514D01*
X82260956Y-86647654D01*
X82409572Y-86870075D01*
X82598725Y-87059228D01*
X82821146Y-87207844D01*
X83068286Y-87310213D01*
X83330649Y-87362400D01*
X83598151Y-87362400D01*
X83860514Y-87310213D01*
X84107654Y-87207844D01*
X84330075Y-87059228D01*
X84519228Y-86870075D01*
X84643943Y-86683425D01*
X84643943Y-86854400D01*
X84653751Y-86953985D01*
X84682799Y-87049743D01*
X84729971Y-87137995D01*
X84793452Y-87215348D01*
X84870805Y-87278829D01*
X84959057Y-87326001D01*
X85054815Y-87355049D01*
X85154400Y-87364857D01*
X86854400Y-87364857D01*
X86953985Y-87355049D01*
X87049743Y-87326001D01*
X87137995Y-87278829D01*
X87215348Y-87215348D01*
X87278829Y-87137995D01*
X87326001Y-87049743D01*
X87355049Y-86953985D01*
X87364857Y-86854400D01*
X87364857Y-85154400D01*
X87355049Y-85054815D01*
X87326001Y-84959057D01*
X87278829Y-84870805D01*
X87215348Y-84793452D01*
X87137995Y-84729971D01*
X87049743Y-84682799D01*
X86953985Y-84653751D01*
X86854400Y-84643943D01*
X86715600Y-84643943D01*
X86715600Y-84368587D01*
X88950295Y-82133893D01*
X88977426Y-82111627D01*
X88999693Y-82084495D01*
X88999697Y-82084491D01*
X89066302Y-82003333D01*
X89132342Y-81879782D01*
X89173009Y-81745720D01*
X89174771Y-81727832D01*
X89183300Y-81641236D01*
X89183300Y-81641229D01*
X89186740Y-81606300D01*
X89183300Y-81571372D01*
X89183300Y-80838574D01*
X89232087Y-80812497D01*
X89347324Y-80717924D01*
X89441897Y-80602687D01*
X89512171Y-80471214D01*
X89555445Y-80328558D01*
X89570057Y-80180200D01*
X89570057Y-79230200D01*
X89555445Y-79081842D01*
X89512171Y-78939186D01*
X89441897Y-78807713D01*
X89347324Y-78692476D01*
X89232087Y-78597903D01*
X89100614Y-78527629D01*
X88957958Y-78484355D01*
X88809600Y-78469743D01*
X88134600Y-78469743D01*
X87986242Y-78484355D01*
X87843586Y-78527629D01*
X87712113Y-78597903D01*
X87596876Y-78692476D01*
X87539986Y-78761797D01*
X85989800Y-77211613D01*
X85989800Y-77104154D01*
X86092817Y-77094008D01*
X86202645Y-77060692D01*
X86303862Y-77006590D01*
X86392581Y-76933781D01*
X86465390Y-76845062D01*
X86519492Y-76743845D01*
X86552808Y-76634017D01*
X86564057Y-76519800D01*
X86564057Y-76369800D01*
X86552808Y-76255583D01*
X86519492Y-76145755D01*
X86465390Y-76044538D01*
X86392581Y-75955819D01*
X86379154Y-75944800D01*
X86392581Y-75933781D01*
X86465390Y-75845062D01*
X86519492Y-75743845D01*
X86552808Y-75634017D01*
X86562107Y-75539600D01*
X87261775Y-75539600D01*
X87356519Y-75590242D01*
X87490580Y-75630909D01*
X87595064Y-75641200D01*
X89904830Y-75641200D01*
X90044701Y-75734659D01*
X90209946Y-75803106D01*
X90385370Y-75838000D01*
X90564230Y-75838000D01*
X90739654Y-75803106D01*
X90904899Y-75734659D01*
X91053616Y-75635289D01*
X91180089Y-75508816D01*
X91279459Y-75360099D01*
X91291776Y-75330364D01*
X91389200Y-75427788D01*
X91389201Y-76673064D01*
X91385760Y-76708000D01*
X91389201Y-76742936D01*
X91399492Y-76847420D01*
X91425689Y-76933781D01*
X91440159Y-76981481D01*
X91506198Y-77105032D01*
X91558884Y-77169230D01*
X91595074Y-77213327D01*
X91622210Y-77235597D01*
X92718475Y-78331864D01*
X92751294Y-78496854D01*
X92819741Y-78662099D01*
X92919111Y-78810816D01*
X93045584Y-78937289D01*
X93194301Y-79036659D01*
X93359546Y-79105106D01*
X93534970Y-79140000D01*
X93713830Y-79140000D01*
X93889254Y-79105106D01*
X94054499Y-79036659D01*
X94203216Y-78937289D01*
X94329689Y-78810816D01*
X94429059Y-78662099D01*
X94497506Y-78496854D01*
X94532400Y-78321430D01*
X94532400Y-78142570D01*
X94497506Y-77967146D01*
X94429059Y-77801901D01*
X94329689Y-77653184D01*
X94203216Y-77526711D01*
X94054499Y-77427341D01*
X93889254Y-77358894D01*
X93724264Y-77326075D01*
X92811600Y-76413413D01*
X92811600Y-75168125D01*
X92815040Y-75133199D01*
X92811600Y-75098273D01*
X92811600Y-75098264D01*
X92801309Y-74993780D01*
X92760642Y-74859719D01*
X92694602Y-74736167D01*
X92686914Y-74726799D01*
X92627997Y-74655009D01*
X92627993Y-74655005D01*
X92605726Y-74627873D01*
X92578595Y-74605607D01*
X91510402Y-73537415D01*
X91488127Y-73510273D01*
X91379833Y-73421398D01*
X91293333Y-73375163D01*
X91297106Y-73366054D01*
X91332000Y-73190630D01*
X91332000Y-73011770D01*
X91297106Y-72836346D01*
X91228659Y-72671101D01*
X91129289Y-72522384D01*
X91123905Y-72517000D01*
X91129289Y-72511616D01*
X91228659Y-72362899D01*
X91297106Y-72197654D01*
X91332000Y-72022230D01*
X91332000Y-71843370D01*
X91297106Y-71667946D01*
X91228659Y-71502701D01*
X91129289Y-71353984D01*
X91002816Y-71227511D01*
X90917942Y-71170800D01*
X91602613Y-71170800D01*
X95668802Y-75236990D01*
X95691073Y-75264127D01*
X95799367Y-75353002D01*
X95922919Y-75419042D01*
X96056980Y-75459709D01*
X96161464Y-75470000D01*
X96161471Y-75470000D01*
X96196400Y-75473440D01*
X96231328Y-75470000D01*
X96319344Y-75470000D01*
X96352103Y-75531288D01*
X96446675Y-75646525D01*
X96561912Y-75741097D01*
X96693385Y-75811371D01*
X96836041Y-75854645D01*
X96984399Y-75869257D01*
X97884401Y-75869257D01*
X98032759Y-75854645D01*
X98175415Y-75811371D01*
X98306888Y-75741097D01*
X98325283Y-75726001D01*
X100571732Y-75726001D01*
X100497387Y-75905486D01*
X100445200Y-76167849D01*
X100445200Y-76435351D01*
X100497387Y-76697714D01*
X100599756Y-76944854D01*
X100748372Y-77167275D01*
X100937525Y-77356428D01*
X101159946Y-77505044D01*
X101407086Y-77607413D01*
X101669449Y-77659600D01*
X101936951Y-77659600D01*
X102199314Y-77607413D01*
X102446454Y-77505044D01*
X102668875Y-77356428D01*
X102858028Y-77167275D01*
X103006644Y-76944854D01*
X103073200Y-76784174D01*
X103139756Y-76944854D01*
X103288372Y-77167275D01*
X103477525Y-77356428D01*
X103664175Y-77481143D01*
X103493200Y-77481143D01*
X103393615Y-77490951D01*
X103297857Y-77519999D01*
X103209605Y-77567171D01*
X103132252Y-77630652D01*
X103068771Y-77708005D01*
X103021599Y-77796257D01*
X102992551Y-77892015D01*
X102982743Y-77991600D01*
X102982743Y-78617412D01*
X102957029Y-78702180D01*
X102943297Y-78841600D01*
X102957029Y-78981020D01*
X102982743Y-79065788D01*
X102982743Y-79691600D01*
X102992551Y-79791185D01*
X103021599Y-79886943D01*
X103068771Y-79975195D01*
X103132252Y-80052548D01*
X103209605Y-80116029D01*
X103297857Y-80163201D01*
X103393615Y-80192249D01*
X103493200Y-80202057D01*
X105193200Y-80202057D01*
X105292785Y-80192249D01*
X105388543Y-80163201D01*
X105476795Y-80116029D01*
X105554148Y-80052548D01*
X105617629Y-79975195D01*
X105664801Y-79886943D01*
X105693849Y-79791185D01*
X105703657Y-79691600D01*
X105703657Y-77991600D01*
X105693849Y-77892015D01*
X105664801Y-77796257D01*
X105617629Y-77708005D01*
X105554148Y-77630652D01*
X105476795Y-77567171D01*
X105388543Y-77519999D01*
X105292785Y-77490951D01*
X105193200Y-77481143D01*
X105022225Y-77481143D01*
X105208875Y-77356428D01*
X105398028Y-77167275D01*
X105546644Y-76944854D01*
X105649013Y-76697714D01*
X105701200Y-76435351D01*
X105701200Y-76167849D01*
X105649013Y-75905486D01*
X105546644Y-75658346D01*
X105398028Y-75435925D01*
X105208875Y-75246772D01*
X104986454Y-75098156D01*
X104825774Y-75031600D01*
X104986454Y-74965044D01*
X105208875Y-74816428D01*
X105398028Y-74627275D01*
X105546644Y-74404854D01*
X105649013Y-74157714D01*
X105701200Y-73895351D01*
X105701200Y-73627849D01*
X105649013Y-73365486D01*
X105546644Y-73118346D01*
X105398028Y-72895925D01*
X105208875Y-72706772D01*
X104986454Y-72558156D01*
X104825774Y-72491600D01*
X104986454Y-72425044D01*
X105208875Y-72276428D01*
X105398028Y-72087275D01*
X105546644Y-71864854D01*
X105649013Y-71617714D01*
X105701200Y-71355351D01*
X105701200Y-71087849D01*
X105649013Y-70825486D01*
X105546644Y-70578346D01*
X105398028Y-70355925D01*
X105359200Y-70317097D01*
X105359200Y-65429502D01*
X105364115Y-65379600D01*
X105344498Y-65180429D01*
X105286402Y-64988912D01*
X105240438Y-64902920D01*
X105192060Y-64812410D01*
X105065096Y-64657704D01*
X105026333Y-64625892D01*
X103634114Y-63233674D01*
X103856190Y-63011597D01*
X103883327Y-62989327D01*
X103972202Y-62881033D01*
X104038242Y-62757481D01*
X104078909Y-62623420D01*
X104089200Y-62518936D01*
X104089200Y-62518929D01*
X104092640Y-62484000D01*
X104089200Y-62449072D01*
X104089200Y-59650370D01*
X104182659Y-59510499D01*
X104251106Y-59345254D01*
X104286000Y-59169830D01*
X104286000Y-58990970D01*
X104251106Y-58815546D01*
X104182659Y-58650301D01*
X104083289Y-58501584D01*
X103956816Y-58375111D01*
X103808099Y-58275741D01*
X103642854Y-58207294D01*
X103467430Y-58172400D01*
X103288570Y-58172400D01*
X103113146Y-58207294D01*
X102947901Y-58275741D01*
X102799184Y-58375111D01*
X102672711Y-58501584D01*
X102573341Y-58650301D01*
X102504894Y-58815546D01*
X102470000Y-58990970D01*
X102470000Y-59169830D01*
X102504894Y-59345254D01*
X102573341Y-59510499D01*
X102666800Y-59650370D01*
X102666801Y-62189411D01*
X102628326Y-62227886D01*
X101286912Y-60886472D01*
X101255096Y-60847704D01*
X101100390Y-60720740D01*
X100923887Y-60626398D01*
X100732371Y-60568302D01*
X100583102Y-60553600D01*
X100533200Y-60548685D01*
X100483298Y-60553600D01*
X93929200Y-60553600D01*
X93929200Y-59396370D01*
X94022659Y-59256499D01*
X94091106Y-59091254D01*
X94126000Y-58915830D01*
X94126000Y-58736970D01*
X94091106Y-58561546D01*
X94022659Y-58396301D01*
X93929200Y-58256430D01*
X93929200Y-55914928D01*
X93932640Y-55880000D01*
X93929200Y-55845071D01*
X93929200Y-55845064D01*
X93918909Y-55740580D01*
X93878242Y-55606519D01*
X93812202Y-55482967D01*
X93723327Y-55374673D01*
X93696191Y-55352403D01*
X92091925Y-53748138D01*
X92059106Y-53583146D01*
X91990659Y-53417901D01*
X91891289Y-53269184D01*
X91764816Y-53142711D01*
X91616099Y-53043341D01*
X91450854Y-52974894D01*
X91275430Y-52940000D01*
X91096570Y-52940000D01*
X90921146Y-52974894D01*
X90755901Y-53043341D01*
X90607184Y-53142711D01*
X90480711Y-53269184D01*
X90381341Y-53417901D01*
X90312894Y-53583146D01*
X90278000Y-53758570D01*
X90278000Y-53937430D01*
X90312894Y-54112854D01*
X90381341Y-54278099D01*
X90480711Y-54426816D01*
X90607184Y-54553289D01*
X90755901Y-54652659D01*
X90921146Y-54721106D01*
X91086138Y-54753925D01*
X92506801Y-56174589D01*
X92506800Y-58256430D01*
X92413341Y-58396301D01*
X92344894Y-58561546D01*
X92310000Y-58736970D01*
X92310000Y-58915830D01*
X92344894Y-59091254D01*
X92413341Y-59256499D01*
X92506800Y-59396370D01*
X92506801Y-60553600D01*
X84851503Y-60553600D01*
X84812675Y-60514772D01*
X84590254Y-60366156D01*
X84343114Y-60263787D01*
X84080751Y-60211600D01*
X83813249Y-60211600D01*
X83550886Y-60263787D01*
X83404999Y-60324216D01*
X83404999Y-48664788D01*
X84804963Y-47264825D01*
X84969954Y-47232006D01*
X85135199Y-47163559D01*
X85283916Y-47064189D01*
X85410389Y-46937716D01*
X85509759Y-46788999D01*
X85578206Y-46623754D01*
X85613100Y-46448330D01*
X85613100Y-46269470D01*
X85578206Y-46094046D01*
X85509759Y-45928801D01*
X85410389Y-45780084D01*
X85283916Y-45653611D01*
X85135199Y-45554241D01*
X84969954Y-45485794D01*
X84794530Y-45450900D01*
X84615670Y-45450900D01*
X84440246Y-45485794D01*
X84275001Y-45554241D01*
X84126284Y-45653611D01*
X83999811Y-45780084D01*
X83900441Y-45928801D01*
X83831994Y-46094046D01*
X83799175Y-46259037D01*
X82215609Y-47842604D01*
X82188473Y-47864874D01*
X82166203Y-47892010D01*
X82166202Y-47892011D01*
X82099597Y-47973169D01*
X82033558Y-48096720D01*
X81992891Y-48230782D01*
X81979159Y-48370201D01*
X81982600Y-48405137D01*
X81982599Y-62147213D01*
X80746600Y-63383213D01*
X80746600Y-60667825D01*
X80797242Y-60573081D01*
X80837909Y-60439019D01*
X80851640Y-60299600D01*
X80837909Y-60160180D01*
X80797242Y-60026118D01*
X80731202Y-59902567D01*
X80664597Y-59821409D01*
X79826402Y-58983215D01*
X79804127Y-58956073D01*
X79695833Y-58867198D01*
X79572281Y-58801158D01*
X79438220Y-58760491D01*
X79333736Y-58750200D01*
X79333726Y-58750200D01*
X79298800Y-58746760D01*
X79263874Y-58750200D01*
X73390125Y-58750200D01*
X73355199Y-58746760D01*
X73320273Y-58750200D01*
X73320264Y-58750200D01*
X73215780Y-58760491D01*
X73081719Y-58801158D01*
X72958167Y-58867198D01*
X72849873Y-58956073D01*
X72827603Y-58983209D01*
X71601670Y-60209143D01*
X70397000Y-60209143D01*
X70297415Y-60218951D01*
X70201657Y-60247999D01*
X70113405Y-60295171D01*
X70036052Y-60358652D01*
X69972571Y-60436005D01*
X69925399Y-60524257D01*
X69896351Y-60620015D01*
X69886543Y-60719600D01*
X69886543Y-61882702D01*
X60965512Y-52961672D01*
X60933696Y-52922904D01*
X60778990Y-52795940D01*
X60602487Y-52701598D01*
X60410971Y-52643502D01*
X60261702Y-52628800D01*
X60211800Y-52623885D01*
X60161898Y-52628800D01*
X56734160Y-52628800D01*
X56698029Y-52561205D01*
X56634548Y-52483852D01*
X56557195Y-52420371D01*
X56468943Y-52373199D01*
X56373185Y-52344151D01*
X56273600Y-52334343D01*
X54673600Y-52334343D01*
X54574015Y-52344151D01*
X54478257Y-52373199D01*
X54390005Y-52420371D01*
X54312652Y-52483852D01*
X54249171Y-52561205D01*
X54201999Y-52649457D01*
X54172951Y-52745215D01*
X54163143Y-52844800D01*
X54163143Y-54444800D01*
X54172951Y-54544385D01*
X54201999Y-54640143D01*
X54249171Y-54728395D01*
X54312652Y-54805748D01*
X54390005Y-54869229D01*
X54478257Y-54916401D01*
X54574015Y-54945449D01*
X54673600Y-54955257D01*
X56273600Y-54955257D01*
X56373185Y-54945449D01*
X56468943Y-54916401D01*
X56557195Y-54869229D01*
X56634548Y-54805748D01*
X56698029Y-54728395D01*
X56734160Y-54660800D01*
X59790960Y-54660800D01*
X69971243Y-64841084D01*
X69971243Y-65702200D01*
X69985855Y-65850558D01*
X70029129Y-65993214D01*
X70099403Y-66124687D01*
X70193976Y-66239924D01*
X70309213Y-66334497D01*
X70358000Y-66360574D01*
X70358001Y-66989425D01*
X70309213Y-67015503D01*
X70193976Y-67110076D01*
X70099403Y-67225313D01*
X70029129Y-67356786D01*
X69985855Y-67499442D01*
X69971243Y-67647800D01*
X69971243Y-68597800D01*
X69985855Y-68746158D01*
X70029129Y-68888814D01*
X70099403Y-69020287D01*
X70193976Y-69135524D01*
X70309213Y-69230097D01*
X70356009Y-69255110D01*
X70358001Y-69275336D01*
X70368292Y-69379820D01*
X70389581Y-69450000D01*
X70408959Y-69513881D01*
X70429354Y-69552038D01*
X70267254Y-69484894D01*
X70091830Y-69450000D01*
X69912970Y-69450000D01*
X69737546Y-69484894D01*
X69572301Y-69553341D01*
X69423584Y-69652711D01*
X69297111Y-69779184D01*
X69197741Y-69927901D01*
X69129294Y-70093146D01*
X69094400Y-70268570D01*
X69094400Y-70447430D01*
X69129294Y-70622854D01*
X69197741Y-70788099D01*
X69297111Y-70936816D01*
X69327895Y-70967600D01*
X69297111Y-70998384D01*
X69197741Y-71147101D01*
X69129294Y-71312346D01*
X69094400Y-71487770D01*
X69094400Y-71666630D01*
X69129294Y-71842054D01*
X69197741Y-72007299D01*
X69289271Y-72144282D01*
X67818000Y-70673013D01*
X67818000Y-64246128D01*
X67821440Y-64211200D01*
X67818000Y-64176271D01*
X67818000Y-64176264D01*
X67807709Y-64071780D01*
X67767042Y-63937719D01*
X67701002Y-63814167D01*
X67635636Y-63734519D01*
X67634397Y-63733009D01*
X67634393Y-63733005D01*
X67612126Y-63705873D01*
X67584995Y-63683607D01*
X66669202Y-62767815D01*
X66646927Y-62740673D01*
X66538633Y-62651798D01*
X66415081Y-62585758D01*
X66281020Y-62545091D01*
X66176536Y-62534800D01*
X66176526Y-62534800D01*
X66141600Y-62531360D01*
X66106674Y-62534800D01*
X62010928Y-62534800D01*
X61976000Y-62531360D01*
X61941071Y-62534800D01*
X61941064Y-62534800D01*
X61836580Y-62545091D01*
X61702518Y-62585758D01*
X61578967Y-62651798D01*
X61497809Y-62718402D01*
X61497804Y-62718407D01*
X61470673Y-62740673D01*
X61448407Y-62767804D01*
X54772613Y-69443600D01*
X54396557Y-69443600D01*
X54396557Y-69154800D01*
X54386749Y-69055215D01*
X54357701Y-68959457D01*
X54310529Y-68871205D01*
X54247048Y-68793852D01*
X54169695Y-68730371D01*
X54081443Y-68683199D01*
X53985685Y-68654151D01*
X53886100Y-68644343D01*
X46011100Y-68644343D01*
X45911515Y-68654151D01*
X45815757Y-68683199D01*
X45727505Y-68730371D01*
X45650152Y-68793852D01*
X45586671Y-68871205D01*
X45539499Y-68959457D01*
X45510451Y-69055215D01*
X45500643Y-69154800D01*
X45500643Y-69443600D01*
X44512199Y-69443600D01*
X44495571Y-69388786D01*
X44425297Y-69257313D01*
X44330724Y-69142076D01*
X44215487Y-69047503D01*
X44084014Y-68977229D01*
X43941358Y-68933955D01*
X43793000Y-68919343D01*
X43118000Y-68919343D01*
X42969642Y-68933955D01*
X42826986Y-68977229D01*
X42695513Y-69047503D01*
X42580276Y-69142076D01*
X42485703Y-69257313D01*
X42415429Y-69388786D01*
X42372155Y-69531442D01*
X42357543Y-69679800D01*
X42357543Y-70629800D01*
X42372155Y-70778158D01*
X42415429Y-70920814D01*
X42485703Y-71052287D01*
X42580276Y-71167524D01*
X42695513Y-71262097D01*
X42826986Y-71332371D01*
X42969642Y-71375645D01*
X43118000Y-71390257D01*
X43793000Y-71390257D01*
X43941358Y-71375645D01*
X44084014Y-71332371D01*
X44215487Y-71262097D01*
X44330724Y-71167524D01*
X44425297Y-71052287D01*
X44495571Y-70920814D01*
X44512199Y-70866000D01*
X45500643Y-70866000D01*
X45500643Y-71154800D01*
X45510451Y-71254385D01*
X45539499Y-71350143D01*
X45586671Y-71438395D01*
X45650152Y-71515748D01*
X45727505Y-71579229D01*
X45815757Y-71626401D01*
X45911515Y-71655449D01*
X46011100Y-71665257D01*
X53886100Y-71665257D01*
X53985685Y-71655449D01*
X54081443Y-71626401D01*
X54169695Y-71579229D01*
X54247048Y-71515748D01*
X54310529Y-71438395D01*
X54357701Y-71350143D01*
X54386749Y-71254385D01*
X54396557Y-71154800D01*
X54396557Y-70866000D01*
X55032274Y-70866000D01*
X55067200Y-70869440D01*
X55102126Y-70866000D01*
X55102136Y-70866000D01*
X55206620Y-70855709D01*
X55340681Y-70815042D01*
X55464233Y-70749002D01*
X55572527Y-70660127D01*
X55594802Y-70632985D01*
X62270589Y-63957200D01*
X62762519Y-63957200D01*
X62625286Y-63998829D01*
X62493813Y-64069103D01*
X62378576Y-64163676D01*
X62284003Y-64278913D01*
X62213729Y-64410386D01*
X62170455Y-64553042D01*
X62155843Y-64701400D01*
X62155843Y-65651400D01*
X62170455Y-65799758D01*
X62213729Y-65942414D01*
X62284003Y-66073887D01*
X62378576Y-66189124D01*
X62493813Y-66283697D01*
X62542601Y-66309775D01*
X62542601Y-66398011D01*
X61345410Y-67595203D01*
X61318273Y-67617474D01*
X61229398Y-67725768D01*
X61163358Y-67849320D01*
X61122691Y-67983381D01*
X61112400Y-68087865D01*
X61112400Y-68087874D01*
X61108960Y-68122800D01*
X61112400Y-68157726D01*
X61112400Y-68462536D01*
X61112401Y-68462546D01*
X61112401Y-68644343D01*
X57886100Y-68644343D01*
X57786515Y-68654151D01*
X57690757Y-68683199D01*
X57602505Y-68730371D01*
X57525152Y-68793852D01*
X57461671Y-68871205D01*
X57414499Y-68959457D01*
X57385451Y-69055215D01*
X57375643Y-69154800D01*
X57375643Y-71154800D01*
X57385451Y-71254385D01*
X57414499Y-71350143D01*
X57461671Y-71438395D01*
X57525152Y-71515748D01*
X57602505Y-71579229D01*
X57690757Y-71626401D01*
X57786515Y-71655449D01*
X57886100Y-71665257D01*
X61119209Y-71665257D01*
X61122692Y-71700620D01*
X61156361Y-71811612D01*
X61163359Y-71834681D01*
X61229398Y-71958232D01*
X61272161Y-72010338D01*
X61318274Y-72066527D01*
X61345410Y-72088797D01*
X62002212Y-72745600D01*
X56829328Y-72745600D01*
X56794400Y-72742160D01*
X56759471Y-72745600D01*
X56759464Y-72745600D01*
X56654980Y-72755891D01*
X56520919Y-72796558D01*
X56397367Y-72862598D01*
X56289073Y-72951473D01*
X56266803Y-72978610D01*
X55452610Y-73792803D01*
X55425473Y-73815074D01*
X55336598Y-73923368D01*
X55270558Y-74046920D01*
X55229891Y-74180981D01*
X55219600Y-74285465D01*
X55219600Y-74285474D01*
X55216160Y-74320400D01*
X55219600Y-74355326D01*
X55219601Y-75092611D01*
X54846557Y-75465656D01*
X54846557Y-74454800D01*
X54836749Y-74355215D01*
X54807701Y-74259457D01*
X54760529Y-74171205D01*
X54697048Y-74093852D01*
X54619695Y-74030371D01*
X54531443Y-73983199D01*
X54435685Y-73954151D01*
X54336100Y-73944343D01*
X47161100Y-73944343D01*
X47061515Y-73954151D01*
X46965757Y-73983199D01*
X46877505Y-74030371D01*
X46800152Y-74093852D01*
X46736671Y-74171205D01*
X46689499Y-74259457D01*
X46660451Y-74355215D01*
X46650643Y-74454800D01*
X46650643Y-75844400D01*
X44490699Y-75844400D01*
X44474071Y-75789586D01*
X44403797Y-75658113D01*
X44309224Y-75542876D01*
X44193987Y-75448303D01*
X44062514Y-75378029D01*
X43919858Y-75334755D01*
X43771500Y-75320143D01*
X43096500Y-75320143D01*
X42948142Y-75334755D01*
X42805486Y-75378029D01*
X42674013Y-75448303D01*
X42558776Y-75542876D01*
X42464203Y-75658113D01*
X42393929Y-75789586D01*
X42350655Y-75932242D01*
X42336043Y-76080600D01*
X36587200Y-76080600D01*
X36587200Y-47714800D01*
X45223143Y-47714800D01*
X45223143Y-49414800D01*
X45232951Y-49514385D01*
X45261999Y-49610143D01*
X45309171Y-49698395D01*
X45372652Y-49775748D01*
X45450005Y-49839229D01*
X45538257Y-49886401D01*
X45634015Y-49915449D01*
X45733600Y-49925257D01*
X47433600Y-49925257D01*
X47533185Y-49915449D01*
X47628943Y-49886401D01*
X47717195Y-49839229D01*
X47794548Y-49775748D01*
X47858029Y-49698395D01*
X47905201Y-49610143D01*
X47934249Y-49514385D01*
X47944057Y-49414800D01*
X47944057Y-47714800D01*
X47934249Y-47615215D01*
X47905201Y-47519457D01*
X47858029Y-47431205D01*
X47794548Y-47353852D01*
X47717195Y-47290371D01*
X47628943Y-47243199D01*
X47533185Y-47214151D01*
X47433600Y-47204343D01*
X45733600Y-47204343D01*
X45634015Y-47214151D01*
X45538257Y-47243199D01*
X45450005Y-47290371D01*
X45372652Y-47353852D01*
X45309171Y-47431205D01*
X45261999Y-47519457D01*
X45232951Y-47615215D01*
X45223143Y-47714800D01*
X36587200Y-47714800D01*
X36587200Y-35892800D01*
X44481143Y-35892800D01*
X44481143Y-39392800D01*
X44490951Y-39492385D01*
X44519999Y-39588143D01*
X44567171Y-39676395D01*
X44630652Y-39753748D01*
X44708005Y-39817229D01*
X44796257Y-39864401D01*
X44892015Y-39893449D01*
X44991600Y-39903257D01*
X48491600Y-39903257D01*
X48591185Y-39893449D01*
X48686943Y-39864401D01*
X48775195Y-39817229D01*
X48852548Y-39753748D01*
X48916029Y-39676395D01*
X48963201Y-39588143D01*
X48992249Y-39492385D01*
X49002057Y-39392800D01*
X49002057Y-37277140D01*
X51790600Y-37277140D01*
X51790600Y-37752460D01*
X51883331Y-38218646D01*
X52065228Y-38657784D01*
X52329301Y-39052998D01*
X52665402Y-39389099D01*
X53060616Y-39653172D01*
X53499754Y-39835069D01*
X53649220Y-39864800D01*
X53499754Y-39894531D01*
X53060616Y-40076428D01*
X52665402Y-40340501D01*
X52329301Y-40676602D01*
X52065228Y-41071816D01*
X51883331Y-41510954D01*
X51790600Y-41977140D01*
X51790600Y-42452460D01*
X51883331Y-42918646D01*
X52065228Y-43357784D01*
X52329301Y-43752998D01*
X52665402Y-44089099D01*
X53060616Y-44353172D01*
X53499754Y-44535069D01*
X53649220Y-44564800D01*
X53499754Y-44594531D01*
X53060616Y-44776428D01*
X52665402Y-45040501D01*
X52329301Y-45376602D01*
X52065228Y-45771816D01*
X51883331Y-46210954D01*
X51790600Y-46677140D01*
X51790600Y-47152460D01*
X51883331Y-47618646D01*
X52065228Y-48057784D01*
X52329301Y-48452998D01*
X52665402Y-48789099D01*
X53060616Y-49053172D01*
X53499754Y-49235069D01*
X53965940Y-49327800D01*
X54441260Y-49327800D01*
X54907446Y-49235069D01*
X55346584Y-49053172D01*
X55741798Y-48789099D01*
X56077899Y-48452998D01*
X56341972Y-48057784D01*
X56523869Y-47618646D01*
X56616600Y-47152460D01*
X56616600Y-46677140D01*
X56523869Y-46210954D01*
X56341972Y-45771816D01*
X56077899Y-45376602D01*
X55741798Y-45040501D01*
X55346584Y-44776428D01*
X54907446Y-44594531D01*
X54757980Y-44564800D01*
X54907446Y-44535069D01*
X55346584Y-44353172D01*
X55741798Y-44089099D01*
X56077899Y-43752998D01*
X56341972Y-43357784D01*
X56523869Y-42918646D01*
X56616600Y-42452460D01*
X56616600Y-41977140D01*
X56544526Y-41614800D01*
X60713143Y-41614800D01*
X60713143Y-42814800D01*
X60722951Y-42914385D01*
X60751999Y-43010143D01*
X60799171Y-43098395D01*
X60807600Y-43108666D01*
X60807601Y-45898688D01*
X60802685Y-45948600D01*
X60822302Y-46147770D01*
X60841469Y-46210954D01*
X60880399Y-46339287D01*
X60974741Y-46515790D01*
X61101705Y-46670496D01*
X61140468Y-46702308D01*
X68313300Y-53875141D01*
X68313300Y-53877738D01*
X68364546Y-54135368D01*
X68465068Y-54378049D01*
X68611003Y-54596457D01*
X68796743Y-54782197D01*
X69015151Y-54928132D01*
X69257832Y-55028654D01*
X69515462Y-55079900D01*
X69778138Y-55079900D01*
X70035768Y-55028654D01*
X70278449Y-54928132D01*
X70496857Y-54782197D01*
X70682597Y-54596457D01*
X70828532Y-54378049D01*
X70929054Y-54135368D01*
X70980300Y-53877738D01*
X70980300Y-53615062D01*
X70929054Y-53357432D01*
X70828532Y-53114751D01*
X70682597Y-52896343D01*
X70496857Y-52710603D01*
X70278449Y-52564668D01*
X70035768Y-52464146D01*
X69778138Y-52412900D01*
X69724741Y-52412900D01*
X62839600Y-45527760D01*
X62839600Y-43108666D01*
X62848029Y-43098395D01*
X62895201Y-43010143D01*
X62924249Y-42914385D01*
X62934057Y-42814800D01*
X62934057Y-41614800D01*
X62924249Y-41515215D01*
X62895201Y-41419457D01*
X62848029Y-41331205D01*
X62784548Y-41253852D01*
X62707195Y-41190371D01*
X62618943Y-41143199D01*
X62523185Y-41114151D01*
X62423600Y-41104343D01*
X61223600Y-41104343D01*
X61124015Y-41114151D01*
X61028257Y-41143199D01*
X60940005Y-41190371D01*
X60862652Y-41253852D01*
X60799171Y-41331205D01*
X60751999Y-41419457D01*
X60722951Y-41515215D01*
X60713143Y-41614800D01*
X56544526Y-41614800D01*
X56523869Y-41510954D01*
X56341972Y-41071816D01*
X56077899Y-40676602D01*
X55741798Y-40340501D01*
X55346584Y-40076428D01*
X54907446Y-39894531D01*
X54757980Y-39864800D01*
X54907446Y-39835069D01*
X55346584Y-39653172D01*
X55741798Y-39389099D01*
X56077899Y-39052998D01*
X56341972Y-38657784D01*
X56523869Y-38218646D01*
X56616600Y-37752460D01*
X56616600Y-37277140D01*
X56523869Y-36810954D01*
X56341972Y-36371816D01*
X56294201Y-36300321D01*
X93292800Y-36300321D01*
X93292800Y-36498879D01*
X93331537Y-36693623D01*
X93407522Y-36877067D01*
X93517835Y-37042162D01*
X93658238Y-37182565D01*
X93823333Y-37292878D01*
X94006777Y-37368863D01*
X94201521Y-37407600D01*
X94400079Y-37407600D01*
X94594823Y-37368863D01*
X94778267Y-37292878D01*
X94943362Y-37182565D01*
X95083765Y-37042162D01*
X95194078Y-36877067D01*
X95270063Y-36693623D01*
X95308800Y-36498879D01*
X95308800Y-36300321D01*
X101692800Y-36300321D01*
X101692800Y-36498879D01*
X101731537Y-36693623D01*
X101807522Y-36877067D01*
X101917835Y-37042162D01*
X102058238Y-37182565D01*
X102223333Y-37292878D01*
X102406777Y-37368863D01*
X102601521Y-37407600D01*
X102800079Y-37407600D01*
X102994823Y-37368863D01*
X103178267Y-37292878D01*
X103343362Y-37182565D01*
X103483765Y-37042162D01*
X103594078Y-36877067D01*
X103670063Y-36693623D01*
X103708800Y-36498879D01*
X103708800Y-36300321D01*
X103670063Y-36105577D01*
X103594078Y-35922133D01*
X103483765Y-35757038D01*
X103343362Y-35616635D01*
X103178267Y-35506322D01*
X102994823Y-35430337D01*
X102800079Y-35391600D01*
X102601521Y-35391600D01*
X102406777Y-35430337D01*
X102223333Y-35506322D01*
X102058238Y-35616635D01*
X101917835Y-35757038D01*
X101807522Y-35922133D01*
X101731537Y-36105577D01*
X101692800Y-36300321D01*
X95308800Y-36300321D01*
X95270063Y-36105577D01*
X95194078Y-35922133D01*
X95083765Y-35757038D01*
X94943362Y-35616635D01*
X94778267Y-35506322D01*
X94594823Y-35430337D01*
X94400079Y-35391600D01*
X94201521Y-35391600D01*
X94006777Y-35430337D01*
X93823333Y-35506322D01*
X93658238Y-35616635D01*
X93517835Y-35757038D01*
X93407522Y-35922133D01*
X93331537Y-36105577D01*
X93292800Y-36300321D01*
X56294201Y-36300321D01*
X56077899Y-35976602D01*
X55741798Y-35640501D01*
X55346584Y-35376428D01*
X54907446Y-35194531D01*
X54441260Y-35101800D01*
X53965940Y-35101800D01*
X53499754Y-35194531D01*
X53060616Y-35376428D01*
X52665402Y-35640501D01*
X52329301Y-35976602D01*
X52065228Y-36371816D01*
X51883331Y-36810954D01*
X51790600Y-37277140D01*
X49002057Y-37277140D01*
X49002057Y-35892800D01*
X48992249Y-35793215D01*
X48963201Y-35697457D01*
X48916029Y-35609205D01*
X48852548Y-35531852D01*
X48775195Y-35468371D01*
X48686943Y-35421199D01*
X48591185Y-35392151D01*
X48491600Y-35382343D01*
X44991600Y-35382343D01*
X44892015Y-35392151D01*
X44796257Y-35421199D01*
X44708005Y-35468371D01*
X44630652Y-35531852D01*
X44567171Y-35609205D01*
X44519999Y-35697457D01*
X44490951Y-35793215D01*
X44481143Y-35892800D01*
X36587200Y-35892800D01*
X36587200Y-31758400D01*
X108384000Y-31758400D01*
X108384000Y-90555200D01*
G37*
X108384000Y-90555200D02*
X36587200Y-90555200D01*
X36587200Y-76080600D01*
X42336043Y-76080600D01*
X42336043Y-77030600D01*
X42350655Y-77178958D01*
X42393929Y-77321614D01*
X42464203Y-77453087D01*
X42558776Y-77568324D01*
X42674013Y-77662897D01*
X42805486Y-77733171D01*
X42948142Y-77776445D01*
X43096500Y-77791057D01*
X43771500Y-77791057D01*
X43919858Y-77776445D01*
X44062514Y-77733171D01*
X44193987Y-77662897D01*
X44309224Y-77568324D01*
X44403797Y-77453087D01*
X44474071Y-77321614D01*
X44490699Y-77266800D01*
X46650643Y-77266800D01*
X46650643Y-78554800D01*
X46660451Y-78654385D01*
X46689499Y-78750143D01*
X46736671Y-78838395D01*
X46800152Y-78915748D01*
X46877505Y-78979229D01*
X46965757Y-79026401D01*
X47061515Y-79055449D01*
X47161100Y-79065257D01*
X54336100Y-79065257D01*
X54435685Y-79055449D01*
X54531443Y-79026401D01*
X54619695Y-78979229D01*
X54697048Y-78915748D01*
X54760529Y-78838395D01*
X54807701Y-78750143D01*
X54836749Y-78654385D01*
X54846557Y-78554800D01*
X54846557Y-77216155D01*
X54848126Y-77216000D01*
X54848136Y-77216000D01*
X54952620Y-77205709D01*
X55086681Y-77165042D01*
X55210233Y-77099002D01*
X55318527Y-77010127D01*
X55340802Y-76982985D01*
X56408991Y-75914797D01*
X56436127Y-75892527D01*
X56525002Y-75784233D01*
X56591042Y-75660681D01*
X56631709Y-75526620D01*
X56642000Y-75422136D01*
X56642000Y-75422127D01*
X56645440Y-75387201D01*
X56642000Y-75352275D01*
X56642000Y-74614987D01*
X57088988Y-74168000D01*
X57814301Y-74168000D01*
X57811671Y-74171205D01*
X57764499Y-74259457D01*
X57735451Y-74355215D01*
X57725643Y-74454800D01*
X57725643Y-78554800D01*
X57735451Y-78654385D01*
X57764499Y-78750143D01*
X57811671Y-78838395D01*
X57875152Y-78915748D01*
X57952505Y-78979229D01*
X58040757Y-79026401D01*
X58136515Y-79055449D01*
X58236100Y-79065257D01*
X61112401Y-79065257D01*
X61112401Y-80170272D01*
X61012813Y-80223503D01*
X60897576Y-80318076D01*
X60803003Y-80433313D01*
X60732729Y-80564786D01*
X60689455Y-80707442D01*
X60674843Y-80855800D01*
X60674843Y-81805800D01*
X60689455Y-81954158D01*
X60732729Y-82096814D01*
X60803003Y-82228287D01*
X60897576Y-82343524D01*
X61012813Y-82438097D01*
X61032088Y-82448400D01*
X56605641Y-82448400D01*
X55058912Y-80901672D01*
X55027096Y-80862904D01*
X54872390Y-80735940D01*
X54695887Y-80641598D01*
X54504371Y-80583502D01*
X54355102Y-80568800D01*
X54305200Y-80563885D01*
X54255298Y-80568800D01*
X50240234Y-80568800D01*
X50084894Y-80413460D01*
X49837906Y-80248427D01*
X49563468Y-80134751D01*
X49272125Y-80076800D01*
X48975075Y-80076800D01*
X48683732Y-80134751D01*
X48409294Y-80248427D01*
X48162306Y-80413460D01*
X47952260Y-80623506D01*
X47787227Y-80870494D01*
X47673551Y-81144932D01*
X47615600Y-81436275D01*
X47615600Y-81733325D01*
X47673551Y-82024668D01*
X47787227Y-82299106D01*
X47952260Y-82546094D01*
X48162306Y-82756140D01*
X48409294Y-82921173D01*
X48683732Y-83034849D01*
X48975075Y-83092800D01*
X49272125Y-83092800D01*
X49563468Y-83034849D01*
X49837906Y-82921173D01*
X50084894Y-82756140D01*
X50240234Y-82600800D01*
X53884360Y-82600800D01*
X55431092Y-84147533D01*
X55462904Y-84186296D01*
X55617610Y-84313260D01*
X55794111Y-84407601D01*
X55794113Y-84407602D01*
X55985629Y-84465698D01*
X56184800Y-84485315D01*
X56234702Y-84480400D01*
X63704098Y-84480400D01*
X63754000Y-84485315D01*
X63803902Y-84480400D01*
X63953171Y-84465698D01*
X64144687Y-84407602D01*
X64321190Y-84313260D01*
X64475896Y-84186296D01*
X64507712Y-84147528D01*
X66793706Y-81861535D01*
X66793710Y-81861530D01*
X67852084Y-80803157D01*
X68699400Y-80803157D01*
X68847758Y-80788545D01*
X68990414Y-80745271D01*
X69121887Y-80674997D01*
X69237124Y-80580424D01*
X69331697Y-80465187D01*
X69401971Y-80333714D01*
X69445245Y-80191058D01*
X69459857Y-80042700D01*
X69459857Y-79367700D01*
X69445245Y-79219342D01*
X69401971Y-79076686D01*
X69331697Y-78945213D01*
X69240400Y-78833968D01*
X69240400Y-78754440D01*
X69610441Y-78384400D01*
X71017502Y-78384400D01*
X71166771Y-78369698D01*
X71358287Y-78311602D01*
X71534790Y-78217260D01*
X71689496Y-78090296D01*
X71698274Y-78079600D01*
X73574274Y-78079600D01*
X73609200Y-78083040D01*
X73644126Y-78079600D01*
X73644136Y-78079600D01*
X73748620Y-78069309D01*
X73882681Y-78028642D01*
X74006233Y-77962602D01*
X74114527Y-77873727D01*
X74136802Y-77846585D01*
X74406790Y-77576597D01*
X74433926Y-77554327D01*
X74522802Y-77446033D01*
X74588842Y-77322481D01*
X74629509Y-77188420D01*
X74637789Y-77104352D01*
X74742817Y-77094008D01*
X74852645Y-77060692D01*
X74953862Y-77006590D01*
X75042581Y-76933781D01*
X75115390Y-76845062D01*
X75169492Y-76743845D01*
X75202808Y-76634017D01*
X75214057Y-76519800D01*
X75214057Y-76369800D01*
X75202808Y-76255583D01*
X75184370Y-76194800D01*
X75202808Y-76134017D01*
X75214057Y-76019800D01*
X75214057Y-75869800D01*
X75202808Y-75755583D01*
X75184370Y-75694800D01*
X75202808Y-75634017D01*
X75214057Y-75519800D01*
X75214057Y-75369800D01*
X75202808Y-75255583D01*
X75184370Y-75194800D01*
X75202808Y-75134017D01*
X75214057Y-75019800D01*
X75214057Y-74869800D01*
X75202808Y-74755583D01*
X75184370Y-74694800D01*
X75202808Y-74634017D01*
X75214057Y-74519800D01*
X75214057Y-74369800D01*
X75202808Y-74255583D01*
X75184370Y-74194800D01*
X75202808Y-74134017D01*
X75209467Y-74066400D01*
X75795096Y-74066400D01*
X75990495Y-74261800D01*
X75901111Y-74351184D01*
X75801741Y-74499901D01*
X75733294Y-74665146D01*
X75698400Y-74840570D01*
X75698400Y-75019430D01*
X75733294Y-75194854D01*
X75801741Y-75360099D01*
X75901111Y-75508816D01*
X76027584Y-75635289D01*
X76176301Y-75734659D01*
X76341546Y-75803106D01*
X76516970Y-75838000D01*
X76695830Y-75838000D01*
X76868449Y-75803664D01*
X76869221Y-75811502D01*
X76871390Y-75818651D01*
X76904079Y-75926411D01*
X76960684Y-76032313D01*
X77036862Y-76125138D01*
X77060132Y-76144235D01*
X77744001Y-76828105D01*
X77744001Y-77087751D01*
X77664383Y-77095592D01*
X77603600Y-77114030D01*
X77542817Y-77095592D01*
X77428600Y-77084343D01*
X77278600Y-77084343D01*
X77164383Y-77095592D01*
X77103600Y-77114030D01*
X77042817Y-77095592D01*
X76928600Y-77084343D01*
X76778600Y-77084343D01*
X76664383Y-77095592D01*
X76554555Y-77128908D01*
X76453338Y-77183010D01*
X76364619Y-77255819D01*
X76353600Y-77269246D01*
X76342581Y-77255819D01*
X76253862Y-77183010D01*
X76152645Y-77128908D01*
X76042817Y-77095592D01*
X75928600Y-77084343D01*
X75778600Y-77084343D01*
X75664383Y-77095592D01*
X75554555Y-77128908D01*
X75453338Y-77183010D01*
X75364619Y-77255819D01*
X75291810Y-77344538D01*
X75237708Y-77445755D01*
X75204392Y-77555583D01*
X75194246Y-77658600D01*
X74827125Y-77658600D01*
X74792199Y-77655160D01*
X74757273Y-77658600D01*
X74757264Y-77658600D01*
X74652780Y-77668891D01*
X74518719Y-77709558D01*
X74443228Y-77749909D01*
X74395167Y-77775598D01*
X74314008Y-77842203D01*
X74314004Y-77842207D01*
X74286873Y-77864473D01*
X74264607Y-77891604D01*
X73132913Y-79023300D01*
X72964574Y-79023300D01*
X72938497Y-78974513D01*
X72843924Y-78859276D01*
X72728687Y-78764703D01*
X72597214Y-78694429D01*
X72454558Y-78651155D01*
X72306200Y-78636543D01*
X71356200Y-78636543D01*
X71207842Y-78651155D01*
X71065186Y-78694429D01*
X70933713Y-78764703D01*
X70818476Y-78859276D01*
X70723903Y-78974513D01*
X70653629Y-79105986D01*
X70610355Y-79248642D01*
X70595743Y-79397000D01*
X70595743Y-80072000D01*
X70610355Y-80220358D01*
X70653629Y-80363014D01*
X70723903Y-80494487D01*
X70818476Y-80609724D01*
X70933713Y-80704297D01*
X71065186Y-80774571D01*
X71207842Y-80817845D01*
X71356200Y-80832457D01*
X72306200Y-80832457D01*
X72454558Y-80817845D01*
X72597214Y-80774571D01*
X72716300Y-80710918D01*
X72716301Y-82233911D01*
X71708614Y-83241599D01*
X71708609Y-83241603D01*
X69834998Y-85115215D01*
X69829049Y-85054815D01*
X69800001Y-84959057D01*
X69752829Y-84870805D01*
X69689348Y-84793452D01*
X69611995Y-84729971D01*
X69523743Y-84682799D01*
X69427985Y-84653751D01*
X69328400Y-84643943D01*
X67628400Y-84643943D01*
X67528815Y-84653751D01*
X67433057Y-84682799D01*
X67344805Y-84729971D01*
X67267452Y-84793452D01*
X67203971Y-84870805D01*
X67156799Y-84959057D01*
X67127751Y-85054815D01*
X67117943Y-85154400D01*
X67117943Y-85325375D01*
X66993228Y-85138725D01*
X66804075Y-84949572D01*
X66581654Y-84800956D01*
X66334514Y-84698587D01*
X66072151Y-84646400D01*
X65804649Y-84646400D01*
X65542286Y-84698587D01*
X65295146Y-84800956D01*
X65072725Y-84949572D01*
X64883572Y-85138725D01*
X64734956Y-85361146D01*
X64632587Y-85608286D01*
X64580400Y-85870649D01*
X64580400Y-86138151D01*
X64632587Y-86400514D01*
X64734956Y-86647654D01*
X64883572Y-86870075D01*
X65072725Y-87059228D01*
X65295146Y-87207844D01*
X65542286Y-87310213D01*
X65804649Y-87362400D01*
X66072151Y-87362400D01*
X66334514Y-87310213D01*
X66581654Y-87207844D01*
X66804075Y-87059228D01*
X66993228Y-86870075D01*
X67117943Y-86683425D01*
X67117943Y-86854400D01*
X67127751Y-86953985D01*
X67156799Y-87049743D01*
X67203971Y-87137995D01*
X67267452Y-87215348D01*
X67344805Y-87278829D01*
X67433057Y-87326001D01*
X67528815Y-87355049D01*
X67628400Y-87364857D01*
X69328400Y-87364857D01*
X69427985Y-87355049D01*
X69523743Y-87326001D01*
X69611995Y-87278829D01*
X69689348Y-87215348D01*
X69752829Y-87137995D01*
X69800001Y-87049743D01*
X69829049Y-86953985D01*
X69838857Y-86854400D01*
X69838857Y-86715600D01*
X69916674Y-86715600D01*
X69951600Y-86719040D01*
X69986526Y-86715600D01*
X69986536Y-86715600D01*
X70091020Y-86705309D01*
X70225081Y-86664642D01*
X70348633Y-86598602D01*
X70456927Y-86509727D01*
X70479202Y-86482585D01*
X72714397Y-84247391D01*
X72714401Y-84247386D01*
X73893161Y-83068627D01*
X73941101Y-83100659D01*
X74106346Y-83169106D01*
X74281770Y-83204000D01*
X74460630Y-83204000D01*
X74636054Y-83169106D01*
X74801299Y-83100659D01*
X74941170Y-83007200D01*
X75295811Y-83007200D01*
X73620367Y-84682645D01*
X73438151Y-84646400D01*
X73170649Y-84646400D01*
X72908286Y-84698587D01*
X72661146Y-84800956D01*
X72438725Y-84949572D01*
X72249572Y-85138725D01*
X72100956Y-85361146D01*
X71998587Y-85608286D01*
X71946400Y-85870649D01*
X71946400Y-86138151D01*
X71998587Y-86400514D01*
X72100956Y-86647654D01*
X72249572Y-86870075D01*
X72438725Y-87059228D01*
X72661146Y-87207844D01*
X72908286Y-87310213D01*
X73170649Y-87362400D01*
X73438151Y-87362400D01*
X73700514Y-87310213D01*
X73947654Y-87207844D01*
X74170075Y-87059228D01*
X74359228Y-86870075D01*
X74507844Y-86647654D01*
X74574400Y-86486974D01*
X74640956Y-86647654D01*
X74789572Y-86870075D01*
X74978725Y-87059228D01*
X75201146Y-87207844D01*
X75448286Y-87310213D01*
X75710649Y-87362400D01*
X75978151Y-87362400D01*
X76240514Y-87310213D01*
X76487654Y-87207844D01*
X76710075Y-87059228D01*
X76899228Y-86870075D01*
X77047844Y-86647654D01*
X77114400Y-86486974D01*
X77180956Y-86647654D01*
X77329572Y-86870075D01*
X77518725Y-87059228D01*
X77741146Y-87207844D01*
X77988286Y-87310213D01*
X78250649Y-87362400D01*
X78518151Y-87362400D01*
X78780514Y-87310213D01*
X79027654Y-87207844D01*
X79250075Y-87059228D01*
X79439228Y-86870075D01*
X79587844Y-86647654D01*
X79690213Y-86400514D01*
X79742400Y-86138151D01*
X79742400Y-85870649D01*
X79690213Y-85608286D01*
X79587844Y-85361146D01*
X79439228Y-85138725D01*
X79250075Y-84949572D01*
X79027654Y-84800956D01*
X78780514Y-84698587D01*
X78518151Y-84646400D01*
X78250649Y-84646400D01*
X77988286Y-84698587D01*
X77741146Y-84800956D01*
X77518725Y-84949572D01*
X77329572Y-85138725D01*
X77180956Y-85361146D01*
X77114400Y-85521826D01*
X77047844Y-85361146D01*
X76899228Y-85138725D01*
X76710075Y-84949572D01*
X76487654Y-84800956D01*
X76240514Y-84698587D01*
X75978151Y-84646400D01*
X75710649Y-84646400D01*
X75657645Y-84656943D01*
X76367589Y-83947000D01*
X78984474Y-83947000D01*
X79019400Y-83950440D01*
X79054326Y-83947000D01*
X79054336Y-83947000D01*
X79158820Y-83936709D01*
X79292881Y-83896042D01*
X79416433Y-83830002D01*
X79524727Y-83741127D01*
X79525306Y-83740422D01*
X79543294Y-83830854D01*
X79611741Y-83996099D01*
X79711111Y-84144816D01*
X79837584Y-84271289D01*
X79986301Y-84370659D01*
X80151546Y-84439106D01*
X80326970Y-84474000D01*
X80505830Y-84474000D01*
X80681254Y-84439106D01*
X80846499Y-84370659D01*
X80995216Y-84271289D01*
X81121689Y-84144816D01*
X81221059Y-83996099D01*
X81265165Y-83889619D01*
X81393770Y-83915200D01*
X81572630Y-83915200D01*
X81748054Y-83880306D01*
X81913299Y-83811859D01*
X82062016Y-83712489D01*
X82188489Y-83586016D01*
X82287859Y-83437299D01*
X82356306Y-83272054D01*
X82390052Y-83102400D01*
X82436230Y-83102400D01*
X82611654Y-83067506D01*
X82642400Y-83054770D01*
X82642401Y-84920389D01*
X82598725Y-84949572D01*
X82409572Y-85138725D01*
X82260956Y-85361146D01*
X82158587Y-85608286D01*
X82106400Y-85870649D01*
X82106400Y-86138151D01*
X82158587Y-86400514D01*
X82260956Y-86647654D01*
X82409572Y-86870075D01*
X82598725Y-87059228D01*
X82821146Y-87207844D01*
X83068286Y-87310213D01*
X83330649Y-87362400D01*
X83598151Y-87362400D01*
X83860514Y-87310213D01*
X84107654Y-87207844D01*
X84330075Y-87059228D01*
X84519228Y-86870075D01*
X84643943Y-86683425D01*
X84643943Y-86854400D01*
X84653751Y-86953985D01*
X84682799Y-87049743D01*
X84729971Y-87137995D01*
X84793452Y-87215348D01*
X84870805Y-87278829D01*
X84959057Y-87326001D01*
X85054815Y-87355049D01*
X85154400Y-87364857D01*
X86854400Y-87364857D01*
X86953985Y-87355049D01*
X87049743Y-87326001D01*
X87137995Y-87278829D01*
X87215348Y-87215348D01*
X87278829Y-87137995D01*
X87326001Y-87049743D01*
X87355049Y-86953985D01*
X87364857Y-86854400D01*
X87364857Y-85154400D01*
X87355049Y-85054815D01*
X87326001Y-84959057D01*
X87278829Y-84870805D01*
X87215348Y-84793452D01*
X87137995Y-84729971D01*
X87049743Y-84682799D01*
X86953985Y-84653751D01*
X86854400Y-84643943D01*
X86715600Y-84643943D01*
X86715600Y-84368587D01*
X88950295Y-82133893D01*
X88977426Y-82111627D01*
X88999693Y-82084495D01*
X88999697Y-82084491D01*
X89066302Y-82003333D01*
X89132342Y-81879782D01*
X89173009Y-81745720D01*
X89174771Y-81727832D01*
X89183300Y-81641236D01*
X89183300Y-81641229D01*
X89186740Y-81606300D01*
X89183300Y-81571372D01*
X89183300Y-80838574D01*
X89232087Y-80812497D01*
X89347324Y-80717924D01*
X89441897Y-80602687D01*
X89512171Y-80471214D01*
X89555445Y-80328558D01*
X89570057Y-80180200D01*
X89570057Y-79230200D01*
X89555445Y-79081842D01*
X89512171Y-78939186D01*
X89441897Y-78807713D01*
X89347324Y-78692476D01*
X89232087Y-78597903D01*
X89100614Y-78527629D01*
X88957958Y-78484355D01*
X88809600Y-78469743D01*
X88134600Y-78469743D01*
X87986242Y-78484355D01*
X87843586Y-78527629D01*
X87712113Y-78597903D01*
X87596876Y-78692476D01*
X87539986Y-78761797D01*
X85989800Y-77211613D01*
X85989800Y-77104154D01*
X86092817Y-77094008D01*
X86202645Y-77060692D01*
X86303862Y-77006590D01*
X86392581Y-76933781D01*
X86465390Y-76845062D01*
X86519492Y-76743845D01*
X86552808Y-76634017D01*
X86564057Y-76519800D01*
X86564057Y-76369800D01*
X86552808Y-76255583D01*
X86519492Y-76145755D01*
X86465390Y-76044538D01*
X86392581Y-75955819D01*
X86379154Y-75944800D01*
X86392581Y-75933781D01*
X86465390Y-75845062D01*
X86519492Y-75743845D01*
X86552808Y-75634017D01*
X86562107Y-75539600D01*
X87261775Y-75539600D01*
X87356519Y-75590242D01*
X87490580Y-75630909D01*
X87595064Y-75641200D01*
X89904830Y-75641200D01*
X90044701Y-75734659D01*
X90209946Y-75803106D01*
X90385370Y-75838000D01*
X90564230Y-75838000D01*
X90739654Y-75803106D01*
X90904899Y-75734659D01*
X91053616Y-75635289D01*
X91180089Y-75508816D01*
X91279459Y-75360099D01*
X91291776Y-75330364D01*
X91389200Y-75427788D01*
X91389201Y-76673064D01*
X91385760Y-76708000D01*
X91389201Y-76742936D01*
X91399492Y-76847420D01*
X91425689Y-76933781D01*
X91440159Y-76981481D01*
X91506198Y-77105032D01*
X91558884Y-77169230D01*
X91595074Y-77213327D01*
X91622210Y-77235597D01*
X92718475Y-78331864D01*
X92751294Y-78496854D01*
X92819741Y-78662099D01*
X92919111Y-78810816D01*
X93045584Y-78937289D01*
X93194301Y-79036659D01*
X93359546Y-79105106D01*
X93534970Y-79140000D01*
X93713830Y-79140000D01*
X93889254Y-79105106D01*
X94054499Y-79036659D01*
X94203216Y-78937289D01*
X94329689Y-78810816D01*
X94429059Y-78662099D01*
X94497506Y-78496854D01*
X94532400Y-78321430D01*
X94532400Y-78142570D01*
X94497506Y-77967146D01*
X94429059Y-77801901D01*
X94329689Y-77653184D01*
X94203216Y-77526711D01*
X94054499Y-77427341D01*
X93889254Y-77358894D01*
X93724264Y-77326075D01*
X92811600Y-76413413D01*
X92811600Y-75168125D01*
X92815040Y-75133199D01*
X92811600Y-75098273D01*
X92811600Y-75098264D01*
X92801309Y-74993780D01*
X92760642Y-74859719D01*
X92694602Y-74736167D01*
X92686914Y-74726799D01*
X92627997Y-74655009D01*
X92627993Y-74655005D01*
X92605726Y-74627873D01*
X92578595Y-74605607D01*
X91510402Y-73537415D01*
X91488127Y-73510273D01*
X91379833Y-73421398D01*
X91293333Y-73375163D01*
X91297106Y-73366054D01*
X91332000Y-73190630D01*
X91332000Y-73011770D01*
X91297106Y-72836346D01*
X91228659Y-72671101D01*
X91129289Y-72522384D01*
X91123905Y-72517000D01*
X91129289Y-72511616D01*
X91228659Y-72362899D01*
X91297106Y-72197654D01*
X91332000Y-72022230D01*
X91332000Y-71843370D01*
X91297106Y-71667946D01*
X91228659Y-71502701D01*
X91129289Y-71353984D01*
X91002816Y-71227511D01*
X90917942Y-71170800D01*
X91602613Y-71170800D01*
X95668802Y-75236990D01*
X95691073Y-75264127D01*
X95799367Y-75353002D01*
X95922919Y-75419042D01*
X96056980Y-75459709D01*
X96161464Y-75470000D01*
X96161471Y-75470000D01*
X96196400Y-75473440D01*
X96231328Y-75470000D01*
X96319344Y-75470000D01*
X96352103Y-75531288D01*
X96446675Y-75646525D01*
X96561912Y-75741097D01*
X96693385Y-75811371D01*
X96836041Y-75854645D01*
X96984399Y-75869257D01*
X97884401Y-75869257D01*
X98032759Y-75854645D01*
X98175415Y-75811371D01*
X98306888Y-75741097D01*
X98325283Y-75726001D01*
X100571732Y-75726001D01*
X100497387Y-75905486D01*
X100445200Y-76167849D01*
X100445200Y-76435351D01*
X100497387Y-76697714D01*
X100599756Y-76944854D01*
X100748372Y-77167275D01*
X100937525Y-77356428D01*
X101159946Y-77505044D01*
X101407086Y-77607413D01*
X101669449Y-77659600D01*
X101936951Y-77659600D01*
X102199314Y-77607413D01*
X102446454Y-77505044D01*
X102668875Y-77356428D01*
X102858028Y-77167275D01*
X103006644Y-76944854D01*
X103073200Y-76784174D01*
X103139756Y-76944854D01*
X103288372Y-77167275D01*
X103477525Y-77356428D01*
X103664175Y-77481143D01*
X103493200Y-77481143D01*
X103393615Y-77490951D01*
X103297857Y-77519999D01*
X103209605Y-77567171D01*
X103132252Y-77630652D01*
X103068771Y-77708005D01*
X103021599Y-77796257D01*
X102992551Y-77892015D01*
X102982743Y-77991600D01*
X102982743Y-78617412D01*
X102957029Y-78702180D01*
X102943297Y-78841600D01*
X102957029Y-78981020D01*
X102982743Y-79065788D01*
X102982743Y-79691600D01*
X102992551Y-79791185D01*
X103021599Y-79886943D01*
X103068771Y-79975195D01*
X103132252Y-80052548D01*
X103209605Y-80116029D01*
X103297857Y-80163201D01*
X103393615Y-80192249D01*
X103493200Y-80202057D01*
X105193200Y-80202057D01*
X105292785Y-80192249D01*
X105388543Y-80163201D01*
X105476795Y-80116029D01*
X105554148Y-80052548D01*
X105617629Y-79975195D01*
X105664801Y-79886943D01*
X105693849Y-79791185D01*
X105703657Y-79691600D01*
X105703657Y-77991600D01*
X105693849Y-77892015D01*
X105664801Y-77796257D01*
X105617629Y-77708005D01*
X105554148Y-77630652D01*
X105476795Y-77567171D01*
X105388543Y-77519999D01*
X105292785Y-77490951D01*
X105193200Y-77481143D01*
X105022225Y-77481143D01*
X105208875Y-77356428D01*
X105398028Y-77167275D01*
X105546644Y-76944854D01*
X105649013Y-76697714D01*
X105701200Y-76435351D01*
X105701200Y-76167849D01*
X105649013Y-75905486D01*
X105546644Y-75658346D01*
X105398028Y-75435925D01*
X105208875Y-75246772D01*
X104986454Y-75098156D01*
X104825774Y-75031600D01*
X104986454Y-74965044D01*
X105208875Y-74816428D01*
X105398028Y-74627275D01*
X105546644Y-74404854D01*
X105649013Y-74157714D01*
X105701200Y-73895351D01*
X105701200Y-73627849D01*
X105649013Y-73365486D01*
X105546644Y-73118346D01*
X105398028Y-72895925D01*
X105208875Y-72706772D01*
X104986454Y-72558156D01*
X104825774Y-72491600D01*
X104986454Y-72425044D01*
X105208875Y-72276428D01*
X105398028Y-72087275D01*
X105546644Y-71864854D01*
X105649013Y-71617714D01*
X105701200Y-71355351D01*
X105701200Y-71087849D01*
X105649013Y-70825486D01*
X105546644Y-70578346D01*
X105398028Y-70355925D01*
X105359200Y-70317097D01*
X105359200Y-65429502D01*
X105364115Y-65379600D01*
X105344498Y-65180429D01*
X105286402Y-64988912D01*
X105240438Y-64902920D01*
X105192060Y-64812410D01*
X105065096Y-64657704D01*
X105026333Y-64625892D01*
X103634114Y-63233674D01*
X103856190Y-63011597D01*
X103883327Y-62989327D01*
X103972202Y-62881033D01*
X104038242Y-62757481D01*
X104078909Y-62623420D01*
X104089200Y-62518936D01*
X104089200Y-62518929D01*
X104092640Y-62484000D01*
X104089200Y-62449072D01*
X104089200Y-59650370D01*
X104182659Y-59510499D01*
X104251106Y-59345254D01*
X104286000Y-59169830D01*
X104286000Y-58990970D01*
X104251106Y-58815546D01*
X104182659Y-58650301D01*
X104083289Y-58501584D01*
X103956816Y-58375111D01*
X103808099Y-58275741D01*
X103642854Y-58207294D01*
X103467430Y-58172400D01*
X103288570Y-58172400D01*
X103113146Y-58207294D01*
X102947901Y-58275741D01*
X102799184Y-58375111D01*
X102672711Y-58501584D01*
X102573341Y-58650301D01*
X102504894Y-58815546D01*
X102470000Y-58990970D01*
X102470000Y-59169830D01*
X102504894Y-59345254D01*
X102573341Y-59510499D01*
X102666800Y-59650370D01*
X102666801Y-62189411D01*
X102628326Y-62227886D01*
X101286912Y-60886472D01*
X101255096Y-60847704D01*
X101100390Y-60720740D01*
X100923887Y-60626398D01*
X100732371Y-60568302D01*
X100583102Y-60553600D01*
X100533200Y-60548685D01*
X100483298Y-60553600D01*
X93929200Y-60553600D01*
X93929200Y-59396370D01*
X94022659Y-59256499D01*
X94091106Y-59091254D01*
X94126000Y-58915830D01*
X94126000Y-58736970D01*
X94091106Y-58561546D01*
X94022659Y-58396301D01*
X93929200Y-58256430D01*
X93929200Y-55914928D01*
X93932640Y-55880000D01*
X93929200Y-55845071D01*
X93929200Y-55845064D01*
X93918909Y-55740580D01*
X93878242Y-55606519D01*
X93812202Y-55482967D01*
X93723327Y-55374673D01*
X93696191Y-55352403D01*
X92091925Y-53748138D01*
X92059106Y-53583146D01*
X91990659Y-53417901D01*
X91891289Y-53269184D01*
X91764816Y-53142711D01*
X91616099Y-53043341D01*
X91450854Y-52974894D01*
X91275430Y-52940000D01*
X91096570Y-52940000D01*
X90921146Y-52974894D01*
X90755901Y-53043341D01*
X90607184Y-53142711D01*
X90480711Y-53269184D01*
X90381341Y-53417901D01*
X90312894Y-53583146D01*
X90278000Y-53758570D01*
X90278000Y-53937430D01*
X90312894Y-54112854D01*
X90381341Y-54278099D01*
X90480711Y-54426816D01*
X90607184Y-54553289D01*
X90755901Y-54652659D01*
X90921146Y-54721106D01*
X91086138Y-54753925D01*
X92506801Y-56174589D01*
X92506800Y-58256430D01*
X92413341Y-58396301D01*
X92344894Y-58561546D01*
X92310000Y-58736970D01*
X92310000Y-58915830D01*
X92344894Y-59091254D01*
X92413341Y-59256499D01*
X92506800Y-59396370D01*
X92506801Y-60553600D01*
X84851503Y-60553600D01*
X84812675Y-60514772D01*
X84590254Y-60366156D01*
X84343114Y-60263787D01*
X84080751Y-60211600D01*
X83813249Y-60211600D01*
X83550886Y-60263787D01*
X83404999Y-60324216D01*
X83404999Y-48664788D01*
X84804963Y-47264825D01*
X84969954Y-47232006D01*
X85135199Y-47163559D01*
X85283916Y-47064189D01*
X85410389Y-46937716D01*
X85509759Y-46788999D01*
X85578206Y-46623754D01*
X85613100Y-46448330D01*
X85613100Y-46269470D01*
X85578206Y-46094046D01*
X85509759Y-45928801D01*
X85410389Y-45780084D01*
X85283916Y-45653611D01*
X85135199Y-45554241D01*
X84969954Y-45485794D01*
X84794530Y-45450900D01*
X84615670Y-45450900D01*
X84440246Y-45485794D01*
X84275001Y-45554241D01*
X84126284Y-45653611D01*
X83999811Y-45780084D01*
X83900441Y-45928801D01*
X83831994Y-46094046D01*
X83799175Y-46259037D01*
X82215609Y-47842604D01*
X82188473Y-47864874D01*
X82166203Y-47892010D01*
X82166202Y-47892011D01*
X82099597Y-47973169D01*
X82033558Y-48096720D01*
X81992891Y-48230782D01*
X81979159Y-48370201D01*
X81982600Y-48405137D01*
X81982599Y-62147213D01*
X80746600Y-63383213D01*
X80746600Y-60667825D01*
X80797242Y-60573081D01*
X80837909Y-60439019D01*
X80851640Y-60299600D01*
X80837909Y-60160180D01*
X80797242Y-60026118D01*
X80731202Y-59902567D01*
X80664597Y-59821409D01*
X79826402Y-58983215D01*
X79804127Y-58956073D01*
X79695833Y-58867198D01*
X79572281Y-58801158D01*
X79438220Y-58760491D01*
X79333736Y-58750200D01*
X79333726Y-58750200D01*
X79298800Y-58746760D01*
X79263874Y-58750200D01*
X73390125Y-58750200D01*
X73355199Y-58746760D01*
X73320273Y-58750200D01*
X73320264Y-58750200D01*
X73215780Y-58760491D01*
X73081719Y-58801158D01*
X72958167Y-58867198D01*
X72849873Y-58956073D01*
X72827603Y-58983209D01*
X71601670Y-60209143D01*
X70397000Y-60209143D01*
X70297415Y-60218951D01*
X70201657Y-60247999D01*
X70113405Y-60295171D01*
X70036052Y-60358652D01*
X69972571Y-60436005D01*
X69925399Y-60524257D01*
X69896351Y-60620015D01*
X69886543Y-60719600D01*
X69886543Y-61882702D01*
X60965512Y-52961672D01*
X60933696Y-52922904D01*
X60778990Y-52795940D01*
X60602487Y-52701598D01*
X60410971Y-52643502D01*
X60261702Y-52628800D01*
X60211800Y-52623885D01*
X60161898Y-52628800D01*
X56734160Y-52628800D01*
X56698029Y-52561205D01*
X56634548Y-52483852D01*
X56557195Y-52420371D01*
X56468943Y-52373199D01*
X56373185Y-52344151D01*
X56273600Y-52334343D01*
X54673600Y-52334343D01*
X54574015Y-52344151D01*
X54478257Y-52373199D01*
X54390005Y-52420371D01*
X54312652Y-52483852D01*
X54249171Y-52561205D01*
X54201999Y-52649457D01*
X54172951Y-52745215D01*
X54163143Y-52844800D01*
X54163143Y-54444800D01*
X54172951Y-54544385D01*
X54201999Y-54640143D01*
X54249171Y-54728395D01*
X54312652Y-54805748D01*
X54390005Y-54869229D01*
X54478257Y-54916401D01*
X54574015Y-54945449D01*
X54673600Y-54955257D01*
X56273600Y-54955257D01*
X56373185Y-54945449D01*
X56468943Y-54916401D01*
X56557195Y-54869229D01*
X56634548Y-54805748D01*
X56698029Y-54728395D01*
X56734160Y-54660800D01*
X59790960Y-54660800D01*
X69971243Y-64841084D01*
X69971243Y-65702200D01*
X69985855Y-65850558D01*
X70029129Y-65993214D01*
X70099403Y-66124687D01*
X70193976Y-66239924D01*
X70309213Y-66334497D01*
X70358000Y-66360574D01*
X70358001Y-66989425D01*
X70309213Y-67015503D01*
X70193976Y-67110076D01*
X70099403Y-67225313D01*
X70029129Y-67356786D01*
X69985855Y-67499442D01*
X69971243Y-67647800D01*
X69971243Y-68597800D01*
X69985855Y-68746158D01*
X70029129Y-68888814D01*
X70099403Y-69020287D01*
X70193976Y-69135524D01*
X70309213Y-69230097D01*
X70356009Y-69255110D01*
X70358001Y-69275336D01*
X70368292Y-69379820D01*
X70389581Y-69450000D01*
X70408959Y-69513881D01*
X70429354Y-69552038D01*
X70267254Y-69484894D01*
X70091830Y-69450000D01*
X69912970Y-69450000D01*
X69737546Y-69484894D01*
X69572301Y-69553341D01*
X69423584Y-69652711D01*
X69297111Y-69779184D01*
X69197741Y-69927901D01*
X69129294Y-70093146D01*
X69094400Y-70268570D01*
X69094400Y-70447430D01*
X69129294Y-70622854D01*
X69197741Y-70788099D01*
X69297111Y-70936816D01*
X69327895Y-70967600D01*
X69297111Y-70998384D01*
X69197741Y-71147101D01*
X69129294Y-71312346D01*
X69094400Y-71487770D01*
X69094400Y-71666630D01*
X69129294Y-71842054D01*
X69197741Y-72007299D01*
X69289271Y-72144282D01*
X67818000Y-70673013D01*
X67818000Y-64246128D01*
X67821440Y-64211200D01*
X67818000Y-64176271D01*
X67818000Y-64176264D01*
X67807709Y-64071780D01*
X67767042Y-63937719D01*
X67701002Y-63814167D01*
X67635636Y-63734519D01*
X67634397Y-63733009D01*
X67634393Y-63733005D01*
X67612126Y-63705873D01*
X67584995Y-63683607D01*
X66669202Y-62767815D01*
X66646927Y-62740673D01*
X66538633Y-62651798D01*
X66415081Y-62585758D01*
X66281020Y-62545091D01*
X66176536Y-62534800D01*
X66176526Y-62534800D01*
X66141600Y-62531360D01*
X66106674Y-62534800D01*
X62010928Y-62534800D01*
X61976000Y-62531360D01*
X61941071Y-62534800D01*
X61941064Y-62534800D01*
X61836580Y-62545091D01*
X61702518Y-62585758D01*
X61578967Y-62651798D01*
X61497809Y-62718402D01*
X61497804Y-62718407D01*
X61470673Y-62740673D01*
X61448407Y-62767804D01*
X54772613Y-69443600D01*
X54396557Y-69443600D01*
X54396557Y-69154800D01*
X54386749Y-69055215D01*
X54357701Y-68959457D01*
X54310529Y-68871205D01*
X54247048Y-68793852D01*
X54169695Y-68730371D01*
X54081443Y-68683199D01*
X53985685Y-68654151D01*
X53886100Y-68644343D01*
X46011100Y-68644343D01*
X45911515Y-68654151D01*
X45815757Y-68683199D01*
X45727505Y-68730371D01*
X45650152Y-68793852D01*
X45586671Y-68871205D01*
X45539499Y-68959457D01*
X45510451Y-69055215D01*
X45500643Y-69154800D01*
X45500643Y-69443600D01*
X44512199Y-69443600D01*
X44495571Y-69388786D01*
X44425297Y-69257313D01*
X44330724Y-69142076D01*
X44215487Y-69047503D01*
X44084014Y-68977229D01*
X43941358Y-68933955D01*
X43793000Y-68919343D01*
X43118000Y-68919343D01*
X42969642Y-68933955D01*
X42826986Y-68977229D01*
X42695513Y-69047503D01*
X42580276Y-69142076D01*
X42485703Y-69257313D01*
X42415429Y-69388786D01*
X42372155Y-69531442D01*
X42357543Y-69679800D01*
X42357543Y-70629800D01*
X42372155Y-70778158D01*
X42415429Y-70920814D01*
X42485703Y-71052287D01*
X42580276Y-71167524D01*
X42695513Y-71262097D01*
X42826986Y-71332371D01*
X42969642Y-71375645D01*
X43118000Y-71390257D01*
X43793000Y-71390257D01*
X43941358Y-71375645D01*
X44084014Y-71332371D01*
X44215487Y-71262097D01*
X44330724Y-71167524D01*
X44425297Y-71052287D01*
X44495571Y-70920814D01*
X44512199Y-70866000D01*
X45500643Y-70866000D01*
X45500643Y-71154800D01*
X45510451Y-71254385D01*
X45539499Y-71350143D01*
X45586671Y-71438395D01*
X45650152Y-71515748D01*
X45727505Y-71579229D01*
X45815757Y-71626401D01*
X45911515Y-71655449D01*
X46011100Y-71665257D01*
X53886100Y-71665257D01*
X53985685Y-71655449D01*
X54081443Y-71626401D01*
X54169695Y-71579229D01*
X54247048Y-71515748D01*
X54310529Y-71438395D01*
X54357701Y-71350143D01*
X54386749Y-71254385D01*
X54396557Y-71154800D01*
X54396557Y-70866000D01*
X55032274Y-70866000D01*
X55067200Y-70869440D01*
X55102126Y-70866000D01*
X55102136Y-70866000D01*
X55206620Y-70855709D01*
X55340681Y-70815042D01*
X55464233Y-70749002D01*
X55572527Y-70660127D01*
X55594802Y-70632985D01*
X62270589Y-63957200D01*
X62762519Y-63957200D01*
X62625286Y-63998829D01*
X62493813Y-64069103D01*
X62378576Y-64163676D01*
X62284003Y-64278913D01*
X62213729Y-64410386D01*
X62170455Y-64553042D01*
X62155843Y-64701400D01*
X62155843Y-65651400D01*
X62170455Y-65799758D01*
X62213729Y-65942414D01*
X62284003Y-66073887D01*
X62378576Y-66189124D01*
X62493813Y-66283697D01*
X62542601Y-66309775D01*
X62542601Y-66398011D01*
X61345410Y-67595203D01*
X61318273Y-67617474D01*
X61229398Y-67725768D01*
X61163358Y-67849320D01*
X61122691Y-67983381D01*
X61112400Y-68087865D01*
X61112400Y-68087874D01*
X61108960Y-68122800D01*
X61112400Y-68157726D01*
X61112400Y-68462536D01*
X61112401Y-68462546D01*
X61112401Y-68644343D01*
X57886100Y-68644343D01*
X57786515Y-68654151D01*
X57690757Y-68683199D01*
X57602505Y-68730371D01*
X57525152Y-68793852D01*
X57461671Y-68871205D01*
X57414499Y-68959457D01*
X57385451Y-69055215D01*
X57375643Y-69154800D01*
X57375643Y-71154800D01*
X57385451Y-71254385D01*
X57414499Y-71350143D01*
X57461671Y-71438395D01*
X57525152Y-71515748D01*
X57602505Y-71579229D01*
X57690757Y-71626401D01*
X57786515Y-71655449D01*
X57886100Y-71665257D01*
X61119209Y-71665257D01*
X61122692Y-71700620D01*
X61156361Y-71811612D01*
X61163359Y-71834681D01*
X61229398Y-71958232D01*
X61272161Y-72010338D01*
X61318274Y-72066527D01*
X61345410Y-72088797D01*
X62002212Y-72745600D01*
X56829328Y-72745600D01*
X56794400Y-72742160D01*
X56759471Y-72745600D01*
X56759464Y-72745600D01*
X56654980Y-72755891D01*
X56520919Y-72796558D01*
X56397367Y-72862598D01*
X56289073Y-72951473D01*
X56266803Y-72978610D01*
X55452610Y-73792803D01*
X55425473Y-73815074D01*
X55336598Y-73923368D01*
X55270558Y-74046920D01*
X55229891Y-74180981D01*
X55219600Y-74285465D01*
X55219600Y-74285474D01*
X55216160Y-74320400D01*
X55219600Y-74355326D01*
X55219601Y-75092611D01*
X54846557Y-75465656D01*
X54846557Y-74454800D01*
X54836749Y-74355215D01*
X54807701Y-74259457D01*
X54760529Y-74171205D01*
X54697048Y-74093852D01*
X54619695Y-74030371D01*
X54531443Y-73983199D01*
X54435685Y-73954151D01*
X54336100Y-73944343D01*
X47161100Y-73944343D01*
X47061515Y-73954151D01*
X46965757Y-73983199D01*
X46877505Y-74030371D01*
X46800152Y-74093852D01*
X46736671Y-74171205D01*
X46689499Y-74259457D01*
X46660451Y-74355215D01*
X46650643Y-74454800D01*
X46650643Y-75844400D01*
X44490699Y-75844400D01*
X44474071Y-75789586D01*
X44403797Y-75658113D01*
X44309224Y-75542876D01*
X44193987Y-75448303D01*
X44062514Y-75378029D01*
X43919858Y-75334755D01*
X43771500Y-75320143D01*
X43096500Y-75320143D01*
X42948142Y-75334755D01*
X42805486Y-75378029D01*
X42674013Y-75448303D01*
X42558776Y-75542876D01*
X42464203Y-75658113D01*
X42393929Y-75789586D01*
X42350655Y-75932242D01*
X42336043Y-76080600D01*
X36587200Y-76080600D01*
X36587200Y-47714800D01*
X45223143Y-47714800D01*
X45223143Y-49414800D01*
X45232951Y-49514385D01*
X45261999Y-49610143D01*
X45309171Y-49698395D01*
X45372652Y-49775748D01*
X45450005Y-49839229D01*
X45538257Y-49886401D01*
X45634015Y-49915449D01*
X45733600Y-49925257D01*
X47433600Y-49925257D01*
X47533185Y-49915449D01*
X47628943Y-49886401D01*
X47717195Y-49839229D01*
X47794548Y-49775748D01*
X47858029Y-49698395D01*
X47905201Y-49610143D01*
X47934249Y-49514385D01*
X47944057Y-49414800D01*
X47944057Y-47714800D01*
X47934249Y-47615215D01*
X47905201Y-47519457D01*
X47858029Y-47431205D01*
X47794548Y-47353852D01*
X47717195Y-47290371D01*
X47628943Y-47243199D01*
X47533185Y-47214151D01*
X47433600Y-47204343D01*
X45733600Y-47204343D01*
X45634015Y-47214151D01*
X45538257Y-47243199D01*
X45450005Y-47290371D01*
X45372652Y-47353852D01*
X45309171Y-47431205D01*
X45261999Y-47519457D01*
X45232951Y-47615215D01*
X45223143Y-47714800D01*
X36587200Y-47714800D01*
X36587200Y-35892800D01*
X44481143Y-35892800D01*
X44481143Y-39392800D01*
X44490951Y-39492385D01*
X44519999Y-39588143D01*
X44567171Y-39676395D01*
X44630652Y-39753748D01*
X44708005Y-39817229D01*
X44796257Y-39864401D01*
X44892015Y-39893449D01*
X44991600Y-39903257D01*
X48491600Y-39903257D01*
X48591185Y-39893449D01*
X48686943Y-39864401D01*
X48775195Y-39817229D01*
X48852548Y-39753748D01*
X48916029Y-39676395D01*
X48963201Y-39588143D01*
X48992249Y-39492385D01*
X49002057Y-39392800D01*
X49002057Y-37277140D01*
X51790600Y-37277140D01*
X51790600Y-37752460D01*
X51883331Y-38218646D01*
X52065228Y-38657784D01*
X52329301Y-39052998D01*
X52665402Y-39389099D01*
X53060616Y-39653172D01*
X53499754Y-39835069D01*
X53649220Y-39864800D01*
X53499754Y-39894531D01*
X53060616Y-40076428D01*
X52665402Y-40340501D01*
X52329301Y-40676602D01*
X52065228Y-41071816D01*
X51883331Y-41510954D01*
X51790600Y-41977140D01*
X51790600Y-42452460D01*
X51883331Y-42918646D01*
X52065228Y-43357784D01*
X52329301Y-43752998D01*
X52665402Y-44089099D01*
X53060616Y-44353172D01*
X53499754Y-44535069D01*
X53649220Y-44564800D01*
X53499754Y-44594531D01*
X53060616Y-44776428D01*
X52665402Y-45040501D01*
X52329301Y-45376602D01*
X52065228Y-45771816D01*
X51883331Y-46210954D01*
X51790600Y-46677140D01*
X51790600Y-47152460D01*
X51883331Y-47618646D01*
X52065228Y-48057784D01*
X52329301Y-48452998D01*
X52665402Y-48789099D01*
X53060616Y-49053172D01*
X53499754Y-49235069D01*
X53965940Y-49327800D01*
X54441260Y-49327800D01*
X54907446Y-49235069D01*
X55346584Y-49053172D01*
X55741798Y-48789099D01*
X56077899Y-48452998D01*
X56341972Y-48057784D01*
X56523869Y-47618646D01*
X56616600Y-47152460D01*
X56616600Y-46677140D01*
X56523869Y-46210954D01*
X56341972Y-45771816D01*
X56077899Y-45376602D01*
X55741798Y-45040501D01*
X55346584Y-44776428D01*
X54907446Y-44594531D01*
X54757980Y-44564800D01*
X54907446Y-44535069D01*
X55346584Y-44353172D01*
X55741798Y-44089099D01*
X56077899Y-43752998D01*
X56341972Y-43357784D01*
X56523869Y-42918646D01*
X56616600Y-42452460D01*
X56616600Y-41977140D01*
X56544526Y-41614800D01*
X60713143Y-41614800D01*
X60713143Y-42814800D01*
X60722951Y-42914385D01*
X60751999Y-43010143D01*
X60799171Y-43098395D01*
X60807600Y-43108666D01*
X60807601Y-45898688D01*
X60802685Y-45948600D01*
X60822302Y-46147770D01*
X60841469Y-46210954D01*
X60880399Y-46339287D01*
X60974741Y-46515790D01*
X61101705Y-46670496D01*
X61140468Y-46702308D01*
X68313300Y-53875141D01*
X68313300Y-53877738D01*
X68364546Y-54135368D01*
X68465068Y-54378049D01*
X68611003Y-54596457D01*
X68796743Y-54782197D01*
X69015151Y-54928132D01*
X69257832Y-55028654D01*
X69515462Y-55079900D01*
X69778138Y-55079900D01*
X70035768Y-55028654D01*
X70278449Y-54928132D01*
X70496857Y-54782197D01*
X70682597Y-54596457D01*
X70828532Y-54378049D01*
X70929054Y-54135368D01*
X70980300Y-53877738D01*
X70980300Y-53615062D01*
X70929054Y-53357432D01*
X70828532Y-53114751D01*
X70682597Y-52896343D01*
X70496857Y-52710603D01*
X70278449Y-52564668D01*
X70035768Y-52464146D01*
X69778138Y-52412900D01*
X69724741Y-52412900D01*
X62839600Y-45527760D01*
X62839600Y-43108666D01*
X62848029Y-43098395D01*
X62895201Y-43010143D01*
X62924249Y-42914385D01*
X62934057Y-42814800D01*
X62934057Y-41614800D01*
X62924249Y-41515215D01*
X62895201Y-41419457D01*
X62848029Y-41331205D01*
X62784548Y-41253852D01*
X62707195Y-41190371D01*
X62618943Y-41143199D01*
X62523185Y-41114151D01*
X62423600Y-41104343D01*
X61223600Y-41104343D01*
X61124015Y-41114151D01*
X61028257Y-41143199D01*
X60940005Y-41190371D01*
X60862652Y-41253852D01*
X60799171Y-41331205D01*
X60751999Y-41419457D01*
X60722951Y-41515215D01*
X60713143Y-41614800D01*
X56544526Y-41614800D01*
X56523869Y-41510954D01*
X56341972Y-41071816D01*
X56077899Y-40676602D01*
X55741798Y-40340501D01*
X55346584Y-40076428D01*
X54907446Y-39894531D01*
X54757980Y-39864800D01*
X54907446Y-39835069D01*
X55346584Y-39653172D01*
X55741798Y-39389099D01*
X56077899Y-39052998D01*
X56341972Y-38657784D01*
X56523869Y-38218646D01*
X56616600Y-37752460D01*
X56616600Y-37277140D01*
X56523869Y-36810954D01*
X56341972Y-36371816D01*
X56294201Y-36300321D01*
X93292800Y-36300321D01*
X93292800Y-36498879D01*
X93331537Y-36693623D01*
X93407522Y-36877067D01*
X93517835Y-37042162D01*
X93658238Y-37182565D01*
X93823333Y-37292878D01*
X94006777Y-37368863D01*
X94201521Y-37407600D01*
X94400079Y-37407600D01*
X94594823Y-37368863D01*
X94778267Y-37292878D01*
X94943362Y-37182565D01*
X95083765Y-37042162D01*
X95194078Y-36877067D01*
X95270063Y-36693623D01*
X95308800Y-36498879D01*
X95308800Y-36300321D01*
X101692800Y-36300321D01*
X101692800Y-36498879D01*
X101731537Y-36693623D01*
X101807522Y-36877067D01*
X101917835Y-37042162D01*
X102058238Y-37182565D01*
X102223333Y-37292878D01*
X102406777Y-37368863D01*
X102601521Y-37407600D01*
X102800079Y-37407600D01*
X102994823Y-37368863D01*
X103178267Y-37292878D01*
X103343362Y-37182565D01*
X103483765Y-37042162D01*
X103594078Y-36877067D01*
X103670063Y-36693623D01*
X103708800Y-36498879D01*
X103708800Y-36300321D01*
X103670063Y-36105577D01*
X103594078Y-35922133D01*
X103483765Y-35757038D01*
X103343362Y-35616635D01*
X103178267Y-35506322D01*
X102994823Y-35430337D01*
X102800079Y-35391600D01*
X102601521Y-35391600D01*
X102406777Y-35430337D01*
X102223333Y-35506322D01*
X102058238Y-35616635D01*
X101917835Y-35757038D01*
X101807522Y-35922133D01*
X101731537Y-36105577D01*
X101692800Y-36300321D01*
X95308800Y-36300321D01*
X95270063Y-36105577D01*
X95194078Y-35922133D01*
X95083765Y-35757038D01*
X94943362Y-35616635D01*
X94778267Y-35506322D01*
X94594823Y-35430337D01*
X94400079Y-35391600D01*
X94201521Y-35391600D01*
X94006777Y-35430337D01*
X93823333Y-35506322D01*
X93658238Y-35616635D01*
X93517835Y-35757038D01*
X93407522Y-35922133D01*
X93331537Y-36105577D01*
X93292800Y-36300321D01*
X56294201Y-36300321D01*
X56077899Y-35976602D01*
X55741798Y-35640501D01*
X55346584Y-35376428D01*
X54907446Y-35194531D01*
X54441260Y-35101800D01*
X53965940Y-35101800D01*
X53499754Y-35194531D01*
X53060616Y-35376428D01*
X52665402Y-35640501D01*
X52329301Y-35976602D01*
X52065228Y-36371816D01*
X51883331Y-36810954D01*
X51790600Y-37277140D01*
X49002057Y-37277140D01*
X49002057Y-35892800D01*
X48992249Y-35793215D01*
X48963201Y-35697457D01*
X48916029Y-35609205D01*
X48852548Y-35531852D01*
X48775195Y-35468371D01*
X48686943Y-35421199D01*
X48591185Y-35392151D01*
X48491600Y-35382343D01*
X44991600Y-35382343D01*
X44892015Y-35392151D01*
X44796257Y-35421199D01*
X44708005Y-35468371D01*
X44630652Y-35531852D01*
X44567171Y-35609205D01*
X44519999Y-35697457D01*
X44490951Y-35793215D01*
X44481143Y-35892800D01*
X36587200Y-35892800D01*
X36587200Y-31758400D01*
X108384000Y-31758400D01*
X108384000Y-90555200D01*
G36*
X75204392Y-79184017D02*
G01*
X75237708Y-79293845D01*
X75291810Y-79395062D01*
X75364619Y-79483781D01*
X75453338Y-79556590D01*
X75554555Y-79610692D01*
X75664383Y-79644008D01*
X75778600Y-79655257D01*
X75928600Y-79655257D01*
X76042817Y-79644008D01*
X76152645Y-79610692D01*
X76253862Y-79556590D01*
X76342581Y-79483781D01*
X76353600Y-79470354D01*
X76364619Y-79483781D01*
X76453338Y-79556590D01*
X76554555Y-79610692D01*
X76664383Y-79644008D01*
X76778600Y-79655257D01*
X76928600Y-79655257D01*
X77042817Y-79644008D01*
X77103600Y-79625570D01*
X77164383Y-79644008D01*
X77244001Y-79651849D01*
X77244000Y-81004285D01*
X77174567Y-81041398D01*
X77093409Y-81108002D01*
X76616612Y-81584800D01*
X74941170Y-81584800D01*
X74801299Y-81491341D01*
X74636054Y-81422894D01*
X74460630Y-81388000D01*
X74281770Y-81388000D01*
X74138700Y-81416458D01*
X74138700Y-80029087D01*
X75086789Y-79081000D01*
X75194246Y-79081000D01*
X75204392Y-79184017D01*
G37*
X75204392Y-79184017D02*
X75237708Y-79293845D01*
X75291810Y-79395062D01*
X75364619Y-79483781D01*
X75453338Y-79556590D01*
X75554555Y-79610692D01*
X75664383Y-79644008D01*
X75778600Y-79655257D01*
X75928600Y-79655257D01*
X76042817Y-79644008D01*
X76152645Y-79610692D01*
X76253862Y-79556590D01*
X76342581Y-79483781D01*
X76353600Y-79470354D01*
X76364619Y-79483781D01*
X76453338Y-79556590D01*
X76554555Y-79610692D01*
X76664383Y-79644008D01*
X76778600Y-79655257D01*
X76928600Y-79655257D01*
X77042817Y-79644008D01*
X77103600Y-79625570D01*
X77164383Y-79644008D01*
X77244001Y-79651849D01*
X77244000Y-81004285D01*
X77174567Y-81041398D01*
X77093409Y-81108002D01*
X76616612Y-81584800D01*
X74941170Y-81584800D01*
X74801299Y-81491341D01*
X74636054Y-81422894D01*
X74460630Y-81388000D01*
X74281770Y-81388000D01*
X74138700Y-81416458D01*
X74138700Y-80029087D01*
X75086789Y-79081000D01*
X75194246Y-79081000D01*
X75204392Y-79184017D01*
G36*
X75291810Y-65994538D02*
G01*
X75237708Y-66095755D01*
X75204392Y-66205583D01*
X75193143Y-66319800D01*
X75193143Y-67719800D01*
X75204392Y-67834017D01*
X75237708Y-67943845D01*
X75291810Y-68045062D01*
X75364619Y-68133781D01*
X75453338Y-68206590D01*
X75554555Y-68260692D01*
X75664383Y-68294008D01*
X75778600Y-68305257D01*
X75928600Y-68305257D01*
X76042817Y-68294008D01*
X76152645Y-68260692D01*
X76253862Y-68206590D01*
X76342581Y-68133781D01*
X76353600Y-68120354D01*
X76364619Y-68133781D01*
X76453338Y-68206590D01*
X76554555Y-68260692D01*
X76664383Y-68294008D01*
X76778600Y-68305257D01*
X76928600Y-68305257D01*
X77042817Y-68294008D01*
X77103600Y-68275570D01*
X77164383Y-68294008D01*
X77278600Y-68305257D01*
X77428600Y-68305257D01*
X77542817Y-68294008D01*
X77603600Y-68275570D01*
X77664383Y-68294008D01*
X77778600Y-68305257D01*
X77928600Y-68305257D01*
X78042817Y-68294008D01*
X78103600Y-68275570D01*
X78164383Y-68294008D01*
X78278600Y-68305257D01*
X78428600Y-68305257D01*
X78542817Y-68294008D01*
X78603600Y-68275570D01*
X78664383Y-68294008D01*
X78778600Y-68305257D01*
X78928600Y-68305257D01*
X79042817Y-68294008D01*
X79103600Y-68275570D01*
X79164383Y-68294008D01*
X79278600Y-68305257D01*
X79428600Y-68305257D01*
X79542817Y-68294008D01*
X79603600Y-68275570D01*
X79664383Y-68294008D01*
X79778600Y-68305257D01*
X79928600Y-68305257D01*
X80042817Y-68294008D01*
X80103600Y-68275570D01*
X80164383Y-68294008D01*
X80187131Y-68296248D01*
X80152692Y-68409781D01*
X80138960Y-68549200D01*
X80152692Y-68688619D01*
X80193359Y-68822681D01*
X80259398Y-68946232D01*
X80326003Y-69027390D01*
X80331398Y-69032785D01*
X80353673Y-69059927D01*
X80461967Y-69148802D01*
X80585519Y-69214842D01*
X80719580Y-69255509D01*
X80824064Y-69265800D01*
X80824072Y-69265800D01*
X80859000Y-69269240D01*
X80893928Y-69265800D01*
X83658074Y-69265800D01*
X83693000Y-69269240D01*
X83727926Y-69265800D01*
X83727936Y-69265800D01*
X83832420Y-69255509D01*
X83966481Y-69214842D01*
X84020200Y-69186129D01*
X84022830Y-69194800D01*
X84004392Y-69255583D01*
X83993143Y-69369800D01*
X83993143Y-69519800D01*
X84004392Y-69634017D01*
X84022830Y-69694800D01*
X84004392Y-69755583D01*
X83993143Y-69869800D01*
X83993143Y-70019800D01*
X84004392Y-70134017D01*
X84022830Y-70194800D01*
X84004392Y-70255583D01*
X83993143Y-70369800D01*
X83993143Y-70519800D01*
X84004392Y-70634017D01*
X84022830Y-70694800D01*
X84004392Y-70755583D01*
X83993143Y-70869800D01*
X83993143Y-71019800D01*
X84004392Y-71134017D01*
X84022830Y-71194800D01*
X84004392Y-71255583D01*
X83993143Y-71369800D01*
X83993143Y-71519800D01*
X84004392Y-71634017D01*
X84022830Y-71694800D01*
X84004392Y-71755583D01*
X83993143Y-71869800D01*
X83993143Y-72019800D01*
X84004392Y-72134017D01*
X84022830Y-72194800D01*
X84004392Y-72255583D01*
X83993143Y-72369800D01*
X83993143Y-72519800D01*
X84004392Y-72634017D01*
X84022830Y-72694800D01*
X84004392Y-72755583D01*
X83993143Y-72869800D01*
X83993143Y-73019800D01*
X84004392Y-73134017D01*
X84022830Y-73194800D01*
X84004392Y-73255583D01*
X83993143Y-73369800D01*
X83993143Y-73519800D01*
X84004392Y-73634017D01*
X84022830Y-73694800D01*
X84004392Y-73755583D01*
X83993143Y-73869800D01*
X83993143Y-74019800D01*
X84004392Y-74134017D01*
X84022830Y-74194800D01*
X84004392Y-74255583D01*
X83993143Y-74369800D01*
X83993143Y-74519800D01*
X84004392Y-74634017D01*
X84022830Y-74694800D01*
X84004392Y-74755583D01*
X83996551Y-74835200D01*
X83811704Y-74835200D01*
X83496635Y-74520132D01*
X83477538Y-74496862D01*
X83384714Y-74420684D01*
X83278812Y-74364079D01*
X83163902Y-74329221D01*
X83074341Y-74320400D01*
X83044400Y-74317451D01*
X83014459Y-74320400D01*
X79058905Y-74320400D01*
X78963216Y-74224711D01*
X78814499Y-74125341D01*
X78649254Y-74056894D01*
X78473830Y-74022000D01*
X78294970Y-74022000D01*
X78119546Y-74056894D01*
X78079600Y-74073440D01*
X78079600Y-73429705D01*
X78175289Y-73334016D01*
X78274659Y-73185299D01*
X78343106Y-73020054D01*
X78378000Y-72844630D01*
X78378000Y-72665770D01*
X78343106Y-72490346D01*
X78274659Y-72325101D01*
X78175289Y-72176384D01*
X78048816Y-72049911D01*
X77900099Y-71950541D01*
X77734854Y-71882094D01*
X77559430Y-71847200D01*
X77380570Y-71847200D01*
X77205146Y-71882094D01*
X77039901Y-71950541D01*
X76891184Y-72049911D01*
X76764711Y-72176384D01*
X76665341Y-72325101D01*
X76596894Y-72490346D01*
X76562000Y-72665770D01*
X76562000Y-72844630D01*
X76596894Y-73020054D01*
X76665341Y-73185299D01*
X76719989Y-73267085D01*
X76499834Y-73046931D01*
X76480738Y-73023662D01*
X76387914Y-72947484D01*
X76282012Y-72890879D01*
X76167102Y-72856021D01*
X76077541Y-72847200D01*
X76047600Y-72844251D01*
X76017659Y-72847200D01*
X75211831Y-72847200D01*
X75202808Y-72755583D01*
X75184370Y-72694800D01*
X75202808Y-72634017D01*
X75214057Y-72519800D01*
X75214057Y-72369800D01*
X75202808Y-72255583D01*
X75184370Y-72194800D01*
X75202808Y-72134017D01*
X75214057Y-72019800D01*
X75214057Y-71869800D01*
X75202808Y-71755583D01*
X75184370Y-71694800D01*
X75202808Y-71634017D01*
X75214057Y-71519800D01*
X75214057Y-71369800D01*
X75202808Y-71255583D01*
X75169492Y-71145755D01*
X75115390Y-71044538D01*
X75042581Y-70955819D01*
X75029154Y-70944800D01*
X75042581Y-70933781D01*
X75115390Y-70845062D01*
X75169492Y-70743845D01*
X75202808Y-70634017D01*
X75214057Y-70519800D01*
X75214057Y-70369800D01*
X75202808Y-70255583D01*
X75184370Y-70194800D01*
X75202808Y-70134017D01*
X75214057Y-70019800D01*
X75214057Y-69869800D01*
X75202808Y-69755583D01*
X75184370Y-69694800D01*
X75202808Y-69634017D01*
X75214057Y-69519800D01*
X75214057Y-69369800D01*
X75202808Y-69255583D01*
X75184370Y-69194800D01*
X75202808Y-69134017D01*
X75214057Y-69019800D01*
X75214057Y-68869800D01*
X75202808Y-68755583D01*
X75169492Y-68645755D01*
X75115390Y-68544538D01*
X75042581Y-68455819D01*
X74953862Y-68383010D01*
X74852645Y-68328908D01*
X74742817Y-68295592D01*
X74628600Y-68284343D01*
X73228600Y-68284343D01*
X73114383Y-68295592D01*
X73004555Y-68328908D01*
X72903338Y-68383010D01*
X72814619Y-68455819D01*
X72741810Y-68544538D01*
X72687708Y-68645755D01*
X72654392Y-68755583D01*
X72643143Y-68869800D01*
X72643143Y-69019800D01*
X72654392Y-69134017D01*
X72672830Y-69194800D01*
X72654392Y-69255583D01*
X72643143Y-69369800D01*
X72643143Y-69519800D01*
X72654392Y-69634017D01*
X72672830Y-69694800D01*
X72654392Y-69755583D01*
X72648634Y-69814046D01*
X71956003Y-69121415D01*
X72038997Y-69020287D01*
X72109271Y-68888814D01*
X72152545Y-68746158D01*
X72167157Y-68597800D01*
X72167157Y-67647800D01*
X72152545Y-67499442D01*
X72109271Y-67356786D01*
X72038997Y-67225313D01*
X71944424Y-67110076D01*
X71829187Y-67015503D01*
X71780400Y-66989426D01*
X71780400Y-66360574D01*
X71829187Y-66334497D01*
X71944424Y-66239924D01*
X72038997Y-66124687D01*
X72109271Y-65993214D01*
X72125899Y-65938400D01*
X75337881Y-65938400D01*
X75291810Y-65994538D01*
G37*
X75291810Y-65994538D02*
X75237708Y-66095755D01*
X75204392Y-66205583D01*
X75193143Y-66319800D01*
X75193143Y-67719800D01*
X75204392Y-67834017D01*
X75237708Y-67943845D01*
X75291810Y-68045062D01*
X75364619Y-68133781D01*
X75453338Y-68206590D01*
X75554555Y-68260692D01*
X75664383Y-68294008D01*
X75778600Y-68305257D01*
X75928600Y-68305257D01*
X76042817Y-68294008D01*
X76152645Y-68260692D01*
X76253862Y-68206590D01*
X76342581Y-68133781D01*
X76353600Y-68120354D01*
X76364619Y-68133781D01*
X76453338Y-68206590D01*
X76554555Y-68260692D01*
X76664383Y-68294008D01*
X76778600Y-68305257D01*
X76928600Y-68305257D01*
X77042817Y-68294008D01*
X77103600Y-68275570D01*
X77164383Y-68294008D01*
X77278600Y-68305257D01*
X77428600Y-68305257D01*
X77542817Y-68294008D01*
X77603600Y-68275570D01*
X77664383Y-68294008D01*
X77778600Y-68305257D01*
X77928600Y-68305257D01*
X78042817Y-68294008D01*
X78103600Y-68275570D01*
X78164383Y-68294008D01*
X78278600Y-68305257D01*
X78428600Y-68305257D01*
X78542817Y-68294008D01*
X78603600Y-68275570D01*
X78664383Y-68294008D01*
X78778600Y-68305257D01*
X78928600Y-68305257D01*
X79042817Y-68294008D01*
X79103600Y-68275570D01*
X79164383Y-68294008D01*
X79278600Y-68305257D01*
X79428600Y-68305257D01*
X79542817Y-68294008D01*
X79603600Y-68275570D01*
X79664383Y-68294008D01*
X79778600Y-68305257D01*
X79928600Y-68305257D01*
X80042817Y-68294008D01*
X80103600Y-68275570D01*
X80164383Y-68294008D01*
X80187131Y-68296248D01*
X80152692Y-68409781D01*
X80138960Y-68549200D01*
X80152692Y-68688619D01*
X80193359Y-68822681D01*
X80259398Y-68946232D01*
X80326003Y-69027390D01*
X80331398Y-69032785D01*
X80353673Y-69059927D01*
X80461967Y-69148802D01*
X80585519Y-69214842D01*
X80719580Y-69255509D01*
X80824064Y-69265800D01*
X80824072Y-69265800D01*
X80859000Y-69269240D01*
X80893928Y-69265800D01*
X83658074Y-69265800D01*
X83693000Y-69269240D01*
X83727926Y-69265800D01*
X83727936Y-69265800D01*
X83832420Y-69255509D01*
X83966481Y-69214842D01*
X84020200Y-69186129D01*
X84022830Y-69194800D01*
X84004392Y-69255583D01*
X83993143Y-69369800D01*
X83993143Y-69519800D01*
X84004392Y-69634017D01*
X84022830Y-69694800D01*
X84004392Y-69755583D01*
X83993143Y-69869800D01*
X83993143Y-70019800D01*
X84004392Y-70134017D01*
X84022830Y-70194800D01*
X84004392Y-70255583D01*
X83993143Y-70369800D01*
X83993143Y-70519800D01*
X84004392Y-70634017D01*
X84022830Y-70694800D01*
X84004392Y-70755583D01*
X83993143Y-70869800D01*
X83993143Y-71019800D01*
X84004392Y-71134017D01*
X84022830Y-71194800D01*
X84004392Y-71255583D01*
X83993143Y-71369800D01*
X83993143Y-71519800D01*
X84004392Y-71634017D01*
X84022830Y-71694800D01*
X84004392Y-71755583D01*
X83993143Y-71869800D01*
X83993143Y-72019800D01*
X84004392Y-72134017D01*
X84022830Y-72194800D01*
X84004392Y-72255583D01*
X83993143Y-72369800D01*
X83993143Y-72519800D01*
X84004392Y-72634017D01*
X84022830Y-72694800D01*
X84004392Y-72755583D01*
X83993143Y-72869800D01*
X83993143Y-73019800D01*
X84004392Y-73134017D01*
X84022830Y-73194800D01*
X84004392Y-73255583D01*
X83993143Y-73369800D01*
X83993143Y-73519800D01*
X84004392Y-73634017D01*
X84022830Y-73694800D01*
X84004392Y-73755583D01*
X83993143Y-73869800D01*
X83993143Y-74019800D01*
X84004392Y-74134017D01*
X84022830Y-74194800D01*
X84004392Y-74255583D01*
X83993143Y-74369800D01*
X83993143Y-74519800D01*
X84004392Y-74634017D01*
X84022830Y-74694800D01*
X84004392Y-74755583D01*
X83996551Y-74835200D01*
X83811704Y-74835200D01*
X83496635Y-74520132D01*
X83477538Y-74496862D01*
X83384714Y-74420684D01*
X83278812Y-74364079D01*
X83163902Y-74329221D01*
X83074341Y-74320400D01*
X83044400Y-74317451D01*
X83014459Y-74320400D01*
X79058905Y-74320400D01*
X78963216Y-74224711D01*
X78814499Y-74125341D01*
X78649254Y-74056894D01*
X78473830Y-74022000D01*
X78294970Y-74022000D01*
X78119546Y-74056894D01*
X78079600Y-74073440D01*
X78079600Y-73429705D01*
X78175289Y-73334016D01*
X78274659Y-73185299D01*
X78343106Y-73020054D01*
X78378000Y-72844630D01*
X78378000Y-72665770D01*
X78343106Y-72490346D01*
X78274659Y-72325101D01*
X78175289Y-72176384D01*
X78048816Y-72049911D01*
X77900099Y-71950541D01*
X77734854Y-71882094D01*
X77559430Y-71847200D01*
X77380570Y-71847200D01*
X77205146Y-71882094D01*
X77039901Y-71950541D01*
X76891184Y-72049911D01*
X76764711Y-72176384D01*
X76665341Y-72325101D01*
X76596894Y-72490346D01*
X76562000Y-72665770D01*
X76562000Y-72844630D01*
X76596894Y-73020054D01*
X76665341Y-73185299D01*
X76719989Y-73267085D01*
X76499834Y-73046931D01*
X76480738Y-73023662D01*
X76387914Y-72947484D01*
X76282012Y-72890879D01*
X76167102Y-72856021D01*
X76077541Y-72847200D01*
X76047600Y-72844251D01*
X76017659Y-72847200D01*
X75211831Y-72847200D01*
X75202808Y-72755583D01*
X75184370Y-72694800D01*
X75202808Y-72634017D01*
X75214057Y-72519800D01*
X75214057Y-72369800D01*
X75202808Y-72255583D01*
X75184370Y-72194800D01*
X75202808Y-72134017D01*
X75214057Y-72019800D01*
X75214057Y-71869800D01*
X75202808Y-71755583D01*
X75184370Y-71694800D01*
X75202808Y-71634017D01*
X75214057Y-71519800D01*
X75214057Y-71369800D01*
X75202808Y-71255583D01*
X75169492Y-71145755D01*
X75115390Y-71044538D01*
X75042581Y-70955819D01*
X75029154Y-70944800D01*
X75042581Y-70933781D01*
X75115390Y-70845062D01*
X75169492Y-70743845D01*
X75202808Y-70634017D01*
X75214057Y-70519800D01*
X75214057Y-70369800D01*
X75202808Y-70255583D01*
X75184370Y-70194800D01*
X75202808Y-70134017D01*
X75214057Y-70019800D01*
X75214057Y-69869800D01*
X75202808Y-69755583D01*
X75184370Y-69694800D01*
X75202808Y-69634017D01*
X75214057Y-69519800D01*
X75214057Y-69369800D01*
X75202808Y-69255583D01*
X75184370Y-69194800D01*
X75202808Y-69134017D01*
X75214057Y-69019800D01*
X75214057Y-68869800D01*
X75202808Y-68755583D01*
X75169492Y-68645755D01*
X75115390Y-68544538D01*
X75042581Y-68455819D01*
X74953862Y-68383010D01*
X74852645Y-68328908D01*
X74742817Y-68295592D01*
X74628600Y-68284343D01*
X73228600Y-68284343D01*
X73114383Y-68295592D01*
X73004555Y-68328908D01*
X72903338Y-68383010D01*
X72814619Y-68455819D01*
X72741810Y-68544538D01*
X72687708Y-68645755D01*
X72654392Y-68755583D01*
X72643143Y-68869800D01*
X72643143Y-69019800D01*
X72654392Y-69134017D01*
X72672830Y-69194800D01*
X72654392Y-69255583D01*
X72643143Y-69369800D01*
X72643143Y-69519800D01*
X72654392Y-69634017D01*
X72672830Y-69694800D01*
X72654392Y-69755583D01*
X72648634Y-69814046D01*
X71956003Y-69121415D01*
X72038997Y-69020287D01*
X72109271Y-68888814D01*
X72152545Y-68746158D01*
X72167157Y-68597800D01*
X72167157Y-67647800D01*
X72152545Y-67499442D01*
X72109271Y-67356786D01*
X72038997Y-67225313D01*
X71944424Y-67110076D01*
X71829187Y-67015503D01*
X71780400Y-66989426D01*
X71780400Y-66360574D01*
X71829187Y-66334497D01*
X71944424Y-66239924D01*
X72038997Y-66124687D01*
X72109271Y-65993214D01*
X72125899Y-65938400D01*
X75337881Y-65938400D01*
X75291810Y-65994538D01*
G36*
X66395600Y-64505788D02*
G01*
X66395601Y-70932664D01*
X66392160Y-70967600D01*
X66395601Y-71002536D01*
X66405892Y-71107020D01*
X66442443Y-71227511D01*
X66446559Y-71241081D01*
X66512598Y-71364632D01*
X66570745Y-71435484D01*
X66601474Y-71472927D01*
X66628610Y-71495197D01*
X68437811Y-73304400D01*
X67807789Y-73304400D01*
X66669201Y-72165814D01*
X66646927Y-72138673D01*
X66538633Y-72049798D01*
X66415081Y-71983758D01*
X66281020Y-71943091D01*
X66176536Y-71932800D01*
X66176526Y-71932800D01*
X66141600Y-71929360D01*
X66106674Y-71932800D01*
X63200989Y-71932800D01*
X62933445Y-71665257D01*
X65761100Y-71665257D01*
X65860685Y-71655449D01*
X65956443Y-71626401D01*
X66044695Y-71579229D01*
X66122048Y-71515748D01*
X66185529Y-71438395D01*
X66232701Y-71350143D01*
X66261749Y-71254385D01*
X66271557Y-71154800D01*
X66271557Y-69154800D01*
X66261749Y-69055215D01*
X66232701Y-68959457D01*
X66185529Y-68871205D01*
X66122048Y-68793852D01*
X66044695Y-68730371D01*
X65956443Y-68683199D01*
X65860685Y-68654151D01*
X65761100Y-68644343D01*
X62534800Y-68644343D01*
X62534800Y-68417387D01*
X63731996Y-67220193D01*
X63759127Y-67197927D01*
X63781393Y-67170796D01*
X63781397Y-67170792D01*
X63848002Y-67089633D01*
X63871480Y-67045709D01*
X63914042Y-66966081D01*
X63954709Y-66832020D01*
X63965000Y-66727536D01*
X63965000Y-66727527D01*
X63968440Y-66692601D01*
X63965000Y-66657675D01*
X63965000Y-66309774D01*
X64013787Y-66283697D01*
X64129024Y-66189124D01*
X64223597Y-66073887D01*
X64293871Y-65942414D01*
X64337145Y-65799758D01*
X64351757Y-65651400D01*
X64351757Y-64701400D01*
X64337145Y-64553042D01*
X64293871Y-64410386D01*
X64223597Y-64278913D01*
X64129024Y-64163676D01*
X64013787Y-64069103D01*
X63882314Y-63998829D01*
X63745081Y-63957200D01*
X65847013Y-63957200D01*
X66395600Y-64505788D01*
G37*
X66395600Y-64505788D02*
X66395601Y-70932664D01*
X66392160Y-70967600D01*
X66395601Y-71002536D01*
X66405892Y-71107020D01*
X66442443Y-71227511D01*
X66446559Y-71241081D01*
X66512598Y-71364632D01*
X66570745Y-71435484D01*
X66601474Y-71472927D01*
X66628610Y-71495197D01*
X68437811Y-73304400D01*
X67807789Y-73304400D01*
X66669201Y-72165814D01*
X66646927Y-72138673D01*
X66538633Y-72049798D01*
X66415081Y-71983758D01*
X66281020Y-71943091D01*
X66176536Y-71932800D01*
X66176526Y-71932800D01*
X66141600Y-71929360D01*
X66106674Y-71932800D01*
X63200989Y-71932800D01*
X62933445Y-71665257D01*
X65761100Y-71665257D01*
X65860685Y-71655449D01*
X65956443Y-71626401D01*
X66044695Y-71579229D01*
X66122048Y-71515748D01*
X66185529Y-71438395D01*
X66232701Y-71350143D01*
X66261749Y-71254385D01*
X66271557Y-71154800D01*
X66271557Y-69154800D01*
X66261749Y-69055215D01*
X66232701Y-68959457D01*
X66185529Y-68871205D01*
X66122048Y-68793852D01*
X66044695Y-68730371D01*
X65956443Y-68683199D01*
X65860685Y-68654151D01*
X65761100Y-68644343D01*
X62534800Y-68644343D01*
X62534800Y-68417387D01*
X63731996Y-67220193D01*
X63759127Y-67197927D01*
X63781393Y-67170796D01*
X63781397Y-67170792D01*
X63848002Y-67089633D01*
X63871480Y-67045709D01*
X63914042Y-66966081D01*
X63954709Y-66832020D01*
X63965000Y-66727536D01*
X63965000Y-66727527D01*
X63968440Y-66692601D01*
X63965000Y-66657675D01*
X63965000Y-66309774D01*
X64013787Y-66283697D01*
X64129024Y-66189124D01*
X64223597Y-66073887D01*
X64293871Y-65942414D01*
X64337145Y-65799758D01*
X64351757Y-65651400D01*
X64351757Y-64701400D01*
X64337145Y-64553042D01*
X64293871Y-64410386D01*
X64223597Y-64278913D01*
X64129024Y-64163676D01*
X64013787Y-64069103D01*
X63882314Y-63998829D01*
X63745081Y-63957200D01*
X65847013Y-63957200D01*
X66395600Y-64505788D01*
G36*
X101092001Y-65877390D02*
G01*
X101092000Y-70063556D01*
X100937525Y-70166772D01*
X100748372Y-70355925D01*
X100599756Y-70578346D01*
X100497387Y-70825486D01*
X100445200Y-71087849D01*
X100445200Y-71355351D01*
X100497387Y-71617714D01*
X100557816Y-71763601D01*
X99744189Y-71763601D01*
X99181201Y-71200614D01*
X99158927Y-71173473D01*
X99050633Y-71084598D01*
X98927081Y-71018558D01*
X98793020Y-70977891D01*
X98688536Y-70967600D01*
X98688526Y-70967600D01*
X98653600Y-70964160D01*
X98618674Y-70967600D01*
X98549456Y-70967600D01*
X98516697Y-70906312D01*
X98422125Y-70791075D01*
X98306888Y-70696503D01*
X98273768Y-70678800D01*
X98306888Y-70661097D01*
X98422125Y-70566525D01*
X98516697Y-70451288D01*
X98586971Y-70319815D01*
X98630245Y-70177159D01*
X98644857Y-70028801D01*
X98644857Y-69328799D01*
X98630245Y-69180441D01*
X98586971Y-69037785D01*
X98516697Y-68906312D01*
X98422125Y-68791075D01*
X98306888Y-68696503D01*
X98175415Y-68626229D01*
X98032759Y-68582955D01*
X97884401Y-68568343D01*
X96984399Y-68568343D01*
X96836041Y-68582955D01*
X96693385Y-68626229D01*
X96561912Y-68696503D01*
X96446675Y-68791075D01*
X96352103Y-68906312D01*
X96319344Y-68967600D01*
X95525788Y-68967600D01*
X94355202Y-67797015D01*
X94332927Y-67769873D01*
X94224633Y-67680998D01*
X94101081Y-67614958D01*
X93967020Y-67574291D01*
X93862536Y-67564000D01*
X93862526Y-67564000D01*
X93827600Y-67560560D01*
X93792674Y-67564000D01*
X93533970Y-67564000D01*
X93394099Y-67470541D01*
X93228854Y-67402094D01*
X93053430Y-67367200D01*
X92874570Y-67367200D01*
X92699146Y-67402094D01*
X92533901Y-67470541D01*
X92394030Y-67564000D01*
X89448588Y-67564000D01*
X89289537Y-67404949D01*
X89347324Y-67357524D01*
X89441897Y-67242287D01*
X89512171Y-67110814D01*
X89555445Y-66968158D01*
X89570057Y-66819800D01*
X89570057Y-65869800D01*
X89555445Y-65721442D01*
X89512171Y-65578786D01*
X89441897Y-65447313D01*
X89428017Y-65430400D01*
X98602801Y-65430400D01*
X98602800Y-66208264D01*
X98602800Y-66536830D01*
X98509341Y-66676701D01*
X98440894Y-66841946D01*
X98406000Y-67017370D01*
X98406000Y-67196230D01*
X98440894Y-67371654D01*
X98509341Y-67536899D01*
X98608711Y-67685616D01*
X98735184Y-67812089D01*
X98883901Y-67911459D01*
X99049146Y-67979906D01*
X99224570Y-68014800D01*
X99403430Y-68014800D01*
X99578854Y-67979906D01*
X99744099Y-67911459D01*
X99892816Y-67812089D01*
X100019289Y-67685616D01*
X100118659Y-67536899D01*
X100187106Y-67371654D01*
X100222000Y-67196230D01*
X100222000Y-67017370D01*
X100187106Y-66841946D01*
X100118659Y-66676701D01*
X100025200Y-66536830D01*
X100025200Y-65160525D01*
X100028640Y-65125599D01*
X100025200Y-65090673D01*
X100025200Y-65090664D01*
X100014909Y-64986180D01*
X99974242Y-64852119D01*
X99908202Y-64728567D01*
X99900515Y-64719200D01*
X99933813Y-64719200D01*
X101092001Y-65877390D01*
G37*
X101092001Y-65877390D02*
X101092000Y-70063556D01*
X100937525Y-70166772D01*
X100748372Y-70355925D01*
X100599756Y-70578346D01*
X100497387Y-70825486D01*
X100445200Y-71087849D01*
X100445200Y-71355351D01*
X100497387Y-71617714D01*
X100557816Y-71763601D01*
X99744189Y-71763601D01*
X99181201Y-71200614D01*
X99158927Y-71173473D01*
X99050633Y-71084598D01*
X98927081Y-71018558D01*
X98793020Y-70977891D01*
X98688536Y-70967600D01*
X98688526Y-70967600D01*
X98653600Y-70964160D01*
X98618674Y-70967600D01*
X98549456Y-70967600D01*
X98516697Y-70906312D01*
X98422125Y-70791075D01*
X98306888Y-70696503D01*
X98273768Y-70678800D01*
X98306888Y-70661097D01*
X98422125Y-70566525D01*
X98516697Y-70451288D01*
X98586971Y-70319815D01*
X98630245Y-70177159D01*
X98644857Y-70028801D01*
X98644857Y-69328799D01*
X98630245Y-69180441D01*
X98586971Y-69037785D01*
X98516697Y-68906312D01*
X98422125Y-68791075D01*
X98306888Y-68696503D01*
X98175415Y-68626229D01*
X98032759Y-68582955D01*
X97884401Y-68568343D01*
X96984399Y-68568343D01*
X96836041Y-68582955D01*
X96693385Y-68626229D01*
X96561912Y-68696503D01*
X96446675Y-68791075D01*
X96352103Y-68906312D01*
X96319344Y-68967600D01*
X95525788Y-68967600D01*
X94355202Y-67797015D01*
X94332927Y-67769873D01*
X94224633Y-67680998D01*
X94101081Y-67614958D01*
X93967020Y-67574291D01*
X93862536Y-67564000D01*
X93862526Y-67564000D01*
X93827600Y-67560560D01*
X93792674Y-67564000D01*
X93533970Y-67564000D01*
X93394099Y-67470541D01*
X93228854Y-67402094D01*
X93053430Y-67367200D01*
X92874570Y-67367200D01*
X92699146Y-67402094D01*
X92533901Y-67470541D01*
X92394030Y-67564000D01*
X89448588Y-67564000D01*
X89289537Y-67404949D01*
X89347324Y-67357524D01*
X89441897Y-67242287D01*
X89512171Y-67110814D01*
X89555445Y-66968158D01*
X89570057Y-66819800D01*
X89570057Y-65869800D01*
X89555445Y-65721442D01*
X89512171Y-65578786D01*
X89441897Y-65447313D01*
X89428017Y-65430400D01*
X98602801Y-65430400D01*
X98602800Y-66208264D01*
X98602800Y-66536830D01*
X98509341Y-66676701D01*
X98440894Y-66841946D01*
X98406000Y-67017370D01*
X98406000Y-67196230D01*
X98440894Y-67371654D01*
X98509341Y-67536899D01*
X98608711Y-67685616D01*
X98735184Y-67812089D01*
X98883901Y-67911459D01*
X99049146Y-67979906D01*
X99224570Y-68014800D01*
X99403430Y-68014800D01*
X99578854Y-67979906D01*
X99744099Y-67911459D01*
X99892816Y-67812089D01*
X100019289Y-67685616D01*
X100118659Y-67536899D01*
X100187106Y-67371654D01*
X100222000Y-67196230D01*
X100222000Y-67017370D01*
X100187106Y-66841946D01*
X100118659Y-66676701D01*
X100025200Y-66536830D01*
X100025200Y-65160525D01*
X100028640Y-65125599D01*
X100025200Y-65090673D01*
X100025200Y-65090664D01*
X100014909Y-64986180D01*
X99974242Y-64852119D01*
X99908202Y-64728567D01*
X99900515Y-64719200D01*
X99933813Y-64719200D01*
X101092001Y-65877390D01*
G36*
X87502303Y-65447313D02*
G01*
X87432029Y-65578786D01*
X87415401Y-65633600D01*
X84921725Y-65633600D01*
X84886799Y-65630160D01*
X84851873Y-65633600D01*
X84851864Y-65633600D01*
X84747380Y-65643891D01*
X84613319Y-65684558D01*
X84489767Y-65750598D01*
X84381473Y-65839473D01*
X84359202Y-65866610D01*
X84004370Y-66221443D01*
X84002808Y-66205583D01*
X83969492Y-66095755D01*
X83915390Y-65994538D01*
X83842581Y-65905819D01*
X83753862Y-65833010D01*
X83652645Y-65778908D01*
X83542817Y-65745592D01*
X83428600Y-65734343D01*
X83278600Y-65734343D01*
X83164383Y-65745592D01*
X83054555Y-65778908D01*
X82963200Y-65827739D01*
X82963200Y-65535113D01*
X82997832Y-65516602D01*
X83078990Y-65449997D01*
X83098587Y-65430400D01*
X87516183Y-65430400D01*
X87502303Y-65447313D01*
G37*
X87502303Y-65447313D02*
X87432029Y-65578786D01*
X87415401Y-65633600D01*
X84921725Y-65633600D01*
X84886799Y-65630160D01*
X84851873Y-65633600D01*
X84851864Y-65633600D01*
X84747380Y-65643891D01*
X84613319Y-65684558D01*
X84489767Y-65750598D01*
X84381473Y-65839473D01*
X84359202Y-65866610D01*
X84004370Y-66221443D01*
X84002808Y-66205583D01*
X83969492Y-66095755D01*
X83915390Y-65994538D01*
X83842581Y-65905819D01*
X83753862Y-65833010D01*
X83652645Y-65778908D01*
X83542817Y-65745592D01*
X83428600Y-65734343D01*
X83278600Y-65734343D01*
X83164383Y-65745592D01*
X83054555Y-65778908D01*
X82963200Y-65827739D01*
X82963200Y-65535113D01*
X82997832Y-65516602D01*
X83078990Y-65449997D01*
X83098587Y-65430400D01*
X87516183Y-65430400D01*
X87502303Y-65447313D01*
%TD*%
M02*
