%TF.GenerationSoftware,KiCad,Pcbnew,(5.1.6)-1*%
%TF.CreationDate,2020-11-04T18:23:40+01:00*%
%TF.ProjectId,rps_ki,7270735f-6b69-42e6-9b69-6361645f7063,rev?*%
%TF.SameCoordinates,Original*%
%TF.FileFunction,Soldermask,Top*%
%TF.FilePolarity,Negative*%
%FSLAX46Y46*%
G04 Gerber Fmt 4.6, Leading zero omitted, Abs format (unit mm)*
G04 Created by KiCad (PCBNEW (5.1.6)-1) date 2020-11-04 18:23:40*
%MOMM*%
%LPD*%
G01*
G04 APERTURE LIST*
%TA.AperFunction,Profile*%
%ADD10C,0.050000*%
%TD*%
%ADD11O,1.800000X1.800000*%
%ADD12R,1.800000X1.800000*%
%ADD13C,1.800000*%
%ADD14R,3.600000X3.600000*%
%ADD15R,3.300000X1.100000*%
%ADD16R,1.100000X3.300000*%
%ADD17C,3.910000*%
%ADD18R,3.000000X5.500000*%
%ADD19C,1.100000*%
%ADD20R,1.300000X2.300000*%
%ADD21R,1.300000X1.900000*%
%ADD22R,1.700000X1.600000*%
%ADD23R,0.800000X1.700000*%
%ADD24R,1.100000X2.000000*%
%ADD25R,1.900000X2.000000*%
%ADD26R,1.750000X1.400000*%
%ADD27R,1.525000X1.650000*%
%ADD28R,0.550000X1.480000*%
%ADD29R,2.700000X1.600000*%
%ADD30R,1.900000X3.600000*%
%ADD31C,1.700000*%
%ADD32R,1.700000X1.700000*%
%ADD33C,1.300000*%
%ADD34R,1.300000X1.300000*%
%ADD35C,2.100000*%
G04 APERTURE END LIST*
D10*
X109485600Y-91656800D02*
X35485600Y-91656800D01*
X109485600Y-91656800D02*
X109485600Y-91656800D01*
X35485600Y-30656800D02*
X109485600Y-30656800D01*
X109485600Y-30656800D02*
X109485600Y-91656800D01*
X35485600Y-91656800D02*
X35485600Y-30656800D01*
D11*
%TO.C,J5*%
X73304400Y-86004400D03*
X75844400Y-86004400D03*
X78384400Y-86004400D03*
X80924400Y-86004400D03*
X83464400Y-86004400D03*
D12*
X86004400Y-86004400D03*
%TD*%
D13*
%TO.C,J4*%
X101803200Y-78841600D03*
D12*
X104343200Y-78841600D03*
D11*
X101803200Y-76301600D03*
X104343200Y-76301600D03*
X101803200Y-73761600D03*
X104343200Y-73761600D03*
X101803200Y-71221600D03*
X104343200Y-71221600D03*
%TD*%
%TO.C,J1*%
G36*
G01*
X41941600Y-43242800D02*
X41941600Y-41442800D01*
G75*
G02*
X42841600Y-40542800I900000J0D01*
G01*
X44641600Y-40542800D01*
G75*
G02*
X45541600Y-41442800I0J-900000D01*
G01*
X45541600Y-43242800D01*
G75*
G02*
X44641600Y-44142800I-900000J0D01*
G01*
X42841600Y-44142800D01*
G75*
G02*
X41941600Y-43242800I0J900000D01*
G01*
G37*
G36*
G01*
X39191600Y-38667800D02*
X39191600Y-36617800D01*
G75*
G02*
X39966600Y-35842800I775000J0D01*
G01*
X41516600Y-35842800D01*
G75*
G02*
X42291600Y-36617800I0J-775000D01*
G01*
X42291600Y-38667800D01*
G75*
G02*
X41516600Y-39442800I-775000J0D01*
G01*
X39966600Y-39442800D01*
G75*
G02*
X39191600Y-38667800I0J775000D01*
G01*
G37*
D14*
X46741600Y-37642800D03*
%TD*%
D15*
%TO.C,SW4*%
X62440400Y-64617600D03*
X69240400Y-64617600D03*
X69240400Y-68617600D03*
X62440400Y-68617600D03*
%TD*%
D16*
%TO.C,SW3*%
X86360000Y-35001200D03*
X86360000Y-41801200D03*
X82360000Y-41801200D03*
X82360000Y-35001200D03*
%TD*%
D15*
%TO.C,SW2*%
X69744800Y-82264000D03*
X62944800Y-82264000D03*
X62944800Y-78264000D03*
X69744800Y-78264000D03*
%TD*%
D17*
%TO.C,SW1*%
X54203600Y-42214800D03*
X54203600Y-37514800D03*
X54203600Y-46914800D03*
%TD*%
%TO.C,R12*%
G36*
G01*
X82375632Y-54401200D02*
X83333968Y-54401200D01*
G75*
G02*
X83604800Y-54672032I0J-270832D01*
G01*
X83604800Y-55430368D01*
G75*
G02*
X83333968Y-55701200I-270832J0D01*
G01*
X82375632Y-55701200D01*
G75*
G02*
X82104800Y-55430368I0J270832D01*
G01*
X82104800Y-54672032D01*
G75*
G02*
X82375632Y-54401200I270832J0D01*
G01*
G37*
G36*
G01*
X82375632Y-52401200D02*
X83333968Y-52401200D01*
G75*
G02*
X83604800Y-52672032I0J-270832D01*
G01*
X83604800Y-53430368D01*
G75*
G02*
X83333968Y-53701200I-270832J0D01*
G01*
X82375632Y-53701200D01*
G75*
G02*
X82104800Y-53430368I0J270832D01*
G01*
X82104800Y-52672032D01*
G75*
G02*
X82375632Y-52401200I270832J0D01*
G01*
G37*
%TD*%
D18*
%TO.C,L1*%
X68173600Y-39674800D03*
X78073600Y-39674800D03*
%TD*%
D19*
%TO.C,J7*%
X94300800Y-36399600D03*
X102700800Y-36399600D03*
D20*
X105300800Y-36799600D03*
X89800800Y-36799600D03*
D21*
X105300800Y-46199600D03*
D22*
X91300800Y-46399600D03*
D23*
X104100800Y-47599600D03*
X99700800Y-47599600D03*
X100800800Y-47599600D03*
X101900800Y-47599600D03*
X103000800Y-47599600D03*
X97500800Y-47599600D03*
X98600800Y-47599600D03*
X95300800Y-47599600D03*
X96400800Y-47599600D03*
%TD*%
D11*
%TO.C,J6*%
X83947000Y-61569600D03*
X81407000Y-61569600D03*
X78867000Y-61569600D03*
X76327000Y-61569600D03*
X73787000Y-61569600D03*
D12*
X71247000Y-61569600D03*
%TD*%
D11*
%TO.C,J3*%
X63398400Y-86004400D03*
X65938400Y-86004400D03*
D12*
X68478400Y-86004400D03*
%TD*%
D24*
%TO.C,J2*%
X96950700Y-89646200D03*
D25*
X94250700Y-89646200D03*
D26*
X98775700Y-89646200D03*
X92025700Y-89646200D03*
D27*
X97888200Y-87071200D03*
X92913200Y-87071200D03*
D28*
X96700700Y-86986200D03*
X96050700Y-86986200D03*
X95400700Y-86986200D03*
X94750700Y-86986200D03*
X94100700Y-86986200D03*
%TD*%
D29*
%TO.C,D4*%
X40792400Y-88293200D03*
X40792400Y-85293200D03*
%TD*%
%TO.C,D3*%
X49733200Y-88317200D03*
X49733200Y-85317200D03*
%TD*%
%TO.C,D2*%
X58521600Y-88290400D03*
X58521600Y-85290400D03*
%TD*%
D30*
%TO.C,D1*%
X78333600Y-56144800D03*
X78333600Y-51144800D03*
%TD*%
%TO.C,C17*%
G36*
G01*
X87066924Y-46996400D02*
X86059476Y-46996400D01*
G75*
G02*
X85788200Y-46725124I0J271276D01*
G01*
X85788200Y-45992676D01*
G75*
G02*
X86059476Y-45721400I271276J0D01*
G01*
X87066924Y-45721400D01*
G75*
G02*
X87338200Y-45992676I0J-271276D01*
G01*
X87338200Y-46725124D01*
G75*
G02*
X87066924Y-46996400I-271276J0D01*
G01*
G37*
G36*
G01*
X87066924Y-49071400D02*
X86059476Y-49071400D01*
G75*
G02*
X85788200Y-48800124I0J271276D01*
G01*
X85788200Y-48067676D01*
G75*
G02*
X86059476Y-47796400I271276J0D01*
G01*
X87066924Y-47796400D01*
G75*
G02*
X87338200Y-48067676I0J-271276D01*
G01*
X87338200Y-48800124D01*
G75*
G02*
X87066924Y-49071400I-271276J0D01*
G01*
G37*
%TD*%
D31*
%TO.C,C2*%
X55473600Y-56144800D03*
D32*
X55473600Y-53644800D03*
%TD*%
D33*
%TO.C,C1*%
X61823600Y-40714800D03*
D34*
X61823600Y-42214800D03*
%TD*%
%TO.C,U2*%
G36*
G01*
X71748600Y-50009800D02*
X71748600Y-49659800D01*
G75*
G02*
X71923600Y-49484800I175000J0D01*
G01*
X73723600Y-49484800D01*
G75*
G02*
X73898600Y-49659800I0J-175000D01*
G01*
X73898600Y-50009800D01*
G75*
G02*
X73723600Y-50184800I-175000J0D01*
G01*
X71923600Y-50184800D01*
G75*
G02*
X71748600Y-50009800I0J175000D01*
G01*
G37*
G36*
G01*
X71748600Y-51279800D02*
X71748600Y-50929800D01*
G75*
G02*
X71923600Y-50754800I175000J0D01*
G01*
X73723600Y-50754800D01*
G75*
G02*
X73898600Y-50929800I0J-175000D01*
G01*
X73898600Y-51279800D01*
G75*
G02*
X73723600Y-51454800I-175000J0D01*
G01*
X71923600Y-51454800D01*
G75*
G02*
X71748600Y-51279800I0J175000D01*
G01*
G37*
G36*
G01*
X71748600Y-52549800D02*
X71748600Y-52199800D01*
G75*
G02*
X71923600Y-52024800I175000J0D01*
G01*
X73723600Y-52024800D01*
G75*
G02*
X73898600Y-52199800I0J-175000D01*
G01*
X73898600Y-52549800D01*
G75*
G02*
X73723600Y-52724800I-175000J0D01*
G01*
X71923600Y-52724800D01*
G75*
G02*
X71748600Y-52549800I0J175000D01*
G01*
G37*
G36*
G01*
X71748600Y-53819800D02*
X71748600Y-53469800D01*
G75*
G02*
X71923600Y-53294800I175000J0D01*
G01*
X73723600Y-53294800D01*
G75*
G02*
X73898600Y-53469800I0J-175000D01*
G01*
X73898600Y-53819800D01*
G75*
G02*
X73723600Y-53994800I-175000J0D01*
G01*
X71923600Y-53994800D01*
G75*
G02*
X71748600Y-53819800I0J175000D01*
G01*
G37*
G36*
G01*
X71748600Y-55089800D02*
X71748600Y-54739800D01*
G75*
G02*
X71923600Y-54564800I175000J0D01*
G01*
X73723600Y-54564800D01*
G75*
G02*
X73898600Y-54739800I0J-175000D01*
G01*
X73898600Y-55089800D01*
G75*
G02*
X73723600Y-55264800I-175000J0D01*
G01*
X71923600Y-55264800D01*
G75*
G02*
X71748600Y-55089800I0J175000D01*
G01*
G37*
G36*
G01*
X71748600Y-56359800D02*
X71748600Y-56009800D01*
G75*
G02*
X71923600Y-55834800I175000J0D01*
G01*
X73723600Y-55834800D01*
G75*
G02*
X73898600Y-56009800I0J-175000D01*
G01*
X73898600Y-56359800D01*
G75*
G02*
X73723600Y-56534800I-175000J0D01*
G01*
X71923600Y-56534800D01*
G75*
G02*
X71748600Y-56359800I0J175000D01*
G01*
G37*
G36*
G01*
X71748600Y-57629800D02*
X71748600Y-57279800D01*
G75*
G02*
X71923600Y-57104800I175000J0D01*
G01*
X73723600Y-57104800D01*
G75*
G02*
X73898600Y-57279800I0J-175000D01*
G01*
X73898600Y-57629800D01*
G75*
G02*
X73723600Y-57804800I-175000J0D01*
G01*
X71923600Y-57804800D01*
G75*
G02*
X71748600Y-57629800I0J175000D01*
G01*
G37*
G36*
G01*
X62448600Y-57629800D02*
X62448600Y-57279800D01*
G75*
G02*
X62623600Y-57104800I175000J0D01*
G01*
X64423600Y-57104800D01*
G75*
G02*
X64598600Y-57279800I0J-175000D01*
G01*
X64598600Y-57629800D01*
G75*
G02*
X64423600Y-57804800I-175000J0D01*
G01*
X62623600Y-57804800D01*
G75*
G02*
X62448600Y-57629800I0J175000D01*
G01*
G37*
G36*
G01*
X62448600Y-56359800D02*
X62448600Y-56009800D01*
G75*
G02*
X62623600Y-55834800I175000J0D01*
G01*
X64423600Y-55834800D01*
G75*
G02*
X64598600Y-56009800I0J-175000D01*
G01*
X64598600Y-56359800D01*
G75*
G02*
X64423600Y-56534800I-175000J0D01*
G01*
X62623600Y-56534800D01*
G75*
G02*
X62448600Y-56359800I0J175000D01*
G01*
G37*
G36*
G01*
X62448600Y-55089800D02*
X62448600Y-54739800D01*
G75*
G02*
X62623600Y-54564800I175000J0D01*
G01*
X64423600Y-54564800D01*
G75*
G02*
X64598600Y-54739800I0J-175000D01*
G01*
X64598600Y-55089800D01*
G75*
G02*
X64423600Y-55264800I-175000J0D01*
G01*
X62623600Y-55264800D01*
G75*
G02*
X62448600Y-55089800I0J175000D01*
G01*
G37*
G36*
G01*
X62448600Y-53819800D02*
X62448600Y-53469800D01*
G75*
G02*
X62623600Y-53294800I175000J0D01*
G01*
X64423600Y-53294800D01*
G75*
G02*
X64598600Y-53469800I0J-175000D01*
G01*
X64598600Y-53819800D01*
G75*
G02*
X64423600Y-53994800I-175000J0D01*
G01*
X62623600Y-53994800D01*
G75*
G02*
X62448600Y-53819800I0J175000D01*
G01*
G37*
G36*
G01*
X62448600Y-52549800D02*
X62448600Y-52199800D01*
G75*
G02*
X62623600Y-52024800I175000J0D01*
G01*
X64423600Y-52024800D01*
G75*
G02*
X64598600Y-52199800I0J-175000D01*
G01*
X64598600Y-52549800D01*
G75*
G02*
X64423600Y-52724800I-175000J0D01*
G01*
X62623600Y-52724800D01*
G75*
G02*
X62448600Y-52549800I0J175000D01*
G01*
G37*
G36*
G01*
X62448600Y-51279800D02*
X62448600Y-50929800D01*
G75*
G02*
X62623600Y-50754800I175000J0D01*
G01*
X64423600Y-50754800D01*
G75*
G02*
X64598600Y-50929800I0J-175000D01*
G01*
X64598600Y-51279800D01*
G75*
G02*
X64423600Y-51454800I-175000J0D01*
G01*
X62623600Y-51454800D01*
G75*
G02*
X62448600Y-51279800I0J175000D01*
G01*
G37*
G36*
G01*
X62448600Y-50009800D02*
X62448600Y-49659800D01*
G75*
G02*
X62623600Y-49484800I175000J0D01*
G01*
X64423600Y-49484800D01*
G75*
G02*
X64598600Y-49659800I0J-175000D01*
G01*
X64598600Y-50009800D01*
G75*
G02*
X64423600Y-50184800I-175000J0D01*
G01*
X62623600Y-50184800D01*
G75*
G02*
X62448600Y-50009800I0J175000D01*
G01*
G37*
%TD*%
%TO.C,R17*%
G36*
G01*
X41228000Y-81505168D02*
X41228000Y-80546832D01*
G75*
G02*
X41498832Y-80276000I270832J0D01*
G01*
X42257168Y-80276000D01*
G75*
G02*
X42528000Y-80546832I0J-270832D01*
G01*
X42528000Y-81505168D01*
G75*
G02*
X42257168Y-81776000I-270832J0D01*
G01*
X41498832Y-81776000D01*
G75*
G02*
X41228000Y-81505168I0J270832D01*
G01*
G37*
G36*
G01*
X39228000Y-81505168D02*
X39228000Y-80546832D01*
G75*
G02*
X39498832Y-80276000I270832J0D01*
G01*
X40257168Y-80276000D01*
G75*
G02*
X40528000Y-80546832I0J-270832D01*
G01*
X40528000Y-81505168D01*
G75*
G02*
X40257168Y-81776000I-270832J0D01*
G01*
X39498832Y-81776000D01*
G75*
G02*
X39228000Y-81505168I0J270832D01*
G01*
G37*
%TD*%
%TO.C,R16*%
G36*
G01*
X45792768Y-86940400D02*
X44834432Y-86940400D01*
G75*
G02*
X44563600Y-86669568I0J270832D01*
G01*
X44563600Y-85911232D01*
G75*
G02*
X44834432Y-85640400I270832J0D01*
G01*
X45792768Y-85640400D01*
G75*
G02*
X46063600Y-85911232I0J-270832D01*
G01*
X46063600Y-86669568D01*
G75*
G02*
X45792768Y-86940400I-270832J0D01*
G01*
G37*
G36*
G01*
X45792768Y-88940400D02*
X44834432Y-88940400D01*
G75*
G02*
X44563600Y-88669568I0J270832D01*
G01*
X44563600Y-87911232D01*
G75*
G02*
X44834432Y-87640400I270832J0D01*
G01*
X45792768Y-87640400D01*
G75*
G02*
X46063600Y-87911232I0J-270832D01*
G01*
X46063600Y-88669568D01*
G75*
G02*
X45792768Y-88940400I-270832J0D01*
G01*
G37*
%TD*%
%TO.C,R15*%
G36*
G01*
X54733568Y-86924400D02*
X53775232Y-86924400D01*
G75*
G02*
X53504400Y-86653568I0J270832D01*
G01*
X53504400Y-85895232D01*
G75*
G02*
X53775232Y-85624400I270832J0D01*
G01*
X54733568Y-85624400D01*
G75*
G02*
X55004400Y-85895232I0J-270832D01*
G01*
X55004400Y-86653568D01*
G75*
G02*
X54733568Y-86924400I-270832J0D01*
G01*
G37*
G36*
G01*
X54733568Y-88924400D02*
X53775232Y-88924400D01*
G75*
G02*
X53504400Y-88653568I0J270832D01*
G01*
X53504400Y-87895232D01*
G75*
G02*
X53775232Y-87624400I270832J0D01*
G01*
X54733568Y-87624400D01*
G75*
G02*
X55004400Y-87895232I0J-270832D01*
G01*
X55004400Y-88653568D01*
G75*
G02*
X54733568Y-88924400I-270832J0D01*
G01*
G37*
%TD*%
%TO.C,R14*%
G36*
G01*
X59984400Y-60785632D02*
X59984400Y-61743968D01*
G75*
G02*
X59713568Y-62014800I-270832J0D01*
G01*
X58955232Y-62014800D01*
G75*
G02*
X58684400Y-61743968I0J270832D01*
G01*
X58684400Y-60785632D01*
G75*
G02*
X58955232Y-60514800I270832J0D01*
G01*
X59713568Y-60514800D01*
G75*
G02*
X59984400Y-60785632I0J-270832D01*
G01*
G37*
G36*
G01*
X61984400Y-60785632D02*
X61984400Y-61743968D01*
G75*
G02*
X61713568Y-62014800I-270832J0D01*
G01*
X60955232Y-62014800D01*
G75*
G02*
X60684400Y-61743968I0J270832D01*
G01*
X60684400Y-60785632D01*
G75*
G02*
X60955232Y-60514800I270832J0D01*
G01*
X61713568Y-60514800D01*
G75*
G02*
X61984400Y-60785632I0J-270832D01*
G01*
G37*
%TD*%
%TO.C,R13*%
G36*
G01*
X73536432Y-67964800D02*
X74494768Y-67964800D01*
G75*
G02*
X74765600Y-68235632I0J-270832D01*
G01*
X74765600Y-68993968D01*
G75*
G02*
X74494768Y-69264800I-270832J0D01*
G01*
X73536432Y-69264800D01*
G75*
G02*
X73265600Y-68993968I0J270832D01*
G01*
X73265600Y-68235632D01*
G75*
G02*
X73536432Y-67964800I270832J0D01*
G01*
G37*
G36*
G01*
X73536432Y-65964800D02*
X74494768Y-65964800D01*
G75*
G02*
X74765600Y-66235632I0J-270832D01*
G01*
X74765600Y-66993968D01*
G75*
G02*
X74494768Y-67264800I-270832J0D01*
G01*
X73536432Y-67264800D01*
G75*
G02*
X73265600Y-66993968I0J270832D01*
G01*
X73265600Y-66235632D01*
G75*
G02*
X73536432Y-65964800I270832J0D01*
G01*
G37*
%TD*%
%TO.C,R11*%
G36*
G01*
X83333968Y-47046400D02*
X82375632Y-47046400D01*
G75*
G02*
X82104800Y-46775568I0J270832D01*
G01*
X82104800Y-46017232D01*
G75*
G02*
X82375632Y-45746400I270832J0D01*
G01*
X83333968Y-45746400D01*
G75*
G02*
X83604800Y-46017232I0J-270832D01*
G01*
X83604800Y-46775568D01*
G75*
G02*
X83333968Y-47046400I-270832J0D01*
G01*
G37*
G36*
G01*
X83333968Y-49046400D02*
X82375632Y-49046400D01*
G75*
G02*
X82104800Y-48775568I0J270832D01*
G01*
X82104800Y-48017232D01*
G75*
G02*
X82375632Y-47746400I270832J0D01*
G01*
X83333968Y-47746400D01*
G75*
G02*
X83604800Y-48017232I0J-270832D01*
G01*
X83604800Y-48775568D01*
G75*
G02*
X83333968Y-49046400I-270832J0D01*
G01*
G37*
%TD*%
%TO.C,R10*%
G36*
G01*
X89836000Y-51692432D02*
X89836000Y-52650768D01*
G75*
G02*
X89565168Y-52921600I-270832J0D01*
G01*
X88806832Y-52921600D01*
G75*
G02*
X88536000Y-52650768I0J270832D01*
G01*
X88536000Y-51692432D01*
G75*
G02*
X88806832Y-51421600I270832J0D01*
G01*
X89565168Y-51421600D01*
G75*
G02*
X89836000Y-51692432I0J-270832D01*
G01*
G37*
G36*
G01*
X91836000Y-51692432D02*
X91836000Y-52650768D01*
G75*
G02*
X91565168Y-52921600I-270832J0D01*
G01*
X90806832Y-52921600D01*
G75*
G02*
X90536000Y-52650768I0J270832D01*
G01*
X90536000Y-51692432D01*
G75*
G02*
X90806832Y-51421600I270832J0D01*
G01*
X91565168Y-51421600D01*
G75*
G02*
X91836000Y-51692432I0J-270832D01*
G01*
G37*
%TD*%
%TO.C,R9*%
G36*
G01*
X104078800Y-54994432D02*
X104078800Y-55952768D01*
G75*
G02*
X103807968Y-56223600I-270832J0D01*
G01*
X103049632Y-56223600D01*
G75*
G02*
X102778800Y-55952768I0J270832D01*
G01*
X102778800Y-54994432D01*
G75*
G02*
X103049632Y-54723600I270832J0D01*
G01*
X103807968Y-54723600D01*
G75*
G02*
X104078800Y-54994432I0J-270832D01*
G01*
G37*
G36*
G01*
X106078800Y-54994432D02*
X106078800Y-55952768D01*
G75*
G02*
X105807968Y-56223600I-270832J0D01*
G01*
X105049632Y-56223600D01*
G75*
G02*
X104778800Y-55952768I0J270832D01*
G01*
X104778800Y-54994432D01*
G75*
G02*
X105049632Y-54723600I270832J0D01*
G01*
X105807968Y-54723600D01*
G75*
G02*
X106078800Y-54994432I0J-270832D01*
G01*
G37*
%TD*%
%TO.C,R8*%
G36*
G01*
X89836000Y-54943632D02*
X89836000Y-55901968D01*
G75*
G02*
X89565168Y-56172800I-270832J0D01*
G01*
X88806832Y-56172800D01*
G75*
G02*
X88536000Y-55901968I0J270832D01*
G01*
X88536000Y-54943632D01*
G75*
G02*
X88806832Y-54672800I270832J0D01*
G01*
X89565168Y-54672800D01*
G75*
G02*
X89836000Y-54943632I0J-270832D01*
G01*
G37*
G36*
G01*
X91836000Y-54943632D02*
X91836000Y-55901968D01*
G75*
G02*
X91565168Y-56172800I-270832J0D01*
G01*
X90806832Y-56172800D01*
G75*
G02*
X90536000Y-55901968I0J270832D01*
G01*
X90536000Y-54943632D01*
G75*
G02*
X90806832Y-54672800I270832J0D01*
G01*
X91565168Y-54672800D01*
G75*
G02*
X91836000Y-54943632I0J-270832D01*
G01*
G37*
%TD*%
%TO.C,R7*%
G36*
G01*
X104094800Y-51641632D02*
X104094800Y-52599968D01*
G75*
G02*
X103823968Y-52870800I-270832J0D01*
G01*
X103065632Y-52870800D01*
G75*
G02*
X102794800Y-52599968I0J270832D01*
G01*
X102794800Y-51641632D01*
G75*
G02*
X103065632Y-51370800I270832J0D01*
G01*
X103823968Y-51370800D01*
G75*
G02*
X104094800Y-51641632I0J-270832D01*
G01*
G37*
G36*
G01*
X106094800Y-51641632D02*
X106094800Y-52599968D01*
G75*
G02*
X105823968Y-52870800I-270832J0D01*
G01*
X105065632Y-52870800D01*
G75*
G02*
X104794800Y-52599968I0J270832D01*
G01*
X104794800Y-51641632D01*
G75*
G02*
X105065632Y-51370800I270832J0D01*
G01*
X105823968Y-51370800D01*
G75*
G02*
X106094800Y-51641632I0J-270832D01*
G01*
G37*
%TD*%
%TO.C,R6*%
G36*
G01*
X89836000Y-58347232D02*
X89836000Y-59305568D01*
G75*
G02*
X89565168Y-59576400I-270832J0D01*
G01*
X88806832Y-59576400D01*
G75*
G02*
X88536000Y-59305568I0J270832D01*
G01*
X88536000Y-58347232D01*
G75*
G02*
X88806832Y-58076400I270832J0D01*
G01*
X89565168Y-58076400D01*
G75*
G02*
X89836000Y-58347232I0J-270832D01*
G01*
G37*
G36*
G01*
X91836000Y-58347232D02*
X91836000Y-59305568D01*
G75*
G02*
X91565168Y-59576400I-270832J0D01*
G01*
X90806832Y-59576400D01*
G75*
G02*
X90536000Y-59305568I0J270832D01*
G01*
X90536000Y-58347232D01*
G75*
G02*
X90806832Y-58076400I270832J0D01*
G01*
X91565168Y-58076400D01*
G75*
G02*
X91836000Y-58347232I0J-270832D01*
G01*
G37*
%TD*%
%TO.C,R3*%
G36*
G01*
X91614368Y-80930000D02*
X90656032Y-80930000D01*
G75*
G02*
X90385200Y-80659168I0J270832D01*
G01*
X90385200Y-79900832D01*
G75*
G02*
X90656032Y-79630000I270832J0D01*
G01*
X91614368Y-79630000D01*
G75*
G02*
X91885200Y-79900832I0J-270832D01*
G01*
X91885200Y-80659168D01*
G75*
G02*
X91614368Y-80930000I-270832J0D01*
G01*
G37*
G36*
G01*
X91614368Y-82930000D02*
X90656032Y-82930000D01*
G75*
G02*
X90385200Y-82659168I0J270832D01*
G01*
X90385200Y-81900832D01*
G75*
G02*
X90656032Y-81630000I270832J0D01*
G01*
X91614368Y-81630000D01*
G75*
G02*
X91885200Y-81900832I0J-270832D01*
G01*
X91885200Y-82659168D01*
G75*
G02*
X91614368Y-82930000I-270832J0D01*
G01*
G37*
%TD*%
%TO.C,R2*%
G36*
G01*
X95221168Y-80930000D02*
X94262832Y-80930000D01*
G75*
G02*
X93992000Y-80659168I0J270832D01*
G01*
X93992000Y-79900832D01*
G75*
G02*
X94262832Y-79630000I270832J0D01*
G01*
X95221168Y-79630000D01*
G75*
G02*
X95492000Y-79900832I0J-270832D01*
G01*
X95492000Y-80659168D01*
G75*
G02*
X95221168Y-80930000I-270832J0D01*
G01*
G37*
G36*
G01*
X95221168Y-82930000D02*
X94262832Y-82930000D01*
G75*
G02*
X93992000Y-82659168I0J270832D01*
G01*
X93992000Y-81900832D01*
G75*
G02*
X94262832Y-81630000I270832J0D01*
G01*
X95221168Y-81630000D01*
G75*
G02*
X95492000Y-81900832I0J-270832D01*
G01*
X95492000Y-82659168D01*
G75*
G02*
X95221168Y-82930000I-270832J0D01*
G01*
G37*
%TD*%
%TO.C,R1*%
G36*
G01*
X98878768Y-80964800D02*
X97920432Y-80964800D01*
G75*
G02*
X97649600Y-80693968I0J270832D01*
G01*
X97649600Y-79935632D01*
G75*
G02*
X97920432Y-79664800I270832J0D01*
G01*
X98878768Y-79664800D01*
G75*
G02*
X99149600Y-79935632I0J-270832D01*
G01*
X99149600Y-80693968D01*
G75*
G02*
X98878768Y-80964800I-270832J0D01*
G01*
G37*
G36*
G01*
X98878768Y-82964800D02*
X97920432Y-82964800D01*
G75*
G02*
X97649600Y-82693968I0J270832D01*
G01*
X97649600Y-81935632D01*
G75*
G02*
X97920432Y-81664800I270832J0D01*
G01*
X98878768Y-81664800D01*
G75*
G02*
X99149600Y-81935632I0J-270832D01*
G01*
X99149600Y-82693968D01*
G75*
G02*
X98878768Y-82964800I-270832J0D01*
G01*
G37*
%TD*%
%TO.C,C18*%
G36*
G01*
X66977300Y-61768524D02*
X66977300Y-60761076D01*
G75*
G02*
X67248576Y-60489800I271276J0D01*
G01*
X67981024Y-60489800D01*
G75*
G02*
X68252300Y-60761076I0J-271276D01*
G01*
X68252300Y-61768524D01*
G75*
G02*
X67981024Y-62039800I-271276J0D01*
G01*
X67248576Y-62039800D01*
G75*
G02*
X66977300Y-61768524I0J271276D01*
G01*
G37*
G36*
G01*
X64902300Y-61768524D02*
X64902300Y-60761076D01*
G75*
G02*
X65173576Y-60489800I271276J0D01*
G01*
X65906024Y-60489800D01*
G75*
G02*
X66177300Y-60761076I0J-271276D01*
G01*
X66177300Y-61768524D01*
G75*
G02*
X65906024Y-62039800I-271276J0D01*
G01*
X65173576Y-62039800D01*
G75*
G02*
X64902300Y-61768524I0J271276D01*
G01*
G37*
%TD*%
%TO.C,C14*%
G36*
G01*
X64357200Y-75484524D02*
X64357200Y-74477076D01*
G75*
G02*
X64628476Y-74205800I271276J0D01*
G01*
X65360924Y-74205800D01*
G75*
G02*
X65632200Y-74477076I0J-271276D01*
G01*
X65632200Y-75484524D01*
G75*
G02*
X65360924Y-75755800I-271276J0D01*
G01*
X64628476Y-75755800D01*
G75*
G02*
X64357200Y-75484524I0J271276D01*
G01*
G37*
G36*
G01*
X62282200Y-75484524D02*
X62282200Y-74477076D01*
G75*
G02*
X62553476Y-74205800I271276J0D01*
G01*
X63285924Y-74205800D01*
G75*
G02*
X63557200Y-74477076I0J-271276D01*
G01*
X63557200Y-75484524D01*
G75*
G02*
X63285924Y-75755800I-271276J0D01*
G01*
X62553476Y-75755800D01*
G75*
G02*
X62282200Y-75484524I0J271276D01*
G01*
G37*
%TD*%
%TO.C,C11*%
G36*
G01*
X97034400Y-51617076D02*
X97034400Y-52624524D01*
G75*
G02*
X96763124Y-52895800I-271276J0D01*
G01*
X96030676Y-52895800D01*
G75*
G02*
X95759400Y-52624524I0J271276D01*
G01*
X95759400Y-51617076D01*
G75*
G02*
X96030676Y-51345800I271276J0D01*
G01*
X96763124Y-51345800D01*
G75*
G02*
X97034400Y-51617076I0J-271276D01*
G01*
G37*
G36*
G01*
X99109400Y-51617076D02*
X99109400Y-52624524D01*
G75*
G02*
X98838124Y-52895800I-271276J0D01*
G01*
X98105676Y-52895800D01*
G75*
G02*
X97834400Y-52624524I0J271276D01*
G01*
X97834400Y-51617076D01*
G75*
G02*
X98105676Y-51345800I271276J0D01*
G01*
X98838124Y-51345800D01*
G75*
G02*
X99109400Y-51617076I0J-271276D01*
G01*
G37*
%TD*%
%TO.C,C9*%
G36*
G01*
X97055900Y-58322676D02*
X97055900Y-59330124D01*
G75*
G02*
X96784624Y-59601400I-271276J0D01*
G01*
X96052176Y-59601400D01*
G75*
G02*
X95780900Y-59330124I0J271276D01*
G01*
X95780900Y-58322676D01*
G75*
G02*
X96052176Y-58051400I271276J0D01*
G01*
X96784624Y-58051400D01*
G75*
G02*
X97055900Y-58322676I0J-271276D01*
G01*
G37*
G36*
G01*
X99130900Y-58322676D02*
X99130900Y-59330124D01*
G75*
G02*
X98859624Y-59601400I-271276J0D01*
G01*
X98127176Y-59601400D01*
G75*
G02*
X97855900Y-59330124I0J271276D01*
G01*
X97855900Y-58322676D01*
G75*
G02*
X98127176Y-58051400I271276J0D01*
G01*
X98859624Y-58051400D01*
G75*
G02*
X99130900Y-58322676I0J-271276D01*
G01*
G37*
%TD*%
%TO.C,C7*%
G36*
G01*
X97012900Y-54919076D02*
X97012900Y-55926524D01*
G75*
G02*
X96741624Y-56197800I-271276J0D01*
G01*
X96009176Y-56197800D01*
G75*
G02*
X95737900Y-55926524I0J271276D01*
G01*
X95737900Y-54919076D01*
G75*
G02*
X96009176Y-54647800I271276J0D01*
G01*
X96741624Y-54647800D01*
G75*
G02*
X97012900Y-54919076I0J-271276D01*
G01*
G37*
G36*
G01*
X99087900Y-54919076D02*
X99087900Y-55926524D01*
G75*
G02*
X98816624Y-56197800I-271276J0D01*
G01*
X98084176Y-56197800D01*
G75*
G02*
X97812900Y-55926524I0J271276D01*
G01*
X97812900Y-54919076D01*
G75*
G02*
X98084176Y-54647800I271276J0D01*
G01*
X98816624Y-54647800D01*
G75*
G02*
X99087900Y-54919076I0J-271276D01*
G01*
G37*
%TD*%
D35*
%TO.C,BT2*%
X49123600Y-61584800D03*
X49123600Y-81584800D03*
%TD*%
D11*
%TO.C,BT1*%
X46583600Y-51104800D03*
D12*
X46583600Y-48564800D03*
%TD*%
M02*
