M48
; DRILL file {KiCad (5.1.6)-1} date 11/04/20 18:25:40
; FORMAT={-:-/ absolute / inch / decimal}
; #@! TF.CreationDate,2020-11-04T18:25:40+01:00
; #@! TF.GenerationSoftware,Kicad,Pcbnew,(5.1.6)-1
FMAT,2
INCH
T1C0.0157
T2C0.0236
T3C0.0315
T4C0.0394
T5C0.0400
T6C0.0512
T7C0.0724
T8C0.0728
%
G90
G05
T1
X2.578Y-2.63
X2.714Y-2.624
X2.756Y-2.77
X2.756Y-2.818
X2.79Y-2.848
X2.928Y-3.172
X2.928Y-3.24
X3.016Y-2.95
X3.05Y-2.8644
X3.074Y-2.77
X3.086Y-2.95
X3.122Y-2.98
X3.166Y-2.98
X3.166Y-3.29
X3.188Y-2.548
X3.208Y-3.268
X3.218Y-2.236
X3.224Y-2.982
X3.242Y-3.236
X3.32Y-2.5796
X3.3348Y-1.8252
X3.56Y-2.832
X3.56Y-2.878
X3.562Y-2.95
X3.59Y-2.12
X3.65Y-2.612
X3.66Y-2.688
X3.67Y-2.316
X3.686Y-3.08
X3.724Y-2.246
X3.878Y-2.424
X3.91Y-2.642
X3.966Y-1.972
X4.07Y-2.326
T2
X2.434Y-1.6029
X2.434Y-1.662
T3
X2.184Y-2.112
X2.184Y-2.2104
T4
X3.7126Y-1.4331
X4.0433Y-1.4331
X4.008Y-2.804
X4.008Y-2.904
X4.008Y-3.004
X4.008Y-3.104
X4.108Y-2.804
X4.108Y-2.904
X4.108Y-3.004
X4.108Y-3.104
X1.834Y-1.912
X1.834Y-2.012
X2.496Y-3.386
X2.596Y-3.386
X2.696Y-3.386
X2.805Y-2.424
X2.905Y-2.424
X3.005Y-2.424
X3.105Y-2.424
X3.205Y-2.424
X3.305Y-2.424
X2.886Y-3.386
X2.986Y-3.386
X3.086Y-3.386
X3.186Y-3.386
X3.286Y-3.386
X3.386Y-3.386
T5
X2.742Y-2.116
T6
X1.934Y-2.4246
X1.934Y-3.212
T7
X2.134Y-1.662
T8
X2.134Y-1.477
X2.134Y-1.847
T4
G00X1.604Y-1.4426
M15
G01X1.604Y-1.5214
M16
G05
G00X1.6827Y-1.667
M15
G01X1.7615Y-1.667
M16
G05
G00X1.8402Y-1.4426
M15
G01X1.8402Y-1.5214
M16
G05
T0
M30
